<svg width="84" height="84" viewBox="0 0 84 84" fill="none" xmlns="http://www.w3.org/2000/svg">
<g id="Buttons/Square/Repeat/Default">
<g id="Button/Square/Fill/Default">
<path id="Vector" d="M66.8869 2.01163C66.1546 1.36004 65.2084 1.00006 64.2281 1.00007L41 1.00008H19.9781C19.0067 1.00008 18.0685 1.35358 17.3386 1.99458L17.3386 1.99458L2.3605 15.1487C1.49574 15.9081 1 17.0033 1 18.1542V65.2022C1 66.3064 1.45648 67.3615 2.2613 68.1176L16.9494 81.9155C17.6911 82.6122 18.6705 83.0001 19.6881 83.0001H44H64.3119C65.3295 83.0001 66.3089 82.6122 67.0506 81.9154L81.7387 68.1175C82.5435 67.3615 82.9999 66.3064 82.9999 65.2022V18.1426C82.9999 17.0006 82.5119 15.9132 81.6588 15.1541L66.8869 2.01163Z" fill="#725952" stroke="#725952" stroke-width="2"/>
<path id="Vector_2" d="M66.2222 6.28797C65.673 5.79928 64.9633 5.5293 64.2281 5.5293L48 5.52931H22.8635C22.2047 5.52931 21.5643 5.74613 21.041 6.14628L3.66156 19.4371C2.92842 19.9978 2.49415 20.8647 2.48415 21.7876L2.01425 65.1303C2.00516 65.9678 2.34666 66.7711 2.95614 67.3457L17.6333 81.1827C18.1899 81.7075 18.9261 81.9998 19.6912 81.9998H42H64.1998C64.952 81.9998 65.6768 81.7172 66.2305 81.208L81.0307 67.5971C81.6484 67.029 81.9999 66.2282 81.9999 65.3889V21.6718C81.9999 20.8153 81.6339 19.9997 80.9941 19.4305L66.2222 6.28797Z" fill="#5F443C"/>
<path id="Vector_3" d="M66.2222 2.75868C65.673 2.26998 64.9633 2 64.2281 2L51 2.00002L19.9781 2.00002C19.2496 2.00002 18.5459 2.26514 17.9985 2.74589L3.02038 15.9C2.3718 16.4696 2 17.2909 2 18.1541V61.848C2 62.694 2.35719 63.5007 2.98358 64.0693L17.99 77.6918C18.542 78.1929 19.2608 78.4705 20.0064 78.4705H44H64.1998C64.952 78.4705 65.6768 78.1879 66.2305 77.6787L81.0307 64.0678C81.6484 63.4997 81.9999 62.6989 81.9999 61.8596V18.1425C81.9999 17.286 81.6339 16.4704 80.9941 15.9012L66.2222 2.75868Z" fill="#96786F"/>
<g id="Texture">
<mask id="mask0_690_12482" style="mask-type:alpha" maskUnits="userSpaceOnUse" x="2" y="2" width="80" height="77">
<path id="Vector_4" d="M66.2222 2.75868C65.673 2.26998 64.9633 2 64.2281 2L41 2.00002H19.9781C19.2496 2.00002 18.5459 2.26514 17.9985 2.74589L3.02038 15.9C2.3718 16.4696 2 17.2909 2 18.1541V61.848C2 62.694 2.35719 63.5007 2.98358 64.0693L17.99 77.6918C18.542 78.1929 19.2608 78.4705 20.0064 78.4705H44H64.1998C64.952 78.4705 65.6768 78.1879 66.2305 77.6787L81.0307 64.0678C81.6484 63.4997 81.9999 62.6989 81.9999 61.8596V18.1425C81.9999 17.286 81.6339 16.4704 80.9941 15.9012L66.2222 2.75868Z" fill="#96786F"/>
</mask>
<g mask="url(#mask0_690_12482)">
<g id="Group">
<path id="Vector_5" fill-rule="evenodd" clip-rule="evenodd" d="M11.6546 78.9883C41.8782 84.374 72.379 87.9763 103.006 89.7775C104.522 86.4657 105.886 83.0763 107.099 79.6093C107.806 77.617 108.463 75.6248 109.069 73.5808C110.206 69.7774 111.191 65.8188 112 61.9378C106.796 61.5239 101.617 60.9546 96.4125 60.3078C52.202 54.7968 9.07779 42.4294 -35.3095 37.4358C-56.6842 34.8209 -78.1802 33.3786 -99.7053 33.115C-113.179 33.043 -126.641 33.9074 -140 35.7023C-140 39.5316 -139.823 43.3091 -139.495 47.0607C-139.495 47.9145 -139.318 48.7425 -139.242 49.648C-138.751 54.1775 -138.009 59.8266 -137.053 64.2775C-129.474 63.2167 -121.789 61.8064 -114.211 61.4442C-101.963 60.9561 -89.537 62.065 -77.3685 63.5691C-47.2548 67.0879 -18.1306 74.15 11.7557 79.0401L11.6546 78.9883Z" fill="#89716A"/>
<path id="Vector_6" fill-rule="evenodd" clip-rule="evenodd" d="M-42.2199 14.7658C-14.5172 16.9709 12.4799 20.473 40.0812 23.5602C61.3209 26.0103 82.8029 28.3918 104.093 30.1559L114 30.8888C113.772 26.9931 113.366 22.389 112.783 18.6159C112.581 17.2193 112.352 15.8472 112.074 14.4752C111.795 13.1031 111.643 12.2701 111.415 11.1675C100.516 10.016 89.6427 8.7174 78.7441 7.34533C65.1335 5.65475 51.5483 3.93967 37.9123 2.4451C23.4907 0.803523 9.0437 -0.593042 -5.42863 -1.62209C-30.5461 -3.38617 -55.5116 -3.9252 -80.5784 -3.31267C-90.1083 -3.06766 -99.6636 -2.67564 -109.244 -2.13661L-111.576 -1.96511C-119.509 -1.52409 -127.442 -1.05856 -135.35 -0.495037C-136.852 4.03644 -138.071 9.36032 -139 14.033C-133.424 13.5185 -127.947 13.1216 -122.371 12.9011C-95.7612 12.0759 -68.7358 12.4556 -42.2199 14.7658Z" fill="#88716A"/>
<path id="Vector_7" fill-rule="evenodd" clip-rule="evenodd" d="M-58.7241 -77.5786C-29.0274 -78.839 0.725235 -77.2702 30.1053 -72.8948L49.6438 -69.8454C52.5897 -68.2353 55.4348 -66.5032 58.2045 -64.6736C49.3417 -66.3569 40.5796 -68.0889 31.6161 -69.699C18.1914 -72.2094 4.64514 -74.0658 -8.97154 -75.2611C-24.3135 -76.4686 -39.7313 -76.4686 -55.0732 -75.2611C-58.7996 -74.9927 -62.5009 -74.7 -66.2273 -74.3585C-63.7094 -75.4806 -61.1916 -76.5052 -58.6737 -77.4567L-58.7241 -77.5786ZM81.4693 -45.0111C71.0119 -45.7917 60.5461 -46.735 50.0718 -47.8409C36.4251 -49.4022 23.2568 -53.7201 9.61012 -55.3546C-2.91969 -56.8212 -15.5382 -57.457 -28.1575 -57.2575C-39.9913 -57.0867 -51.7748 -56.2329 -63.5583 -55.0375C-76.4749 -53.7201 -89.341 -52.0125 -102.232 -50.4268C-100.873 -51.7197 -99.4879 -53.0127 -98.0779 -54.2324C-86.7477 -55.379 -75.4174 -56.4524 -64.1123 -57.2331C-52.2281 -58.0381 -40.3187 -58.4772 -28.3841 -58.3308C-15.6247 -58.2204 -2.88148 -57.4223 9.78639 -55.9401C23.2317 -54.3544 36.5259 -51.671 50.0718 -50.8171C59.1613 -50.2316 68.2255 -49.7193 77.3149 -49.2558C78.6997 -47.9141 80.0593 -46.5236 81.3686 -45.0843L81.4693 -45.0111ZM-112.858 -38.8635C-109.131 -38.8635 -105.304 -39.1318 -101.678 -39.3514C-89.3159 -39.9857 -77.1043 -41.547 -64.8424 -43.0107C-53.3178 -44.571 -41.7059 -45.4508 -30.071 -45.6453C-3.75961 -45.6453 22.1993 -41.5226 48.3345 -39.2538C61.763 -38.0828 75.2922 -37.107 88.9221 -36.3264C89.5012 -35.5701 90.0803 -34.8139 90.6342 -34.0332L86.4043 -34.448C73.6892 -35.6433 60.9741 -36.8875 48.2338 -38.0828C22.2245 -40.4004 -3.68407 -44.4988 -29.8193 -44.572C-41.5065 -44.3941 -53.1741 -43.5797 -64.7669 -42.1324C-76.8777 -40.8151 -88.9634 -39.3758 -101.125 -38.7415C-105.229 -38.522 -109.308 -38.3024 -113.412 -38.034L-112.858 -38.8635ZM-109.685 -26.6659C-95.1824 -27.91 -80.8559 -30.252 -66.2273 -31.0326C-48.8077 -31.8298 -31.3551 -31.6506 -13.9569 -30.4959C1.15018 -29.5933 16.0558 -28.3248 31.0873 -27.2758C46.1188 -26.2268 61.5028 -25.251 76.7358 -24.3972C83.685 -24.0068 90.6594 -23.6409 97.6087 -23.2994C98.1878 -22.3236 98.7165 -21.3722 99.2705 -20.3963C84.6922 -21.4941 70.2146 -22.6651 55.5607 -23.7141C47.4365 -24.3158 39.3039 -24.8769 31.1629 -25.3974C13.538 -26.5195 -4.08691 -27.8369 -21.5859 -28.5931C-36.4142 -29.4955 -51.2803 -29.6665 -66.1265 -29.1054C-80.6545 -28.3248 -95.1824 -27.5685 -109.685 -26.6659ZM106.648 -4.17355C89.8537 -5.3933 73.1101 -6.97899 56.3665 -8.58907C39.6228 -10.1992 23.3576 -11.8336 6.84052 -13.151C-8.26653 -14.3707 -23.3736 -15.8588 -38.4806 -17.1762C-52.0014 -18.3715 -65.5474 -19.3717 -79.0934 -19.6157C-94.9694 -20.059 -110.858 -19.3741 -126.63 -17.5665L-126.177 -18.7375C-114.268 -19.884 -102.333 -20.4939 -90.2978 -20.5915C-74.7376 -20.7379 -59.1773 -20.0792 -43.6674 -19.079C-26.7979 -18.0056 -9.95349 -16.6395 6.89087 -15.2002C29.9291 -13.3461 52.8666 -11.3701 75.8545 -9.73566C85.6238 -9.02007 95.4182 -8.39391 105.238 -7.85722C105.741 -6.63746 106.195 -5.4177 106.648 -4.17355ZM-133.353 -1.97798C-124.943 -2.73423 -116.483 -3.27094 -108.174 -3.71004C-63.2319 -5.64163 -18.2143 -5.21816 26.6811 -2.4415C54.5788 -0.928993 82.1995 3.09621 109.896 6.48714C110.349 8.1704 110.752 9.90246 111.129 11.6101C100.303 10.4635 89.4508 9.17062 78.6241 7.80448C65.1033 6.12122 51.6077 4.41355 38.0617 2.92545C23.7352 1.29096 9.38353 -0.099556 -4.99335 -1.12415C-39.3543 -3.50679 -73.8405 -3.67793 -108.225 -1.63645C-116.886 -1.12415 -125.573 -0.660645 -134.234 -0.00197601C-134.033 -0.660645 -133.806 -1.29492 -133.58 -1.92919L-133.353 -1.97798ZM-130.18 84.6249C-111.951 81.4047 -92.0099 82.5269 -69.7522 89.3576C-49.0807 95.7003 -28.4344 102.287 -7.63707 108.288C8.98111 113.218 25.8576 117.289 42.9212 120.486C53.9745 122.486 65.0278 123.901 76.1567 124.828C74.5956 126.316 72.9842 127.78 71.3476 129.195C61.0496 127.756 50.8524 125.853 40.6299 123.511C23.7856 119.705 7.26854 114.826 -9.42474 110.093C-29.8193 104.214 -50.1634 98.5057 -70.7845 93.4072C-89.1801 88.5381 -108.465 87.7047 -127.235 90.9676C-128.267 88.8941 -129.249 86.7717 -130.18 84.6249ZM-137.029 63.5962C-129.475 62.5716 -121.441 61.035 -113.888 60.6935C-101.681 60.2333 -89.937 61.6414 -77.8093 63.0596C-47.7967 66.3773 -18.489 73.9642 11.2971 78.5749C41.4368 83.6438 71.852 87.0322 102.393 88.7233C101.511 90.6017 100.555 92.4557 99.5726 94.2854C97.0548 94.139 94.2851 93.9682 91.6666 93.7731C64.1098 91.4046 36.7194 87.4785 9.63531 82.0146C-2.47551 79.7215 -14.5611 77.1356 -26.6216 74.696C-37.9015 72.2565 -49.2822 69.817 -60.5369 67.6702C-70.6083 65.7674 -80.6797 64.0598 -90.751 63.0596C-99.166 62.0574 -105.452 62.2357 -113.888 63.0596C-120.636 63.889 -129.677 64.5964 -136.45 65.8162L-137.029 63.5962ZM-139.924 34.81C-123.987 32.8507 -107.921 32.0353 -91.8589 32.3704C-73.2772 32.6388 -54.6955 33.9561 -36.1894 35.4686C-13.8561 37.2739 8.32602 40.6404 30.4075 44.1777C57.6254 48.52 85.0698 53.2283 112.59 55.741C112.237 58.0098 111.834 60.2541 111.356 62.4741C106.144 62.0837 100.957 61.547 95.7455 60.9372C51.6833 55.741 8.7037 44.0801 -35.5348 39.3718C-56.8378 36.9063 -78.2616 35.5464 -99.7145 35.2979C-113.185 35.2156 -126.645 36.0307 -140 37.7374V37.2251C-140 36.42 -140 35.615 -140 34.7855L-139.924 34.81ZM-137.608 13.7081C-132.069 13.2039 -126.521 12.838 -120.965 12.6103C-94.5315 11.7806 -68.0702 12.5138 -41.7286 14.8059C-14.2086 17.0015 13.2106 20.1728 40.6299 23.2466C61.7295 25.6861 82.829 27.9061 103.979 29.6626L113.849 30.4432C113.849 31.8093 113.849 33.1755 114 34.5416L105.464 33.8585C84.2641 31.8825 63.1898 29.443 42.1406 27.0035C14.0667 23.5638 -14.0324 19.9289 -42.207 17.2454C-68.3336 14.511 -94.6211 13.4922 -120.89 14.196C-126.597 14.44 -132.295 14.9035 -137.986 15.5865C-137.885 14.9523 -137.759 14.318 -137.608 13.6837V13.7081ZM19.052 156.298C7.24338 153.663 -4.51495 150.833 -16.1977 147.882C-30.4041 144.016 -44.3188 139.207 -57.8428 133.488C-74.0074 127.024 -90.2475 120.364 -107.293 119.705C-107.948 118.998 -108.603 118.315 -109.232 117.583C-89.0893 117.241 -70.2054 124.511 -50.8936 131.683C-36.3839 137.397 -21.5056 142.188 -6.35298 146.028C5.14516 148.727 16.6852 151.305 28.2673 153.761C25.2459 154.761 22.1742 155.664 19.052 156.444V156.298Z" fill="#7A615A"/>
</g>
</g>
</g>
<path id="Vector_8" d="M62.7181 12.7634C62.1681 12.2718 61.4563 12 60.7186 12L47.1 12H25.8902C25.229 12 24.5865 12.2184 24.0622 12.6212L9.57807 23.7512C8.84988 24.3108 8.41809 25.1731 8.40625 26.0913L8.01693 56.2896C8.00614 57.1268 8.34569 57.9304 8.95352 58.5062L21.1572 70.0668C21.7144 70.5946 22.4528 70.8889 23.2204 70.8889H42H60.6902C61.4449 70.8889 62.1719 70.6044 62.7262 70.0922L75.036 58.717C75.6505 58.1492 76 57.3504 76 56.5137V25.9794C76 25.1254 75.636 24.3119 74.9994 23.7428L62.7181 12.7634Z" fill="#6E544C"/>
<path id="Vector_9" d="M62.7181 10.5413C62.1681 10.0496 61.4563 9.77783 60.7186 9.77783L47.1 9.77785H25.8902C25.229 9.77785 24.5865 9.99623 24.0622 10.3991L9.57807 21.5291C8.84988 22.0886 8.41809 22.9509 8.40625 23.8692L8.01693 54.0674C8.00614 54.9046 8.34569 55.7082 8.95352 56.284L21.1572 67.8446C21.7144 68.3725 22.4528 68.6667 23.2204 68.6667H42H60.6902C61.4449 68.6667 62.1719 68.3822 62.7262 67.87L75.036 56.4949C75.6505 55.927 76 55.1283 76 54.2915V23.7572C76 22.9032 75.636 22.0898 74.9994 21.5206L62.7181 10.5413Z" fill="#8F7F54"/>
<path id="Vector_10" d="M62.7133 7.18999C62.1659 6.70937 61.4624 6.44434 60.7339 6.44434L47.1 6.44435H24.012C23.3114 6.44435 22.6328 6.68959 22.0941 7.13754L9.08202 17.9563C8.39651 18.5263 8 19.3716 8 20.2631L8 50.978C8 51.8112 8.3465 52.6069 8.9565 53.1744L21.1613 64.5296C21.7164 65.0461 22.4465 65.3332 23.2048 65.3332H42H60.7057C61.4511 65.3332 62.1699 65.0557 62.7219 64.5547L75.0161 53.3967C75.6427 52.8281 76 52.0213 76 51.1752V20.2142C76 19.3509 75.6281 18.5294 74.9793 17.9598L62.7133 7.18999Z" fill="#FDE294"/>
</g>
<g id="Icon/Replay">
<g id="Fill" filter="url(#filter0_i_690_12482)">
<path fill-rule="evenodd" clip-rule="evenodd" d="M56.3542 36.7144C56.3542 36.7144 53.0729 36.3573 52.474 39.0515C51.9162 44.22 47.674 48.2388 42.5236 48.2388C36.9932 48.2388 32.5097 43.6053 32.5097 37.8899C32.5097 33.1229 36.5021 30.013 41.0375 29.1128C41.8081 28.9597 42.5236 29.5711 42.5236 30.3817V32.8221C42.5236 33.8667 43.6625 34.4792 44.4902 33.8798L54.5073 26.6341C54.8417 26.3913 55.0407 25.9975 55.0407 25.5753C55.0407 25.1837 54.8682 24.8118 54.5718 24.5668L44.5547 16.2852C43.7355 15.6081 42.5236 16.2108 42.5236 17.2937V19.9419C42.5236 20.5983 42.0483 21.1528 41.4164 21.225C32.6695 22.227 25 28.707 25 37.8899C25 47.8921 32.8452 56.0008 42.5236 56.0008C51.749 56.0008 59.3094 48.6326 59.9963 39.2802C59.9963 37.7858 58.5417 36.7144 56.3542 36.7144Z" fill="#A4925F"/>
</g>
</g>
</g>
<defs>
<filter id="filter0_i_690_12482" x="25" y="15.9995" width="34.9961" height="40.0015" filterUnits="userSpaceOnUse" color-interpolation-filters="sRGB">
<feFlood flood-opacity="0" result="BackgroundImageFix"/>
<feBlend mode="normal" in="SourceGraphic" in2="BackgroundImageFix" result="shape"/>
<feColorMatrix in="SourceAlpha" type="matrix" values="0 0 0 0 0 0 0 0 0 0 0 0 0 0 0 0 0 0 127 0" result="hardAlpha"/>
<feOffset dy="2"/>
<feComposite in2="hardAlpha" operator="arithmetic" k2="-1" k3="1"/>
<feColorMatrix type="matrix" values="0 0 0 0 0.425833 0 0 0 0 0.392122 0 0 0 0 0.298083 0 0 0 1 0"/>
<feBlend mode="normal" in2="shape" result="effect1_innerShadow_690_12482"/>
</filter>
</defs>
</svg>
