<svg width="84" height="84" viewBox="0 0 84 84" fill="none" xmlns="http://www.w3.org/2000/svg">
<g id="Buttons/Square/Repeat/Hover">
<g id="Button/Square/Fill/Hover">
<path id="Vector" d="M66.8869 2.01163C66.1546 1.36004 65.2084 1.00006 64.2281 1.00007L41 1.00008H19.9781C19.0067 1.00008 18.0685 1.35358 17.3386 1.99458L17.3386 1.99458L2.3605 15.1487C1.49574 15.9081 1 17.0033 1 18.1542V65.2022C1 66.3064 1.45648 67.3615 2.2613 68.1176L16.9494 81.9155C17.6911 82.6122 18.6705 83.0001 19.6881 83.0001H44H64.3119C65.3295 83.0001 66.3089 82.6122 67.0506 81.9154L81.7387 68.1175C82.5435 67.3615 82.9999 66.3064 82.9999 65.2022V18.1426C82.9999 17.0006 82.5119 15.9132 81.6588 15.1541L66.8869 2.01163Z" fill="#725952" stroke="#725952" stroke-width="2"/>
<path id="Vector_2" d="M66.2222 6.28797C65.673 5.79928 64.9633 5.5293 64.2281 5.5293L48 5.52931H22.8635C22.2047 5.52931 21.5643 5.74613 21.041 6.14628L3.66156 19.4371C2.92842 19.9978 2.49415 20.8647 2.48415 21.7876L2.01425 65.1303C2.00516 65.9678 2.34666 66.7711 2.95614 67.3457L17.6333 81.1827C18.1899 81.7075 18.9261 81.9998 19.6912 81.9998H42H64.1998C64.952 81.9998 65.6768 81.7172 66.2305 81.208L81.0307 67.5971C81.6484 67.029 81.9999 66.2282 81.9999 65.3889V21.6718C81.9999 20.8153 81.6339 19.9997 80.9941 19.4305L66.2222 6.28797Z" fill="#5F443C"/>
<path id="Vector_3" d="M66.2222 2.75868C65.673 2.26998 64.9633 2 64.2281 2L51 2.00002L19.9781 2.00002C19.2496 2.00002 18.5459 2.26514 17.9985 2.74589L3.02038 15.9C2.3718 16.4696 2 17.2909 2 18.1541V61.848C2 62.694 2.35719 63.5007 2.98358 64.0693L17.99 77.6918C18.542 78.1929 19.2608 78.4705 20.0064 78.4705H44H64.1998C64.952 78.4705 65.6768 78.1879 66.2305 77.6787L81.0307 64.0678C81.6484 63.4997 81.9999 62.6989 81.9999 61.8596V18.1425C81.9999 17.286 81.6339 16.4704 80.9941 15.9012L66.2222 2.75868Z" fill="#96786F"/>
<g id="MaskGroup">
<mask id="mask0_690_12470" style="mask-type:alpha" maskUnits="userSpaceOnUse" x="2" y="2" width="80" height="77">
<path id="Vector_4" d="M66.2222 2.75868C65.673 2.26998 64.9633 2 64.2281 2L41 2.00002H19.9781C19.2496 2.00002 18.5459 2.26514 17.9985 2.74589L3.02038 15.9C2.3718 16.4696 2 17.2909 2 18.1541V61.848C2 62.694 2.35719 63.5007 2.98358 64.0693L17.99 77.6918C18.542 78.1929 19.2608 78.4705 20.0064 78.4705H44H64.1998C64.952 78.4705 65.6768 78.1879 66.2305 77.6787L81.0307 64.0678C81.6484 63.4997 81.9999 62.6989 81.9999 61.8596V18.1425C81.9999 17.286 81.6339 16.4704 80.9941 15.9012L66.2222 2.75868Z" fill="#96786F"/>
</mask>
<g mask="url(#mask0_690_12470)">
<g id="Group">
<path id="Vector_5" fill-rule="evenodd" clip-rule="evenodd" d="M20.6546 70.9888C50.8782 76.3745 81.379 79.9768 112.006 81.778C113.522 78.4662 114.886 75.0768 116.099 71.6098C116.806 69.6175 117.463 67.6253 118.069 65.5813C119.206 61.7779 120.191 57.8193 121 53.9383C115.796 53.5243 110.617 52.9551 105.412 52.3083C61.202 46.7973 18.0778 34.4299 -26.3095 29.4363C-47.6842 26.8214 -69.1802 25.3791 -90.7053 25.1155C-104.179 25.0435 -117.641 25.9079 -131 27.7028C-131 31.5321 -130.823 35.3096 -130.495 39.0612C-130.495 39.915 -130.318 40.7429 -130.242 41.6485C-129.751 46.178 -129.009 51.8271 -128.053 56.278C-120.474 55.2172 -112.789 53.8069 -105.211 53.4446C-92.963 52.9566 -80.537 54.0655 -68.3685 55.5696C-38.2548 59.0884 -9.13062 66.1505 20.7557 71.0406L20.6546 70.9888Z" fill="#89716A"/>
<path id="Vector_6" fill-rule="evenodd" clip-rule="evenodd" d="M-33.2199 6.76584C-5.51718 8.97094 21.4799 12.473 49.0812 15.5602C70.3209 18.0103 91.8029 20.3918 113.093 22.1559L123 22.8888C122.772 18.9931 122.366 14.389 121.783 10.6159C121.581 9.21929 121.352 7.84723 121.074 6.47517C120.795 5.1031 120.643 4.27006 120.415 3.16751C109.516 2.01596 98.6427 0.717396 87.7441 -0.654669C74.1335 -2.34525 60.5483 -4.06033 46.9123 -5.5549C32.4907 -7.19648 18.0437 -8.59304 3.57137 -9.62209C-21.5461 -11.3862 -46.5116 -11.9252 -71.5784 -11.3127C-81.1083 -11.0677 -90.6636 -10.6756 -100.244 -10.1366L-102.576 -9.96511C-110.509 -9.52409 -118.442 -9.05856 -126.35 -8.49504C-127.852 -3.96356 -129.071 1.36032 -130 6.03298C-124.424 5.51845 -118.947 5.12162 -113.371 4.90111C-86.7612 4.07588 -59.7358 4.45559 -33.2199 6.76584Z" fill="#88716A"/>
<path id="Vector_7" fill-rule="evenodd" clip-rule="evenodd" d="M-49.7241 -85.5786C-20.0274 -86.839 9.72523 -85.2702 39.1053 -80.8948L58.6438 -77.8454C61.5897 -76.2353 64.4348 -74.5032 67.2045 -72.6736C58.3417 -74.3569 49.5796 -76.0889 40.6161 -77.699C27.1914 -80.2094 13.6451 -82.0658 0.0284576 -83.2611C-15.3135 -84.4686 -30.7313 -84.4686 -46.0732 -83.2611C-49.7996 -82.9927 -53.5009 -82.7 -57.2273 -82.3585C-54.7094 -83.4806 -52.1916 -84.5052 -49.6737 -85.4567L-49.7241 -85.5786ZM90.4693 -53.0111C80.0119 -53.7917 69.5461 -54.735 59.0718 -55.8409C45.4251 -57.4022 32.2568 -61.7201 18.6101 -63.3546C6.08031 -64.8212 -6.53825 -65.457 -19.1575 -65.2575C-30.9913 -65.0867 -42.7748 -64.2329 -54.5583 -63.0375C-67.4749 -61.7201 -80.341 -60.0125 -93.2324 -58.4268C-91.8727 -59.7197 -90.4879 -61.0127 -89.0779 -62.2324C-77.7477 -63.379 -66.4174 -64.4524 -55.1123 -65.2331C-43.2281 -66.0381 -31.3187 -66.4772 -19.3841 -66.3308C-6.62468 -66.2204 6.11852 -65.4223 18.7864 -63.9401C32.2317 -62.3544 45.5259 -59.671 59.0718 -58.8171C68.1613 -58.2316 77.2255 -57.7193 86.3149 -57.2558C87.6997 -55.9141 89.0593 -54.5236 90.3686 -53.0843L90.4693 -53.0111ZM-103.858 -46.8635C-100.131 -46.8635 -96.3041 -47.1318 -92.6785 -47.3514C-80.3159 -47.9857 -68.1043 -49.547 -55.8424 -51.0107C-44.3178 -52.571 -32.7059 -53.4508 -21.071 -53.6453C5.24039 -53.6453 31.1993 -49.5226 57.3345 -47.2538C70.763 -46.0828 84.2922 -45.107 97.9221 -44.3264C98.5012 -43.5701 99.0803 -42.8139 99.6342 -42.0332L95.4043 -42.448C82.6892 -43.6433 69.9741 -44.8875 57.2338 -46.0828C31.2245 -48.4004 5.31593 -52.4988 -20.8193 -52.572C-32.5065 -52.3941 -44.1741 -51.5797 -55.7669 -50.1324C-67.8777 -48.8151 -79.9634 -47.3758 -92.1245 -46.7415C-96.2286 -46.522 -100.308 -46.3024 -104.412 -46.034L-103.858 -46.8635ZM-100.685 -34.6659C-86.1824 -35.91 -71.8559 -38.252 -57.2273 -39.0326C-39.8077 -39.8298 -22.3551 -39.6506 -4.95687 -38.4959C10.1502 -37.5933 25.0558 -36.3248 40.0873 -35.2758C55.1188 -34.2268 70.5028 -33.251 85.7358 -32.3972C92.685 -32.0068 99.6594 -31.6409 106.609 -31.2994C107.188 -30.3236 107.717 -29.3722 108.27 -28.3963C93.6922 -29.4941 79.2146 -30.6651 64.5607 -31.7141C56.4365 -32.3158 48.3039 -32.8769 40.1629 -33.3974C22.538 -34.5195 4.91309 -35.8369 -12.5859 -36.5931C-27.4142 -37.4955 -42.2803 -37.6665 -57.1265 -37.1054C-71.6545 -36.3248 -86.1824 -35.5685 -100.685 -34.6659ZM115.648 -12.1735C98.8537 -13.3933 82.1101 -14.979 65.3665 -16.5891C48.6228 -18.1992 32.3576 -19.8336 15.8405 -21.151C0.733475 -22.3707 -14.3736 -23.8588 -29.4806 -25.1762C-43.0014 -26.3715 -56.5474 -27.3717 -70.0934 -27.6157C-85.9694 -28.059 -101.858 -27.3741 -117.63 -25.5665L-117.177 -26.7375C-105.268 -27.884 -93.3331 -28.4939 -81.2978 -28.5915C-65.7376 -28.7379 -50.1773 -28.0792 -34.6674 -27.079C-17.7979 -26.0056 -0.953491 -24.6395 15.8909 -23.2002C38.9291 -21.3461 61.8666 -19.3701 84.8545 -17.7357C94.6238 -17.0201 104.418 -16.3939 114.238 -15.8572C114.741 -14.6375 115.195 -13.4177 115.648 -12.1735ZM-124.353 -9.97798C-115.943 -10.7342 -107.483 -11.2709 -99.1745 -11.71C-54.2319 -13.6416 -9.21435 -13.2182 35.6811 -10.4415C63.5788 -8.92899 91.1995 -4.90379 118.896 -1.51286C119.349 0.170403 119.752 1.90246 120.129 3.61012C109.303 2.46355 98.4508 1.17062 87.6241 -0.195518C74.1033 -1.87878 60.6077 -3.58645 47.0617 -5.07455C32.7352 -6.70904 18.3835 -8.09956 4.00665 -9.12415C-30.3543 -11.5068 -64.8405 -11.6779 -99.2248 -9.63645C-107.886 -9.12415 -116.573 -8.66064 -125.234 -8.00198C-125.033 -8.66064 -124.806 -9.29492 -124.58 -9.92919L-124.353 -9.97798ZM-121.18 76.6249C-102.951 73.4047 -83.0099 74.5269 -60.7522 81.3576C-40.0807 87.7003 -19.4344 94.287 1.36293 100.288C17.9811 105.218 34.8576 109.289 51.9212 112.486C62.9745 114.486 74.0278 115.901 85.1567 116.828C83.5956 118.316 81.9842 119.78 80.3476 121.195C70.0496 119.756 59.8524 117.853 49.6299 115.511C32.7856 111.705 16.2685 106.826 -0.424744 102.093C-20.8193 96.2142 -41.1634 90.5057 -61.7845 85.4072C-80.1801 80.5381 -99.4647 79.7047 -118.235 82.9676C-119.267 80.8941 -120.249 78.7717 -121.18 76.6249ZM-128.029 55.5962C-120.475 54.5716 -112.441 53.035 -104.888 52.6935C-92.6814 52.2333 -80.937 53.6414 -68.8093 55.0596C-38.7967 58.3773 -9.48898 65.9642 20.2971 70.5749C50.4368 75.6438 80.852 79.0322 111.393 80.7233C110.511 82.6017 109.555 84.4557 108.573 86.2854C106.055 86.139 103.285 85.9682 100.667 85.7731C73.1098 83.4046 45.7194 79.4785 18.6353 74.0146C6.52449 71.7215 -5.56113 69.1356 -17.6216 66.696C-28.9015 64.2565 -40.2822 61.817 -51.5369 59.6702C-61.6083 57.7674 -71.6797 56.0598 -81.751 55.0596C-90.166 54.0574 -96.4523 54.2357 -104.888 55.0596C-111.636 55.889 -120.677 56.5964 -127.45 57.8162L-128.029 55.5962ZM-130.924 26.81C-114.987 24.8507 -98.9209 24.0353 -82.8589 24.3704C-64.2772 24.6388 -45.6955 25.9561 -27.1894 27.4686C-4.85615 29.2739 17.326 32.6404 39.4075 36.1777C66.6254 40.52 94.0698 45.2283 121.59 47.741C121.237 50.0098 120.834 52.2541 120.356 54.4741C115.144 54.0837 109.957 53.547 104.745 52.9372C60.6833 47.741 17.7037 36.0801 -26.5348 31.3718C-47.8378 28.9063 -69.2616 27.5464 -90.7145 27.2979C-104.185 27.2156 -117.645 28.0307 -131 29.7374V29.2251C-131 28.42 -131 27.615 -131 26.7855L-130.924 26.81ZM-128.608 5.70811C-123.069 5.20395 -117.521 4.83803 -111.965 4.61034C-85.5315 3.78057 -59.0702 4.51379 -32.7286 6.80591C-5.20864 9.00147 22.2106 12.1728 49.6299 15.2466C70.7295 17.6861 91.829 19.9061 112.979 21.6626L122.849 22.4432C122.849 23.8093 122.849 25.1755 123 26.5416L114.464 25.8585C93.2641 23.8825 72.1898 21.443 51.1406 19.0035C23.0667 15.5638 -5.03241 11.9289 -33.207 9.24541C-59.3336 6.51102 -85.6211 5.49223 -111.89 6.19601C-117.597 6.43996 -123.295 6.90348 -128.986 7.58654C-128.885 6.95227 -128.759 6.31799 -128.608 5.68372V5.70811ZM28.052 148.298C16.2434 145.663 4.48505 142.833 -7.19774 139.882C-21.4041 136.016 -35.3188 131.207 -48.8428 125.488C-65.0074 119.024 -81.2475 112.364 -98.2932 111.705C-98.9479 110.998 -99.6025 110.315 -100.232 109.583C-80.0893 109.241 -61.2054 116.511 -41.8936 123.683C-27.3839 129.397 -12.5056 134.188 2.64702 138.028C14.1452 140.727 25.6852 143.305 37.2673 145.761C34.2459 146.761 31.1742 147.664 28.052 148.444V148.298Z" fill="#7A615A"/>
</g>
</g>
</g>
<path id="Vector_8" d="M62.7181 12.7634C62.1681 12.2718 61.4563 12 60.7186 12L47.1 12H25.8902C25.229 12 24.5865 12.2184 24.0622 12.6212L9.57807 23.7512C8.84988 24.3108 8.41809 25.1731 8.40625 26.0913L8.01693 56.2896C8.00614 57.1268 8.34569 57.9304 8.95352 58.5062L21.1572 70.0668C21.7144 70.5946 22.4528 70.8889 23.2204 70.8889H42H60.6902C61.4449 70.8889 62.1719 70.6044 62.7262 70.0922L75.036 58.717C75.6505 58.1492 76 57.3504 76 56.5137V25.9794C76 25.1254 75.636 24.3119 74.9994 23.7428L62.7181 12.7634Z" fill="#6E544C"/>
<path id="Vector_9" d="M62.7181 10.5413C62.1681 10.0496 61.4563 9.77783 60.7186 9.77783L47.1 9.77785H25.8902C25.229 9.77785 24.5865 9.99623 24.0622 10.3991L9.57807 21.5291C8.84988 22.0886 8.41809 22.9509 8.40625 23.8692L8.01693 54.0674C8.00614 54.9046 8.34569 55.7082 8.95352 56.284L21.1572 67.8446C21.7144 68.3725 22.4528 68.6667 23.2204 68.6667H42H60.6902C61.4449 68.6667 62.1719 68.3822 62.7262 67.87L75.036 56.4949C75.6505 55.927 76 55.1283 76 54.2915V23.7572C76 22.9032 75.636 22.0898 74.9994 21.5206L62.7181 10.5413Z" fill="#8F7F54"/>
<g id="Union" style="mix-blend-mode:soft-light">
<path fill-rule="evenodd" clip-rule="evenodd" d="M64.2281 2C64.9633 2 65.673 2.26998 66.2222 2.75868L80.9941 15.9012C81.6339 16.4704 81.9999 17.286 81.9999 18.1425V21.6719V61.8596V65.3891C81.9999 66.2283 81.6484 67.0292 81.0307 67.5973L66.2305 81.2082C65.6768 81.7174 64.952 82 64.1998 82H42H19.6912C18.9261 82 18.1899 81.7077 17.6333 81.1829L2.95614 67.3458C2.34666 66.7712 2.00516 65.968 2.01425 65.1304L2.04426 62.3616C2.01501 62.1932 2 62.0215 2 61.848V18.1541C2 17.2909 2.3718 16.4696 3.02038 15.9L17.9985 2.74589C18.5459 2.26514 19.2496 2.00002 19.9781 2.00002L51 2.00002L64.2281 2Z" fill="#96786F"/>
</g>
<path id="Vector_10" d="M62.7133 7.18999C62.1659 6.70937 61.4624 6.44434 60.7339 6.44434L47.1 6.44435H24.012C23.3114 6.44435 22.6328 6.68959 22.0941 7.13754L9.08202 17.9563C8.39651 18.5263 8 19.3716 8 20.2631L8 50.978C8 51.8112 8.3465 52.6069 8.9565 53.1744L21.1613 64.5296C21.7164 65.0461 22.4465 65.3332 23.2048 65.3332H42H60.7057C61.4511 65.3332 62.1699 65.0557 62.7219 64.5547L75.0161 53.3967C75.6427 52.8281 76 52.0213 76 51.1752V20.2142C76 19.3509 75.6281 18.5294 74.9793 17.9598L62.7133 7.18999Z" fill="#FDE294"/>
<g id="Union_2" style="mix-blend-mode:hard-light">
<path d="M60.6084 6.44434C61.4178 6.44434 62.1995 6.73882 62.8077 7.27284L74.8659 17.8602C75.5867 18.4931 76 19.4059 76 20.3651V54.1455C76 55.0752 75.6117 55.9627 74.9289 56.5937L62.822 67.7813C62.2061 68.3504 61.3984 68.6665 60.5598 68.6665H23.3532C22.5003 68.6665 21.6799 68.3396 21.0608 67.7531L9.05947 56.3842C8.3841 55.7444 8.00682 54.8515 8.01881 53.9213L8.05113 51.4146C8.01734 51.2239 8 51.0293 8 50.8329V20.4195C8 19.4289 8.44056 18.4896 9.20225 17.8564L22.0014 7.21456C22.6001 6.71684 23.354 6.44435 24.1325 6.44435L60.6084 6.44434Z" fill="#FDE294"/>
</g>
</g>
<g id="Icon/Replay" filter="url(#filter0_i_690_12470)">
<g id="Fill" filter="url(#filter1_i_690_12470)">
<path fill-rule="evenodd" clip-rule="evenodd" d="M56.3542 36.7144C56.3542 36.7144 53.0729 36.3573 52.474 39.0515C51.9162 44.22 47.674 48.2388 42.5236 48.2388C36.9932 48.2388 32.5097 43.6053 32.5097 37.8899C32.5097 33.1229 36.5021 30.013 41.0375 29.1128C41.8081 28.9597 42.5236 29.5711 42.5236 30.3817V32.8221C42.5236 33.8667 43.6625 34.4792 44.4902 33.8798L54.5073 26.6341C54.8417 26.3913 55.0407 25.9975 55.0407 25.5753C55.0407 25.1837 54.8682 24.8118 54.5718 24.5668L44.5547 16.2852C43.7355 15.6081 42.5236 16.2108 42.5236 17.2937V19.9419C42.5236 20.5983 42.0483 21.1528 41.4164 21.225C32.6695 22.227 25 28.707 25 37.8899C25 47.8921 32.8452 56.0008 42.5236 56.0008C51.749 56.0008 59.3094 48.6326 59.9963 39.2802C59.9963 37.7858 58.5417 36.7144 56.3542 36.7144Z" fill="#A4925F"/>
</g>
</g>
</g>
<defs>
<filter id="filter0_i_690_12470" x="25" y="15.9995" width="35" height="40.0015" filterUnits="userSpaceOnUse" color-interpolation-filters="sRGB">
<feFlood flood-opacity="0" result="BackgroundImageFix"/>
<feBlend mode="normal" in="SourceGraphic" in2="BackgroundImageFix" result="shape"/>
<feColorMatrix in="SourceAlpha" type="matrix" values="0 0 0 0 0 0 0 0 0 0 0 0 0 0 0 0 0 0 127 0" result="hardAlpha"/>
<feOffset dy="2"/>
<feComposite in2="hardAlpha" operator="arithmetic" k2="-1" k3="1"/>
<feColorMatrix type="matrix" values="0 0 0 0 0.425833 0 0 0 0 0.392122 0 0 0 0 0.298083 0 0 0 1 0"/>
<feBlend mode="normal" in2="shape" result="effect1_innerShadow_690_12470"/>
</filter>
<filter id="filter1_i_690_12470" x="25" y="15.9995" width="34.9961" height="40.0015" filterUnits="userSpaceOnUse" color-interpolation-filters="sRGB">
<feFlood flood-opacity="0" result="BackgroundImageFix"/>
<feBlend mode="normal" in="SourceGraphic" in2="BackgroundImageFix" result="shape"/>
<feColorMatrix in="SourceAlpha" type="matrix" values="0 0 0 0 0 0 0 0 0 0 0 0 0 0 0 0 0 0 127 0" result="hardAlpha"/>
<feOffset dy="2"/>
<feComposite in2="hardAlpha" operator="arithmetic" k2="-1" k3="1"/>
<feColorMatrix type="matrix" values="0 0 0 0 0.425833 0 0 0 0 0.392122 0 0 0 0 0.298083 0 0 0 1 0"/>
<feBlend mode="normal" in2="shape" result="effect1_innerShadow_690_12470"/>
</filter>
</defs>
</svg>
