<svg width="196" height="84" viewBox="0 0 196 84" fill="none" xmlns="http://www.w3.org/2000/svg">
<g id="Buttons/Rect/PlayText/Default">
<g id="Button/Rect/Fill/Default">
<path id="Vector" d="M17.3764 81.9662L18.0473 81.2246L17.3764 81.9662C18.1119 82.6316 19.0683 83 20.0601 83H98H175.146C176.105 83 177.032 82.6556 177.758 82.0295L193.612 68.3608C194.493 67.601 195 66.495 195 65.3313V18.3986C195 17.2165 194.477 16.0949 193.572 15.3349L177.609 1.93624C176.889 1.33149 175.978 1 175.037 1H98H20.1343C19.1597 1 18.2186 1.35583 17.4878 2.00065L17.4878 2.00065L2.35351 15.3545C1.49295 16.1138 1 17.2061 1 18.3538V65.3745C1 66.5048 1.47821 67.5823 2.31638 68.3407L17.3764 81.9662Z" fill="#725952" stroke="#725952" stroke-width="2"/>
<path id="Vector_2" d="M177.096 6.22574C176.556 5.77591 175.876 5.52954 175.174 5.52954L98 5.52956H20.0318C19.305 5.52956 18.6029 5.79343 18.056 6.27215L3.02412 19.4293C2.3733 19.9989 2 20.8218 2 21.6867V65.3746C2 66.2224 2.35866 67.0305 2.98728 67.5993L18.0473 81.2248C18.5989 81.7238 19.3162 82.0001 20.0601 82.0001H98H175.146C175.865 82.0001 176.56 81.7418 177.105 81.2722L192.959 67.6036C193.62 67.0337 194 66.2042 194 65.3315V21.73C194 20.8401 193.605 19.9961 192.922 19.4262L177.096 6.22574Z" fill="#5F443C"/>
<path id="Vector_3" d="M177.096 2.6962C176.556 2.24637 175.876 2 175.174 2L98 2.00002H20.0318C19.305 2.00002 18.6029 2.26389 18.056 2.74261L3.02412 15.8997C2.3733 16.4694 2 17.2922 2 18.1571V61.8451C2 62.6928 2.35866 63.501 2.98728 64.0697L18.0473 77.6952C18.5989 78.1943 19.3162 78.4706 20.0601 78.4706H98H175.146C175.865 78.4706 176.56 78.2123 177.105 77.7427L192.959 64.074C193.62 63.5041 194 62.6747 194 61.8019V18.2004C194 17.3106 193.605 16.4666 192.922 15.8966L177.096 2.6962Z" fill="#96786F"/>
<g id="MaskGroup">
<mask id="mask0_690_13118" style="mask-type:alpha" maskUnits="userSpaceOnUse" x="2" y="2" width="192" height="77">
<path id="Vector_4" d="M177.096 2.6962C176.556 2.24637 175.876 2 175.174 2L98 2.00002H20.0318C19.305 2.00002 18.6029 2.26389 18.056 2.74261L3.02412 15.8997C2.3733 16.4694 2 17.2922 2 18.1571V61.8451C2 62.6928 2.35866 63.501 2.98728 64.0697L18.0473 77.6952C18.5989 78.1943 19.3162 78.4706 20.0601 78.4706H98H175.146C175.865 78.4706 176.56 78.2123 177.105 77.7427L192.959 64.074C193.62 63.5041 194 62.6747 194 61.8019V18.2004C194 17.3106 193.605 16.4666 192.922 15.8966L177.096 2.6962Z" fill="#96786F"/>
</mask>
<g mask="url(#mask0_690_13118)">
<g id="Group">
<path id="Vector_5" fill-rule="evenodd" clip-rule="evenodd" d="M93.1963 84.5975C128.377 90.5112 163.881 94.4667 199.531 96.4444C201.296 92.8079 202.884 89.0862 204.295 85.2793C205.119 83.0917 205.883 80.9042 206.589 78.6598C207.912 74.4835 209.059 70.1368 210 65.8753C203.943 65.4208 197.914 64.7958 191.856 64.0855C140.394 58.0342 90.1968 44.4543 38.529 38.9712C13.6484 36.0999 -11.3734 34.5162 -36.4291 34.2267C-52.1122 34.1477 -67.7829 35.0968 -83.333 37.0677C-83.333 41.2724 -83.1272 45.4202 -82.7449 49.5397C-82.7449 50.4772 -82.539 51.3863 -82.4508 52.3807C-81.8792 57.3542 -81.0154 63.5572 -79.9022 68.4444C-71.0802 67.2796 -62.1356 65.731 -53.3135 65.3333C-39.0571 64.7974 -24.5929 66.015 -10.4285 67.6666C24.6244 71.5304 58.5256 79.2848 93.3139 84.6543L93.1963 84.5975Z" fill="#89716A"/>
<path id="Vector_6" fill-rule="evenodd" clip-rule="evenodd" d="M30.3503 14.3167C62.5862 16.7352 94.001 20.5762 126.119 23.9621C150.834 26.6493 175.831 29.2614 200.606 31.1962L212.133 31.9999C211.868 27.7273 211.396 22.6777 210.718 18.5393C210.482 17.0076 210.216 15.5028 209.892 13.9979C209.568 12.4931 209.391 11.5794 209.125 10.3702C196.443 9.10718 183.791 7.68295 171.109 6.1781C155.271 4.32392 139.462 2.44286 123.595 0.803655C106.814 -0.996786 90.0025 -2.5285 73.162 -3.65714C43.9343 -5.59194 14.8836 -6.18313 -14.285 -5.51132C-25.3744 -5.2426 -36.4933 -4.81264 -47.6417 -4.22145L-50.3551 -4.03335C-59.5864 -3.54965 -68.8178 -3.03908 -78.0196 -2.42101C-79.7668 2.54899 -81.185 8.38809 -82.2666 13.5129C-75.7781 12.9486 -69.4048 12.5134 -62.9164 12.2715C-31.9523 11.3665 -0.504623 11.7829 30.3503 14.3167Z" fill="#88716A"/>
<path id="Vector_7" fill-rule="evenodd" clip-rule="evenodd" d="M11.2117 -86.4316C45.7565 -87.7995 80.3664 -86.0969 114.543 -81.3482L137.271 -78.0386C140.698 -76.2912 144.008 -74.4114 147.229 -72.4256C136.92 -74.2525 126.727 -76.1323 116.3 -77.8798C100.684 -80.6044 84.9262 -82.6191 69.0865 -83.9164C51.2399 -85.2269 33.3051 -85.2269 15.4585 -83.9164C11.1238 -83.6251 6.8183 -83.3074 2.48354 -82.9367C5.41243 -84.1546 8.34132 -85.2666 11.2702 -86.2992L11.2117 -86.4316ZM174.292 -51.0857C162.128 -51.933 149.953 -52.9567 137.769 -54.157C121.894 -55.8515 106.576 -60.5378 90.7018 -62.3117C76.1264 -63.9034 61.4478 -64.5934 46.7684 -64.3768C33.0026 -64.1915 19.2954 -63.2648 5.58817 -61.9675C-9.43705 -60.5378 -24.4037 -58.6844 -39.3996 -56.9635C-37.818 -58.3667 -36.2071 -59.77 -34.567 -61.0938C-21.3869 -62.3382 -8.20692 -63.5031 4.94381 -64.3504C18.7682 -65.2241 32.6218 -65.7007 46.5048 -65.5418C61.3472 -65.422 76.1708 -64.5557 90.9068 -62.9471C106.547 -61.2262 122.012 -58.3138 137.769 -57.3871C148.342 -56.7517 158.886 -56.1957 169.46 -55.6926C171.071 -54.2364 172.652 -52.7273 174.175 -51.1652L174.292 -51.0857ZM-51.7595 -44.4137C-47.4248 -44.4137 -42.9729 -44.705 -38.7553 -44.9432C-24.3744 -45.6316 -10.1693 -47.3261 4.09444 -48.9147C17.5005 -50.6081 31.0081 -51.563 44.5424 -51.7741C75.1494 -51.7741 105.346 -47.2996 135.748 -44.8373C151.369 -43.5665 167.107 -42.5074 182.962 -41.6602C183.635 -40.8394 184.309 -40.0187 184.954 -39.1714L180.033 -39.6215C165.242 -40.9188 150.451 -42.2691 135.631 -43.5665C105.376 -46.0817 75.2372 -50.5297 44.8353 -50.6092C31.2401 -50.4162 17.6677 -49.5322 4.1823 -47.9615C-9.90567 -46.5318 -23.9644 -44.9697 -38.1109 -44.2813C-42.885 -44.043 -47.6298 -43.8048 -52.4039 -43.5135L-51.7595 -44.4137ZM-48.0691 -31.1756C-31.1987 -32.5259 -14.5333 -35.0676 2.48354 -35.9148C22.747 -36.78 43.0488 -36.5855 63.2873 -35.3323C80.8607 -34.3527 98.1997 -32.9759 115.685 -31.8375C133.171 -30.699 151.066 -29.6399 168.786 -28.7133C176.87 -28.2896 184.983 -27.8925 193.067 -27.5218C193.74 -26.4628 194.355 -25.4302 195 -24.3712C178.041 -25.5626 161.2 -26.8335 144.154 -27.9719C134.704 -28.625 125.243 -29.234 115.773 -29.7988C95.2709 -31.0167 74.7686 -32.4464 54.4128 -33.2672C37.1637 -34.2466 19.8707 -34.4322 2.6007 -33.8232C-14.299 -32.9759 -31.1987 -32.1552 -48.0691 -31.1756ZM203.581 -6.76441C184.046 -8.08823 164.568 -9.80918 145.091 -11.5566C125.614 -13.3041 106.694 -15.078 87.48 -16.5077C69.9067 -17.8315 52.3333 -19.4466 34.7599 -20.8763C19.0318 -22.1736 3.27435 -23.2592 -12.4831 -23.5239C-30.9509 -24.005 -49.433 -23.2617 -67.7806 -21.2999L-67.2534 -22.5708C-53.3997 -23.8151 -39.5168 -24.4771 -25.5167 -24.583C-7.41612 -24.7418 10.6844 -24.027 28.7264 -22.9414C48.35 -21.7765 67.9443 -20.2938 87.5386 -18.7317C114.338 -16.7195 141.02 -14.5749 167.761 -12.801C179.125 -12.0244 190.518 -11.3448 201.941 -10.7623C202.527 -9.43851 203.054 -8.1147 203.581 -6.76441ZM-75.6007 -4.38155C-65.8182 -5.20231 -55.9772 -5.78479 -46.3118 -6.26137C5.96793 -8.35773 58.3348 -7.89814 110.56 -4.8846C143.012 -3.24307 175.142 1.12552 207.36 4.80572C207.887 6.63258 208.355 8.51241 208.795 10.3657C196.2 9.12136 183.577 7.71812 170.983 6.23545C155.255 4.40858 139.556 2.55524 123.798 0.940193C107.133 -0.833725 90.4382 -2.34287 73.7142 -3.45488C33.7437 -6.04077 -6.37263 -6.22651 -46.3704 -4.01088C-56.4458 -3.45488 -66.5505 -2.95183 -76.6258 -2.23697C-76.3915 -2.95183 -76.1279 -3.64021 -75.8643 -4.32859L-75.6007 -4.38155ZM-71.9103 89.6093C-50.7051 86.1145 -27.5083 87.3324 -1.61691 94.7457C22.4293 101.63 46.4462 108.778 70.6389 115.291C89.9701 120.641 109.602 125.06 129.451 128.529C142.309 130.701 155.167 132.236 168.112 133.242C166.296 134.857 164.422 136.446 162.518 137.982C150.539 136.419 138.677 134.354 126.786 131.813C107.191 127.682 87.9779 122.387 68.5594 117.251C44.8353 110.87 21.1699 104.674 -2.81776 99.1408C-24.2164 93.8564 -46.6494 92.9519 -68.4835 96.4932C-69.6844 94.2427 -70.8266 91.9392 -71.9103 89.6093ZM-79.8769 66.7867C-71.0902 65.6747 -61.7446 64.0071 -52.9579 63.6364C-38.7587 63.1369 -25.097 64.6651 -10.9894 66.2043C23.923 69.8051 58.0153 78.0392 92.6641 83.0432C127.724 88.5446 163.105 92.222 198.631 94.0573C197.606 96.096 196.493 98.1082 195.351 100.094C192.422 99.9351 189.2 99.7497 186.154 99.5379C154.099 96.9675 122.237 92.7063 90.7311 86.7764C76.6431 84.2876 62.5844 81.4811 48.555 78.8335C35.4336 76.1858 22.195 73.5382 9.10284 71.2083C-2.61274 69.1431 -14.3283 67.2898 -26.0439 66.2043C-35.8327 65.1166 -43.1452 65.3101 -52.9579 66.2043C-60.8074 67.1045 -71.3245 67.8723 -79.2033 69.1961L-79.8769 66.7867ZM-83.2451 35.5447C-64.7052 33.4183 -46.0168 32.5333 -27.3326 32.8971C-5.71736 33.1883 15.8979 34.6181 37.4252 36.2596C63.4045 38.2188 89.208 41.8726 114.894 45.7116C146.556 50.4244 178.481 55.5343 210.493 58.2614C210.083 60.7237 209.615 63.1595 209.058 65.5688C202.996 65.1452 196.962 64.5627 190.899 63.9008C139.644 58.2614 89.6474 45.6057 38.1867 40.4958C13.4059 37.8199 -11.5155 36.344 -36.4707 36.0742C-52.1402 35.985 -67.7978 36.8696 -83.333 38.7219V38.1659C-83.333 37.2922 -83.333 36.4184 -83.333 35.5182L-83.2451 35.5447ZM-80.5506 12.6427C-74.107 12.0955 -67.6537 11.6984 -61.1906 11.4513C-30.4415 10.5507 0.339767 11.3465 30.9817 13.8342C62.9945 16.217 94.8901 19.6589 126.786 22.995C151.33 25.6426 175.874 28.0519 200.477 29.9582L211.958 30.8055C211.958 32.2881 211.958 33.7708 212.134 35.2535L202.205 34.5121C177.543 32.3676 153.029 29.7199 128.543 27.0723C95.8859 23.3391 63.1995 19.3942 30.4252 16.4818C0.0333328 13.5141 -30.5458 12.4084 -61.1027 13.1722C-67.7415 13.437 -74.3706 13.9401 -80.9899 14.6814C-80.8727 13.993 -80.7263 13.3046 -80.5506 12.6162V12.6427ZM101.685 167.397C87.9486 164.537 74.2707 161.466 60.6806 158.262C44.155 154.067 27.9687 148.848 12.2368 142.641C-6.56673 135.625 -25.4581 128.397 -45.2867 127.682C-46.0482 126.914 -46.8097 126.173 -47.5419 125.379C-24.1108 125.008 -2.1441 132.898 20.3205 140.682C37.1989 146.883 54.5063 152.083 72.1326 156.25C85.5079 159.18 98.9319 161.978 112.405 164.643C108.89 165.729 105.317 166.708 101.685 167.556V167.397Z" fill="#7A615A"/>
</g>
</g>
</g>
<path id="Vector_8" d="M172.509 13.9125C171.954 13.3974 171.225 13.1111 170.468 13.1111H97.9031H25.3492C24.5857 13.1111 23.8509 13.4022 23.2946 13.9251L9.34582 27.0351C8.74253 27.6021 8.40039 28.3932 8.40039 29.2211V55.6772C8.40039 56.5239 8.75817 57.3311 9.38545 57.8998L24.0814 71.2226C24.6333 71.7229 25.3515 72 26.0964 72H97.9031H169.722C170.46 72 171.171 71.7284 171.721 71.2372L186.599 57.9447C187.236 57.3756 187.6 56.5618 187.6 55.7075V29.232C187.6 28.3977 187.253 27.6011 186.642 27.0334L172.509 13.9125Z" fill="#6E544C"/>
<path id="Vector_9" d="M172.509 11.6904C171.954 11.1752 171.225 10.8889 170.468 10.8889H97.9031H25.3492C24.5857 10.8889 23.8509 11.18 23.2946 11.7029L9.34582 24.8129C8.74253 25.3799 8.40039 26.171 8.40039 26.9989V53.455C8.40039 54.3017 8.75817 55.109 9.38545 55.6776L24.0814 69.0004C24.6333 69.5007 25.3515 69.7778 26.0964 69.7778H97.9031H169.722C170.46 69.7778 171.171 69.5062 171.721 69.015L186.599 55.7226C187.236 55.1534 187.6 54.3396 187.6 53.4854V27.0098C187.6 26.1755 187.253 25.3789 186.642 24.8113L172.509 11.6904Z" fill="#B4A26C"/>
<path id="Vector_10" d="M172.684 7.23629C172.13 6.727 171.405 6.44434 170.653 6.44434H98.0004H25.3476C24.5953 6.44434 23.8705 6.727 23.3167 7.23629L9.3695 20.0645C8.75186 20.6326 8.40039 21.4334 8.40039 22.2726V50.4069C8.40039 51.2648 8.76769 52.0817 9.40945 52.651L24.1049 65.6885C24.6538 66.1754 25.3621 66.4443 26.0959 66.4443H98.0004H169.903C170.638 66.4443 171.347 66.1747 171.896 65.6867L186.593 52.6244C187.234 52.0551 187.6 51.239 187.6 50.382V22.2726C187.6 21.4334 187.249 20.6326 186.631 20.0645L172.684 7.23629Z" fill="#FDE294"/>
</g>
<g id="Play" filter="url(#filter0_i_690_13118)">
<text fill="#A4925F" xml:space="preserve" style="white-space: pre" font-family="Bungee" font-size="40" letter-spacing="0em"><tspan x="68.332" y="52.4">OK</tspan></text>
</g>
</g>
<defs>
<filter id="filter0_i_690_13118" x="70.6523" y="22.6001" width="54.6123" height="30" filterUnits="userSpaceOnUse" color-interpolation-filters="sRGB">
<feFlood flood-opacity="0" result="BackgroundImageFix"/>
<feBlend mode="normal" in="SourceGraphic" in2="BackgroundImageFix" result="shape"/>
<feColorMatrix in="SourceAlpha" type="matrix" values="0 0 0 0 0 0 0 0 0 0 0 0 0 0 0 0 0 0 127 0" result="hardAlpha"/>
<feOffset dy="-2"/>
<feComposite in2="hardAlpha" operator="arithmetic" k2="-1" k3="1"/>
<feColorMatrix type="matrix" values="0 0 0 0 0.425833 0 0 0 0 0.392122 0 0 0 0 0.298083 0 0 0 1 0"/>
<feBlend mode="normal" in2="shape" result="effect1_innerShadow_690_13118"/>
</filter>
</defs>
</svg>
