<svg width="196" height="84" viewBox="0 0 196 84" fill="none" xmlns="http://www.w3.org/2000/svg">
<g id="Buttons/Rect/PlayText/Hover">
<g id="Button/Rect/Fill/Hover">
<path id="Vector" d="M17.3764 81.9662L18.0473 81.2246L17.3764 81.9662C18.1119 82.6316 19.0683 83 20.0601 83H98H175.146C176.105 83 177.032 82.6556 177.758 82.0295L193.612 68.3608C194.493 67.601 195 66.495 195 65.3313V18.3986C195 17.2165 194.477 16.0949 193.572 15.3349L177.609 1.93624C176.889 1.33149 175.978 1 175.037 1H98H20.1343C19.1597 1 18.2186 1.35583 17.4878 2.00065L17.4878 2.00065L2.35351 15.3545C1.49295 16.1138 1 17.2061 1 18.3538V65.3745C1 66.5048 1.47821 67.5823 2.31638 68.3407L17.3764 81.9662Z" fill="#725952" stroke="#725952" stroke-width="2"/>
<path id="Vector_2" d="M177.096 6.22549C176.556 5.77567 175.876 5.5293 175.174 5.5293L98 5.52931H20.0318C19.305 5.52931 18.6029 5.79319 18.056 6.2719L3.02413 19.429C2.3733 19.9987 2 20.8215 2 21.6864V65.3743C2 66.2221 2.35866 67.0302 2.98728 67.599L18.0473 81.2245C18.5989 81.7235 19.3162 81.9998 20.0601 81.9998H98H175.146C175.865 81.9998 176.56 81.7415 177.105 81.272L192.959 67.6033C193.62 67.0334 194 66.2039 194 65.3312V21.7297C194 20.8398 193.605 19.9959 192.922 19.4259L177.096 6.22549Z" fill="#5F443C"/>
<path id="Vector_3" d="M177.096 2.6962C176.556 2.24637 175.876 2 175.174 2L98 2.00002H20.0318C19.305 2.00002 18.6029 2.26389 18.056 2.7426L3.02413 15.8997C2.3733 16.4694 2 17.2922 2 18.1571V61.845C2 62.6928 2.35866 63.5009 2.98728 64.0697L18.0473 77.6952C18.5989 78.1942 19.3162 78.4705 20.0601 78.4705H98H175.146C175.865 78.4705 176.56 78.2122 177.105 77.7427L192.959 64.074C193.62 63.5041 194 62.6746 194 61.8019V18.2004C194 17.3105 193.605 16.4666 192.922 15.8966L177.096 2.6962Z" fill="#96786F"/>
<g id="MaskGroup">
<mask id="mask0_690_13121" style="mask-type:alpha" maskUnits="userSpaceOnUse" x="2" y="2" width="192" height="77">
<path id="Vector_4" d="M177.096 2.6962C176.556 2.24637 175.876 2 175.174 2L98 2.00002H20.0318C19.305 2.00002 18.6029 2.26389 18.056 2.7426L3.02413 15.8997C2.3733 16.4694 2 17.2922 2 18.1571V61.845C2 62.6928 2.35866 63.5009 2.98728 64.0697L18.0473 77.6952C18.5989 78.1942 19.3162 78.4705 20.0601 78.4705H98H175.146C175.865 78.4705 176.56 78.2122 177.105 77.7427L192.959 64.074C193.62 63.5041 194 62.6746 194 61.8019V18.2004C194 17.3105 193.605 16.4666 192.922 15.8966L177.096 2.6962Z" fill="#96786F"/>
</mask>
<g mask="url(#mask0_690_13121)">
<g id="Group">
<path id="Vector_5" fill-rule="evenodd" clip-rule="evenodd" d="M93.1963 84.5974C128.377 90.5111 163.881 94.4666 199.531 96.4443C201.296 92.8079 202.884 89.0862 204.295 85.2793C205.119 83.0917 205.883 80.9042 206.589 78.6598C207.912 74.4835 209.059 70.1368 210 65.8753C203.943 65.4208 197.914 64.7958 191.856 64.0855C140.394 58.0342 90.1968 44.4543 38.529 38.9712C13.6484 36.0999 -11.3734 34.5162 -36.4291 34.2267C-52.1122 34.1477 -67.7829 35.0968 -83.333 37.0677C-83.333 41.2724 -83.1272 45.4202 -82.7449 49.5397C-82.7449 50.4772 -82.539 51.3863 -82.4508 52.3806C-81.8792 57.3542 -81.0154 63.5572 -79.9022 68.4444C-71.0802 67.2796 -62.1356 65.731 -53.3135 65.3333C-39.0571 64.7973 -24.5929 66.015 -10.4285 67.6666C24.6244 71.5303 58.5256 79.2848 93.3139 84.6543L93.1963 84.5974Z" fill="#89716A"/>
<path id="Vector_6" fill-rule="evenodd" clip-rule="evenodd" d="M30.3503 14.3172C62.5862 16.7357 94.001 20.5767 126.119 23.9626C150.834 26.6498 175.831 29.2618 200.606 31.1966L212.133 32.0004C211.868 27.7277 211.396 22.6781 210.718 18.5398C210.482 17.0081 210.216 15.5032 209.892 13.9984C209.568 12.4936 209.391 11.5799 209.125 10.3707C196.443 9.10766 183.791 7.68343 171.109 6.17859C155.271 4.3244 139.462 2.44334 123.595 0.804139C106.814 -0.996301 90.0025 -2.52802 73.162 -3.65665C43.9343 -5.59145 14.8836 -6.18264 -14.285 -5.51083C-25.3744 -5.24211 -36.4933 -4.81216 -47.6417 -4.22097L-50.3551 -4.03286C-59.5864 -3.54916 -68.8178 -3.03859 -78.0196 -2.42053C-79.7668 2.54947 -81.185 8.38857 -82.2666 13.5134C-75.7781 12.9491 -69.4048 12.5139 -62.9164 12.272C-31.9523 11.3669 -0.504623 11.7834 30.3503 14.3172Z" fill="#88716A"/>
<path id="Vector_7" fill-rule="evenodd" clip-rule="evenodd" d="M11.2117 -86.4314C45.7565 -87.7993 80.3664 -86.0966 114.543 -81.3479L137.271 -78.0384C140.698 -76.2909 144.008 -74.4111 147.229 -72.4254C136.92 -74.2523 126.727 -76.1321 116.3 -77.8795C100.684 -80.6041 84.9262 -82.6189 69.0865 -83.9161C51.2399 -85.2266 33.3051 -85.2266 15.4585 -83.9161C11.1238 -83.6249 6.8183 -83.3072 2.48354 -82.9365C5.41243 -84.1544 8.34132 -85.2664 11.2702 -86.299L11.2117 -86.4314ZM174.292 -51.0855C162.128 -51.9328 149.953 -52.9565 137.769 -54.1568C121.894 -55.8512 106.576 -60.5375 90.7018 -62.3115C76.1264 -63.9032 61.4478 -64.5932 46.7684 -64.3766C33.0026 -64.1913 19.2954 -63.2646 5.58817 -61.9673C-9.43705 -60.5376 -24.4037 -58.6842 -39.3996 -56.9633C-37.818 -58.3665 -36.2071 -59.7697 -34.567 -61.0935C-21.3869 -62.3379 -8.20692 -63.5029 4.94381 -64.3501C18.7682 -65.2239 32.6218 -65.7004 46.5048 -65.5416C61.3472 -65.4217 76.1708 -64.5555 90.9068 -62.9469C106.547 -61.2259 122.012 -58.3135 137.769 -57.3869C148.342 -56.7514 158.886 -56.1954 169.46 -55.6924C171.071 -54.2362 172.652 -52.727 174.175 -51.1649L174.292 -51.0855ZM-51.7595 -44.4135C-47.4248 -44.4135 -42.9729 -44.7047 -38.7553 -44.943C-24.3744 -45.6314 -10.1693 -47.3259 4.09444 -48.9145C17.5005 -50.6079 31.0081 -51.5628 44.5424 -51.7739C75.1494 -51.7739 105.346 -47.2994 135.748 -44.8371C151.369 -43.5662 167.107 -42.5072 182.962 -41.66C183.635 -40.8392 184.309 -40.0184 184.954 -39.1712L180.033 -39.6213C165.242 -40.9186 150.451 -42.2689 135.631 -43.5663C105.376 -46.0815 75.2372 -50.5295 44.8353 -50.6089C31.2401 -50.416 17.6677 -49.532 4.1823 -47.9613C-9.90567 -46.5316 -23.9644 -44.9695 -38.1109 -44.2811C-42.885 -44.0428 -47.6298 -43.8045 -52.4039 -43.5133L-51.7595 -44.4135ZM-48.0691 -31.1753C-31.1987 -32.5256 -14.5333 -35.0674 2.48354 -35.9146C22.747 -36.7798 43.0488 -36.5853 63.2873 -35.3321C80.8607 -34.3525 98.1997 -32.9757 115.685 -31.8373C133.171 -30.6988 151.066 -29.6397 168.786 -28.7131C176.87 -28.2894 184.983 -27.8923 193.067 -27.5216C193.74 -26.4626 194.355 -25.43 195 -24.3709C178.041 -25.5624 161.2 -26.8332 144.154 -27.9717C134.704 -28.6248 125.243 -29.2338 115.773 -29.7986C95.2709 -31.0165 74.7686 -32.4462 54.4128 -33.267C37.1637 -34.2464 19.8707 -34.432 2.6007 -33.823C-14.299 -32.9757 -31.1987 -32.155 -48.0691 -31.1753ZM203.581 -6.76421C184.046 -8.08803 164.568 -9.80898 145.091 -11.5564C125.614 -13.3039 106.694 -15.0778 87.48 -16.5075C69.9067 -17.8313 52.3333 -19.4464 34.7599 -20.8761C19.0318 -22.1734 3.27435 -23.2589 -12.4831 -23.5237C-30.9509 -24.0048 -49.433 -23.2615 -67.7806 -21.2997L-67.2534 -22.5706C-53.3997 -23.8149 -39.5168 -24.4769 -25.5167 -24.5828C-7.41612 -24.7416 10.6844 -24.0268 28.7264 -22.9412C48.35 -21.7763 67.9443 -20.2936 87.5386 -18.7315C114.338 -16.7193 141.02 -14.5747 167.761 -12.8008C179.125 -12.0242 190.518 -11.3446 201.941 -10.7621C202.527 -9.43832 203.054 -8.1145 203.581 -6.76421ZM-75.6007 -4.38135C-65.8182 -5.20212 -55.9772 -5.7846 -46.3118 -6.26117C5.96793 -8.35754 58.3348 -7.89795 110.56 -4.88441C143.012 -3.24287 175.142 1.12571 207.36 4.80591C207.887 6.63277 208.355 8.51259 208.795 10.3659C196.2 9.12154 183.577 7.71831 170.983 6.23564C155.255 4.40878 139.556 2.55544 123.798 0.940384C107.133 -0.833527 90.4382 -2.34268 73.7142 -3.45468C33.7437 -6.04057 -6.37263 -6.22632 -46.3704 -4.01069C-56.4458 -3.45468 -66.5505 -2.95164 -76.6258 -2.23678C-76.3915 -2.95164 -76.1279 -3.64001 -75.8643 -4.3284L-75.6007 -4.38135ZM-71.9103 89.6095C-50.7051 86.1146 -27.5083 87.3325 -1.61691 94.7459C22.4293 101.63 46.4462 108.778 70.6389 115.291C89.9701 120.642 109.602 125.06 129.451 128.53C142.309 130.701 155.167 132.236 168.112 133.242C166.296 134.857 164.422 136.446 162.518 137.982C150.539 136.42 138.677 134.354 126.786 131.813C107.191 127.682 87.9779 122.387 68.5594 117.251C44.8353 110.87 21.1699 104.674 -2.81776 99.1409C-24.2164 93.8565 -46.6494 92.952 -68.4835 96.4933C-69.6844 94.2428 -70.8266 91.9394 -71.9103 89.6095ZM-79.8769 66.7869C-71.0902 65.6749 -61.7446 64.0072 -52.9579 63.6366C-38.7587 63.1371 -25.097 64.6652 -10.9894 66.2044C23.923 69.8052 58.0153 78.0393 92.6641 83.0433C127.724 88.5447 163.105 92.2221 198.631 94.0575C197.606 96.0961 196.493 98.1083 195.351 100.094C192.422 99.9352 189.2 99.7499 186.154 99.5381C154.099 96.9676 122.237 92.7065 90.7311 86.7765C76.6431 84.2877 62.5844 81.4812 48.555 78.8336C35.4336 76.186 22.195 73.5384 9.10284 71.2085C-2.61274 69.1433 -14.3283 67.29 -26.0439 66.2044C-35.8327 65.1167 -43.1452 65.3103 -52.9579 66.2044C-60.8074 67.1046 -71.3245 67.8724 -79.2033 69.1962L-79.8769 66.7869ZM-83.2451 35.5449C-64.7052 33.4185 -46.0168 32.5335 -27.3326 32.8973C-5.71736 33.1885 15.8979 34.6182 37.4252 36.2598C63.4045 38.219 89.208 41.8727 114.894 45.7118C146.556 50.4246 178.481 55.5345 210.493 58.2615C210.083 60.7238 209.615 63.1597 209.058 65.569C202.996 65.1454 196.962 64.5629 190.899 63.901C139.644 58.2615 89.6474 45.6059 38.1867 40.4959C13.4059 37.8201 -11.5155 36.3441 -36.4707 36.0744C-52.1402 35.9851 -67.7978 36.8698 -83.333 38.722V38.166C-83.333 37.2923 -83.333 36.4186 -83.333 35.5184L-83.2451 35.5449ZM-80.5506 12.6429C-74.107 12.0957 -67.6537 11.6986 -61.1906 11.4515C-30.4415 10.5509 0.339767 11.3467 30.9817 13.8343C62.9945 16.2172 94.8901 19.6591 126.786 22.9951C151.33 25.6428 175.874 28.0521 200.477 29.9584L211.958 30.8056C211.958 32.2883 211.958 33.771 212.134 35.2536L202.205 34.5123C177.543 32.3677 153.029 29.7201 128.543 27.0725C95.8859 23.3393 63.1995 19.3943 30.4252 16.482C0.0333328 13.5143 -30.5458 12.4086 -61.1027 13.1724C-67.7415 13.4372 -74.3706 13.9402 -80.9899 14.6816C-80.8727 13.9932 -80.7263 13.3048 -80.5506 12.6164V12.6429ZM101.685 167.397C87.9486 164.537 74.2707 161.466 60.6806 158.262C44.155 154.067 27.9687 148.848 12.2368 142.641C-6.56673 135.625 -25.4581 128.397 -45.2867 127.682C-46.0482 126.915 -46.8097 126.173 -47.5419 125.379C-24.1108 125.008 -2.1441 132.898 20.3205 140.682C37.1989 146.883 54.5063 152.083 72.1326 156.25C85.5079 159.18 98.9319 161.978 112.405 164.643C108.89 165.729 105.317 166.708 101.685 167.556V167.397Z" fill="#7A615A"/>
</g>
</g>
</g>
<path id="Vector_8" d="M172.509 13.9128C171.954 13.3976 171.225 13.1113 170.468 13.1113H97.9031H25.3492C24.5857 13.1113 23.8509 13.4024 23.2946 13.9253L9.34582 27.0353C8.74254 27.6023 8.40039 28.3934 8.40039 29.2213V55.6774C8.40039 56.5241 8.75817 57.3313 9.38545 57.9L24.0814 71.2228C24.6333 71.7231 25.3515 72.0002 26.0964 72.0002H97.9031H169.722C170.46 72.0002 171.171 71.7286 171.721 71.2374L186.599 57.9449C187.236 57.3758 187.6 56.562 187.6 55.7078V29.2322C187.6 28.3979 187.253 27.6013 186.642 27.0337L172.509 13.9128Z" fill="#6E544C"/>
<path id="Vector_9" d="M172.509 11.6901C171.954 11.175 171.225 10.8887 170.468 10.8887H97.9031H25.3492C24.5857 10.8887 23.8509 11.1798 23.2946 11.7026L9.34582 24.8126C8.74254 25.3796 8.40039 26.1707 8.40039 26.9987V53.4547C8.40039 54.3014 8.75817 55.1087 9.38545 55.6774L24.0814 69.0001C24.6333 69.5004 25.3515 69.7775 26.0964 69.7775H97.9031H169.722C170.46 69.7775 171.171 69.506 171.721 69.0147L186.599 55.7223C187.236 55.1531 187.6 54.3394 187.6 53.4851V27.0096C187.6 26.1753 187.253 25.3787 186.642 24.811L172.509 11.6901Z" fill="#B4A26C"/>
<path id="Vector_10" d="M172.684 7.23629C172.13 6.727 171.405 6.44434 170.653 6.44434H98.0004H25.3476C24.5953 6.44434 23.8705 6.727 23.3167 7.23629L9.3695 20.0645C8.75186 20.6326 8.40039 21.4334 8.40039 22.2726V50.4068C8.40039 51.2648 8.76769 52.0816 9.40945 52.651L24.1049 65.6884C24.6538 66.1754 25.3621 66.4443 26.0959 66.4443H98.0004H169.903C170.638 66.4443 171.347 66.1747 171.896 65.6867L186.593 52.6243C187.234 52.055 187.6 51.239 187.6 50.382V22.2726C187.6 21.4334 187.249 20.6326 186.631 20.0645L172.684 7.23629Z" fill="#FDE294"/>
<g id="Union" style="mix-blend-mode:soft-light">
<path d="M170.513 6.44434C171.355 6.44434 172.167 6.7604 172.785 7.32951L186.524 19.9661C187.21 20.5971 187.6 21.4846 187.6 22.4143V53.3406C187.6 54.2872 187.196 55.189 186.488 55.8213L171.822 68.9249C171.207 69.474 170.411 69.7776 169.585 69.7776H26.2354C25.4013 69.7776 24.5971 69.4678 23.9804 68.9087L9.49427 55.7761C8.79751 55.1445 8.40039 54.2498 8.40039 53.3117V22.4143C8.40039 21.4846 8.79048 20.5971 9.47649 19.9661L23.2154 7.32951C23.8341 6.7604 24.6457 6.44434 25.4881 6.44434H170.513Z" fill="#FDE294"/>
</g>
</g>
<g id="Play" filter="url(#filter0_i_690_13121)">
<text fill="#A4925F" xml:space="preserve" style="white-space: pre" font-family="Bungee" font-size="40" letter-spacing="0em"><tspan x="68.332" y="52.4">OK</tspan></text>
</g>
</g>
<defs>
<filter id="filter0_i_690_13121" x="70.6523" y="22.6001" width="54.6123" height="30" filterUnits="userSpaceOnUse" color-interpolation-filters="sRGB">
<feFlood flood-opacity="0" result="BackgroundImageFix"/>
<feBlend mode="normal" in="SourceGraphic" in2="BackgroundImageFix" result="shape"/>
<feColorMatrix in="SourceAlpha" type="matrix" values="0 0 0 0 0 0 0 0 0 0 0 0 0 0 0 0 0 0 127 0" result="hardAlpha"/>
<feOffset dy="-2"/>
<feComposite in2="hardAlpha" operator="arithmetic" k2="-1" k3="1"/>
<feColorMatrix type="matrix" values="0 0 0 0 0.425833 0 0 0 0 0.392122 0 0 0 0 0.298083 0 0 0 1 0"/>
<feBlend mode="normal" in2="shape" result="effect1_innerShadow_690_13121"/>
</filter>
</defs>
</svg>
