<svg width="27" height="109" viewBox="0 0 27 109" fill="none" xmlns="http://www.w3.org/2000/svg">
<g id="Logotype/Arrow">
<g id="Group">
<g id="Group_2">
<g id="Vector">
<path d="M0.000441284 37.8047L11.5195 46.3643V6.41962L0.000441284 -6.20863e-05V37.8047Z" fill="#E25252"/>
<path d="M0.500441 0.850997L11.0195 6.71337V45.3698L0.500441 37.5533V0.850997Z" stroke="#C83838" stroke-opacity="0.5"/>
</g>
<path id="Intersect" fill-rule="evenodd" clip-rule="evenodd" d="M11.5191 13.7653L0 6.9325V0.000488281L11.5191 6.42016V13.7653Z" fill="#C83838" fill-opacity="0.5"/>
<path id="Intersect_2" opacity="0.1" fill-rule="evenodd" clip-rule="evenodd" d="M0 24.0394L11.5191 30.8722V24.9007L0 18.0679V24.0394Z" fill="#FFC1C1"/>
<path id="Intersect_3" opacity="0.2" fill-rule="evenodd" clip-rule="evenodd" d="M11.5191 45.7854L0 37.2258V34.3843L11.5191 41.2171V45.7854Z" fill="#FFC1C1"/>
<path id="Intersect_4" opacity="0.7" fill-rule="evenodd" clip-rule="evenodd" d="M0 12.6828L11.5191 19.5156V18.3264L0 11.4937V12.6828Z" fill="#B22222"/>
<path id="Intersect_5" opacity="0.7" fill-rule="evenodd" clip-rule="evenodd" d="M0 30.4176L11.5191 37.2504V36.0613L0 29.2285V30.4176Z" fill="#B22222"/>
<path id="Intersect_6" fill-rule="evenodd" clip-rule="evenodd" d="M11.5191 46.3646L0 37.805V30.0405L11.5191 36.8733V46.3646Z" fill="#C83838" fill-opacity="0.5"/>
</g>
<g id="Vector_2">
<path d="M0.000441284 37.8047L11.5195 46.3643V6.41962L0.000441284 -6.20863e-05V37.8047Z" fill="#E25252"/>
<path d="M0.500441 0.850997L11.0195 6.71337V45.3698L0.500441 37.5533V0.850997Z" stroke="#C83838" stroke-opacity="0.5"/>
</g>
<path id="Intersect_7" fill-rule="evenodd" clip-rule="evenodd" d="M11.5191 13.7653L0 6.9325V0.000488281L11.5191 6.42016V13.7653Z" fill="#C83838" fill-opacity="0.5"/>
<path id="Intersect_8" opacity="0.1" fill-rule="evenodd" clip-rule="evenodd" d="M0 24.0394L11.5191 30.8722V24.9007L0 18.0679V24.0394Z" fill="#FFC1C1"/>
<path id="Intersect_9" opacity="0.2" fill-rule="evenodd" clip-rule="evenodd" d="M11.5191 45.7854L0 37.2258V34.3843L11.5191 41.2171V45.7854Z" fill="#FFC1C1"/>
<path id="Intersect_10" opacity="0.5" fill-rule="evenodd" clip-rule="evenodd" d="M0 12.6828L11.5191 19.5156V18.3264L0 11.4937V12.6828Z" fill="#B22222"/>
<path id="Intersect_11" opacity="0.5" fill-rule="evenodd" clip-rule="evenodd" d="M0 30.4176L11.5191 37.2504V36.0613L0 29.2285V30.4176Z" fill="#B22222"/>
<path id="Intersect_12" fill-rule="evenodd" clip-rule="evenodd" d="M11.5191 46.3646L0 37.805V30.0405L11.5191 36.8733V46.3646Z" fill="#C83838" fill-opacity="0.5"/>
</g>
<ellipse id="Ellipse" cx="12.9996" cy="103" rx="5" ry="3" transform="rotate(32.2848 12.9996 103)" fill="#32460A"/>
<g id="Group_3">
<g id="Group_4">
<g id="Vector_3">
<path d="M26.9996 37.8047L15.4805 46.3643V6.41962L26.9996 -6.20863e-05V37.8047Z" fill="#E25252"/>
<path d="M26.4996 0.850997L15.9805 6.71337V45.3698L26.4996 37.5533V0.850997Z" stroke="#C83838" stroke-opacity="0.5"/>
</g>
<path id="Intersect_13" fill-rule="evenodd" clip-rule="evenodd" d="M15.4809 13.7653L27 6.9325V0.000488281L15.4809 6.42016V13.7653Z" fill="#C83838" fill-opacity="0.5"/>
<path id="Intersect_14" opacity="0.1" fill-rule="evenodd" clip-rule="evenodd" d="M27 24.0364L15.4809 30.8692V24.8977L27 18.0649V24.0364Z" fill="#FFC1C1"/>
<path id="Intersect_15" opacity="0.2" fill-rule="evenodd" clip-rule="evenodd" d="M15.4809 45.7856L27 37.226V34.3843L15.4809 41.2171V45.7856Z" fill="#FFC1C1"/>
<path id="Intersect_16" opacity="0.7" fill-rule="evenodd" clip-rule="evenodd" d="M27 12.6828L15.4809 19.5156V18.3264L27 11.4937V12.6828Z" fill="#B22222"/>
<path id="Intersect_17" opacity="0.7" fill-rule="evenodd" clip-rule="evenodd" d="M27 30.4176L15.4809 37.2504V36.0613L27 29.2285V30.4176Z" fill="#B22222"/>
<path id="Intersect_18" fill-rule="evenodd" clip-rule="evenodd" d="M15.4809 46.3646L27 37.805V30.0405L15.4809 36.8733V46.3646Z" fill="#C83838" fill-opacity="0.5"/>
</g>
<g id="Vector_4">
<path d="M26.9996 37.8047L15.4805 46.3643V6.41962L26.9996 -6.20863e-05V37.8047Z" fill="#E25252"/>
<path d="M26.4996 0.850997L15.9805 6.71337V45.3698L26.4996 37.5533V0.850997Z" stroke="#C83838" stroke-opacity="0.5"/>
</g>
<path id="Intersect_19" fill-rule="evenodd" clip-rule="evenodd" d="M15.4809 17.502L27 10.6693V0.000488281L15.4809 6.42016V17.502Z" fill="#C83838" fill-opacity="0.5"/>
<path id="Intersect_20" opacity="0.1" fill-rule="evenodd" clip-rule="evenodd" d="M27 21.2766L15.4809 28.1094V22.6521L27 15.8193V21.2766Z" fill="#FFC1C1"/>
<path id="Intersect_21" opacity="0.2" fill-rule="evenodd" clip-rule="evenodd" d="M15.4809 45.7856L27 37.226V34.3843L15.4809 41.2171V45.7856Z" fill="#FFC1C1"/>
<path id="Intersect_22" opacity="0.5" fill-rule="evenodd" clip-rule="evenodd" d="M27 7.51091L15.4809 14.3437V13.1546L27 6.32178V7.51091Z" fill="#B22222"/>
<path id="Intersect_23" opacity="0.5" fill-rule="evenodd" clip-rule="evenodd" d="M27 25.4382L15.4809 32.2709V31.0818L27 24.249V25.4382Z" fill="#B22222"/>
<path id="Intersect_24" fill-rule="evenodd" clip-rule="evenodd" d="M15.4809 46.3646L27 37.805V30.0405L15.4809 36.8733V46.3646Z" fill="#C83838" fill-opacity="0.5"/>
</g>
<path id="Rectangle" d="M16 105L11 101V8H16V105Z" fill="#473835"/>
<path id="Rectangle_2" d="M16 105L11 101V98H16V105Z" fill="#473835"/>
<g id="Rectangle_3" filter="url(#filter0_ii_673_17506)">
<path d="M16 103L11 99V6H16V103Z" fill="#6E544C"/>
</g>
<rect id="Rectangle_4" x="16.4863" y="72.125" width="6.03141" height="10.9555" transform="rotate(180 16.4863 72.125)" fill="#C0A381"/>
<g id="Rectangle_5" style="mix-blend-mode:multiply" opacity="0.8">
<rect x="16.4863" y="67.1455" width="6.03141" height="0.995956" transform="rotate(180 16.4863 67.1455)" fill="#C0A381"/>
</g>
<g id="Rectangle_6" style="mix-blend-mode:multiply" opacity="0.8">
<rect x="16.4863" y="63.1621" width="6.03141" height="1.99191" transform="rotate(180 16.4863 63.1621)" fill="#C0A381"/>
</g>
<g id="Rectangle_7" style="mix-blend-mode:multiply" opacity="0.5">
<rect x="16.4863" y="72.125" width="6.03141" height="1.99191" transform="rotate(180 16.4863 72.125)" fill="#C0A381"/>
</g>
</g>
<defs>
<filter id="filter0_ii_673_17506" x="11" y="6" width="5" height="97" filterUnits="userSpaceOnUse" color-interpolation-filters="sRGB">
<feFlood flood-opacity="0" result="BackgroundImageFix"/>
<feBlend mode="normal" in="SourceGraphic" in2="BackgroundImageFix" result="shape"/>
<feColorMatrix in="SourceAlpha" type="matrix" values="0 0 0 0 0 0 0 0 0 0 0 0 0 0 0 0 0 0 127 0" result="hardAlpha"/>
<feOffset dx="2"/>
<feComposite in2="hardAlpha" operator="arithmetic" k2="-1" k3="1"/>
<feColorMatrix type="matrix" values="0 0 0 0 0.278431 0 0 0 0 0.219608 0 0 0 0 0.207843 0 0 0 0.5 0"/>
<feBlend mode="normal" in2="shape" result="effect1_innerShadow_673_17506"/>
<feColorMatrix in="SourceAlpha" type="matrix" values="0 0 0 0 0 0 0 0 0 0 0 0 0 0 0 0 0 0 127 0" result="hardAlpha"/>
<feOffset dx="-1"/>
<feComposite in2="hardAlpha" operator="arithmetic" k2="-1" k3="1"/>
<feColorMatrix type="matrix" values="0 0 0 0 0.407843 0 0 0 0 0.301961 0 0 0 0 0.266667 0 0 0 1 0"/>
<feBlend mode="normal" in2="effect1_innerShadow_673_17506" result="effect2_innerShadow_673_17506"/>
</filter>
</defs>
</svg>
