<svg width="641" height="231" viewBox="0 0 641 231" fill="none" xmlns="http://www.w3.org/2000/svg">
<g id="Logotype/Back">
<g id="Vector" filter="url(#filter0_d_673_17502)">
<path d="M222.412 184.725C228.697 200.153 216.828 215.582 207.053 216.985C197.278 218.388 168.651 216.985 182.615 184.725C137.231 208.569 135.137 173.504 138.628 164.387C117.681 200.154 86.9604 177.711 81.3747 167.893C72.298 205.063 26.5893 185.366 29.3821 146.092C1.34656 159.417 -11.3321 111.027 21.5934 117.338C-1.4474 101.208 19.5016 82.2728 25.085 80.8701C-6.33431 73.857 12.626 14.9468 48.2346 47.2072C62.1987 12.8428 92.9199 22.1737 95.0145 34.7973C92.2216 -5.17754 125.736 9.55005 126.434 29.8882C139.7 -7.28148 141.794 20.0698 139.7 29.8882C145.284 15.1606 160.646 5.34218 169.024 8.14744C177.403 10.9527 189.056 21.4724 189.056 34.7973C193.245 8.14742 208.822 13.7579 213.71 24.2776C227.039 -6.58016 262.584 -7.28148 271.661 17.9658C277.246 -4.47623 294.702 17.9656 294.702 24.2774C305.175 0.432711 343.576 -12.1907 342.878 17.9658C357.176 -5.97024 382.495 10.1073 376.623 23.2772C390.704 -3.6548 416.316 1.33723 426.663 17.9658C435.041 -8.68411 465.064 4.64086 469.952 29.8882C481.821 7.44611 508.353 13.7579 509.051 24.2776C522.317 -3.77491 572.588 8.14742 562.813 29.8882C585.854 17.9658 583.061 21.4724 583.061 29.8882C595.629 17.9658 627.048 45.1033 610.99 62.636C638.809 56.3241 649.282 106.117 624.146 107.52C639.507 120.144 635.427 132.066 610.99 132.066C625.652 183.262 601.54 202.258 572.913 184.725C596.652 218.388 559.648 207.167 556.156 195.244C544.985 224.7 509.377 209.271 502.395 190.335C487.732 213.479 459.106 205.764 454.916 198.05C454.916 228.907 405.344 238.726 415.119 198.05C395.569 244.617 386.958 214.647 386.492 195.244C376.019 211.141 352.978 225.401 329.239 195.244C311.784 247.142 265.004 209.271 274.779 190.335C268.495 198.05 255.229 216.985 249.643 195.244C240.567 205.764 229.395 198.05 222.412 184.725Z" fill="#72873D"/>
</g>
<g id="Intersect" opacity="0.4" filter="url(#filter1_d_673_17502)">
<path fill-rule="evenodd" clip-rule="evenodd" d="M224.163 187.806C224.107 185.061 223.565 182.23 222.412 179.399C229.395 192.724 240.566 200.439 249.643 189.919C254.82 210.068 266.594 195.278 273.292 186.864C273.821 186.199 274.319 185.574 274.778 185.01C273.685 187.129 273.299 189.485 273.501 191.926C273.952 191.359 274.379 190.825 274.778 190.335C274.269 191.322 273.913 192.361 273.698 193.435C277.085 212.525 314.137 234.819 329.239 189.919C352.978 220.076 376.019 205.815 386.492 189.919C386.957 209.322 395.568 239.291 415.118 192.724C414.395 195.732 413.997 198.464 413.879 200.932C414.287 200.005 414.7 199.045 415.118 198.05C414.511 200.577 414.132 202.909 413.957 205.053C416.343 230.793 454.916 219.944 454.916 192.724C459.105 200.439 487.732 208.153 502.394 185.01C509.376 203.945 544.985 219.374 556.156 189.919C559.146 200.132 586.392 211.985 578.747 194.434C577.48 191.722 575.58 188.507 572.913 184.725C572.936 184.739 572.958 184.753 572.981 184.767C572.573 184.193 572.145 183.605 571.696 183C598.696 196 627.196 180.5 609.696 128.5C630.835 128.5 636.624 121.109 627.857 110.943C626.782 109.813 625.544 108.67 624.146 107.52C624.246 107.514 624.346 107.508 624.446 107.501C623.893 107.005 623.31 106.505 622.696 106C634.58 105.337 638.828 93.0058 637.064 80.8554C633.746 69.5531 624.375 59.5987 610.989 62.636C612.685 60.7837 613.852 58.8243 614.567 56.815C613.412 56.8696 612.219 57.0315 610.989 57.3105C613.411 54.6661 614.753 51.8031 615.243 48.8887C612.925 34.2436 592.582 20.8553 583.06 29.8882C583.06 29.0012 583.091 28.1687 583.12 27.4031C583.162 26.2796 583.198 25.3001 583.124 24.5035C583.103 24.5231 583.082 24.5429 583.061 24.5627C583.061 24.3879 583.062 24.2152 583.064 24.0447C582.496 20.7385 579.144 21.4377 562.812 29.8882C563.751 27.8003 564.136 25.803 564.053 23.9229C563.648 24.131 563.235 24.3443 562.813 24.5627C563.236 23.6216 563.546 22.6989 563.752 21.797C559.856 5.68117 520.55 -0.0395908 509.051 24.2776C508.352 13.7579 481.82 7.44611 469.951 29.8882C465.063 4.64086 435.041 -8.68411 426.662 17.9658C416.315 1.33723 390.703 -3.6548 376.622 23.2772C377.568 21.1547 377.705 18.9567 377.207 16.8629C377.01 17.2199 376.815 17.5828 376.622 17.9518C376.829 17.4879 376.997 17.0204 377.129 16.5512C374.243 5.81263 354.756 -1.92078 342.877 17.9658C343.575 -12.1907 305.174 0.432711 294.701 24.2774C294.701 17.9656 277.246 -4.47623 271.66 17.9658C262.583 -7.28148 227.038 -6.58016 213.709 24.2776C208.821 13.7579 193.245 8.14742 189.055 34.7973C189.055 21.4724 177.402 10.9527 169.024 8.14744C160.645 5.34218 145.284 15.1606 139.699 29.8882C140.101 28.002 140.349 25.4689 140.393 22.8704C140.147 23.4268 139.916 23.9911 139.699 24.5627C140.004 23.1349 140.22 21.3364 140.326 19.4194C139.771 9.8593 136.018 3.03122 126.433 29.8882C125.78 10.8744 96.4461 -3.23578 94.9108 27.6708C94.9368 28.2584 94.9711 28.8587 95.0139 29.4719C94.9752 29.2381 94.9266 29.0055 94.8684 28.7743C94.8176 30.6266 94.8623 32.6317 95.0136 34.7973C92.919 22.1737 62.1979 12.8428 48.2338 47.2072C32.7032 33.1369 20.3395 36.4095 13.9413 45.1552C8.30811 57.9476 12.7014 78.0214 26.1957 80.5C24.8711 80.9935 23.6585 81.5193 22.5505 82.0737C19.2322 84.1586 14.6113 88.608 12.3574 94.1646C10.8802 103.439 18.6812 113.486 22.1955 117C21.7138 116.908 21.2418 116.826 20.7793 116.755C21.0441 116.95 21.3152 117.144 21.5926 117.338C10.2024 115.155 4.26978 119.518 2.54258 125.608C0.832788 135.58 12.0617 148.999 29.3816 140.767C29.2513 142.599 29.2266 144.388 29.2987 146.132C29.3262 146.119 29.3538 146.106 29.3813 146.092C29.3634 146.343 29.3476 146.593 29.3337 146.843C31.3322 181.969 72.7787 197.767 81.3742 162.568C86.9598 172.386 117.681 194.828 138.627 159.061C137.982 160.746 137.528 163.316 137.502 166.237C137.88 165.638 138.255 165.022 138.627 164.387C138.164 165.595 137.8 167.258 137.621 169.18C138.758 181.819 148.344 197.405 182.614 179.399C181.601 181.741 180.812 183.919 180.223 185.946C181.006 185.558 181.803 185.15 182.614 184.725C180.529 189.541 179.394 193.669 179.003 197.203C180.904 212.159 199.542 212.737 207.052 211.659C214.338 210.614 222.788 201.776 224.016 190.954C223.78 188.901 223.262 186.813 222.412 184.725C222.97 185.79 223.555 186.819 224.163 187.806Z" fill="#72873D"/>
</g>
<g id="Vector_2" filter="url(#filter2_d_673_17502)">
<path d="M400.639 160.26C395.274 173.33 410.371 183.871 418.715 185.059C427.058 186.247 446.527 187.589 434.608 160.26C473.346 180.46 477.238 158.167 474.258 150.444C492.137 180.743 512.468 161.424 517.236 153.107C524.983 184.594 565.552 174.394 563.168 141.124C589.794 145.118 593.79 144.453 569.825 121.82C593.79 115.828 598.45 87.8699 572.088 79.7693C579.145 64.3225 569.825 48.5947 552.329 51.2523C540.409 22.1411 514.187 33.4291 512.399 44.123C514.783 10.259 486.177 22.7352 485.581 39.9643C474.258 8.47663 472.47 31.6468 474.258 39.9643C469.491 27.488 456.379 19.1706 449.228 21.547C442.076 23.9234 434.608 32.835 434.608 44.123C431.033 21.547 415.258 26.2998 411.086 35.2114C399.709 9.07074 369.369 8.47663 361.622 29.8645C356.854 10.8531 341.955 29.8642 341.955 35.2112C333.016 15.0116 300.238 4.31788 300.834 29.8645C288.661 9.63953 273.669 27.6339 278.89 39.0203C266.68 16.1867 238.138 15.7972 229.319 29.8645C222.167 7.28842 196.541 18.5764 192.369 39.9643C182.238 20.9529 159.591 26.2998 158.995 35.2114C147.672 11.4472 104.763 21.547 113.107 39.9643C93.4398 29.8645 95.8237 32.835 95.8237 39.9643C85.0964 29.8645 58.2783 49.47 71.9854 64.3225C48.2401 58.9756 39.3007 101.157 60.7552 102.345C47.6441 113.039 51.1268 123.139 71.9854 123.139C59.4702 166.509 74.3691 172.45 98.8035 157.597C78.5409 186.115 110.127 176.609 113.107 166.509C122.642 191.462 153.036 178.391 158.995 162.35C171.51 181.956 195.945 175.421 199.521 168.885C199.521 195.026 241.834 203.344 233.49 168.885C250.177 208.334 257.527 182.946 257.925 166.509C266.864 179.975 289.194 194.718 309.456 169.172C324.355 213.136 364.284 181.054 355.941 165.013C361.305 171.548 372.628 187.589 377.395 169.172C385.143 178.083 394.678 171.548 400.639 160.26Z" fill="#32460A"/>
</g>
<path id="Intersect_2" opacity="0.4" fill-rule="evenodd" clip-rule="evenodd" d="M399.783 161.806C399.268 159.244 399.457 156.485 400.639 153.603C394.679 164.891 385.143 171.427 377.396 162.515C372.977 179.584 362.928 167.055 357.21 159.927C356.759 159.364 356.334 158.835 355.941 158.356C357.145 160.67 357.344 163.317 356.759 166.022C356.474 165.667 356.201 165.329 355.941 165.013C356.216 165.541 356.438 166.086 356.611 166.645C352.488 182.527 322.042 199.652 309.457 162.515C289.194 188.062 266.865 173.319 257.925 159.852C257.528 176.289 250.178 201.677 233.491 162.229C234.331 165.7 234.658 168.737 234.565 171.366C234.211 170.569 233.853 169.742 233.491 168.885C233.901 170.581 234.189 172.172 234.365 173.663C231.434 194.19 199.521 184.931 199.521 162.229C195.945 168.764 171.511 175.299 158.996 155.694C153.036 171.734 122.643 184.805 113.107 159.852C110.127 169.952 87.2077 183.062 101.853 154.438C77.8882 165.755 63.9088 161.095 74.5597 118.491C53.7011 118.491 52.1291 111.212 65.2402 100.518C59.6711 100.209 53.7129 95.5928 48.643 88.8163C47.8731 76.5697 56.9685 60.9409 71.9859 64.3225C58.2788 49.47 85.097 29.8645 95.8242 39.9643C95.8242 39.2129 95.7978 38.5077 95.7734 37.8591C95.5667 32.354 95.5132 30.9289 113.107 39.9643C104.764 21.547 147.673 11.4472 158.996 35.2114C159.592 26.2998 182.238 20.9529 192.37 39.9643C196.541 18.5764 222.168 7.28842 229.319 29.8645C238.139 15.7972 266.681 16.1867 278.891 39.0203C273.67 27.6339 288.662 9.63953 300.834 29.8645C300.238 4.31788 333.016 15.0116 341.956 35.2112C341.956 29.8642 356.855 10.8531 361.622 29.8645C369.37 8.47663 399.71 9.07074 411.087 35.2114C415.259 26.2998 431.033 21.547 434.609 44.123C434.609 32.835 442.077 23.9234 449.228 21.547C456.38 19.1706 469.492 27.488 474.258 39.9643C472.471 31.6468 474.258 8.47663 485.582 39.9643C486.178 22.7352 514.784 10.259 512.4 44.123C514.188 33.4291 540.41 22.1411 552.329 51.2523C569.825 48.5947 579.145 64.3225 572.089 79.7693C580.653 82.4011 585.943 87.1289 588.361 92.5184C585.583 103.503 579.172 112.826 569.825 115.163C571.705 116.938 573.412 118.578 574.951 120.091C573.357 120.782 571.647 121.364 569.825 121.82C576.53 128.152 581.047 132.765 583.491 136.037C580.227 136.841 573.353 135.995 563.169 134.468C565.553 167.737 524.984 177.937 517.236 146.45C512.468 154.767 492.137 174.086 474.258 143.787C474.995 145.696 475.312 148.495 474.786 151.323C474.61 151.034 474.434 150.742 474.258 150.444C474.422 150.867 474.564 151.334 474.682 151.835C472.805 160.277 463.194 168.509 434.609 153.603C435.937 156.649 436.876 159.339 437.483 161.713C436.547 161.255 435.589 160.771 434.609 160.26C436.464 164.514 437.559 168.073 438.054 171.046C436.008 180.154 424.597 179.24 418.715 178.402C412.363 177.498 402.096 171.172 399.925 162.435C400.102 161.719 400.338 160.994 400.639 160.26C400.362 160.786 400.076 161.302 399.783 161.806Z" fill="#4C6024"/>
<path id="Subtract" fill-rule="evenodd" clip-rule="evenodd" d="M589.411 95.5731C587.791 88.9527 582.239 82.8887 572.088 79.7693C579.145 64.3225 569.824 48.5947 552.328 51.2523C540.487 22.332 514.53 33.2828 512.437 43.9126C512.583 45.9517 512.579 48.2349 512.4 50.7798C514.188 40.0858 540.41 28.7978 552.329 57.909C569.825 55.2515 575.552 68.429 568.495 83.8757C576.944 86.4719 584.217 90.7546 589.411 95.5731ZM512.425 43.7415C514.567 10.3532 486.174 22.8002 485.581 39.9643C475.523 11.9961 472.988 27.15 473.8 36.7156C474.483 29.2065 477.754 24.8548 485.582 46.621C486.131 30.723 510.531 18.8719 512.425 43.7415ZM473.685 38.5741C468.512 26.8773 456.11 19.26 449.227 21.547C442.076 23.9234 434.608 32.835 434.608 44.123C431.032 21.547 415.258 26.2998 411.086 35.2114C399.709 9.07074 369.369 8.47663 361.621 29.8645C356.854 10.8531 341.955 29.8642 341.955 35.2112C333.015 15.0116 300.237 4.31788 300.833 29.8645C289.288 10.6816 275.206 25.8811 278.241 37.2138C280.499 27.9827 291.496 21.0059 300.834 36.5212C300.238 10.9746 333.016 21.6683 341.955 41.8679C341.955 36.521 356.854 17.5098 361.622 36.5212C369.37 15.1334 399.71 15.7275 411.087 41.8682C415.258 32.9566 431.033 28.2037 434.609 50.7798C434.609 39.4917 442.077 30.5802 449.228 28.2037C456.38 25.8273 469.491 34.1448 474.258 46.621C473.806 44.5149 473.582 41.4564 473.685 38.5741ZM278.136 37.6736C265.543 16.1769 237.961 16.0793 229.318 29.8645C222.167 7.28842 196.54 18.5764 192.369 39.9643C182.237 20.9529 159.591 26.2998 158.995 35.2114C147.927 11.9822 106.679 21.1094 112.62 38.7333C117.337 25.8825 149.432 21.7969 158.996 41.8682C159.592 32.9566 182.238 27.6096 192.37 46.621C196.541 25.2332 222.168 13.9452 229.319 36.5212C238.139 22.4539 266.681 22.8435 278.891 45.677C277.741 43.17 277.571 40.3427 278.136 37.6736ZM112.353 39.5782C95.5138 30.9711 95.5687 32.4338 95.7724 37.8591C95.7968 38.5077 95.8233 39.2129 95.8233 39.9643C85.096 29.8645 58.2779 49.47 71.985 64.3225C63.7613 62.4707 57.3135 66.3197 53.2891 72.1922C59.6781 67.5982 67.6658 65.1533 76.5547 67.2337C62.8476 52.3812 87.1305 36.5212 97.8578 46.621C97.8578 45.5938 97.7887 44.6134 97.726 43.7236C97.3534 38.437 97.206 36.3451 113.107 46.621C111.963 44.095 111.782 41.7254 112.353 39.5782Z" fill="#495D21"/>
</g>
<defs>
<filter id="filter0_d_673_17502" x="0" y="0" width="640.391" height="231" filterUnits="userSpaceOnUse" color-interpolation-filters="sRGB">
<feFlood flood-opacity="0" result="BackgroundImageFix"/>
<feColorMatrix in="SourceAlpha" type="matrix" values="0 0 0 0 0 0 0 0 0 0 0 0 0 0 0 0 0 0 127 0" result="hardAlpha"/>
<feOffset dy="4"/>
<feGaussianBlur stdDeviation="1"/>
<feComposite in2="hardAlpha" operator="out"/>
<feColorMatrix type="matrix" values="0 0 0 0 0.230506 0 0 0 0 0.269451 0 0 0 0 0.132215 0 0 0 0.5 0"/>
<feBlend mode="normal" in2="BackgroundImageFix" result="effect1_dropShadow_673_17502"/>
<feBlend mode="normal" in="SourceGraphic" in2="effect1_dropShadow_673_17502" result="shape"/>
</filter>
<filter id="filter1_d_673_17502" x="0.371094" y="0" width="639.076" height="225.674" filterUnits="userSpaceOnUse" color-interpolation-filters="sRGB">
<feFlood flood-opacity="0" result="BackgroundImageFix"/>
<feColorMatrix in="SourceAlpha" type="matrix" values="0 0 0 0 0 0 0 0 0 0 0 0 0 0 0 0 0 0 127 0" result="hardAlpha"/>
<feOffset dy="4"/>
<feGaussianBlur stdDeviation="1"/>
<feComposite in2="hardAlpha" operator="out"/>
<feColorMatrix type="matrix" values="0 0 0 0 0.230506 0 0 0 0 0.269451 0 0 0 0 0.132215 0 0 0 0.5 0"/>
<feBlend mode="normal" in2="BackgroundImageFix" result="effect1_dropShadow_673_17502"/>
<feBlend mode="normal" in="SourceGraphic" in2="effect1_dropShadow_673_17502" result="shape"/>
</filter>
<filter id="filter2_d_673_17502" x="46.5967" y="14.645" width="545.321" height="181.071" filterUnits="userSpaceOnUse" color-interpolation-filters="sRGB">
<feFlood flood-opacity="0" result="BackgroundImageFix"/>
<feColorMatrix in="SourceAlpha" type="matrix" values="0 0 0 0 0 0 0 0 0 0 0 0 0 0 0 0 0 0 127 0" result="hardAlpha"/>
<feOffset dy="2"/>
<feGaussianBlur stdDeviation="1"/>
<feComposite in2="hardAlpha" operator="out"/>
<feColorMatrix type="matrix" values="0 0 0 0 0.0881307 0 0 0 0 0.104271 0 0 0 0 0.0473959 0 0 0 0.5 0"/>
<feBlend mode="normal" in2="BackgroundImageFix" result="effect1_dropShadow_673_17502"/>
<feBlend mode="normal" in="SourceGraphic" in2="effect1_dropShadow_673_17502" result="shape"/>
</filter>
</defs>
</svg>
