<svg width="262" height="139" viewBox="0 0 262 139" fill="none" xmlns="http://www.w3.org/2000/svg">
<g id="Logotype/ButtonBack">
<g id="Vector" filter="url(#filter0_d_673_17501)">
<path d="M21.9174 75.6586C4.53919 76.2021 -9.03758 54.4612 14.8575 33.8073V0.652344H244.576V49.5695C251.636 46.3083 273.902 59.3529 244.576 75.6586C272.273 68.0493 258.153 113.705 237.517 105.009C242.404 120.228 216.88 132.185 202.217 113.705C203.846 122.402 200.045 131.642 189.183 115.879C194.614 126.75 169.633 136.533 162.03 119.14C158.906 136.334 123.844 139.543 116.163 114.404C116.187 125.042 92.8759 133.575 85.9999 115.879C84.9137 126.75 82.1984 130.554 73.5092 115.879C73.5092 141.968 21.9174 133.816 29.5205 105.009C20.8314 116.966 -7.40827 97.9431 21.9174 75.6586Z" fill="#677C32"/>
</g>
<path id="Subtract" fill-rule="evenodd" clip-rule="evenodd" d="M3.06251 50.2269C2.60352 63.405 13.8673 74.0046 25.3089 73.6467C24.0351 74.319 22.8458 74.9917 21.737 75.6634C9.10451 75.9469 -1.45124 64.4619 3.06251 50.2269ZM14.8575 28.8018C14.8576 28.8018 14.8577 28.8017 14.8577 28.8017V0.652344H14.8575V28.8018ZM255.702 52.3274C257.901 58.6029 255.985 67.621 242.809 76.1467C243.533 75.8943 244.233 75.6701 244.908 75.473C262.57 65.5356 261.104 56.8316 255.702 52.3274ZM259.296 90.2821C255.693 98.9851 246.502 107.231 236.809 103.147C242.309 116.647 216.88 127.179 202.217 108.7C202.563 110.544 202.664 112.413 202.505 114.063C217.212 132.029 242.372 120.128 237.517 105.009C248.003 109.428 256.807 99.8118 259.296 90.2821ZM202.403 114.876C201.529 120.44 197.354 122.73 189.183 110.874C190.132 112.773 190.153 114.64 189.499 116.334C199.638 130.776 203.48 123.095 202.403 114.876ZM189.447 116.465C186.215 124.379 168.27 128.409 162.03 114.135C158.906 131.329 123.844 134.538 116.163 109.398C116.187 120.037 92.8761 128.57 86.0001 110.874C84.9139 121.744 82.1986 125.549 73.5094 110.874C73.5094 134.322 31.833 130.11 28.9165 108.102C25.6411 134.369 73.5092 141.009 73.5092 115.879C82.1984 130.554 84.9137 126.75 85.9999 115.879C92.8759 133.575 116.187 125.042 116.163 114.404C123.844 139.543 158.906 136.334 162.03 119.14C169.496 136.22 193.72 127.093 189.447 116.465ZM28.7581 105.929C28.7302 104.065 28.9704 102.088 29.5207 100.003C24.4391 106.996 11.548 103.294 8.92052 95.2138C8.73214 106.493 22.4371 112.614 28.7581 105.929Z" fill="#596E24"/>
</g>
<defs>
<filter id="filter0_d_673_17501" x="0" y="0.652344" width="262" height="138" filterUnits="userSpaceOnUse" color-interpolation-filters="sRGB">
<feFlood flood-opacity="0" result="BackgroundImageFix"/>
<feColorMatrix in="SourceAlpha" type="matrix" values="0 0 0 0 0 0 0 0 0 0 0 0 0 0 0 0 0 0 127 0" result="hardAlpha"/>
<feOffset dy="4"/>
<feGaussianBlur stdDeviation="1"/>
<feComposite in2="hardAlpha" operator="out"/>
<feColorMatrix type="matrix" values="0 0 0 0 0.230506 0 0 0 0 0.269451 0 0 0 0 0.132215 0 0 0 0.5 0"/>
<feBlend mode="normal" in2="BackgroundImageFix" result="effect1_dropShadow_673_17501"/>
<feBlend mode="normal" in="SourceGraphic" in2="effect1_dropShadow_673_17501" result="shape"/>
</filter>
</defs>
</svg>
