<svg width="641" height="308" viewBox="0 0 641 308" fill="none" xmlns="http://www.w3.org/2000/svg">
<g id="Logotype/Example">
<g id="Logotype/ButtonBack">
<g id="Vector" filter="url(#filter0_d_673_17505)">
<path d="M210.917 244.866C193.539 245.409 179.962 223.668 203.858 203.014V169.859H433.576V218.776C440.636 215.515 462.902 228.56 433.576 244.866C461.273 237.256 447.153 282.912 426.517 274.216C431.404 289.435 405.88 301.392 391.217 282.912C392.846 291.609 389.045 300.849 378.183 285.086C383.614 295.957 358.633 305.74 351.03 288.348C347.906 305.541 312.844 308.75 305.163 283.611C305.187 294.25 281.876 302.782 275 285.086C273.914 295.957 271.198 299.762 262.509 285.086C262.509 311.175 210.917 303.023 218.521 274.216C209.831 286.173 181.592 267.15 210.917 244.866Z" fill="#677C32"/>
</g>
<path id="Subtract" fill-rule="evenodd" clip-rule="evenodd" d="M192.063 219.434C191.604 232.612 202.867 243.212 214.309 242.854C213.035 243.526 211.846 244.199 210.737 244.87C198.105 245.154 187.549 233.669 192.063 219.434ZM203.858 198.009C203.858 198.009 203.858 198.009 203.858 198.009V169.859H203.858V198.009ZM444.702 221.534C446.901 227.81 444.985 236.828 431.809 245.354C432.533 245.101 433.233 244.877 433.908 244.68C451.57 234.743 450.104 226.039 444.702 221.534ZM448.296 259.489C444.693 268.192 435.502 276.438 425.809 272.354C431.309 285.854 405.88 296.386 391.217 277.907C391.563 279.751 391.664 281.62 391.505 283.27C406.212 301.236 431.372 289.335 426.517 274.216C437.003 278.635 445.807 269.019 448.296 259.489ZM391.403 284.083C390.529 289.647 386.354 291.937 378.183 280.081C379.132 281.98 379.153 283.847 378.499 285.541C388.638 299.984 392.48 292.302 391.403 284.083ZM378.447 285.672C375.215 293.586 357.27 297.616 351.03 283.342C347.906 300.536 312.844 303.745 305.163 278.605C305.187 289.244 281.876 297.777 275 280.081C273.914 290.951 271.199 294.756 262.509 280.081C262.509 303.529 220.833 299.317 217.916 277.309C214.641 303.576 262.509 310.216 262.509 285.086C271.198 299.762 273.914 295.957 275 285.086C281.876 302.782 305.187 294.25 305.163 283.611C312.844 308.75 347.906 305.541 351.03 288.348C358.496 305.427 382.72 296.3 378.447 285.672ZM217.758 275.136C217.73 273.272 217.97 271.295 218.521 269.21C213.439 276.203 200.548 272.501 197.921 264.421C197.732 275.7 211.437 281.821 217.758 275.136Z" fill="#596E24"/>
</g>
<g id="Logotype/Back">
<g id="Vector_2" filter="url(#filter1_d_673_17505)">
<path d="M222.412 184.932C228.697 200.36 216.828 215.789 207.053 217.192C197.278 218.595 168.651 217.192 182.615 184.932C137.231 208.776 135.137 173.711 138.628 164.594C117.681 200.361 86.9604 177.919 81.3747 168.1C72.298 205.27 26.5893 185.573 29.3821 146.299C1.34656 159.624 -11.3321 111.234 21.5934 117.545C-1.4474 101.415 19.5016 82.4798 25.085 81.0772C-6.33431 74.064 12.626 15.1538 48.2346 47.4142C62.1987 13.0498 92.9199 22.3807 95.0145 35.0044C92.2216 -4.97051 125.736 9.75708 126.434 30.0952C139.7 -7.07445 141.794 20.2768 139.7 30.0952C145.284 15.3676 160.646 5.54921 169.024 8.35447C177.403 11.1597 189.056 21.6794 189.056 35.0044C193.245 8.35446 208.822 13.965 213.71 24.4847C227.039 -6.37313 262.584 -7.07445 271.661 18.1728C277.246 -4.2692 294.702 18.1726 294.702 24.4844C305.175 0.639742 343.576 -11.9836 342.878 18.1728C357.176 -5.76321 382.495 10.3144 376.623 23.4843C390.704 -3.44777 416.316 1.54426 426.663 18.1728C435.041 -8.47708 465.064 4.84789 469.952 30.0952C481.821 7.65314 508.353 13.965 509.051 24.4847C522.317 -3.56788 572.588 8.35446 562.813 30.0952C585.854 18.1728 583.061 21.6794 583.061 30.0952C595.629 18.1728 627.048 45.3103 610.99 62.843C638.809 56.5312 649.282 106.324 624.146 107.727C639.507 120.351 635.427 132.273 610.99 132.273C625.652 183.469 601.54 202.465 572.913 184.932C596.652 218.595 559.648 207.374 556.156 195.451C544.985 224.907 509.377 209.478 502.395 190.542C487.732 213.686 459.106 205.971 454.916 198.257C454.916 229.114 405.344 238.933 415.119 198.257C395.569 244.824 386.958 214.854 386.492 195.451C376.019 211.348 352.978 225.608 329.239 195.451C311.784 247.349 265.004 209.478 274.779 190.542C268.495 198.257 255.229 217.192 249.643 195.451C240.567 205.971 229.395 198.257 222.412 184.932Z" fill="#72873D"/>
</g>
<g id="Intersect" opacity="0.4" filter="url(#filter2_d_673_17505)">
<path fill-rule="evenodd" clip-rule="evenodd" d="M224.163 188.013C224.107 185.268 223.565 182.437 222.412 179.606C229.395 192.931 240.566 200.646 249.643 190.126C254.82 210.275 266.594 195.485 273.292 187.071C273.821 186.406 274.319 185.781 274.778 185.217C273.685 187.336 273.299 189.692 273.501 192.133C273.952 191.567 274.379 191.032 274.778 190.542C274.269 191.529 273.913 192.568 273.698 193.642C277.085 212.733 314.137 235.026 329.239 190.126C352.978 220.283 376.019 206.022 386.492 190.126C386.957 209.529 395.568 239.498 415.118 192.931C414.395 195.939 413.997 198.671 413.879 201.139C414.287 200.212 414.7 199.252 415.118 198.257C414.511 200.784 414.132 203.116 413.957 205.26C416.343 231 454.916 220.151 454.916 192.931C459.105 200.646 487.732 208.36 502.394 185.217C509.376 204.152 544.985 219.581 556.156 190.126C559.146 200.339 586.392 212.192 578.747 194.641C577.48 191.929 575.58 188.714 572.913 184.932C572.936 184.946 572.958 184.96 572.981 184.974C572.573 184.4 572.145 183.812 571.696 183.207C598.696 196.207 627.196 180.707 609.696 128.707C630.835 128.707 636.624 121.316 627.857 111.15C626.782 110.02 625.544 108.877 624.146 107.727C624.246 107.721 624.346 107.715 624.446 107.708C623.893 107.212 623.31 106.712 622.696 106.207C634.58 105.544 638.828 93.2128 637.064 81.0624C633.746 69.7601 624.375 59.8057 610.989 62.843C612.685 60.9908 613.852 59.0313 614.567 57.022C613.412 57.0766 612.219 57.2385 610.989 57.5176C613.411 54.8731 614.753 52.0102 615.243 49.0957C612.925 34.4506 592.582 21.0623 583.06 30.0952C583.06 29.2082 583.091 28.3757 583.12 27.6101C583.162 26.4867 583.198 25.5072 583.124 24.7105C583.103 24.7301 583.082 24.7499 583.061 24.7697C583.061 24.5949 583.062 24.4222 583.064 24.2517C582.496 20.9456 579.144 21.6447 562.812 30.0952C563.751 28.0073 564.136 26.01 564.053 24.1299C563.648 24.3381 563.235 24.5513 562.813 24.7697C563.236 23.8286 563.546 22.9059 563.752 22.004C559.856 5.8882 520.55 0.16744 509.051 24.4847C508.352 13.965 481.82 7.65314 469.951 30.0952C465.063 4.84789 435.041 -8.47708 426.662 18.1728C416.315 1.54426 390.703 -3.44777 376.622 23.4843C377.568 21.3618 377.705 19.1638 377.207 17.0699C377.01 17.4269 376.815 17.7899 376.622 18.1588C376.829 17.695 376.997 17.2275 377.129 16.7583C374.243 6.01967 354.756 -1.71375 342.877 18.1728C343.575 -11.9836 305.174 0.639742 294.701 24.4844C294.701 18.1726 277.246 -4.2692 271.66 18.1728C262.583 -7.07445 227.038 -6.37313 213.709 24.4847C208.821 13.965 193.245 8.35446 189.055 35.0044C189.055 21.6794 177.402 11.1597 169.024 8.35447C160.645 5.54921 145.284 15.3676 139.699 30.0952C140.101 28.2091 140.349 25.6759 140.393 23.0774C140.147 23.6338 139.916 24.1981 139.699 24.7697C140.004 23.3419 140.22 21.5434 140.326 19.6264C139.771 10.0663 136.018 3.23825 126.433 30.0952C125.78 11.0814 96.4461 -3.02875 94.9108 27.8778C94.9368 28.4655 94.9711 29.0658 95.0139 29.6789C94.9752 29.4452 94.9266 29.2125 94.8684 28.9813C94.8176 30.8336 94.8623 32.8387 95.0136 35.0044C92.919 22.3807 62.1979 13.0498 48.2338 47.4142C32.7032 33.3439 20.3395 36.6165 13.9413 45.3623C8.30811 58.1546 12.7014 78.2285 26.1957 80.707C24.8711 81.2005 23.6585 81.7264 22.5505 82.2807C19.2322 84.3656 14.6113 88.8151 12.3574 94.3716C10.8802 103.646 18.6812 113.693 22.1955 117.207C21.7138 117.115 21.2418 117.033 20.7793 116.962C21.0441 117.157 21.3152 117.351 21.5926 117.545C10.2024 115.362 4.26978 119.725 2.54258 125.815C0.832788 135.787 12.0617 149.206 29.3816 140.974C29.2513 142.806 29.2266 144.596 29.2987 146.339C29.3262 146.326 29.3538 146.313 29.3813 146.299C29.3634 146.55 29.3476 146.8 29.3337 147.05C31.3322 182.176 72.7787 197.974 81.3742 162.775C86.9598 172.593 117.681 195.035 138.627 159.268C137.982 160.953 137.528 163.523 137.502 166.444C137.88 165.845 138.255 165.229 138.627 164.594C138.164 165.802 137.8 167.466 137.621 169.388C138.758 182.026 148.344 197.612 182.614 179.606C181.601 181.948 180.812 184.126 180.223 186.153C181.006 185.765 181.803 185.358 182.614 184.932C180.529 189.748 179.394 193.876 179.003 197.41C180.904 212.366 199.542 212.944 207.052 211.867C214.338 210.821 222.788 201.983 224.016 191.161C223.78 189.108 223.262 187.02 222.412 184.932C222.97 185.997 223.555 187.026 224.163 188.013Z" fill="#72873D"/>
</g>
<g id="Vector_3" filter="url(#filter3_d_673_17505)">
<path d="M400.639 160.467C395.274 173.537 410.371 184.078 418.715 185.266C427.058 186.454 446.527 187.796 434.608 160.467C473.346 180.667 477.238 158.374 474.258 150.651C492.137 180.95 512.468 161.631 517.236 153.314C524.983 184.801 565.552 174.601 563.168 141.331C589.794 145.325 593.79 144.66 569.825 122.027C593.79 116.035 598.45 88.0769 572.088 79.9763C579.145 64.5296 569.825 48.8018 552.329 51.4593C540.409 22.3481 514.187 33.6361 512.399 44.3301C514.783 10.466 486.177 22.9422 485.581 40.1713C474.258 8.68366 472.47 31.8538 474.258 40.1713C469.491 27.6951 456.379 19.3776 449.228 21.754C442.076 24.1305 434.608 33.042 434.608 44.3301C431.033 21.754 415.258 26.5069 411.086 35.4185C399.709 9.27777 369.369 8.68366 361.622 30.0715C356.854 11.0601 341.955 30.0713 341.955 35.4182C333.016 15.2186 300.238 4.52491 300.834 30.0715C288.661 9.84656 273.669 27.8409 278.89 39.2273C266.68 16.3938 238.138 16.0042 229.319 30.0715C222.167 7.49545 196.541 18.7835 192.369 40.1713C182.238 21.1599 159.591 26.5069 158.995 35.4185C147.672 11.6542 104.763 21.754 113.107 40.1713C93.4398 30.0715 95.8237 33.042 95.8237 40.1713C85.0964 30.0715 58.2783 49.677 71.9854 64.5296C48.2401 59.1826 39.3007 101.364 60.7552 102.552C47.6441 113.246 51.1268 123.346 71.9854 123.346C59.4702 166.716 74.3691 172.657 98.8035 157.804C78.5409 186.322 110.127 176.816 113.107 166.716C122.642 191.669 153.036 178.598 158.995 162.557C171.51 182.163 195.945 175.628 199.521 169.092C199.521 195.233 241.834 203.551 233.49 169.092C250.177 208.541 257.527 183.153 257.925 166.716C266.864 180.183 289.194 194.925 309.456 169.379C324.355 213.343 364.284 181.261 355.941 165.22C361.305 171.755 372.628 187.796 377.395 169.379C385.143 178.29 394.678 171.755 400.639 160.467Z" fill="#32460A"/>
</g>
<path id="Intersect_2" opacity="0.4" fill-rule="evenodd" clip-rule="evenodd" d="M399.783 162.013C399.268 159.451 399.457 156.692 400.639 153.81C394.679 165.098 385.143 171.634 377.396 162.722C372.977 179.791 362.928 167.262 357.21 160.134C356.759 159.571 356.334 159.042 355.941 158.563C357.145 160.877 357.344 163.524 356.759 166.229C356.474 165.874 356.201 165.536 355.941 165.22C356.216 165.748 356.438 166.293 356.611 166.852C352.488 182.734 322.042 199.859 309.457 162.722C289.194 188.269 266.865 173.526 257.925 160.059C257.528 176.496 250.178 201.884 233.491 162.436C234.331 165.907 234.658 168.944 234.565 171.573C234.211 170.776 233.853 169.949 233.491 169.092C233.901 170.788 234.189 172.379 234.365 173.87C231.434 194.397 199.521 185.138 199.521 162.436C195.945 168.971 171.511 175.506 158.996 155.901C153.036 171.941 122.643 185.012 113.107 160.059C110.127 170.159 87.2077 183.269 101.853 154.645C77.8882 165.962 63.9088 161.302 74.5597 118.698C53.7011 118.698 52.1291 111.419 65.2402 100.725C59.6711 100.416 53.7129 95.7998 48.643 89.0233C47.8731 76.7768 56.9685 61.1479 71.9859 64.5296C58.2788 49.677 85.097 30.0715 95.8242 40.1713C95.8242 39.4199 95.7978 38.7147 95.7734 38.0662C95.5667 32.5611 95.5132 31.136 113.107 40.1713C104.764 21.754 147.673 11.6542 158.996 35.4185C159.592 26.5069 182.238 21.1599 192.37 40.1713C196.541 18.7835 222.168 7.49545 229.319 30.0715C238.139 16.0042 266.681 16.3938 278.891 39.2273C273.67 27.8409 288.662 9.84656 300.834 30.0715C300.238 4.52491 333.016 15.2186 341.956 35.4182C341.956 30.0713 356.855 11.0601 361.622 30.0715C369.37 8.68366 399.71 9.27777 411.087 35.4185C415.259 26.5069 431.033 21.754 434.609 44.3301C434.609 33.042 442.077 24.1305 449.228 21.754C456.38 19.3776 469.492 27.6951 474.258 40.1713C472.471 31.8538 474.258 8.68366 485.582 40.1713C486.178 22.9422 514.784 10.466 512.4 44.3301C514.188 33.6361 540.41 22.3481 552.329 51.4593C569.825 48.8018 579.145 64.5296 572.089 79.9763C580.653 82.6081 585.943 87.3359 588.361 92.7255C585.583 103.71 579.172 113.033 569.825 115.37C571.705 117.145 573.412 118.785 574.951 120.298C573.357 120.989 571.647 121.571 569.825 122.027C576.53 128.359 581.047 132.972 583.491 136.244C580.227 137.048 573.353 136.202 563.169 134.675C565.553 167.945 524.984 178.144 517.236 146.657C512.468 154.974 492.137 174.294 474.258 143.994C474.995 145.903 475.312 148.702 474.786 151.53C474.61 151.241 474.434 150.949 474.258 150.651C474.422 151.074 474.564 151.541 474.682 152.042C472.805 160.484 463.194 168.716 434.609 153.81C435.937 156.856 436.876 159.546 437.483 161.92C436.547 161.462 435.589 160.978 434.609 160.467C436.464 164.721 437.559 168.28 438.054 171.254C436.008 180.361 424.597 179.447 418.715 178.609C412.363 177.705 402.096 171.379 399.925 162.642C400.102 161.926 400.338 161.201 400.639 160.467C400.362 160.993 400.076 161.509 399.783 162.013Z" fill="#4C6024"/>
<path id="Subtract_2" fill-rule="evenodd" clip-rule="evenodd" d="M589.411 95.7802C587.791 89.1598 582.239 83.0957 572.088 79.9763C579.145 64.5296 569.824 48.8018 552.328 51.4593C540.487 22.539 514.53 33.4898 512.437 44.1196C512.583 46.1587 512.579 48.4419 512.4 50.9868C514.188 40.2929 540.41 29.0049 552.329 58.1161C569.825 55.4585 575.552 68.636 568.495 84.0827C576.944 86.679 584.217 90.9616 589.411 95.7802ZM512.425 43.9485C514.567 10.5602 486.174 23.0073 485.581 40.1713C475.523 12.2032 472.988 27.357 473.8 36.9226C474.483 29.4135 477.754 25.0618 485.582 46.8281C486.131 30.9301 510.531 19.0789 512.425 43.9485ZM473.685 38.7812C468.512 27.0844 456.11 19.467 449.227 21.754C442.076 24.1305 434.608 33.042 434.608 44.3301C431.032 21.754 415.258 26.5069 411.086 35.4185C399.709 9.27777 369.369 8.68366 361.621 30.0715C356.854 11.0601 341.955 30.0713 341.955 35.4182C333.015 15.2186 300.237 4.52491 300.833 30.0715C289.288 10.8886 275.206 26.0881 278.241 37.4208C280.499 28.1897 291.496 21.2129 300.834 36.7282C300.238 11.1817 333.016 21.8754 341.955 42.075C341.955 36.728 356.854 17.7168 361.622 36.7282C369.37 15.3404 399.71 15.9345 411.087 42.0752C415.258 33.1636 431.033 28.4107 434.609 50.9868C434.609 39.6988 442.077 30.7872 449.228 28.4108C456.38 26.0343 469.491 34.3518 474.258 46.8281C473.806 44.7219 473.582 41.6634 473.685 38.7812ZM278.136 37.8806C265.543 16.384 237.961 16.2863 229.318 30.0715C222.167 7.49545 196.54 18.7835 192.369 40.1713C182.237 21.1599 159.591 26.5069 158.995 35.4185C147.927 12.1892 106.679 21.3164 112.62 38.9403C117.337 26.0895 149.432 22.0039 158.996 42.0752C159.592 33.1636 182.238 27.8166 192.37 46.8281C196.541 25.4402 222.168 14.1522 229.319 36.7282C238.139 22.661 266.681 23.0505 278.891 45.884C277.741 43.3771 277.571 40.5498 278.136 37.8806ZM112.353 39.7853C95.5138 31.1781 95.5687 32.6408 95.7724 38.0662C95.7968 38.7147 95.8233 39.4199 95.8233 40.1713C85.096 30.0715 58.2779 49.677 71.985 64.5296C63.7613 62.6778 57.3135 66.5267 53.2891 72.3992C59.6781 67.8052 67.6658 65.3603 76.5547 67.4407C62.8476 52.5882 87.1305 36.7282 97.8578 46.8281C97.8578 45.8009 97.7887 44.8205 97.726 43.9306C97.3534 38.6441 97.206 36.5521 113.107 46.8281C111.963 44.302 111.782 41.9325 112.353 39.7853Z" fill="#495D21"/>
</g>
<g id="Logotype/NameBack">
<path id="Vector_4" d="M506.465 52.5898H419.429H356.75H354.975H284.325H282.543H269.714H267.939H132.828L111 67.1027V93.9579V94.2299V130.4V130.667V155.54L132.828 172.035H265.883H267.658H282.543H284.325H354.975H356.75H417.374H506.465L528.3 155.54V130.667V130.4V94.2299V93.9579V67.1027L506.465 52.5898Z" fill="#473835"/>
<path id="Vector_5" d="M506.298 38.5801H419.429H356.75H354.975H284.325H282.543H269.714H267.939H133.002L111 54.995V81.2464V81.5541V123.258V123.56V151.106L132.934 167.971L265.883 167.6H267.658H282.543H284.325H354.975H356.75H417.374L506.369 167.444L528.3 151.106V123.56V123.258V81.5541V81.2464V54.995L506.298 38.5801Z" fill="#6E544C"/>
<path id="Vector_6" d="M499.418 44.8623H415.734H355.466H353.753H285.827H284.121H271.776H270.069H140.162L119.173 59.1341V85.5634V85.8277V116.84V117.111V143.534L140.162 157.812H268.095H269.801H284.121H285.827H353.753H355.466H413.753H499.418L520.414 143.534V117.111V116.84V85.8277V85.5634V59.1341L499.418 44.8623Z" fill="#977970"/>
<g id="Clippathgroup" opacity="0.5">
<mask id="mask0_673_17505" style="mask-type:luminance" maskUnits="userSpaceOnUse" x="119" y="32" width="402" height="140">
<g id="Clip-path">
<path id="Vector_7" d="M499.429 32.207H415.738H355.47H353.764H285.831H284.125H271.787H270.08H140.173L119.177 46.4788V72.9147V73.1724V130.544V130.808V157.237L140.173 171.509H268.099H269.812H284.125H285.831H353.764H355.47H413.764H499.429L520.418 157.237V130.808V130.544V73.1724V72.9147V46.4788L499.429 32.207Z" fill="white"/>
</g>
</mask>
<g mask="url(#mask0_673_17505)">
<g id="Group">
<g id="Vector_8" style="mix-blend-mode:multiply" opacity="0.5">
<path fill-rule="evenodd" clip-rule="evenodd" d="M525.05 -4.29574C520.029 -5.03621 515.025 -5.72669 510.039 -6.36719C481.381 -10.088 452.402 -12.6371 423.429 -14.5975C392.638 -16.6745 361.789 -18.085 330.933 -19.2735C300.19 -20.4619 269.204 -21.8059 238.656 -24.6493C212.999 -27.0206 187.739 -30.5526 163.124 -36.3449L162.017 -36.6059C164.705 -38.4571 167.453 -40.2472 170.259 -41.9761C222.609 -29.4475 276.623 -26.182 331.188 -22.128C361.433 -19.9066 391.697 -18.5182 422.032 -17.1854C449.269 -15.9914 476.543 -14.7752 503.644 -12.3983C508.713 -11.954 513.766 -11.4671 518.803 -10.9377C520.946 -8.76075 523.021 -6.53935 525.026 -4.27353L525.05 -4.29574ZM557.794 52.5831C525.476 44.7526 492.666 37.9515 459.365 32.1796C433.803 27.7368 408.069 23.9326 382.223 20.5172C357.881 17.2851 333.461 14.4084 309.042 11.5039C266.409 6.46136 223.87 1.39102 181.735 -5.56749C165.783 -8.2054 149.76 -10.7933 133.926 -13.7422C134.785 -14.5752 135.655 -15.4083 136.532 -16.2191C152.347 -12.7093 168.364 -9.67707 184.577 -6.96697C225.552 -0.0973053 267.421 4.92304 308.924 9.83233C333.526 12.7424 358.194 15.3247 382.827 18.107C408.934 21.0504 434.975 24.2159 460.875 28.0533C489.191 32.2406 517.246 37.1888 544.957 43.0977C548.419 43.8382 551.877 44.5934 555.331 45.3635C556.208 47.7515 557.015 50.158 557.753 52.5831H557.794ZM562.982 101.609C506.285 87.5589 448.304 76.6185 389.737 67.2276C342.006 59.5638 293.984 52.9052 245.98 46.241C215.219 41.9759 184.37 38.1273 153.786 33.3069C137.343 30.7356 120.675 27.8478 104.225 24.4269L104.444 24.0381C120.26 24.9989 141.257 29.6249 159.252 32.1129C188.165 36.0948 217.375 40.2377 246.294 44.2528C271.383 47.7293 296.53 50.9781 321.672 54.2491C371.689 60.7245 421.724 67.1721 471.249 75.5023C502.306 80.717 533.103 86.6815 563.426 93.7455C563.349 96.3778 563.207 99.0046 562.982 101.609ZM549.215 132.303C510.43 123.029 471.456 114.182 432.062 106.385C351.16 90.369 267.7 83.6604 185.424 72.6256C151.335 68.0495 117.199 62.6293 83.9863 55.3154C84.0278 55.171 84.0751 55.0266 84.1166 54.8822C93.259 57.0369 96.2848 53.405 105.634 55.2265C144.058 62.6904 192.979 71.0428 232.361 74.7803C266.705 78.0458 297.649 82.5552 331.957 86.0706C366.798 89.6526 401.396 94.1565 435.378 100.887C474.186 108.568 513.089 116.043 551.607 124.467C550.89 127.1 550.085 129.71 549.238 132.303H549.215ZM86.6983 82.322C113.113 87.1979 140.043 90.8966 166.57 94.212C204.076 98.8991 241.77 102.787 279.181 107.951C330.637 115.06 382.069 122.185 433.134 130.771C471.622 137.24 509.862 144.571 547.616 153.04C546.432 155.261 545.198 157.459 543.915 159.632C508.98 151.818 473.683 144.976 438.126 138.89C389.731 130.598 340.958 123.679 292.131 116.926C286.92 116.185 281.709 115.465 276.499 114.765C238.603 109.534 200.588 104.703 162.81 98.9935C137.349 95.1228 111.745 90.891 86.5147 85.7929C86.5621 84.6267 86.6233 83.4604 86.6983 82.2942V82.322ZM87.0476 102.986C99.6797 105.041 112.339 106.976 125.027 108.79C173.617 115.787 222.473 121.441 271.199 127.983C288.608 130.319 306.01 132.679 323.407 135.063C366.182 140.978 408.827 147.32 451.099 154.962C479.521 160.1 507.671 165.858 535.548 172.233C534.052 174.269 532.503 176.289 530.9 178.292C503.887 172.109 476.616 166.544 449.086 161.598C407.104 154.023 364.749 147.681 322.258 141.805C304.4 139.329 286.523 136.902 268.629 134.525C237.649 130.365 206.675 126.195 175.79 121.691C146.302 117.37 116.838 112.927 87.5983 107.762C87.3851 106.17 87.2016 104.569 87.0476 102.959V102.986ZM92.7143 130.321C130.285 136.252 168.205 141.167 206.083 145.921C279.436 155.134 352.895 163.758 425.691 175.165C456.961 180.058 488.148 185.461 519.016 191.653C516.79 193.93 514.49 196.161 512.118 198.345C411.302 177.487 307.834 163.358 205.118 148.686C167.755 143.355 130.344 138.012 93.2057 131.804C93.0399 131.304 92.8623 130.798 92.7024 130.293L92.7143 130.321ZM101.306 151.102C115.967 153.694 130.632 156.156 145.301 158.488C205.432 168.173 265.994 176.437 326.421 185.078C366.993 190.876 407.542 196.824 447.872 203.46C463.95 206.104 479.993 208.88 496 211.79C492.53 214.382 488.956 216.907 485.277 219.365C432.767 209.23 379.878 200.234 326.776 191.665C304.473 188.066 282.155 184.515 259.824 181.013C214.775 173.838 169.531 167.163 124.571 159.626C117.714 158.479 110.859 157.309 104.006 156.117C103.071 154.443 102.171 152.762 101.306 151.074V151.102ZM127.893 188.555C135.33 189.81 142.767 191.039 150.204 192.242C203.898 200.911 257.971 208.297 312.198 215.011C353.144 220.076 393.977 225.88 434.289 233.194C440.853 234.393 447.406 235.628 453.947 236.898C447.367 239.989 440.575 242.849 433.572 245.478C411.363 241.405 389.082 237.499 366.727 233.76C347.203 230.48 327.662 227.249 308.106 224.069C254.353 215.261 200.618 206.359 147.166 196.613C142.524 195.735 137.882 194.867 133.239 194.008C131.408 192.209 129.631 190.382 127.91 188.527L127.893 188.555ZM195.727 236.77C206.89 238.729 218.05 240.683 229.205 242.634C266.312 249.121 303.312 255.944 340.206 263.105L344.386 263.927C339.681 264.204 334.944 264.38 330.175 264.454C295.832 258.901 261.417 253.553 227.216 247.577L217.523 245.878C210.023 243.112 202.763 240.076 195.744 236.77H195.727ZM460.354 -52.7999C446.546 -53.3552 432.737 -54.1494 418.947 -54.9102C391.052 -56.4541 363.186 -57.9369 335.238 -58.8976L333.775 -58.9476C304.092 -59.9639 274.349 -61.0079 244.826 -63.607C236.648 -64.3234 228.353 -65.0231 220.057 -65.8284C221.389 -66.306 222.734 -66.7725 224.078 -67.2334C227.99 -66.8632 231.906 -66.5263 235.825 -66.2227C289.709 -62.0687 344.356 -65.2064 398.441 -62.9183C411.711 -62.363 424.998 -61.7077 438.28 -61.33L441.832 -61.2245C448.192 -58.6329 454.364 -55.8173 460.348 -52.7777L460.354 -52.7999Z" fill="#886759" fill-opacity="0.3"/>
</g>
<path id="Vector_9" style="mix-blend-mode:multiply" opacity="0.4" fill-rule="evenodd" clip-rule="evenodd" d="M321.62 54.3964C359.765 59.3402 397.921 64.2895 435.853 70.0572C447.701 71.861 459.513 73.7502 471.29 75.7247C502.32 80.9524 533.089 86.915 563.385 93.9855C563.385 92.872 563.426 91.8142 563.426 90.7286C563.426 89.643 563.426 88.5017 563.385 87.3882C563.08 75.661 561.182 64.0185 557.739 52.7429C525.453 44.8856 492.674 38.0694 459.401 32.2943C433.827 27.8404 408.081 24.0268 382.222 20.6029C357.869 17.3628 333.438 14.4789 309.008 11.5672C266.355 6.51212 223.797 1.42917 181.641 -5.54665C165.729 -8.17998 149.77 -10.7743 133.953 -13.7139C132.594 -12.3889 131.261 -11.0508 129.954 -9.69985C121.764 -1.25763 114.498 7.9376 108.266 17.7469L107.81 18.4707C106.625 20.3468 105.512 22.2453 104.434 24.1549C105.733 24.4332 107.036 24.706 108.343 24.9733C125.274 28.4417 142.513 31.1084 159.195 33.4077C188.122 37.3995 217.298 40.3724 246.207 44.3976C271.307 47.8827 296.466 51.1396 321.62 54.4187V54.3964Z" fill="#D4AC7B" fill-opacity="0.5"/>
<path id="Vector_10" style="mix-blend-mode:multiply" opacity="0.4" fill-rule="evenodd" clip-rule="evenodd" d="M511.956 198.196C411.142 177.339 307.674 163.185 204.965 148.535C169.732 143.534 134.474 138.471 99.4126 132.702L93.1514 131.646C94.6481 136.137 96.3837 140.553 98.3582 144.895C99.1283 146.596 99.9339 148.291 100.775 149.964C100.935 150.286 101.095 150.608 101.261 150.931L106.426 151.825C119.324 154.085 132.223 156.251 145.125 158.322C160.404 160.782 175.703 163.162 191.021 165.463C236.04 172.238 281.214 178.479 326.316 184.914C366.905 190.716 407.469 196.668 447.815 203.309C463.852 205.951 479.856 208.713 495.826 211.595C497.709 210.176 499.565 208.737 501.394 207.277C505.047 204.335 508.567 201.305 511.956 198.185V198.196Z" fill="#D4AC7B" fill-opacity="0.5"/>
</g>
</g>
</g>
<g id="Group_2">
<path id="Vector_11" d="M117.405 59.7578L111.001 55.1831L118.695 58.1918C118.81 58.2656 118.908 58.3598 118.984 58.4691C119.06 58.5785 119.113 58.7007 119.138 58.8289C119.164 58.9572 119.162 59.0889 119.133 59.2165C119.104 59.3441 119.049 59.4652 118.97 59.5728C118.892 59.6804 118.791 59.7724 118.674 59.8436C118.558 59.9147 118.427 59.9637 118.291 59.9876C118.154 60.0115 118.013 60.01 117.877 59.983C117.741 59.9561 117.612 59.9042 117.497 59.8305L117.405 59.7578Z" fill="#91766E"/>
<path id="Vector_12" d="M139.88 44.9965L132.935 38.8447L141.439 43.6618C141.538 43.7529 141.617 43.8615 141.672 43.9813C141.727 44.1012 141.756 44.23 141.758 44.3604C141.759 44.4908 141.734 44.6202 141.682 44.7412C141.63 44.8622 141.553 44.9726 141.456 45.0658C141.359 45.1591 141.243 45.2335 141.115 45.2848C140.987 45.3361 140.85 45.3633 140.711 45.3649C140.572 45.3664 140.433 45.3422 140.304 45.2938C140.175 45.2453 140.057 45.1735 139.958 45.0823C139.928 45.0568 139.902 45.028 139.88 44.9965Z" fill="#91766E"/>
<path id="Vector_13" d="M119.82 145.537L111.001 151.105L118.53 143.978C118.74 143.803 119.016 143.713 119.297 143.728C119.578 143.744 119.841 143.863 120.028 144.06C120.215 144.258 120.311 144.516 120.294 144.779C120.278 145.043 120.15 145.289 119.94 145.464L119.82 145.537Z" fill="#91766E"/>
<path id="Vector_14" d="M141.439 159.137L132.935 167.971L139.88 157.795C139.968 157.694 140.077 157.61 140.199 157.548C140.322 157.487 140.456 157.448 140.595 157.435C140.733 157.422 140.873 157.434 141.006 157.472C141.14 157.509 141.264 157.571 141.372 157.653C141.479 157.736 141.569 157.837 141.635 157.952C141.701 158.067 141.742 158.193 141.756 158.322C141.77 158.452 141.757 158.583 141.717 158.708C141.677 158.833 141.611 158.95 141.523 159.051L141.439 159.137Z" fill="#91766E"/>
<path id="Vector_15" d="M499.811 158.846L506.37 167.444L498.253 160.187C498.153 160.096 498.074 159.987 498.019 159.867C497.964 159.748 497.935 159.619 497.934 159.488C497.932 159.358 497.958 159.229 498.01 159.108C498.061 158.987 498.138 158.876 498.235 158.783C498.332 158.69 498.448 158.615 498.576 158.564C498.704 158.513 498.841 158.485 498.981 158.484C499.12 158.482 499.258 158.507 499.387 158.555C499.516 158.604 499.634 158.675 499.733 158.766L499.811 158.846Z" fill="#91766E"/>
<path id="Vector_16" d="M521.082 143.992L528.304 151.105L519.792 145.552C519.672 145.48 519.57 145.386 519.49 145.277C519.41 145.167 519.354 145.043 519.326 144.913C519.298 144.783 519.299 144.649 519.327 144.519C519.356 144.389 519.412 144.265 519.492 144.156C519.572 144.046 519.675 143.953 519.795 143.882C519.914 143.81 520.048 143.762 520.188 143.74C520.328 143.718 520.471 143.723 520.608 143.754C520.746 143.784 520.876 143.841 520.99 143.92L521.082 143.992Z" fill="#91766E"/>
<path id="Vector_17" d="M519.784 58.1918L528.314 55.1831L521.075 59.7578C520.863 59.933 520.586 60.0224 520.305 60.0063C520.023 59.9902 519.76 59.8699 519.573 59.6719C519.386 59.4739 519.29 59.2144 519.308 58.9504C519.325 58.6865 519.453 58.4398 519.664 58.2645L519.784 58.1918Z" fill="#91766E"/>
<path id="Vector_18" d="M498.252 44.7159L506.37 38.8447L499.81 46.0505C499.723 46.1516 499.615 46.2356 499.493 46.2976C499.371 46.3596 499.237 46.3985 499.099 46.412C498.961 46.4255 498.821 46.4133 498.688 46.3763C498.555 46.3392 498.431 46.2779 498.323 46.1959C498.106 46.0281 497.968 45.7873 497.939 45.5253C497.91 45.2633 497.992 45.001 498.168 44.7952L498.252 44.7159Z" fill="#91766E"/>
<path id="Vector_19" d="M499.416 158.866L520.412 144.588V59.1341L499.416 44.8623H140.16L119.171 59.1341V144.588L140.16 158.866H499.416Z" stroke="#AD938B" stroke-width="3" stroke-miterlimit="10" stroke-linecap="round"/>
</g>
</g>
<g id="Logotype/Name">
<g id="Group_3">
<g id="Others/Logotype" filter="url(#filter4_d_673_17505)">
<path d="M177.696 81.927V94.215H184.896C188.256 94.215 189.12 92.295 189.12 89.703V86.439C189.12 83.847 188.256 81.927 184.896 81.927H177.696ZM174.24 133.767H159.456C157.056 133.767 156 132.711 156 130.311V68.103C156 65.703 157.056 64.647 159.456 64.647H191.424C205.824 64.647 210.336 71.175 210.336 80.679V85.095C210.336 90.471 208.992 94.311 204.96 96.039C211.968 96.807 216.576 101.895 216.576 109.959V130.311C216.576 132.711 215.52 133.767 213.12 133.767H198.24C195.84 133.767 194.784 132.711 194.784 130.311V115.623C194.784 112.743 193.824 111.495 191.136 111.495H177.696V130.311C177.696 132.711 176.64 133.767 174.24 133.767Z" fill="#FDE294"/>
<path d="M285.435 115.623C285.435 127.335 279.675 135.207 255.675 135.207C231.675 135.207 225.819 127.335 225.819 115.623V82.887C225.819 71.175 231.675 63.207 255.675 63.207C279.675 63.207 285.435 71.175 285.435 82.887V115.623ZM247.611 112.167C247.611 114.759 248.763 116.679 255.675 116.679C262.683 116.679 263.739 114.759 263.739 112.167V86.343C263.739 83.847 262.683 81.927 255.675 81.927C248.763 81.927 247.611 83.847 247.611 86.343V112.167Z" fill="#FDE294"/>
<path d="M337.976 133.767H301.112C298.712 133.767 297.656 132.711 297.656 130.311V68.103C297.656 65.703 298.712 64.647 301.112 64.647H331.736C344.312 64.647 350.168 69.255 350.168 79.335V83.943C350.168 89.319 348.344 92.679 344.504 94.311C352.76 95.079 356.6 99.783 356.6 109.191V118.023C356.6 128.775 350.744 133.767 337.976 133.767ZM319.256 80.967V91.335H327.416C329.912 91.335 331.064 90.087 331.064 87.495V84.807C331.064 82.215 329.912 80.967 327.416 80.967H319.256ZM319.256 106.119V117.447H331.736C334.232 117.447 335.384 116.199 335.384 113.607V109.863C335.384 107.271 334.232 106.119 331.736 106.119H319.256Z" fill="#FDE294"/>
<path d="M369.139 133.767C366.739 133.767 365.683 132.711 365.683 130.311V118.887C365.683 116.487 366.739 115.431 369.139 115.431H378.643V83.175H369.139C366.739 83.175 365.683 82.119 365.683 79.719V68.103C365.683 65.703 366.739 64.647 369.139 64.647H410.035C412.435 64.647 413.491 65.703 413.491 68.103V79.719C413.491 82.119 412.435 83.175 410.035 83.175H400.723V115.431H410.035C412.435 115.431 413.491 116.487 413.491 118.887V130.311C413.491 132.711 412.435 133.767 410.035 133.767H369.139Z" fill="#FDE294"/>
<path d="M443.2 133.767H428.8C426.4 133.767 425.344 132.711 425.344 130.311V68.103C425.344 65.703 426.4 64.647 428.8 64.647H438.784C441.28 64.647 442.816 65.319 444.448 67.239L463.072 88.551V68.103C463.072 65.703 464.128 64.647 466.528 64.647H480.928C483.328 64.647 484.384 65.703 484.384 68.103V130.311C484.384 132.711 483.328 133.767 480.928 133.767H466.528C464.128 133.767 463.072 132.711 463.072 130.311V118.503L446.656 98.631V130.311C446.656 132.711 445.6 133.767 443.2 133.767Z" fill="#FDE294"/>
<path d="M184.896 93.715H178.196V82.427H184.896C186.48 82.427 187.365 82.8756 187.876 83.5212C188.406 84.1919 188.62 85.1802 188.62 86.439V89.703C188.62 90.9618 188.406 91.9501 187.876 92.6208C187.365 93.2664 186.48 93.715 184.896 93.715ZM159.456 134.267H174.24C175.501 134.267 176.523 133.991 177.222 133.293C177.92 132.594 178.196 131.572 178.196 130.311V111.995H191.136C192.413 111.995 193.149 112.292 193.588 112.804C194.045 113.337 194.284 114.216 194.284 115.623V130.311C194.284 131.572 194.56 132.594 195.258 133.293C195.957 133.991 196.979 134.267 198.24 134.267H213.12C214.381 134.267 215.403 133.991 216.102 133.293C216.8 132.594 217.076 131.572 217.076 130.311V109.959C217.076 105.831 215.895 102.421 213.776 99.9384C211.957 97.8073 209.472 96.3889 206.52 95.7785C207.922 94.8762 208.93 93.6492 209.615 92.1419C210.497 90.2018 210.836 87.8168 210.836 85.095V80.679C210.836 75.8554 209.691 71.6899 206.627 68.7389C203.568 65.7924 198.688 64.147 191.424 64.147H159.456C158.195 64.147 157.173 64.423 156.474 65.1215C155.776 65.82 155.5 66.842 155.5 68.103V130.311C155.5 131.572 155.776 132.594 156.474 133.293C157.173 133.991 158.195 134.267 159.456 134.267ZM255.675 135.707C267.707 135.707 275.287 133.738 279.861 130.203C284.471 126.639 285.935 121.561 285.935 115.623V82.887C285.935 76.9493 284.471 71.8483 279.862 68.2605C275.288 64.7 267.708 62.707 255.675 62.707C243.642 62.707 236.039 64.7001 231.441 68.2597C226.808 71.8466 225.319 76.9472 225.319 82.887V115.623C225.319 121.563 226.808 126.641 231.442 130.203C236.04 133.738 243.643 135.707 255.675 135.707ZM255.675 116.179C252.237 116.179 250.356 115.696 249.337 114.985C248.376 114.314 248.111 113.385 248.111 112.167V86.343C248.111 85.1792 248.373 84.2719 249.334 83.6111C250.354 82.9098 252.238 82.427 255.675 82.427C259.162 82.427 261.043 82.9104 262.05 83.6097C262.996 84.2668 263.239 85.1697 263.239 86.343V112.167C263.239 113.394 262.993 114.319 262.047 114.986C261.042 115.695 259.163 116.179 255.675 116.179ZM301.112 134.267H337.976C344.41 134.267 349.208 133.012 352.399 130.309C355.609 127.59 357.1 123.489 357.1 118.023V109.191C357.1 104.429 356.13 100.768 354.036 98.1954C352.208 95.9495 349.576 94.5932 346.15 94.0194C347.454 93.2035 348.476 92.1254 349.215 90.7705C350.204 88.9577 350.668 86.6834 350.668 83.943V79.335C350.668 74.1952 349.171 70.3549 345.979 67.8195C342.813 65.304 338.069 64.147 331.736 64.147H301.112C299.851 64.147 298.829 64.423 298.131 65.1215C297.432 65.82 297.156 66.842 297.156 68.103V130.311C297.156 131.572 297.432 132.594 298.131 133.293C298.829 133.991 299.851 134.267 301.112 134.267ZM327.416 90.835H319.756V81.467H327.416C328.587 81.467 329.342 81.7591 329.813 82.2581C330.289 82.7631 330.564 83.5739 330.564 84.807V87.495C330.564 88.7281 330.289 89.539 329.813 90.0439C329.342 90.5429 328.587 90.835 327.416 90.835ZM331.736 116.947H319.756V106.619H331.736C332.917 106.619 333.672 106.892 334.139 107.369C334.609 107.848 334.884 108.629 334.884 109.863V113.607C334.884 114.84 334.609 115.651 334.133 116.156C333.662 116.655 332.907 116.947 331.736 116.947ZM365.183 130.311C365.183 131.572 365.459 132.594 366.157 133.293C366.856 133.991 367.878 134.267 369.139 134.267H410.035C411.296 134.267 412.318 133.991 413.016 133.293C413.715 132.594 413.991 131.572 413.991 130.311V118.887C413.991 117.626 413.715 116.604 413.016 115.905C412.318 115.207 411.296 114.931 410.035 114.931H401.223V83.675H410.035C411.296 83.675 412.318 83.3991 413.016 82.7006C413.715 82.0021 413.991 80.9801 413.991 79.719V68.103C413.991 66.842 413.715 65.82 413.016 65.1215C412.318 64.423 411.296 64.147 410.035 64.147H369.139C367.878 64.147 366.856 64.423 366.157 65.1215C365.459 65.82 365.183 66.842 365.183 68.103V79.719C365.183 80.9801 365.459 82.0021 366.157 82.7006C366.856 83.3991 367.878 83.675 369.139 83.675H378.143V114.931H369.139C367.878 114.931 366.856 115.207 366.157 115.905C365.459 116.604 365.183 117.626 365.183 118.887V130.311ZM428.8 134.267H443.2C444.461 134.267 445.483 133.991 446.181 133.293C446.88 132.594 447.156 131.572 447.156 130.311V100.021L462.572 118.683V130.311C462.572 131.572 462.848 132.594 463.546 133.293C464.245 133.991 465.267 134.267 466.528 134.267H480.928C482.189 134.267 483.211 133.991 483.909 133.293C484.608 132.594 484.884 131.572 484.884 130.311V68.103C484.884 66.842 484.608 65.82 483.909 65.1215C483.211 64.423 482.189 64.147 480.928 64.147H466.528C465.267 64.147 464.245 64.423 463.546 65.1215C462.848 65.82 462.572 66.842 462.572 68.103V87.219L444.829 66.9152C444.828 66.9145 444.828 66.9139 444.827 66.9132C443.98 65.9166 443.132 65.2145 442.146 64.7676C441.161 64.3209 440.076 64.147 438.784 64.147H428.8C427.539 64.147 426.517 64.423 425.818 65.1215C425.12 65.82 424.844 66.842 424.844 68.103V130.311C424.844 131.572 425.12 132.594 425.818 133.293C426.517 133.991 427.539 134.267 428.8 134.267Z" stroke="#3E251E"/>
</g>
<path id="Intersect_3" fill-rule="evenodd" clip-rule="evenodd" d="M463.072 72.6761C470.167 72.9963 477.271 73.2973 484.384 73.5792V76.8526C477.276 76.4778 470.173 76.0834 463.072 75.6761V72.6761ZM425.344 70.8938C433.102 71.2782 440.86 71.6535 448.621 72.015L451.217 74.9853C443.525 74.5308 435.836 74.0655 428.146 73.5982C427.211 73.5414 426.277 73.4845 425.344 73.4277V70.8938ZM365.687 67.8366C370.617 68.091 375.544 68.3464 380.469 68.6017C391.483 69.1726 402.488 69.7431 413.491 70.2999V72.7029C397.441 71.7202 381.595 70.7526 365.683 69.8806V68.103C365.683 68.0123 365.684 67.9235 365.687 67.8366ZM303.541 64.647C316.748 65.2767 329.949 65.9575 343.149 66.6621C344.417 67.2605 345.508 67.9953 346.426 68.8703C333.535 68.195 320.644 67.4487 307.753 66.7025C304.508 66.5147 301.264 66.3269 298.019 66.1402C298.51 65.1163 299.512 64.647 301.112 64.647H303.541ZM156 78.9778C161.23 78.7666 166.443 78.5784 171.618 78.4056C184.461 78.0567 197.308 77.7858 210.157 77.5929C210.229 78.1724 210.278 78.7666 210.306 79.3745C197.378 79.606 184.454 79.9641 171.539 80.4487C168.791 80.5514 166.04 80.6522 163.289 80.753C160.86 80.842 158.43 80.931 156 81.0214V78.9778ZM156 95.9833V94.4061C163.231 94.2815 170.464 94.2044 177.696 94.1746V94.215H184.896C185.225 94.215 185.529 94.1967 185.812 94.1611C193.054 94.1668 200.296 94.22 207.536 94.3207C206.837 95.0237 205.985 95.5996 204.96 96.039C205.153 96.0602 205.344 96.0846 205.534 96.1123C189.032 95.7937 172.514 95.7506 156 95.9833ZM156 117.284V114.43C163.225 114.168 170.458 114 177.696 113.926V116.847C170.458 116.888 163.224 117.033 156 117.284ZM216.576 117.403C209.316 117.199 202.051 117.046 194.784 116.946V115.623C194.784 114.977 194.736 114.414 194.631 113.928C195.439 113.936 196.247 113.945 197.055 113.956C203.562 114.015 210.07 114.127 216.576 114.281V117.403ZM284.957 120.861C284.927 120.859 284.897 120.857 284.867 120.855C265.262 119.421 245.592 118.366 225.885 117.692C225.84 117.017 225.819 116.327 225.819 115.623V114.528C233.55 114.756 241.278 115.039 249.001 115.359C250.144 116.185 252.168 116.679 255.675 116.679C258.361 116.679 260.173 116.397 261.386 115.903C268.879 116.249 276.367 116.622 283.847 117.009C284.365 117.035 284.884 117.062 285.403 117.089C285.344 118.402 285.202 119.661 284.957 120.861ZM354.295 127.399C335.497 125.255 316.643 123.293 297.656 121.792V117.792C317.237 119.01 336.746 120.659 356.198 122.493C355.826 124.369 355.195 126.002 354.295 127.399ZM407.843 133.767C402.274 133.103 396.707 132.432 391.139 131.76C382.657 130.738 374.174 129.715 365.683 128.718V123.402C373.021 124.115 380.352 124.848 387.675 125.59C393.184 126.145 398.7 126.707 404.221 127.269C407.309 127.584 410.399 127.898 413.491 128.212V130.311C413.491 132.711 412.435 133.767 410.035 133.767H407.843ZM484.384 110.299V114.171C475.591 113.607 466.811 113.017 458.039 112.41L454.807 108.498C464.661 109.131 474.52 109.734 484.384 110.299ZM484.384 86.2921V91.4225C477.202 90.8821 470.021 90.323 462.847 89.7509C460.556 89.5707 458.265 89.3901 455.974 89.2095C445.762 88.4046 435.557 87.6002 425.344 86.8237V81.8632C436.698 82.5976 448.034 83.4311 459.364 84.3078L463.072 88.551V84.5962C470.177 85.1515 477.281 85.7214 484.384 86.2921ZM413.33 81.1259C402.862 80.5204 392.376 80.0156 381.865 79.6555C376.472 79.4447 371.078 79.2477 365.683 79.0644V79.719C365.683 81.2911 366.136 82.2865 367.123 82.7862C369.229 82.9132 371.334 83.0428 373.44 83.175H378.643V83.5069C385.635 83.9599 392.624 84.44 399.608 84.9436C399.98 84.9694 400.351 84.9952 400.723 85.0212V83.175H410.035C411.9 83.175 412.954 82.5371 413.33 81.1259ZM400.723 104.761C397.84 104.557 394.957 104.352 392.075 104.147C387.598 103.829 383.12 103.511 378.643 103.194V106.538C380.458 106.679 382.274 106.821 384.089 106.963C389.635 107.397 395.179 107.83 400.723 108.261V104.761ZM425.344 129.408V130.311C425.344 132.711 426.4 133.767 428.8 133.767H443.2C445.163 133.767 446.227 133.06 446.549 131.488C439.474 130.813 432.405 130.116 425.344 129.408ZM446.656 111.614C439.547 111.111 432.444 110.599 425.344 110.083V106.52C432.447 107.016 439.55 107.499 446.656 107.968V111.614ZM464.09 133.109C464.652 133.556 465.455 133.767 466.528 133.767H471.623C469.111 133.552 466.6 133.332 464.09 133.109ZM356.265 104.799C356.066 103.619 355.777 102.542 355.397 101.566C336.167 100.239 316.924 98.9731 297.656 97.8641V100.531C317.211 101.84 336.745 103.297 356.265 104.799ZM285.435 99.7325V97.1828C282.028 96.9994 278.62 96.8214 275.211 96.6495C271.388 96.4393 267.564 96.2424 263.739 96.0588V98.3831C267.316 98.5935 270.891 98.8168 274.465 99.0532C278.122 99.2733 281.779 99.5 285.435 99.7325ZM247.611 97.5235V95.364C240.351 95.0868 233.086 94.8575 225.819 94.676V96.643C233.088 96.883 240.352 97.1765 247.611 97.5235ZM226.049 79.1551C226.129 78.5538 226.231 77.9656 226.358 77.391C245.869 77.1975 265.384 77.1837 284.894 77.3496C285.044 78.0305 285.16 78.7307 285.245 79.449C265.519 79.0564 245.782 78.9585 226.049 79.1551ZM297.656 79.7349C309.272 80.0389 320.882 80.4451 332.483 80.9535C338.381 81.2191 344.276 81.5097 350.168 81.8231V79.335C350.168 79.0782 350.164 78.8248 350.157 78.5751C332.664 78.0666 315.162 77.7028 297.656 77.4837V79.7349ZM270.283 64.5957C262.774 64.203 255.262 63.8457 247.747 63.5487C250.139 63.3234 252.774 63.207 255.675 63.207C261.59 63.207 266.397 63.691 270.283 64.5957Z" fill="#E3C87A"/>
<g id="Others/Logotype_2" style="mix-blend-mode:color">
<path d="M177.696 81.927V94.215H184.896C188.256 94.215 189.12 92.295 189.12 89.703V86.439C189.12 83.847 188.256 81.927 184.896 81.927H177.696ZM174.24 133.767H159.456C157.056 133.767 156 132.711 156 130.311V68.103C156 65.703 157.056 64.647 159.456 64.647H191.424C205.824 64.647 210.336 71.175 210.336 80.679V85.095C210.336 90.471 208.992 94.311 204.96 96.039C211.968 96.807 216.576 101.895 216.576 109.959V130.311C216.576 132.711 215.52 133.767 213.12 133.767H198.24C195.84 133.767 194.784 132.711 194.784 130.311V115.623C194.784 112.743 193.824 111.495 191.136 111.495H177.696V130.311C177.696 132.711 176.64 133.767 174.24 133.767Z" fill="#FDE294"/>
<path d="M285.435 115.623C285.435 127.335 279.675 135.207 255.675 135.207C231.675 135.207 225.819 127.335 225.819 115.623V82.887C225.819 71.175 231.675 63.207 255.675 63.207C279.675 63.207 285.435 71.175 285.435 82.887V115.623ZM247.611 112.167C247.611 114.759 248.763 116.679 255.675 116.679C262.683 116.679 263.739 114.759 263.739 112.167V86.343C263.739 83.847 262.683 81.927 255.675 81.927C248.763 81.927 247.611 83.847 247.611 86.343V112.167Z" fill="#FDE294"/>
<path d="M337.976 133.767H301.112C298.712 133.767 297.656 132.711 297.656 130.311V68.103C297.656 65.703 298.712 64.647 301.112 64.647H331.736C344.312 64.647 350.168 69.255 350.168 79.335V83.943C350.168 89.319 348.344 92.679 344.504 94.311C352.76 95.079 356.6 99.783 356.6 109.191V118.023C356.6 128.775 350.744 133.767 337.976 133.767ZM319.256 80.967V91.335H327.416C329.912 91.335 331.064 90.087 331.064 87.495V84.807C331.064 82.215 329.912 80.967 327.416 80.967H319.256ZM319.256 106.119V117.447H331.736C334.232 117.447 335.384 116.199 335.384 113.607V109.863C335.384 107.271 334.232 106.119 331.736 106.119H319.256Z" fill="#FDE294"/>
<path d="M369.139 133.767C366.739 133.767 365.683 132.711 365.683 130.311V118.887C365.683 116.487 366.739 115.431 369.139 115.431H378.643V83.175H369.139C366.739 83.175 365.683 82.119 365.683 79.719V68.103C365.683 65.703 366.739 64.647 369.139 64.647H410.035C412.435 64.647 413.491 65.703 413.491 68.103V79.719C413.491 82.119 412.435 83.175 410.035 83.175H400.723V115.431H410.035C412.435 115.431 413.491 116.487 413.491 118.887V130.311C413.491 132.711 412.435 133.767 410.035 133.767H369.139Z" fill="#FDE294"/>
<path d="M443.2 133.767H428.8C426.4 133.767 425.344 132.711 425.344 130.311V68.103C425.344 65.703 426.4 64.647 428.8 64.647H438.784C441.28 64.647 442.816 65.319 444.448 67.239L463.072 88.551V68.103C463.072 65.703 464.128 64.647 466.528 64.647H480.928C483.328 64.647 484.384 65.703 484.384 68.103V130.311C484.384 132.711 483.328 133.767 480.928 133.767H466.528C464.128 133.767 463.072 132.711 463.072 130.311V118.503L446.656 98.631V130.311C446.656 132.711 445.6 133.767 443.2 133.767Z" fill="#FDE294"/>
</g>
</g>
</g>
<g id="Buttons/Rect/PlayText/Default">
<g id="Button/Rect/Fill/Default">
<path id="Vector_20" d="M239.572 271.826L240.243 271.084L239.572 271.826C240.307 272.491 241.264 272.859 242.255 272.859H320.195H397.341C398.3 272.859 399.227 272.515 399.953 271.889L415.807 258.22C416.689 257.46 417.195 256.354 417.195 255.191V208.258C417.195 207.076 416.672 205.954 415.767 205.194L399.804 191.796C399.084 191.191 398.173 190.859 397.233 190.859H320.195H242.33C241.355 190.859 240.414 191.215 239.683 191.86L239.683 191.86L224.549 205.214C223.688 205.973 223.195 207.066 223.195 208.213V255.234C223.195 256.364 223.674 257.442 224.512 258.2L239.572 271.826Z" fill="#725952" stroke="#725952" stroke-width="2"/>
<path id="Vector_21" d="M399.291 196.085C398.752 195.635 398.072 195.389 397.369 195.389L320.195 195.389H242.227C241.5 195.389 240.798 195.653 240.251 196.131L225.219 209.288C224.569 209.858 224.195 210.681 224.195 211.546V255.234C224.195 256.081 224.554 256.89 225.183 257.458L240.243 271.084C240.794 271.583 241.512 271.859 242.255 271.859H320.195H397.341C398.061 271.859 398.756 271.601 399.3 271.131L415.154 257.463C415.815 256.893 416.195 256.063 416.195 255.191V211.589C416.195 210.699 415.8 209.855 415.117 209.285L399.291 196.085Z" fill="#5F443C"/>
<path id="Vector_22" d="M399.291 192.556C398.752 192.106 398.072 191.859 397.369 191.859L320.195 191.859H242.227C241.5 191.859 240.798 192.123 240.251 192.602L225.219 205.759C224.569 206.329 224.195 207.152 224.195 208.017V251.704C224.195 252.552 224.554 253.36 225.183 253.929L240.243 267.555C240.794 268.054 241.512 268.33 242.255 268.33H320.195H397.341C398.061 268.33 398.756 268.072 399.3 267.602L415.154 253.933C415.815 253.364 416.195 252.534 416.195 251.661V208.06C416.195 207.17 415.8 206.326 415.117 205.756L399.291 192.556Z" fill="#96786F"/>
<g id="MaskGroup">
<mask id="mask1_673_17505" style="mask-type:alpha" maskUnits="userSpaceOnUse" x="224" y="191" width="193" height="78">
<path id="Vector_23" d="M399.291 192.556C398.752 192.106 398.072 191.859 397.369 191.859L320.195 191.859H242.227C241.5 191.859 240.798 192.123 240.251 192.602L225.219 205.759C224.569 206.329 224.195 207.152 224.195 208.017V251.704C224.195 252.552 224.554 253.36 225.183 253.929L240.243 267.555C240.794 268.054 241.512 268.33 242.255 268.33H320.195H397.341C398.061 268.33 398.756 268.072 399.3 267.602L415.154 253.933C415.815 253.364 416.195 252.534 416.195 251.661V208.06C416.195 207.17 415.8 206.326 415.117 205.756L399.291 192.556Z" fill="#96786F"/>
</mask>
<g mask="url(#mask1_673_17505)">
<g id="Group_4">
<path id="Vector_24" fill-rule="evenodd" clip-rule="evenodd" d="M315.392 274.457C350.572 280.371 386.076 284.326 421.727 286.304C423.491 282.667 425.079 278.946 426.491 275.139C427.314 272.951 428.079 270.764 428.784 268.519C430.108 264.343 431.255 259.996 432.196 255.735C426.138 255.28 420.109 254.655 414.052 253.945C362.59 247.894 312.392 234.314 260.724 228.831C235.844 225.959 210.822 224.376 185.766 224.086C170.083 224.007 154.412 224.956 138.862 226.927C138.862 231.132 139.068 235.28 139.45 239.399C139.45 240.337 139.656 241.246 139.745 242.24C140.316 247.214 141.18 253.417 142.293 258.304C151.115 257.139 160.06 255.59 168.882 255.193C183.138 254.657 197.602 255.874 211.767 257.526C246.82 261.39 280.721 269.144 315.509 274.514L315.392 274.457Z" fill="#89716A"/>
<path id="Vector_25" fill-rule="evenodd" clip-rule="evenodd" d="M252.546 204.176C284.782 206.594 316.196 210.435 348.314 213.821C373.029 216.508 398.027 219.12 422.801 221.055L434.329 221.859C434.063 217.586 433.591 212.537 432.913 208.398C432.677 206.867 432.412 205.362 432.087 203.857C431.763 202.352 431.586 201.438 431.32 200.229C418.638 198.966 405.986 197.542 393.304 196.037C377.466 194.183 361.658 192.302 345.79 190.663C329.009 188.862 312.198 187.33 295.357 186.202C266.13 184.267 237.079 183.676 207.91 184.348C196.821 184.616 185.702 185.046 174.554 185.637L171.84 185.826C162.609 186.309 153.378 186.82 144.176 187.438C142.428 192.408 141.01 198.247 139.929 203.372C146.417 202.808 152.79 202.372 159.279 202.13C190.243 201.225 221.691 201.642 252.546 204.176Z" fill="#88716A"/>
<path id="Vector_26" fill-rule="evenodd" clip-rule="evenodd" d="M233.407 103.428C267.952 102.06 302.562 103.762 336.738 108.511L359.466 111.821C362.893 113.568 366.203 115.448 369.425 117.433C359.115 115.607 348.922 113.727 338.496 111.979C322.879 109.255 307.122 107.24 291.282 105.943C273.435 104.632 255.5 104.632 237.654 105.943C233.319 106.234 229.014 106.552 224.679 106.922C227.608 105.704 230.537 104.592 233.466 103.56L233.407 103.428ZM396.488 138.773C384.323 137.926 372.149 136.902 359.964 135.702C344.09 134.008 328.772 129.321 312.897 127.547C298.322 125.956 283.643 125.266 268.964 125.482C255.198 125.668 241.491 126.594 227.783 127.892C212.758 129.321 197.792 131.175 182.796 132.896C184.377 131.492 185.988 130.089 187.628 128.765C200.808 127.521 213.988 126.356 227.139 125.509C240.963 124.635 254.817 124.158 268.7 124.317C283.543 124.437 298.366 125.303 313.102 126.912C328.742 128.633 344.207 131.545 359.964 132.472C370.538 133.107 381.082 133.663 391.655 134.167C393.266 135.623 394.848 137.132 396.371 138.694L396.488 138.773ZM170.436 145.445C174.771 145.445 179.222 145.154 183.44 144.916C197.821 144.228 212.026 142.533 226.29 140.944C239.696 139.251 253.203 138.296 266.738 138.085C297.345 138.085 327.542 142.56 357.943 145.022C373.564 146.293 389.302 147.352 405.157 148.199C405.831 149.02 406.504 149.84 407.149 150.688L402.228 150.238C387.437 148.94 372.646 147.59 357.826 146.293C327.571 143.777 297.433 139.329 267.031 139.25C253.435 139.443 239.863 140.327 226.378 141.898C212.29 143.327 198.231 144.889 184.084 145.578C179.31 145.816 174.566 146.054 169.791 146.346L170.436 145.445ZM174.126 158.684C190.997 157.333 207.662 154.792 224.679 153.944C244.942 153.079 265.244 153.274 285.483 154.527C303.056 155.506 320.395 156.883 337.881 158.022C355.366 159.16 373.262 160.219 390.981 161.146C399.065 161.569 407.178 161.967 415.262 162.337C415.936 163.396 416.551 164.429 417.195 165.488C400.237 164.297 383.396 163.026 366.349 161.887C356.899 161.234 347.439 160.625 337.968 160.06C317.466 158.842 296.964 157.413 276.608 156.592C259.359 155.613 242.066 155.427 224.796 156.036C207.896 156.883 190.997 157.704 174.126 158.684ZM425.777 183.095C406.241 181.771 386.764 180.05 367.287 178.303C347.81 176.555 328.889 174.781 309.675 173.351C292.102 172.028 274.529 170.413 256.955 168.983C241.227 167.686 225.47 166.6 209.712 166.335C191.244 165.854 172.762 166.597 154.415 168.559L154.942 167.288C168.796 166.044 182.679 165.382 196.679 165.276C214.779 165.117 232.88 165.832 250.922 166.918C270.545 168.083 290.14 169.565 309.734 171.127C336.533 173.14 363.215 175.284 389.956 177.058C401.32 177.835 412.714 178.514 424.136 179.097C424.722 180.421 425.249 181.744 425.777 183.095ZM146.595 185.478C156.377 184.657 166.218 184.074 175.884 183.598C228.163 181.501 280.53 181.961 332.755 184.975C365.207 186.616 397.337 190.985 429.555 194.665C430.082 196.492 430.551 198.372 430.99 200.225C418.396 198.98 405.772 197.577 393.178 196.095C377.45 194.268 361.751 192.414 345.994 190.799C329.328 189.025 312.633 187.516 295.91 186.404C255.939 183.818 215.823 183.633 175.825 185.848C165.75 186.404 155.645 186.907 145.569 187.622C145.804 186.907 146.067 186.219 146.331 185.531L146.595 185.478ZM150.285 279.468C171.49 275.974 194.687 277.191 220.578 284.605C244.625 291.489 268.642 298.637 292.834 305.15C312.165 310.501 331.797 314.919 351.646 318.389C364.504 320.56 377.362 322.095 390.308 323.101C388.492 324.716 386.617 326.305 384.714 327.841C372.734 326.279 360.872 324.213 348.981 321.672C329.387 317.541 310.173 312.246 290.755 307.11C267.031 300.729 243.365 294.533 219.378 289C197.979 283.716 175.546 282.811 153.712 286.352C152.511 284.102 151.369 281.798 150.285 279.468ZM142.318 256.646C151.105 255.534 160.451 253.866 169.237 253.496C183.437 252.996 197.098 254.524 211.206 256.063C246.118 259.664 280.211 267.898 314.859 272.902C349.92 278.404 385.3 282.081 420.827 283.916C419.802 285.955 418.689 287.967 417.546 289.953C414.618 289.794 411.396 289.609 408.35 289.397C376.294 286.827 344.432 282.565 312.926 276.635C298.838 274.147 284.78 271.34 270.75 268.693C257.629 266.045 244.39 263.397 231.298 261.067C219.583 259.002 207.867 257.149 196.151 256.063C186.363 254.976 179.05 255.169 169.237 256.063C161.388 256.964 150.871 257.731 142.992 259.055L142.318 256.646ZM138.95 225.404C157.49 223.277 176.179 222.392 194.863 222.756C216.478 223.047 238.093 224.477 259.621 226.119C285.6 228.078 311.403 231.732 337.09 235.571C368.751 240.284 400.676 245.393 432.689 248.121C432.279 250.583 431.81 253.019 431.254 255.428C425.191 255.004 419.157 254.422 413.095 253.76C361.839 248.121 311.843 235.465 260.382 230.355C235.601 227.679 210.68 226.203 185.725 225.933C170.055 225.844 154.397 226.729 138.862 228.581V228.025C138.862 227.151 138.862 226.278 138.862 225.377L138.95 225.404ZM141.645 202.502C148.088 201.955 154.542 201.558 161.005 201.31C191.754 200.41 222.535 201.206 253.177 203.693C285.19 206.076 317.085 209.518 348.981 212.854C373.525 215.502 398.069 217.911 422.672 219.817L434.153 220.665C434.153 222.147 434.153 223.63 434.329 225.113L424.4 224.371C399.739 222.227 375.224 219.579 350.738 216.931C318.081 213.198 285.395 209.253 252.62 206.341C222.229 203.373 191.65 202.268 161.093 203.031C154.454 203.296 147.825 203.799 141.205 204.541C141.323 203.852 141.469 203.164 141.645 202.475V202.502ZM323.88 357.256C310.144 354.396 296.466 351.325 282.876 348.122C266.35 343.926 250.164 338.707 234.432 332.5C215.629 325.484 196.737 318.256 176.909 317.541C176.147 316.774 175.386 316.032 174.653 315.238C198.085 314.867 220.051 322.757 242.516 330.541C259.394 336.742 276.702 341.942 294.328 346.109C307.703 349.039 321.127 351.837 334.6 354.502C331.085 355.588 327.512 356.567 323.88 357.415V357.256Z" fill="#7A615A"/>
</g>
</g>
</g>
<path id="Vector_27" d="M394.704 203.772C394.149 203.257 393.42 202.971 392.663 202.971H320.098H247.544C246.781 202.971 246.046 203.262 245.49 203.785L231.541 216.895C230.938 217.462 230.596 218.253 230.596 219.081V245.537C230.596 246.383 230.953 247.191 231.581 247.759L246.277 261.082C246.829 261.582 247.547 261.86 248.292 261.86H320.098H391.918C392.655 261.86 393.367 261.588 393.916 261.097L408.794 247.804C409.432 247.235 409.796 246.421 409.796 245.567V219.092C409.796 218.257 409.448 217.461 408.837 216.893L394.704 203.772Z" fill="#6E544C"/>
<path id="Vector_28" d="M394.704 201.549C394.149 201.034 393.42 200.748 392.663 200.748H320.098H247.544C246.781 200.748 246.046 201.039 245.49 201.562L231.541 214.672C230.938 215.239 230.596 216.03 230.596 216.858V243.314C230.596 244.161 230.953 244.968 231.581 245.537L246.277 258.86C246.829 259.36 247.547 259.637 248.292 259.637H320.098H391.918C392.655 259.637 393.367 259.365 393.916 258.874L408.794 245.582C409.432 245.013 409.796 244.199 409.796 243.345V216.869C409.796 216.035 409.448 215.238 408.837 214.67L394.704 201.549Z" fill="#B4A26C"/>
<path id="Vector_29" d="M394.879 197.096C394.326 196.586 393.601 196.304 392.848 196.304H320.196H247.543C246.791 196.304 246.066 196.586 245.512 197.096L231.565 209.924C230.947 210.492 230.596 211.293 230.596 212.132V240.266C230.596 241.124 230.963 241.941 231.605 242.51L246.3 255.548C246.849 256.035 247.557 256.304 248.291 256.304H320.196H392.099C392.833 256.304 393.543 256.034 394.092 255.546L408.789 242.484C409.429 241.914 409.796 241.098 409.796 240.241V212.132C409.796 211.293 409.444 210.492 408.827 209.924L394.879 197.096Z" fill="#FDE294"/>
</g>
<g id="Play" filter="url(#filter5_i_673_17505)">
<text fill="#A4925F" xml:space="preserve" style="white-space: pre" font-family="Bungee" font-size="40" letter-spacing="0em"><tspan x="264.453" y="242.259">Play</tspan></text>
</g>
</g>
<g id="Logotype/Arrow">
<g id="Group_5">
<g id="Group_6">
<g id="Vector_30">
<path d="M60.1482 56.5404L74.4785 55.7681L48.9632 25.0347L35.9997 27.4534L60.1482 56.5404Z" fill="#E25252"/>
<path d="M36.928 27.7888L48.7661 25.5801L73.4586 55.3223L60.3723 56.0276L36.928 27.7888Z" stroke="#C83838" stroke-opacity="0.5"/>
</g>
<path id="Intersect_4" fill-rule="evenodd" clip-rule="evenodd" d="M53.6553 30.6867L40.4279 32.7876L36 27.4541L48.9635 25.0354L53.6553 30.6867Z" fill="#C83838" fill-opacity="0.5"/>
<path id="Intersect_5" opacity="0.1" fill-rule="evenodd" clip-rule="evenodd" d="M51.3554 45.9495L64.5828 43.8486L60.7684 39.2541L47.541 41.355L51.3554 45.9495Z" fill="#FFC1C1"/>
<path id="Intersect_6" opacity="0.2" fill-rule="evenodd" clip-rule="evenodd" d="M74.1093 55.3227L59.7789 56.095L57.9639 53.9087L71.1912 51.8078L74.1093 55.3227Z" fill="#FFC1C1"/>
<path id="Intersect_7" opacity="0.7" fill-rule="evenodd" clip-rule="evenodd" d="M44.1014 37.2118L57.3287 35.1109L56.5691 34.196L43.3418 36.2969L44.1014 37.2118Z" fill="#B22222"/>
<path id="Intersect_8" opacity="0.7" fill-rule="evenodd" clip-rule="evenodd" d="M55.4295 50.8573L68.6568 48.7564L67.8973 47.8415L54.6699 49.9424L55.4295 50.8573Z" fill="#B22222"/>
<path id="Intersect_9" fill-rule="evenodd" clip-rule="evenodd" d="M74.4795 55.7686L60.1492 56.5409L55.1895 50.5669L68.4168 48.466L74.4795 55.7686Z" fill="#C83838" fill-opacity="0.5"/>
</g>
<g id="Vector_31">
<path d="M60.1482 56.5404L74.4785 55.7681L48.9632 25.0347L35.9997 27.4534L60.1482 56.5404Z" fill="#E25252"/>
<path d="M36.928 27.7888L48.7661 25.5801L73.4586 55.3223L60.3723 56.0276L36.928 27.7888Z" stroke="#C83838" stroke-opacity="0.5"/>
</g>
<path id="Intersect_10" fill-rule="evenodd" clip-rule="evenodd" d="M53.6553 30.6867L40.4279 32.7876L36 27.4541L48.9635 25.0354L53.6553 30.6867Z" fill="#C83838" fill-opacity="0.5"/>
<path id="Intersect_11" opacity="0.1" fill-rule="evenodd" clip-rule="evenodd" d="M51.3554 45.9495L64.5828 43.8486L60.7684 39.2541L47.541 41.355L51.3554 45.9495Z" fill="#FFC1C1"/>
<path id="Intersect_12" opacity="0.2" fill-rule="evenodd" clip-rule="evenodd" d="M74.1093 55.3227L59.7789 56.095L57.9639 53.9087L71.1912 51.8078L74.1093 55.3227Z" fill="#FFC1C1"/>
<path id="Intersect_13" opacity="0.5" fill-rule="evenodd" clip-rule="evenodd" d="M44.1014 37.2118L57.3287 35.1109L56.5691 34.196L43.3418 36.2969L44.1014 37.2118Z" fill="#B22222"/>
<path id="Intersect_14" opacity="0.5" fill-rule="evenodd" clip-rule="evenodd" d="M55.4295 50.8573L68.6568 48.7564L67.8973 47.8415L54.6699 49.9424L55.4295 50.8573Z" fill="#B22222"/>
<path id="Intersect_15" fill-rule="evenodd" clip-rule="evenodd" d="M74.4795 55.7686L60.1492 56.5409L55.1895 50.5669L68.4168 48.466L74.4795 55.7686Z" fill="#C83838" fill-opacity="0.5"/>
</g>
<ellipse id="Ellipse" cx="111.796" cy="98.3985" rx="5" ry="3" transform="rotate(-7.41521 111.796 98.3985)" fill="#32460A"/>
<g id="Group_7">
<g id="Group_8">
<g id="Vector_32">
<path d="M80.9216 39.2945L77.5264 53.2383L52.011 22.5049L56.7731 10.2076L80.9216 39.2945Z" fill="#E25252"/>
<path d="M56.932 11.1818L52.5834 22.4115L77.2758 52.1538L80.3763 39.4205L56.932 11.1818Z" stroke="#C83838" stroke-opacity="0.5"/>
</g>
<path id="Intersect_16" fill-rule="evenodd" clip-rule="evenodd" d="M56.7032 28.1567L61.2014 15.5415L56.7734 10.208L52.0113 22.5053L56.7032 28.1567Z" fill="#C83838" fill-opacity="0.5"/>
<path id="Intersect_17" opacity="0.1" fill-rule="evenodd" clip-rule="evenodd" d="M72.1269 28.7009L67.6287 41.3161L63.8143 36.7216L68.3125 24.1064L72.1269 28.7009Z" fill="#FFC1C1"/>
<path id="Intersect_18" opacity="0.2" fill-rule="evenodd" clip-rule="evenodd" d="M77.1573 52.7928L80.5525 38.849L78.7373 36.6626L74.2391 49.2778L77.1573 52.7928Z" fill="#FFC1C1"/>
<path id="Intersect_19" opacity="0.7" fill-rule="evenodd" clip-rule="evenodd" d="M64.8748 19.9657L60.3766 32.5809L59.617 31.6659L64.1152 19.0508L64.8748 19.9657Z" fill="#B22222"/>
<path id="Intersect_20" opacity="0.7" fill-rule="evenodd" clip-rule="evenodd" d="M76.2029 33.6112L71.7047 46.2264L70.9451 45.3115L75.4434 32.6963L76.2029 33.6112Z" fill="#B22222"/>
<path id="Intersect_21" fill-rule="evenodd" clip-rule="evenodd" d="M77.5274 53.2385L80.9226 39.2948L75.9629 33.3208L71.4647 45.936L77.5274 53.2385Z" fill="#C83838" fill-opacity="0.5"/>
</g>
<g id="Vector_33">
<path d="M80.9216 39.2945L77.5264 53.2383L52.011 22.5049L56.7731 10.2076L80.9216 39.2945Z" fill="#E25252"/>
<path d="M56.932 11.1818L52.5834 22.4115L77.2758 52.1538L80.3763 39.4205L56.932 11.1818Z" stroke="#C83838" stroke-opacity="0.5"/>
</g>
<path id="Intersect_22" fill-rule="evenodd" clip-rule="evenodd" d="M59.0901 31.0317L63.5883 18.4166L56.7734 10.208L52.0113 22.5053L59.0901 31.0317Z" fill="#C83838" fill-opacity="0.5"/>
<path id="Intersect_23" opacity="0.1" fill-rule="evenodd" clip-rule="evenodd" d="M70.3639 26.5778L65.8657 39.1929L62.3797 34.9941L66.8779 22.3789L70.3639 26.5778Z" fill="#FFC1C1"/>
<path id="Intersect_24" opacity="0.2" fill-rule="evenodd" clip-rule="evenodd" d="M77.1573 52.7928L80.5525 38.849L78.7373 36.6626L74.2391 49.2778L77.1573 52.7928Z" fill="#FFC1C1"/>
<path id="Intersect_25" opacity="0.5" fill-rule="evenodd" clip-rule="evenodd" d="M61.5711 15.9862L57.0729 28.6014L56.3133 27.6865L60.8115 15.0713L61.5711 15.9862Z" fill="#B22222"/>
<path id="Intersect_26" opacity="0.5" fill-rule="evenodd" clip-rule="evenodd" d="M73.0223 29.7797L68.5241 42.3948L67.7645 41.4799L72.2627 28.8647L73.0223 29.7797Z" fill="#B22222"/>
<path id="Intersect_27" fill-rule="evenodd" clip-rule="evenodd" d="M77.5274 53.2385L80.9226 39.2948L75.9629 33.3208L71.4647 45.936L77.5274 53.2385Z" fill="#C83838" fill-opacity="0.5"/>
</g>
<path id="Rectangle" d="M115.381 98.021L108.979 98.1372L49.5734 26.5831L53.4204 23.3892L115.381 98.021Z" fill="#473835"/>
<path id="Rectangle_2" d="M115.381 98.021L108.979 98.1372L107.062 95.829L110.909 92.6352L115.381 98.021Z" fill="#473835"/>
<g id="Rectangle_3" filter="url(#filter6_ii_673_17505)">
<path d="M114.104 96.4819L107.701 96.5982L48.296 25.044L52.143 21.8502L114.104 96.4819Z" fill="#6E544C"/>
</g>
<rect id="Rectangle_4" x="94.7559" y="72.4165" width="6.03141" height="10.9555" transform="rotate(140.3 94.7559 72.4165)" fill="#C0A381"/>
<g id="Rectangle_5" style="mix-blend-mode:multiply" opacity="0.8">
<rect x="91.5752" y="68.585" width="6.03141" height="0.995956" transform="rotate(140.3 91.5752 68.585)" fill="#C0A381"/>
</g>
<g id="Rectangle_6" style="mix-blend-mode:multiply" opacity="0.8">
<rect x="89.0303" y="65.52" width="6.03141" height="1.99191" transform="rotate(140.3 89.0303 65.52)" fill="#C0A381"/>
</g>
<g id="Rectangle_7" style="mix-blend-mode:multiply" opacity="0.5">
<rect x="94.7559" y="72.4165" width="6.03141" height="1.99191" transform="rotate(140.3 94.7559 72.4165)" fill="#C0A381"/>
</g>
</g>
<g id="Logotype/Arrow_2">
<g id="Group_9">
<g id="Group_10">
<g id="Vector_34">
<path d="M43.6732 108.07L56.7852 102.236L21.9848 82.6274L10.7372 89.5115L43.6732 108.07Z" fill="#E25252"/>
<path d="M11.7241 89.4937L21.9953 83.2072L55.6733 102.184L43.6996 107.511L11.7241 89.4937Z" stroke="#C83838" stroke-opacity="0.5"/>
</g>
<path id="Intersect_28" fill-rule="evenodd" clip-rule="evenodd" d="M28.3841 86.2333L16.7766 92.9147L10.7373 89.5117L21.985 82.6276L28.3841 86.2333Z" fill="#C83838" fill-opacity="0.5"/>
<path id="Intersect_29" opacity="0.1" fill-rule="evenodd" clip-rule="evenodd" d="M31.681 101.313L43.2885 94.6314L38.0861 91.7L26.4785 98.3813L31.681 101.313Z" fill="#FFC1C1"/>
<path id="Intersect_30" opacity="0.2" fill-rule="evenodd" clip-rule="evenodd" d="M56.2809 101.952L43.1689 107.786L40.6934 106.391L52.3009 99.7098L56.2809 101.952Z" fill="#FFC1C1"/>
<path id="Intersect_31" opacity="0.7" fill-rule="evenodd" clip-rule="evenodd" d="M21.787 95.738L33.3945 89.0567L32.3586 88.4729L20.751 95.1543L21.787 95.738Z" fill="#B22222"/>
<path id="Intersect_32" opacity="0.7" fill-rule="evenodd" clip-rule="evenodd" d="M37.2381 104.444L48.8457 97.7627L47.8097 97.179L36.2021 103.86L37.2381 104.444Z" fill="#B22222"/>
<path id="Intersect_33" fill-rule="evenodd" clip-rule="evenodd" d="M56.7857 102.237L43.6737 108.07L36.9092 104.259L48.5168 97.5774L56.7857 102.237Z" fill="#C83838" fill-opacity="0.5"/>
</g>
<g id="Vector_35">
<path d="M43.6732 108.07L56.7852 102.236L21.9848 82.6274L10.7372 89.5115L43.6732 108.07Z" fill="#E25252"/>
<path d="M11.7241 89.4937L21.9953 83.2072L55.6733 102.184L43.6996 107.511L11.7241 89.4937Z" stroke="#C83838" stroke-opacity="0.5"/>
</g>
<path id="Intersect_34" fill-rule="evenodd" clip-rule="evenodd" d="M28.3841 86.2333L16.7766 92.9147L10.7373 89.5117L21.985 82.6276L28.3841 86.2333Z" fill="#C83838" fill-opacity="0.5"/>
<path id="Intersect_35" opacity="0.1" fill-rule="evenodd" clip-rule="evenodd" d="M31.681 101.313L43.2885 94.6314L38.0861 91.7L26.4785 98.3813L31.681 101.313Z" fill="#FFC1C1"/>
<path id="Intersect_36" opacity="0.2" fill-rule="evenodd" clip-rule="evenodd" d="M56.2809 101.952L43.1689 107.786L40.6934 106.391L52.3009 99.7098L56.2809 101.952Z" fill="#FFC1C1"/>
<path id="Intersect_37" opacity="0.5" fill-rule="evenodd" clip-rule="evenodd" d="M21.787 95.738L33.3945 89.0567L32.3586 88.4729L20.751 95.1543L21.787 95.738Z" fill="#B22222"/>
<path id="Intersect_38" opacity="0.5" fill-rule="evenodd" clip-rule="evenodd" d="M37.2381 104.444L48.8457 97.7627L47.8097 97.179L36.2021 103.86L37.2381 104.444Z" fill="#B22222"/>
<path id="Intersect_39" fill-rule="evenodd" clip-rule="evenodd" d="M56.7857 102.237L43.6737 108.07L36.9092 104.259L48.5168 97.5774L56.7857 102.237Z" fill="#C83838" fill-opacity="0.5"/>
</g>
<ellipse id="Ellipse_2" cx="106.854" cy="128.749" rx="5" ry="3" transform="rotate(-28.3152 106.854 128.749)" fill="#32460A"/>
<g id="Group_11">
<g id="Group_12">
<g id="Vector_36">
<path d="M56.927 84.5481L58.7295 98.7856L23.9292 79.1767L23.991 65.9896L56.927 84.5481Z" fill="#E25252"/>
<path d="M24.487 66.843L24.4305 78.8853L58.1086 97.8618L56.4626 84.8603L24.487 66.843Z" stroke="#C83838" stroke-opacity="0.5"/>
</g>
<path id="Intersect_40" fill-rule="evenodd" clip-rule="evenodd" d="M30.3285 82.783L30.0305 69.3932L23.9912 65.9902L23.9294 79.1773L30.3285 82.783Z" fill="#C83838" fill-opacity="0.5"/>
<path id="Intersect_41" opacity="0.1" fill-rule="evenodd" clip-rule="evenodd" d="M44.9319 77.7893L45.23 91.1792L40.0275 88.2477L39.7295 74.8579L44.9319 77.7893Z" fill="#FFC1C1"/>
<path id="Intersect_42" opacity="0.2" fill-rule="evenodd" clip-rule="evenodd" d="M58.2255 98.5017L56.423 84.2642L53.9473 82.8691L54.2453 96.259L58.2255 98.5017Z" fill="#FFC1C1"/>
<path id="Intersect_43" opacity="0.7" fill-rule="evenodd" clip-rule="evenodd" d="M35.0409 72.2161L35.3389 85.6059L34.3029 85.0222L34.0049 71.6323L35.0409 72.2161Z" fill="#B22222"/>
<path id="Intersect_44" opacity="0.7" fill-rule="evenodd" clip-rule="evenodd" d="M50.492 80.9221L50.7901 94.312L49.7541 93.7282L49.4561 80.3384L50.492 80.9221Z" fill="#B22222"/>
<path id="Intersect_45" fill-rule="evenodd" clip-rule="evenodd" d="M58.7301 98.7859L56.9276 84.5484L50.1631 80.7368L50.4611 94.1266L58.7301 98.7859Z" fill="#C83838" fill-opacity="0.5"/>
</g>
<g id="Vector_37">
<path d="M56.927 84.5481L58.7295 98.7856L23.9292 79.1767L23.991 65.9896L56.927 84.5481Z" fill="#E25252"/>
<path d="M24.487 66.843L24.4305 78.8853L58.1086 97.8618L56.4626 84.8603L24.487 66.843Z" stroke="#C83838" stroke-opacity="0.5"/>
</g>
<path id="Intersect_46" fill-rule="evenodd" clip-rule="evenodd" d="M33.584 84.6174L33.286 71.2276L23.9912 65.9902L23.9294 79.1773L33.584 84.6174Z" fill="#C83838" fill-opacity="0.5"/>
<path id="Intersect_47" opacity="0.1" fill-rule="evenodd" clip-rule="evenodd" d="M42.5279 76.4344L42.826 89.8242L38.0715 87.1452L37.7734 73.7554L42.5279 76.4344Z" fill="#FFC1C1"/>
<path id="Intersect_48" opacity="0.2" fill-rule="evenodd" clip-rule="evenodd" d="M58.2255 98.5017L56.423 84.2642L53.9473 82.8691L54.2453 96.259L58.2255 98.5017Z" fill="#FFC1C1"/>
<path id="Intersect_49" opacity="0.5" fill-rule="evenodd" clip-rule="evenodd" d="M30.535 69.677L30.8331 83.0668L29.7971 82.4831L29.499 69.0933L30.535 69.677Z" fill="#B22222"/>
<path id="Intersect_50" opacity="0.5" fill-rule="evenodd" clip-rule="evenodd" d="M46.1532 78.4773L46.4512 91.8671L45.4152 91.2834L45.1172 77.8936L46.1532 78.4773Z" fill="#B22222"/>
<path id="Intersect_51" fill-rule="evenodd" clip-rule="evenodd" d="M58.7301 98.7859L56.9276 84.5484L50.1631 80.7368L50.4611 94.1266L58.7301 98.7859Z" fill="#C83838" fill-opacity="0.5"/>
</g>
<path id="Rectangle_8" d="M110.069 127.118L104.13 129.51L23.1071 83.8561L25.5616 79.5L110.069 127.118Z" fill="#473835"/>
<path id="Rectangle_9" d="M110.069 127.118L104.13 129.51L101.516 128.037L103.971 123.681L110.069 127.118Z" fill="#473835"/>
<g id="Rectangle_10" filter="url(#filter7_ii_673_17505)">
<path d="M108.327 126.136L102.388 128.528L21.3649 82.8741L23.8194 78.5181L108.327 126.136Z" fill="#6E544C"/>
</g>
<rect id="Rectangle_11" x="81.667" y="110.556" width="6.03141" height="10.9555" transform="rotate(119.4 81.667 110.556)" fill="#C0A381"/>
<g id="Rectangle_12" style="mix-blend-mode:multiply" opacity="0.8">
<rect x="77.3281" y="108.111" width="6.03141" height="0.995956" transform="rotate(119.4 77.3281 108.111)" fill="#C0A381"/>
</g>
<g id="Rectangle_13" style="mix-blend-mode:multiply" opacity="0.8">
<rect x="73.8584" y="106.156" width="6.03141" height="1.99191" transform="rotate(119.4 73.8584 106.156)" fill="#C0A381"/>
</g>
<g id="Rectangle_14" style="mix-blend-mode:multiply" opacity="0.5">
<rect x="81.667" y="110.556" width="6.03141" height="1.99191" transform="rotate(119.4 81.667 110.556)" fill="#C0A381"/>
</g>
</g>
<g id="Logotype/Arrow_3">
<g id="Group_13">
<g id="Group_14">
<g id="Vector_38">
<path d="M585.744 49.5404L571.414 48.7681L596.929 18.0347L609.893 20.4534L585.744 49.5404Z" fill="#E25252"/>
<path d="M608.965 20.7888L597.126 18.5801L572.434 48.3223L585.52 49.0276L608.965 20.7888Z" stroke="#C83838" stroke-opacity="0.5"/>
</g>
<path id="Intersect_52" fill-rule="evenodd" clip-rule="evenodd" d="M592.237 23.6867L605.465 25.7876L609.893 20.4541L596.929 18.0354L592.237 23.6867Z" fill="#C83838" fill-opacity="0.5"/>
<path id="Intersect_53" opacity="0.1" fill-rule="evenodd" clip-rule="evenodd" d="M594.537 38.9495L581.31 36.8486L585.124 32.2541L598.352 34.355L594.537 38.9495Z" fill="#FFC1C1"/>
<path id="Intersect_54" opacity="0.2" fill-rule="evenodd" clip-rule="evenodd" d="M571.783 48.3227L586.114 49.095L587.929 46.9087L574.701 44.8078L571.783 48.3227Z" fill="#FFC1C1"/>
<path id="Intersect_55" opacity="0.7" fill-rule="evenodd" clip-rule="evenodd" d="M601.791 30.2118L588.564 28.1109L589.323 27.196L602.551 29.2969L601.791 30.2118Z" fill="#B22222"/>
<path id="Intersect_56" opacity="0.7" fill-rule="evenodd" clip-rule="evenodd" d="M590.463 43.8573L577.236 41.7564L577.995 40.8415L591.223 42.9424L590.463 43.8573Z" fill="#B22222"/>
<path id="Intersect_57" fill-rule="evenodd" clip-rule="evenodd" d="M571.413 48.7686L585.743 49.5409L590.703 43.5669L577.476 41.466L571.413 48.7686Z" fill="#C83838" fill-opacity="0.5"/>
</g>
<g id="Vector_39">
<path d="M585.744 49.5404L571.414 48.7681L596.929 18.0347L609.893 20.4534L585.744 49.5404Z" fill="#E25252"/>
<path d="M608.965 20.7888L597.126 18.5801L572.434 48.3223L585.52 49.0276L608.965 20.7888Z" stroke="#C83838" stroke-opacity="0.5"/>
</g>
<path id="Intersect_58" fill-rule="evenodd" clip-rule="evenodd" d="M592.237 23.6867L605.465 25.7876L609.893 20.4541L596.929 18.0354L592.237 23.6867Z" fill="#C83838" fill-opacity="0.5"/>
<path id="Intersect_59" opacity="0.1" fill-rule="evenodd" clip-rule="evenodd" d="M594.537 38.9495L581.31 36.8486L585.124 32.2541L598.352 34.355L594.537 38.9495Z" fill="#FFC1C1"/>
<path id="Intersect_60" opacity="0.2" fill-rule="evenodd" clip-rule="evenodd" d="M571.783 48.3227L586.114 49.095L587.929 46.9087L574.701 44.8078L571.783 48.3227Z" fill="#FFC1C1"/>
<path id="Intersect_61" opacity="0.5" fill-rule="evenodd" clip-rule="evenodd" d="M601.791 30.2118L588.564 28.1109L589.323 27.196L602.551 29.2969L601.791 30.2118Z" fill="#B22222"/>
<path id="Intersect_62" opacity="0.5" fill-rule="evenodd" clip-rule="evenodd" d="M590.463 43.8573L577.236 41.7564L577.995 40.8415L591.223 42.9424L590.463 43.8573Z" fill="#B22222"/>
<path id="Intersect_63" fill-rule="evenodd" clip-rule="evenodd" d="M571.413 48.7686L585.743 49.5409L590.703 43.5669L577.476 41.466L571.413 48.7686Z" fill="#C83838" fill-opacity="0.5"/>
</g>
<ellipse id="Ellipse_3" cx="5" cy="3" rx="5" ry="3" transform="matrix(-0.991637 -0.129059 -0.129059 0.991637 539.442 89.0688)" fill="#32460A"/>
<g id="Group_15">
<g id="Group_16">
<g id="Vector_40">
<path d="M564.971 32.2945L568.366 46.2383L593.882 15.5049L589.119 3.20757L564.971 32.2945Z" fill="#E25252"/>
<path d="M588.961 4.18176L593.309 15.4115L568.617 45.1538L565.516 32.4205L588.961 4.18176Z" stroke="#C83838" stroke-opacity="0.5"/>
</g>
<path id="Intersect_64" fill-rule="evenodd" clip-rule="evenodd" d="M589.189 21.1567L584.691 8.54149L589.119 3.20801L593.881 15.5053L589.189 21.1567Z" fill="#C83838" fill-opacity="0.5"/>
<path id="Intersect_65" opacity="0.1" fill-rule="evenodd" clip-rule="evenodd" d="M573.766 21.7009L578.264 34.3161L582.078 29.7216L577.58 17.1064L573.766 21.7009Z" fill="#FFC1C1"/>
<path id="Intersect_66" opacity="0.2" fill-rule="evenodd" clip-rule="evenodd" d="M568.735 45.7928L565.34 31.849L567.155 29.6626L571.653 42.2778L568.735 45.7928Z" fill="#FFC1C1"/>
<path id="Intersect_67" opacity="0.7" fill-rule="evenodd" clip-rule="evenodd" d="M581.018 12.9657L585.516 25.5809L586.276 24.6659L581.777 12.0508L581.018 12.9657Z" fill="#B22222"/>
<path id="Intersect_68" opacity="0.7" fill-rule="evenodd" clip-rule="evenodd" d="M569.69 26.6112L574.188 39.2264L574.947 38.3115L570.449 25.6963L569.69 26.6112Z" fill="#B22222"/>
<path id="Intersect_69" fill-rule="evenodd" clip-rule="evenodd" d="M568.365 46.2385L564.97 32.2948L569.93 26.3208L574.428 38.936L568.365 46.2385Z" fill="#C83838" fill-opacity="0.5"/>
</g>
<g id="Vector_41">
<path d="M564.971 32.2945L568.366 46.2383L593.882 15.5049L589.119 3.20757L564.971 32.2945Z" fill="#E25252"/>
<path d="M588.961 4.18176L593.309 15.4115L568.617 45.1538L565.516 32.4205L588.961 4.18176Z" stroke="#C83838" stroke-opacity="0.5"/>
</g>
<path id="Intersect_70" fill-rule="evenodd" clip-rule="evenodd" d="M586.802 24.0317L582.304 11.4166L589.119 3.20801L593.881 15.5053L586.802 24.0317Z" fill="#C83838" fill-opacity="0.5"/>
<path id="Intersect_71" opacity="0.1" fill-rule="evenodd" clip-rule="evenodd" d="M575.529 19.5778L580.027 32.1929L583.513 27.9941L579.015 15.3789L575.529 19.5778Z" fill="#FFC1C1"/>
<path id="Intersect_72" opacity="0.2" fill-rule="evenodd" clip-rule="evenodd" d="M568.735 45.7928L565.34 31.849L567.155 29.6626L571.653 42.2778L568.735 45.7928Z" fill="#FFC1C1"/>
<path id="Intersect_73" opacity="0.5" fill-rule="evenodd" clip-rule="evenodd" d="M584.321 8.98621L588.82 21.6014L589.579 20.6865L585.081 8.07129L584.321 8.98621Z" fill="#B22222"/>
<path id="Intersect_74" opacity="0.5" fill-rule="evenodd" clip-rule="evenodd" d="M572.87 22.7797L577.369 35.3948L578.128 34.4799L573.63 21.8647L572.87 22.7797Z" fill="#B22222"/>
<path id="Intersect_75" fill-rule="evenodd" clip-rule="evenodd" d="M568.365 46.2385L564.97 32.2948L569.93 26.3208L574.428 38.936L568.365 46.2385Z" fill="#C83838" fill-opacity="0.5"/>
</g>
<path id="Rectangle_15" d="M530.512 91.021L536.914 91.1372L596.319 19.5831L592.472 16.3892L530.512 91.021Z" fill="#473835"/>
<path id="Rectangle_16" d="M530.512 91.021L536.914 91.1372L538.83 88.829L534.983 85.6352L530.512 91.021Z" fill="#473835"/>
<g id="Rectangle_17" filter="url(#filter8_ii_673_17505)">
<path d="M531.789 89.4819L538.191 89.5982L597.597 18.044L593.75 14.8502L531.789 89.4819Z" fill="#6E544C"/>
</g>
<rect id="Rectangle_18" width="6.03141" height="10.9555" transform="matrix(0.7694 0.638768 0.638768 -0.7694 551.137 65.4165)" fill="#C0A381"/>
<g id="Rectangle_19" style="mix-blend-mode:multiply" opacity="0.8">
<rect width="6.03141" height="0.995956" transform="matrix(0.7694 0.638768 0.638768 -0.7694 554.317 61.585)" fill="#C0A381"/>
</g>
<g id="Rectangle_20" style="mix-blend-mode:multiply" opacity="0.8">
<rect width="6.03141" height="1.99191" transform="matrix(0.7694 0.638768 0.638768 -0.7694 556.862 58.52)" fill="#C0A381"/>
</g>
<g id="Rectangle_21" style="mix-blend-mode:multiply" opacity="0.5">
<rect width="6.03141" height="1.99191" transform="matrix(0.7694 0.638768 0.638768 -0.7694 551.137 65.4165)" fill="#C0A381"/>
</g>
</g>
<g id="Logotype/Arrow_4">
<g id="Group_17">
<g id="Group_18">
<g id="Vector_42">
<path d="M570.709 82.0012L571.308 96.3398L602.348 71.1993L600.087 58.2074L570.709 82.0012Z" fill="#E25252"/>
<path d="M599.74 59.1316L601.805 70.9956L571.766 95.3254L571.219 82.2315L599.74 59.1316Z" stroke="#C83838" stroke-opacity="0.5"/>
</g>
<path id="Intersect_76" fill-rule="evenodd" clip-rule="evenodd" d="M596.64 75.8228L594.7 62.5709L600.087 58.208L602.348 71.1999L596.64 75.8228Z" fill="#C83838" fill-opacity="0.5"/>
<path id="Intersect_77" opacity="0.1" fill-rule="evenodd" clip-rule="evenodd" d="M581.406 73.3375L583.347 86.5893L587.987 82.831L586.047 69.5791L581.406 73.3375Z" fill="#FFC1C1"/>
<path id="Intersect_78" opacity="0.2" fill-rule="evenodd" clip-rule="evenodd" d="M571.757 95.9757L571.159 81.637L573.367 79.8486L575.307 93.1005L571.757 95.9757Z" fill="#FFC1C1"/>
<path id="Intersect_79" opacity="0.7" fill-rule="evenodd" clip-rule="evenodd" d="M590.231 66.1898L592.171 79.4417L593.096 78.6933L591.155 65.4414L590.231 66.1898Z" fill="#B22222"/>
<path id="Intersect_80" opacity="0.7" fill-rule="evenodd" clip-rule="evenodd" d="M576.449 77.3519L578.389 90.6038L579.313 89.8554L577.373 76.6035L576.449 77.3519Z" fill="#B22222"/>
<path id="Intersect_81" fill-rule="evenodd" clip-rule="evenodd" d="M571.307 96.3403L570.708 82.0016L576.742 77.1147L578.682 90.3666L571.307 96.3403Z" fill="#C83838" fill-opacity="0.5"/>
</g>
<g id="Vector_43">
<path d="M570.709 82.0012L571.308 96.3398L602.348 71.1993L600.087 58.2074L570.709 82.0012Z" fill="#E25252"/>
<path d="M599.74 59.1316L601.805 70.9956L571.766 95.3254L571.219 82.2315L599.74 59.1316Z" stroke="#C83838" stroke-opacity="0.5"/>
</g>
<path id="Intersect_82" fill-rule="evenodd" clip-rule="evenodd" d="M596.64 75.8228L594.7 62.5709L600.087 58.208L602.348 71.1999L596.64 75.8228Z" fill="#C83838" fill-opacity="0.5"/>
<path id="Intersect_83" opacity="0.1" fill-rule="evenodd" clip-rule="evenodd" d="M581.406 73.3375L583.347 86.5893L587.987 82.831L586.047 69.5791L581.406 73.3375Z" fill="#FFC1C1"/>
<path id="Intersect_84" opacity="0.2" fill-rule="evenodd" clip-rule="evenodd" d="M571.757 95.9757L571.159 81.637L573.367 79.8486L575.307 93.1005L571.757 95.9757Z" fill="#FFC1C1"/>
<path id="Intersect_85" opacity="0.5" fill-rule="evenodd" clip-rule="evenodd" d="M590.231 66.1898L592.171 79.4417L593.096 78.6933L591.155 65.4414L590.231 66.1898Z" fill="#B22222"/>
<path id="Intersect_86" opacity="0.5" fill-rule="evenodd" clip-rule="evenodd" d="M576.449 77.3519L578.389 90.6038L579.313 89.8554L577.373 76.6035L576.449 77.3519Z" fill="#B22222"/>
<path id="Intersect_87" fill-rule="evenodd" clip-rule="evenodd" d="M571.307 96.3403L570.708 82.0016L576.742 77.1147L578.682 90.3666L571.307 96.3403Z" fill="#C83838" fill-opacity="0.5"/>
</g>
<ellipse id="Ellipse_4" cx="528.229" cy="133.136" rx="5" ry="3" transform="rotate(83.28 528.229 133.136)" fill="#32460A"/>
<g id="Group_19">
<g id="Group_20">
<g id="Vector_44">
<path d="M587.702 102.982L573.801 99.4175L604.842 74.2769L617.08 79.1879L587.702 102.982Z" fill="#E25252"/>
<path d="M616.104 79.335L604.928 74.8504L574.888 99.1801L587.583 102.435L616.104 79.335Z" stroke="#C83838" stroke-opacity="0.5"/>
</g>
<path id="Intersect_88" fill-rule="evenodd" clip-rule="evenodd" d="M599.133 78.8999L611.692 83.5509L617.079 79.188L604.84 74.277L599.133 78.8999Z" fill="#C83838" fill-opacity="0.5"/>
<path id="Intersect_89" opacity="0.1" fill-rule="evenodd" clip-rule="evenodd" d="M598.402 94.316L585.842 89.665L590.482 85.9067L603.042 90.5576L598.402 94.316Z" fill="#FFC1C1"/>
<path id="Intersect_90" opacity="0.2" fill-rule="evenodd" clip-rule="evenodd" d="M574.251 99.053L588.152 102.617L590.36 100.829L577.801 96.1777L574.251 99.053Z" fill="#FFC1C1"/>
<path id="Intersect_91" opacity="0.7" fill-rule="evenodd" clip-rule="evenodd" d="M607.224 87.1703L594.665 82.5193L595.589 81.7709L608.148 86.4219L607.224 87.1703Z" fill="#B22222"/>
<path id="Intersect_92" opacity="0.7" fill-rule="evenodd" clip-rule="evenodd" d="M593.442 98.3324L580.882 93.6814L581.807 92.933L594.366 97.584L593.442 98.3324Z" fill="#B22222"/>
<path id="Intersect_93" fill-rule="evenodd" clip-rule="evenodd" d="M573.8 99.4179L587.702 102.982L593.735 98.0952L581.176 93.4443L573.8 99.4179Z" fill="#C83838" fill-opacity="0.5"/>
</g>
<g id="Vector_45">
<path d="M587.702 102.982L573.801 99.4175L604.842 74.2769L617.08 79.1879L587.702 102.982Z" fill="#E25252"/>
<path d="M616.104 79.335L604.928 74.8504L574.888 99.1801L587.583 102.435L616.104 79.335Z" stroke="#C83838" stroke-opacity="0.5"/>
</g>
<path id="Intersect_94" fill-rule="evenodd" clip-rule="evenodd" d="M596.229 81.2523L608.788 85.9032L617.079 79.1885L604.84 74.2775L596.229 81.2523Z" fill="#C83838" fill-opacity="0.5"/>
<path id="Intersect_95" opacity="0.1" fill-rule="evenodd" clip-rule="evenodd" d="M600.546 92.5793L587.987 87.9283L592.227 84.4936L604.787 89.1445L600.546 92.5793Z" fill="#FFC1C1"/>
<path id="Intersect_96" opacity="0.2" fill-rule="evenodd" clip-rule="evenodd" d="M574.251 99.053L588.152 102.617L590.36 100.829L577.801 96.1777L574.251 99.053Z" fill="#FFC1C1"/>
<path id="Intersect_97" opacity="0.5" fill-rule="evenodd" clip-rule="evenodd" d="M611.244 83.9154L598.684 79.2645L599.608 78.516L612.168 83.167L611.244 83.9154Z" fill="#B22222"/>
<path id="Intersect_98" opacity="0.5" fill-rule="evenodd" clip-rule="evenodd" d="M597.312 95.1981L584.753 90.5472L585.677 89.7987L598.236 94.4497L597.312 95.1981Z" fill="#B22222"/>
<path id="Intersect_99" fill-rule="evenodd" clip-rule="evenodd" d="M573.8 99.4179L587.702 102.982L593.735 98.0952L581.176 93.4443L573.8 99.4179Z" fill="#C83838" fill-opacity="0.5"/>
</g>
<path id="Rectangle_22" d="M528.562 136.726L528.524 130.323L600.794 71.7903L603.941 75.6757L528.562 136.726Z" fill="#473835"/>
<path id="Rectangle_23" d="M528.562 136.726L528.524 130.323L530.855 128.435L534.002 132.32L528.562 136.726Z" fill="#473835"/>
<g id="Rectangle_24" filter="url(#filter9_ii_673_17505)">
<path d="M530.116 135.467L530.078 129.064L602.347 70.5315L605.494 74.4169L530.116 135.467Z" fill="#6E544C"/>
</g>
<rect id="Rectangle_25" x="554.415" y="116.413" width="6.03141" height="10.9555" transform="rotate(-129.005 554.415 116.413)" fill="#C0A381"/>
<g id="Rectangle_26" style="mix-blend-mode:multiply" opacity="0.8">
<rect x="558.285" y="113.279" width="6.03141" height="0.995956" transform="rotate(-129.005 558.285 113.279)" fill="#C0A381"/>
</g>
<g id="Rectangle_27" style="mix-blend-mode:multiply" opacity="0.8">
<rect x="561.381" y="110.771" width="6.03141" height="1.99191" transform="rotate(-129.005 561.381 110.771)" fill="#C0A381"/>
</g>
<g id="Rectangle_28" style="mix-blend-mode:multiply" opacity="0.5">
<rect x="554.415" y="116.413" width="6.03141" height="1.99191" transform="rotate(-129.005 554.415 116.413)" fill="#C0A381"/>
</g>
</g>
</g>
<defs>
<filter id="filter0_d_673_17505" x="189" y="169.859" width="262" height="138" filterUnits="userSpaceOnUse" color-interpolation-filters="sRGB">
<feFlood flood-opacity="0" result="BackgroundImageFix"/>
<feColorMatrix in="SourceAlpha" type="matrix" values="0 0 0 0 0 0 0 0 0 0 0 0 0 0 0 0 0 0 127 0" result="hardAlpha"/>
<feOffset dy="4"/>
<feGaussianBlur stdDeviation="1"/>
<feComposite in2="hardAlpha" operator="out"/>
<feColorMatrix type="matrix" values="0 0 0 0 0.230506 0 0 0 0 0.269451 0 0 0 0 0.132215 0 0 0 0.5 0"/>
<feBlend mode="normal" in2="BackgroundImageFix" result="effect1_dropShadow_673_17505"/>
<feBlend mode="normal" in="SourceGraphic" in2="effect1_dropShadow_673_17505" result="shape"/>
</filter>
<filter id="filter1_d_673_17505" x="0" y="0.207031" width="640.391" height="231" filterUnits="userSpaceOnUse" color-interpolation-filters="sRGB">
<feFlood flood-opacity="0" result="BackgroundImageFix"/>
<feColorMatrix in="SourceAlpha" type="matrix" values="0 0 0 0 0 0 0 0 0 0 0 0 0 0 0 0 0 0 127 0" result="hardAlpha"/>
<feOffset dy="4"/>
<feGaussianBlur stdDeviation="1"/>
<feComposite in2="hardAlpha" operator="out"/>
<feColorMatrix type="matrix" values="0 0 0 0 0.230506 0 0 0 0 0.269451 0 0 0 0 0.132215 0 0 0 0.5 0"/>
<feBlend mode="normal" in2="BackgroundImageFix" result="effect1_dropShadow_673_17505"/>
<feBlend mode="normal" in="SourceGraphic" in2="effect1_dropShadow_673_17505" result="shape"/>
</filter>
<filter id="filter2_d_673_17505" x="0.371094" y="0.207031" width="639.076" height="225.674" filterUnits="userSpaceOnUse" color-interpolation-filters="sRGB">
<feFlood flood-opacity="0" result="BackgroundImageFix"/>
<feColorMatrix in="SourceAlpha" type="matrix" values="0 0 0 0 0 0 0 0 0 0 0 0 0 0 0 0 0 0 127 0" result="hardAlpha"/>
<feOffset dy="4"/>
<feGaussianBlur stdDeviation="1"/>
<feComposite in2="hardAlpha" operator="out"/>
<feColorMatrix type="matrix" values="0 0 0 0 0.230506 0 0 0 0 0.269451 0 0 0 0 0.132215 0 0 0 0.5 0"/>
<feBlend mode="normal" in2="BackgroundImageFix" result="effect1_dropShadow_673_17505"/>
<feBlend mode="normal" in="SourceGraphic" in2="effect1_dropShadow_673_17505" result="shape"/>
</filter>
<filter id="filter3_d_673_17505" x="46.5967" y="14.8521" width="545.321" height="181.071" filterUnits="userSpaceOnUse" color-interpolation-filters="sRGB">
<feFlood flood-opacity="0" result="BackgroundImageFix"/>
<feColorMatrix in="SourceAlpha" type="matrix" values="0 0 0 0 0 0 0 0 0 0 0 0 0 0 0 0 0 0 127 0" result="hardAlpha"/>
<feOffset dy="2"/>
<feGaussianBlur stdDeviation="1"/>
<feComposite in2="hardAlpha" operator="out"/>
<feColorMatrix type="matrix" values="0 0 0 0 0.0881307 0 0 0 0 0.104271 0 0 0 0 0.0473959 0 0 0 0.5 0"/>
<feBlend mode="normal" in2="BackgroundImageFix" result="effect1_dropShadow_673_17505"/>
<feBlend mode="normal" in="SourceGraphic" in2="effect1_dropShadow_673_17505" result="shape"/>
</filter>
<filter id="filter4_d_673_17505" x="155" y="62.207" width="330.384" height="78" filterUnits="userSpaceOnUse" color-interpolation-filters="sRGB">
<feFlood flood-opacity="0" result="BackgroundImageFix"/>
<feColorMatrix in="SourceAlpha" type="matrix" values="0 0 0 0 0 0 0 0 0 0 0 0 0 0 0 0 0 0 127 0" result="hardAlpha"/>
<feOffset dy="4"/>
<feComposite in2="hardAlpha" operator="out"/>
<feColorMatrix type="matrix" values="0 0 0 0 0.321569 0 0 0 0 0.223529 0 0 0 0 0.196078 0 0 0 1 0"/>
<feBlend mode="normal" in2="BackgroundImageFix" result="effect1_dropShadow_673_17505"/>
<feBlend mode="normal" in="SourceGraphic" in2="effect1_dropShadow_673_17505" result="shape"/>
</filter>
<filter id="filter5_i_673_17505" x="267.213" y="213.06" width="106.922" height="28.7998" filterUnits="userSpaceOnUse" color-interpolation-filters="sRGB">
<feFlood flood-opacity="0" result="BackgroundImageFix"/>
<feBlend mode="normal" in="SourceGraphic" in2="BackgroundImageFix" result="shape"/>
<feColorMatrix in="SourceAlpha" type="matrix" values="0 0 0 0 0 0 0 0 0 0 0 0 0 0 0 0 0 0 127 0" result="hardAlpha"/>
<feOffset dy="-2"/>
<feComposite in2="hardAlpha" operator="arithmetic" k2="-1" k3="1"/>
<feColorMatrix type="matrix" values="0 0 0 0 0.425833 0 0 0 0 0.392122 0 0 0 0 0.298083 0 0 0 1 0"/>
<feBlend mode="normal" in2="shape" result="effect1_innerShadow_673_17505"/>
</filter>
<filter id="filter6_ii_673_17505" x="48.2959" y="21.8501" width="65.8076" height="74.748" filterUnits="userSpaceOnUse" color-interpolation-filters="sRGB">
<feFlood flood-opacity="0" result="BackgroundImageFix"/>
<feBlend mode="normal" in="SourceGraphic" in2="BackgroundImageFix" result="shape"/>
<feColorMatrix in="SourceAlpha" type="matrix" values="0 0 0 0 0 0 0 0 0 0 0 0 0 0 0 0 0 0 127 0" result="hardAlpha"/>
<feOffset dx="2"/>
<feComposite in2="hardAlpha" operator="arithmetic" k2="-1" k3="1"/>
<feColorMatrix type="matrix" values="0 0 0 0 0.278431 0 0 0 0 0.219608 0 0 0 0 0.207843 0 0 0 0.5 0"/>
<feBlend mode="normal" in2="shape" result="effect1_innerShadow_673_17505"/>
<feColorMatrix in="SourceAlpha" type="matrix" values="0 0 0 0 0 0 0 0 0 0 0 0 0 0 0 0 0 0 127 0" result="hardAlpha"/>
<feOffset dx="-1"/>
<feComposite in2="hardAlpha" operator="arithmetic" k2="-1" k3="1"/>
<feColorMatrix type="matrix" values="0 0 0 0 0.407843 0 0 0 0 0.301961 0 0 0 0 0.266667 0 0 0 1 0"/>
<feBlend mode="normal" in2="effect1_innerShadow_673_17505" result="effect2_innerShadow_673_17505"/>
</filter>
<filter id="filter7_ii_673_17505" x="21.3652" y="78.5181" width="86.9619" height="50.0103" filterUnits="userSpaceOnUse" color-interpolation-filters="sRGB">
<feFlood flood-opacity="0" result="BackgroundImageFix"/>
<feBlend mode="normal" in="SourceGraphic" in2="BackgroundImageFix" result="shape"/>
<feColorMatrix in="SourceAlpha" type="matrix" values="0 0 0 0 0 0 0 0 0 0 0 0 0 0 0 0 0 0 127 0" result="hardAlpha"/>
<feOffset dx="2"/>
<feComposite in2="hardAlpha" operator="arithmetic" k2="-1" k3="1"/>
<feColorMatrix type="matrix" values="0 0 0 0 0.278431 0 0 0 0 0.219608 0 0 0 0 0.207843 0 0 0 0.5 0"/>
<feBlend mode="normal" in2="shape" result="effect1_innerShadow_673_17505"/>
<feColorMatrix in="SourceAlpha" type="matrix" values="0 0 0 0 0 0 0 0 0 0 0 0 0 0 0 0 0 0 127 0" result="hardAlpha"/>
<feOffset dx="-1"/>
<feComposite in2="hardAlpha" operator="arithmetic" k2="-1" k3="1"/>
<feColorMatrix type="matrix" values="0 0 0 0 0.407843 0 0 0 0 0.301961 0 0 0 0 0.266667 0 0 0 1 0"/>
<feBlend mode="normal" in2="effect1_innerShadow_673_17505" result="effect2_innerShadow_673_17505"/>
</filter>
<filter id="filter8_ii_673_17505" x="531.789" y="14.8501" width="65.8076" height="74.748" filterUnits="userSpaceOnUse" color-interpolation-filters="sRGB">
<feFlood flood-opacity="0" result="BackgroundImageFix"/>
<feBlend mode="normal" in="SourceGraphic" in2="BackgroundImageFix" result="shape"/>
<feColorMatrix in="SourceAlpha" type="matrix" values="0 0 0 0 0 0 0 0 0 0 0 0 0 0 0 0 0 0 127 0" result="hardAlpha"/>
<feOffset dx="2"/>
<feComposite in2="hardAlpha" operator="arithmetic" k2="-1" k3="1"/>
<feColorMatrix type="matrix" values="0 0 0 0 0.278431 0 0 0 0 0.219608 0 0 0 0 0.207843 0 0 0 0.5 0"/>
<feBlend mode="normal" in2="shape" result="effect1_innerShadow_673_17505"/>
<feColorMatrix in="SourceAlpha" type="matrix" values="0 0 0 0 0 0 0 0 0 0 0 0 0 0 0 0 0 0 127 0" result="hardAlpha"/>
<feOffset dx="-1"/>
<feComposite in2="hardAlpha" operator="arithmetic" k2="-1" k3="1"/>
<feColorMatrix type="matrix" values="0 0 0 0 0.407843 0 0 0 0 0.301961 0 0 0 0 0.266667 0 0 0 1 0"/>
<feBlend mode="normal" in2="effect1_innerShadow_673_17505" result="effect2_innerShadow_673_17505"/>
</filter>
<filter id="filter9_ii_673_17505" x="530.078" y="70.5312" width="75.416" height="64.936" filterUnits="userSpaceOnUse" color-interpolation-filters="sRGB">
<feFlood flood-opacity="0" result="BackgroundImageFix"/>
<feBlend mode="normal" in="SourceGraphic" in2="BackgroundImageFix" result="shape"/>
<feColorMatrix in="SourceAlpha" type="matrix" values="0 0 0 0 0 0 0 0 0 0 0 0 0 0 0 0 0 0 127 0" result="hardAlpha"/>
<feOffset dx="2"/>
<feComposite in2="hardAlpha" operator="arithmetic" k2="-1" k3="1"/>
<feColorMatrix type="matrix" values="0 0 0 0 0.278431 0 0 0 0 0.219608 0 0 0 0 0.207843 0 0 0 0.5 0"/>
<feBlend mode="normal" in2="shape" result="effect1_innerShadow_673_17505"/>
<feColorMatrix in="SourceAlpha" type="matrix" values="0 0 0 0 0 0 0 0 0 0 0 0 0 0 0 0 0 0 127 0" result="hardAlpha"/>
<feOffset dx="-1"/>
<feComposite in2="hardAlpha" operator="arithmetic" k2="-1" k3="1"/>
<feColorMatrix type="matrix" values="0 0 0 0 0.407843 0 0 0 0 0.301961 0 0 0 0 0.266667 0 0 0 1 0"/>
<feBlend mode="normal" in2="effect1_innerShadow_673_17505" result="effect2_innerShadow_673_17505"/>
</filter>
</defs>
</svg>
