<svg width="331" height="78" viewBox="0 0 331 78" fill="none" xmlns="http://www.w3.org/2000/svg">
<g id="Logotype/Name">
<g id="Group">
<g id="Others/Logotype" filter="url(#filter0_d_673_17503)">
<path d="M22.696 19.72V32.008H29.896C33.256 32.008 34.12 30.088 34.12 27.496V24.232C34.12 21.64 33.256 19.72 29.896 19.72H22.696ZM19.24 71.56H4.456C2.056 71.56 1 70.504 1 68.104V5.896C1 3.496 2.056 2.44 4.456 2.44H36.424C50.824 2.44 55.336 8.968 55.336 18.472V22.888C55.336 28.264 53.992 32.104 49.96 33.832C56.968 34.6 61.576 39.688 61.576 47.752V68.104C61.576 70.504 60.52 71.56 58.12 71.56H43.24C40.84 71.56 39.784 70.504 39.784 68.104V53.416C39.784 50.536 38.824 49.288 36.136 49.288H22.696V68.104C22.696 70.504 21.64 71.56 19.24 71.56Z" fill="#FDE294"/>
<path d="M130.435 53.416C130.435 65.128 124.675 73 100.675 73C76.675 73 70.819 65.128 70.819 53.416V20.68C70.819 8.968 76.675 1 100.675 1C124.675 1 130.435 8.968 130.435 20.68V53.416ZM92.611 49.96C92.611 52.552 93.763 54.472 100.675 54.472C107.683 54.472 108.739 52.552 108.739 49.96V24.136C108.739 21.64 107.683 19.72 100.675 19.72C93.763 19.72 92.611 21.64 92.611 24.136V49.96Z" fill="#FDE294"/>
<path d="M182.976 71.56H146.112C143.712 71.56 142.656 70.504 142.656 68.104V5.896C142.656 3.496 143.712 2.44 146.112 2.44H176.736C189.312 2.44 195.168 7.048 195.168 17.128V21.736C195.168 27.112 193.344 30.472 189.504 32.104C197.76 32.872 201.6 37.576 201.6 46.984V55.816C201.6 66.568 195.744 71.56 182.976 71.56ZM164.256 18.76V29.128H172.416C174.912 29.128 176.064 27.88 176.064 25.288V22.6C176.064 20.008 174.912 18.76 172.416 18.76H164.256ZM164.256 43.912V55.24H176.736C179.232 55.24 180.384 53.992 180.384 51.4V47.656C180.384 45.064 179.232 43.912 176.736 43.912H164.256Z" fill="#FDE294"/>
<path d="M214.139 71.56C211.739 71.56 210.683 70.504 210.683 68.104V56.68C210.683 54.28 211.739 53.224 214.139 53.224H223.643V20.968H214.139C211.739 20.968 210.683 19.912 210.683 17.512V5.896C210.683 3.496 211.739 2.44 214.139 2.44H255.035C257.435 2.44 258.491 3.496 258.491 5.896V17.512C258.491 19.912 257.435 20.968 255.035 20.968H245.723V53.224H255.035C257.435 53.224 258.491 54.28 258.491 56.68V68.104C258.491 70.504 257.435 71.56 255.035 71.56H214.139Z" fill="#FDE294"/>
<path d="M288.2 71.56H273.8C271.4 71.56 270.344 70.504 270.344 68.104V5.896C270.344 3.496 271.4 2.44 273.8 2.44H283.784C286.28 2.44 287.816 3.112 289.448 5.032L308.072 26.344V5.896C308.072 3.496 309.128 2.44 311.528 2.44H325.928C328.328 2.44 329.384 3.496 329.384 5.896V68.104C329.384 70.504 328.328 71.56 325.928 71.56H311.528C309.128 71.56 308.072 70.504 308.072 68.104V56.296L291.656 36.424V68.104C291.656 70.504 290.6 71.56 288.2 71.56Z" fill="#FDE294"/>
<path d="M29.896 31.508H23.196V20.22H29.896C31.4801 20.22 32.3652 20.6686 32.8759 21.3142C33.4064 21.9849 33.62 22.9732 33.62 24.232V27.496C33.62 28.7548 33.4064 29.7431 32.8759 30.4138C32.3652 31.0594 31.4801 31.508 29.896 31.508ZM4.456 72.06H19.24C20.501 72.06 21.5231 71.784 22.2216 71.0856C22.92 70.3871 23.196 69.365 23.196 68.104V49.788H36.136C37.4133 49.788 38.149 50.0849 38.5884 50.5974C39.0446 51.1296 39.284 52.0088 39.284 53.416V68.104C39.284 69.365 39.56 70.3871 40.2584 71.0856C40.9569 71.784 41.979 72.06 43.24 72.06H58.12C59.381 72.06 60.4031 71.784 61.1016 71.0856C61.8 70.3871 62.076 69.365 62.076 68.104V47.752C62.076 43.6241 60.8954 40.2141 58.7763 37.7314C56.9573 35.6003 54.4716 34.1818 51.52 33.5715C52.9222 32.6691 53.9301 31.4422 54.6152 29.9349C55.4971 27.9947 55.836 25.6098 55.836 22.888V18.472C55.836 13.6484 54.6909 9.48292 51.6269 6.53187C48.5675 3.58541 43.6884 1.94 36.424 1.94H4.456C3.19496 1.94 2.17294 2.21595 1.47445 2.91444C0.775956 3.61294 0.5 4.63496 0.5 5.896V68.104C0.5 69.365 0.775956 70.3871 1.47445 71.0856C2.17294 71.784 3.19497 72.06 4.456 72.06ZM100.675 73.5C112.707 73.5 120.287 71.5314 124.861 67.9956C129.471 64.4318 130.935 59.3539 130.935 53.416V20.68C130.935 14.7423 129.471 9.64122 124.862 6.05344C120.288 2.49295 112.708 0.5 100.675 0.5C88.6418 0.5 81.0387 2.49306 76.4409 6.05264C71.8078 9.63957 70.319 14.7401 70.319 20.68V53.416C70.319 59.3561 71.808 64.4335 76.4422 67.9964C81.0401 71.5313 88.6429 73.5 100.675 73.5ZM100.675 53.972C97.2375 53.972 95.3559 53.489 94.3372 52.778C93.3763 52.1074 93.111 51.1776 93.111 49.96V24.136C93.111 22.9721 93.373 22.0649 94.3343 21.404C95.3543 20.7027 97.2382 20.22 100.675 20.22C104.162 20.22 106.043 20.7034 107.05 21.4026C107.996 22.0598 108.239 22.9626 108.239 24.136V49.96C108.239 51.187 107.993 52.1124 107.047 52.7794C106.042 53.4883 104.163 53.972 100.675 53.972ZM146.112 72.06H182.976C189.41 72.06 194.208 70.805 197.399 68.1015C200.609 65.3828 202.1 61.2815 202.1 55.816V46.984C202.1 42.2218 201.13 38.5614 199.036 35.9884C197.208 33.7425 194.576 32.3862 191.15 31.8124C192.454 30.9965 193.476 29.9184 194.215 28.5634C195.204 26.7507 195.668 24.4764 195.668 21.736V17.128C195.668 11.9881 194.171 8.14788 190.979 5.61251C187.813 3.09698 183.069 1.94 176.736 1.94H146.112C144.851 1.94 143.829 2.21595 143.131 2.91445C142.432 3.61294 142.156 4.63496 142.156 5.896V68.104C142.156 69.365 142.432 70.3871 143.131 71.0856C143.829 71.784 144.851 72.06 146.112 72.06ZM172.416 28.628H164.756V19.26H172.416C173.587 19.26 174.342 19.5521 174.813 20.0511C175.289 20.5561 175.564 21.3669 175.564 22.6V25.288C175.564 26.5211 175.289 27.3319 174.813 27.8369C174.342 28.3359 173.587 28.628 172.416 28.628ZM176.736 54.74H164.756V44.412H176.736C177.917 44.412 178.672 44.6852 179.139 45.162C179.609 45.641 179.884 46.4224 179.884 47.656V51.4C179.884 52.6331 179.609 53.4439 179.133 53.9489C178.662 54.4479 177.907 54.74 176.736 54.74ZM210.183 68.104C210.183 69.365 210.459 70.3871 211.157 71.0856C211.856 71.784 212.878 72.06 214.139 72.06H255.035C256.296 72.06 257.318 71.784 258.016 71.0856C258.715 70.3871 258.991 69.365 258.991 68.104V56.68C258.991 55.419 258.715 54.3969 258.016 53.6984C257.318 53 256.296 52.724 255.035 52.724H246.223V21.468H255.035C256.296 21.468 257.318 21.192 258.016 20.4936C258.715 19.7951 258.991 18.773 258.991 17.512V5.896C258.991 4.63496 258.715 3.61294 258.016 2.91444C257.318 2.21595 256.296 1.94 255.035 1.94H214.139C212.878 1.94 211.856 2.21595 211.157 2.91445C210.459 3.61294 210.183 4.63496 210.183 5.896V17.512C210.183 18.773 210.459 19.7951 211.157 20.4936C211.856 21.192 212.878 21.468 214.139 21.468H223.143V52.724H214.139C212.878 52.724 211.856 53 211.157 53.6984C210.459 54.3969 210.183 55.419 210.183 56.68V68.104ZM273.8 72.06H288.2C289.461 72.06 290.483 71.784 291.181 71.0856C291.88 70.3871 292.156 69.365 292.156 68.104V37.8143L307.572 56.4758V68.104C307.572 69.365 307.848 70.3871 308.546 71.0856C309.245 71.784 310.267 72.06 311.528 72.06H325.928C327.189 72.06 328.211 71.784 328.909 71.0856C329.608 70.3871 329.884 69.365 329.884 68.104V5.896C329.884 4.63496 329.608 3.61293 328.909 2.91444C328.211 2.21595 327.189 1.94 325.928 1.94H311.528C310.267 1.94 309.245 2.21595 308.546 2.91445C307.848 3.61294 307.572 4.63496 307.572 5.896V25.012L289.829 4.70818C289.828 4.7075 289.828 4.70683 289.827 4.70616C288.98 3.7096 288.132 3.00742 287.146 2.56061C286.161 2.11391 285.076 1.94 283.784 1.94H273.8C272.539 1.94 271.517 2.21595 270.818 2.91445C270.12 3.61294 269.844 4.63496 269.844 5.896V68.104C269.844 69.365 270.12 70.3871 270.818 71.0856C271.517 71.784 272.539 72.06 273.8 72.06Z" stroke="#3E251E"/>
</g>
<path id="Intersect" fill-rule="evenodd" clip-rule="evenodd" d="M308.072 10.4691C315.167 10.7892 322.271 11.0903 329.384 11.3722V14.6456C322.276 14.2708 315.173 13.8764 308.072 13.4691V10.4691ZM270.344 8.68673C278.102 9.07119 285.86 9.44647 293.621 9.80793L296.217 12.7783C288.525 12.3237 280.836 11.8585 273.146 11.3912C272.211 11.3344 271.277 11.2775 270.344 11.2206V8.68673ZM210.687 5.62961C215.617 5.88392 220.544 6.13933 225.469 6.39464C236.483 6.96557 247.488 7.53605 258.491 8.09283V10.4959C242.441 9.51318 226.595 8.5456 210.683 7.67355V5.896C210.683 5.80529 210.684 5.7165 210.687 5.62961ZM148.541 2.44C161.748 3.06969 174.949 3.75052 188.149 4.45502C189.417 5.05348 190.508 5.78824 191.426 6.66325C178.535 5.98795 165.644 5.2417 152.753 4.49546C149.508 4.30764 146.264 4.11982 143.019 3.93313C143.51 2.90927 144.512 2.44 146.112 2.44H148.541ZM1 16.7708C6.23016 16.5596 11.4428 16.3714 16.6178 16.1985C29.461 15.8497 42.3082 15.5788 55.1575 15.3859C55.2288 15.9654 55.2779 16.5596 55.3063 17.1675C42.378 17.399 29.454 17.7571 16.5393 18.2417C13.7906 18.3444 11.0404 18.4452 8.28914 18.546C5.86003 18.635 3.43016 18.724 1 18.8144V16.7708ZM1 33.7763V32.199C8.23134 32.0745 15.4637 31.9973 22.696 31.9676V32.008H29.896C30.2246 32.008 30.5294 31.9896 30.8118 31.9541C38.0544 31.9598 45.2963 32.013 52.5364 32.1137C51.8367 32.8167 50.9852 33.3926 49.96 33.832C50.1531 33.8532 50.3445 33.8776 50.5339 33.9053C34.0316 33.5867 17.5142 33.5435 1 33.7763ZM1 55.077V52.2232C8.22476 51.9607 15.4584 51.7927 22.696 51.7194V54.6397C15.4581 54.6806 8.22408 54.8264 1 55.077ZM61.576 55.1956C54.3158 54.9917 47.0513 54.8395 39.784 54.7389V53.416C39.784 52.7702 39.7357 52.2065 39.6305 51.7205C40.4386 51.7288 41.2467 51.7383 42.0547 51.7489C48.5623 51.8083 55.0698 51.9199 61.576 52.0741V55.1956ZM129.957 58.6535C129.927 58.6515 129.897 58.6495 129.867 58.6475C110.262 57.2135 90.5918 56.1591 70.8851 55.4854C70.8402 54.8101 70.819 54.12 70.819 53.416V52.3208C78.5497 52.5494 86.2776 52.8319 94.0006 53.1522C95.1438 53.9777 97.168 54.472 100.675 54.472C103.361 54.472 105.173 54.1899 106.386 53.696C113.879 54.0419 121.367 54.4153 128.847 54.8016C129.365 54.8281 129.884 54.855 130.403 54.8822C130.344 56.1947 130.202 57.4539 129.957 58.6535ZM199.295 65.1917C180.497 63.0483 161.643 61.0865 142.656 59.5848V55.5854C162.237 56.8032 181.746 58.4518 201.198 60.286C200.826 62.1625 200.195 63.7954 199.295 65.1917ZM252.843 71.56C247.274 70.8961 241.707 70.2248 236.139 69.5535C227.657 68.5308 219.174 67.5079 210.683 66.5107V61.1945C218.021 61.9075 225.352 62.6413 232.675 63.3827C238.184 63.9383 243.7 64.4999 249.221 65.062C252.309 65.3765 255.399 65.6911 258.491 66.0049V68.104C258.491 70.504 257.435 71.56 255.035 71.56H252.843ZM329.384 48.0922V51.9638C320.591 51.3999 311.811 50.8102 303.039 50.2034L299.807 46.2911C309.661 46.9242 319.52 47.5267 329.384 48.0922ZM329.384 24.0851V29.2155C322.202 28.675 315.021 28.116 307.847 27.5439C305.556 27.3636 303.265 27.1831 300.974 27.0025C290.762 26.1976 280.557 25.3932 270.344 24.6166V19.6561C281.698 20.3906 293.034 21.2241 304.364 22.1007L308.072 26.344V22.3891C315.177 22.9445 322.281 23.5144 329.384 24.0851ZM258.33 18.9189C247.862 18.3133 237.376 17.8086 226.865 17.4485C221.472 17.2377 216.078 17.0406 210.683 16.8574V17.512C210.683 19.084 211.136 20.0794 212.123 20.5791C214.229 20.7061 216.334 20.8358 218.44 20.968H223.643V21.2999C230.635 21.7528 237.624 22.2329 244.608 22.7366C244.98 22.7623 245.351 22.7882 245.723 22.8141V20.968H255.035C256.9 20.968 257.954 20.33 258.33 18.9189ZM245.723 42.5543C242.84 42.3499 239.957 42.145 237.075 41.9402C232.598 41.6221 228.12 41.304 223.643 40.9871V44.3306C225.458 44.4725 227.274 44.6144 229.089 44.7562C234.635 45.1896 240.179 45.6229 245.723 46.0539V42.5543ZM270.344 67.2015V68.104C270.344 70.504 271.4 71.56 273.8 71.56H288.2C290.163 71.56 291.227 70.853 291.549 69.2812C284.474 68.6062 277.405 67.9091 270.344 67.2015ZM291.656 49.4066C284.547 48.9038 277.444 48.3921 270.344 47.8762V44.313C277.447 44.8089 284.55 45.2922 291.656 45.7606V49.4066ZM309.09 70.902C309.652 71.3492 310.455 71.56 311.528 71.56H316.623C314.111 71.3449 311.6 71.1254 309.09 70.902ZM201.265 42.5924C201.066 41.4116 200.777 40.3347 200.397 39.3592C181.167 38.0322 161.924 36.7661 142.656 35.6571V38.3238C162.211 39.6333 181.745 41.0896 201.265 42.5924ZM130.435 37.5255V34.9758C127.028 34.7923 123.62 34.6144 120.211 34.4425C116.388 34.2323 112.564 34.0354 108.739 33.8518V36.1761C112.316 36.3864 115.891 36.6098 119.465 36.8461C123.122 37.0663 126.779 37.293 130.435 37.5255ZM92.611 35.3165V33.157C85.3508 32.8798 78.0864 32.6504 70.819 32.469V34.436C78.0879 34.676 85.3525 34.9695 92.611 35.3165ZM71.0491 16.9481C71.129 16.3468 71.2312 15.7585 71.3576 15.1839C90.8692 14.9904 110.384 14.9767 129.894 15.1425C130.044 15.8235 130.16 16.5237 130.245 17.2419C110.519 16.8494 90.7816 16.7514 71.0491 16.9481ZM142.656 17.5278C154.272 17.8319 165.882 18.2381 177.483 18.7464C183.381 19.0121 189.276 19.3027 195.168 19.6161V17.128C195.168 16.8711 195.164 16.6178 195.157 16.368C177.664 15.8596 160.162 15.4958 142.656 15.2767V17.5278ZM115.283 2.38871C107.774 1.99595 100.262 1.63862 92.7468 1.34168C95.139 1.11638 97.7745 1 100.675 1C106.59 1 111.397 1.48398 115.283 2.38871Z" fill="#E3C87A"/>
<g id="Others/Logotype_2" style="mix-blend-mode:color">
<path d="M22.696 19.72V32.008H29.896C33.256 32.008 34.12 30.088 34.12 27.496V24.232C34.12 21.64 33.256 19.72 29.896 19.72H22.696ZM19.24 71.56H4.456C2.056 71.56 1 70.504 1 68.104V5.896C1 3.496 2.056 2.44 4.456 2.44H36.424C50.824 2.44 55.336 8.968 55.336 18.472V22.888C55.336 28.264 53.992 32.104 49.96 33.832C56.968 34.6 61.576 39.688 61.576 47.752V68.104C61.576 70.504 60.52 71.56 58.12 71.56H43.24C40.84 71.56 39.784 70.504 39.784 68.104V53.416C39.784 50.536 38.824 49.288 36.136 49.288H22.696V68.104C22.696 70.504 21.64 71.56 19.24 71.56Z" fill="#FDE294"/>
<path d="M130.435 53.416C130.435 65.128 124.675 73 100.675 73C76.675 73 70.819 65.128 70.819 53.416V20.68C70.819 8.968 76.675 1 100.675 1C124.675 1 130.435 8.968 130.435 20.68V53.416ZM92.611 49.96C92.611 52.552 93.763 54.472 100.675 54.472C107.683 54.472 108.739 52.552 108.739 49.96V24.136C108.739 21.64 107.683 19.72 100.675 19.72C93.763 19.72 92.611 21.64 92.611 24.136V49.96Z" fill="#FDE294"/>
<path d="M182.976 71.56H146.112C143.712 71.56 142.656 70.504 142.656 68.104V5.896C142.656 3.496 143.712 2.44 146.112 2.44H176.736C189.312 2.44 195.168 7.048 195.168 17.128V21.736C195.168 27.112 193.344 30.472 189.504 32.104C197.76 32.872 201.6 37.576 201.6 46.984V55.816C201.6 66.568 195.744 71.56 182.976 71.56ZM164.256 18.76V29.128H172.416C174.912 29.128 176.064 27.88 176.064 25.288V22.6C176.064 20.008 174.912 18.76 172.416 18.76H164.256ZM164.256 43.912V55.24H176.736C179.232 55.24 180.384 53.992 180.384 51.4V47.656C180.384 45.064 179.232 43.912 176.736 43.912H164.256Z" fill="#FDE294"/>
<path d="M214.139 71.56C211.739 71.56 210.683 70.504 210.683 68.104V56.68C210.683 54.28 211.739 53.224 214.139 53.224H223.643V20.968H214.139C211.739 20.968 210.683 19.912 210.683 17.512V5.896C210.683 3.496 211.739 2.44 214.139 2.44H255.035C257.435 2.44 258.491 3.496 258.491 5.896V17.512C258.491 19.912 257.435 20.968 255.035 20.968H245.723V53.224H255.035C257.435 53.224 258.491 54.28 258.491 56.68V68.104C258.491 70.504 257.435 71.56 255.035 71.56H214.139Z" fill="#FDE294"/>
<path d="M288.2 71.56H273.8C271.4 71.56 270.344 70.504 270.344 68.104V5.896C270.344 3.496 271.4 2.44 273.8 2.44H283.784C286.28 2.44 287.816 3.112 289.448 5.032L308.072 26.344V5.896C308.072 3.496 309.128 2.44 311.528 2.44H325.928C328.328 2.44 329.384 3.496 329.384 5.896V68.104C329.384 70.504 328.328 71.56 325.928 71.56H311.528C309.128 71.56 308.072 70.504 308.072 68.104V56.296L291.656 36.424V68.104C291.656 70.504 290.6 71.56 288.2 71.56Z" fill="#FDE294"/>
</g>
</g>
</g>
<defs>
<filter id="filter0_d_673_17503" x="0" y="0" width="330.384" height="78" filterUnits="userSpaceOnUse" color-interpolation-filters="sRGB">
<feFlood flood-opacity="0" result="BackgroundImageFix"/>
<feColorMatrix in="SourceAlpha" type="matrix" values="0 0 0 0 0 0 0 0 0 0 0 0 0 0 0 0 0 0 127 0" result="hardAlpha"/>
<feOffset dy="4"/>
<feComposite in2="hardAlpha" operator="out"/>
<feColorMatrix type="matrix" values="0 0 0 0 0.321569 0 0 0 0 0.223529 0 0 0 0 0.196078 0 0 0 1 0"/>
<feBlend mode="normal" in2="BackgroundImageFix" result="effect1_dropShadow_673_17503"/>
<feBlend mode="normal" in="SourceGraphic" in2="effect1_dropShadow_673_17503" result="shape"/>
</filter>
</defs>
</svg>
