<svg width="419" height="141" viewBox="0 0 419 141" fill="none" xmlns="http://www.w3.org/2000/svg">
<g id="Logotype/NameBack">
<path id="Vector" d="M395.465 20.5654H308.429H245.75H243.975H173.325H171.543H158.714H156.939H21.8275L0 35.0782V61.9334V62.2055V98.3758V98.6421V123.515L21.8275 140.01H154.883H156.658H171.543H173.325H243.975H245.75H306.374H395.465L417.3 123.515V98.6421V98.3758V62.2055V61.9334V35.0782L395.465 20.5654Z" fill="#473835"/>
<path id="Vector_2" d="M395.298 6.55566H308.429H245.75H243.975H173.325H171.543H158.714H156.939H22.0017L0 22.9706V49.222V49.5296V91.2339V91.5351V119.081L21.9337 135.947L154.883 135.576H156.658H171.543H173.325H243.975H245.75H306.374L395.369 135.42L417.3 119.081V91.5351V91.2339V49.5296V49.222V22.9706L395.298 6.55566Z" fill="#6E544C"/>
<path id="Vector_3" d="M388.418 12.8379H304.734H244.466H242.753H174.827H173.121H160.776H159.069H29.1624L8.17285 27.1097V53.539V53.8033V84.8158V85.0867V111.509L29.1624 125.788H157.095H158.801H173.121H174.827H242.753H244.466H302.753H388.418L409.414 111.509V85.0867V84.8158V53.8033V53.539V27.1097L388.418 12.8379Z" fill="#977970"/>
<g id="Clippathgroup" opacity="0.5">
<mask id="mask0_673_17504" style="mask-type:luminance" maskUnits="userSpaceOnUse" x="8" y="0" width="402" height="140">
<g id="Clip-path">
<path id="Vector_4" d="M388.429 0.182617H304.738H244.47H242.764H174.831H173.125H160.787H159.08H29.1734L8.17676 14.4544V40.8903V41.148V98.5194V98.7837V125.213L29.1734 139.485H157.099H158.812H173.125H174.831H242.764H244.47H302.764H388.429L409.418 125.213V98.7837V98.5194V41.148V40.8903V14.4544L388.429 0.182617Z" fill="white"/>
</g>
</mask>
<g mask="url(#mask0_673_17504)">
<g id="Group">
<g id="Vector_5" style="mix-blend-mode:multiply" opacity="0.5">
<path fill-rule="evenodd" clip-rule="evenodd" d="M414.05 -36.3202C409.029 -37.0606 404.025 -37.7511 399.039 -38.3916C370.381 -42.1124 341.402 -44.6615 312.429 -46.6219C281.638 -48.6989 250.789 -50.1095 219.933 -51.2979C189.19 -52.4864 158.204 -53.8303 127.656 -56.6737C101.999 -59.045 76.7388 -62.577 52.1241 -68.3693L51.0168 -68.6303C53.7051 -70.4815 56.4525 -72.2716 59.2592 -74.0006C111.609 -61.4719 165.623 -58.2064 220.188 -54.1524C250.433 -51.931 280.697 -50.5426 311.032 -49.2098C338.269 -48.0158 365.543 -46.7996 392.644 -44.4227C397.713 -43.9784 402.766 -43.4916 407.803 -42.9621C409.946 -40.7852 412.021 -38.5638 414.026 -36.2979L414.05 -36.3202ZM446.794 20.5586C414.476 12.7282 381.666 5.92706 348.365 0.155144C322.803 -4.28764 297.069 -8.09178 271.223 -11.5072C246.881 -14.7393 222.461 -17.616 198.042 -20.5205C155.409 -25.5631 112.87 -30.6334 70.7346 -37.5919C54.7827 -40.2298 38.7598 -42.8177 22.9263 -45.7666C23.7849 -46.5997 24.6553 -47.4327 25.5317 -48.2435C41.3474 -44.7337 57.3644 -41.7015 73.5769 -38.9914C114.552 -32.1217 156.421 -27.1014 197.924 -22.1921C222.526 -19.2821 247.194 -16.6997 271.827 -13.9174C297.934 -10.9741 323.975 -7.80856 349.875 -3.9711C378.191 0.216225 406.246 5.16438 433.957 11.0733C437.419 11.8138 440.877 12.569 444.331 13.3391C445.208 15.7271 446.015 18.1336 446.753 20.5586H446.794ZM451.982 69.5848C395.285 55.5345 337.304 44.5941 278.737 35.2032C231.006 27.5394 182.984 20.8807 134.98 14.2166C104.219 9.95148 73.3696 6.10292 42.7863 1.2825C26.3429 -1.28876 9.67451 -4.17658 -6.77477 -7.59753L-6.55569 -7.98627C9.26002 -7.02552 30.2568 -2.39947 48.2516 0.0884933C77.1651 4.07034 106.375 8.21324 135.294 12.2284C160.383 15.7049 185.53 18.9537 210.672 22.2247C260.689 28.7001 310.724 35.1477 360.249 43.4779C391.306 48.6926 422.103 54.657 452.426 61.7211C452.349 64.3534 452.207 66.9802 451.982 69.5848ZM438.215 100.279C399.43 91.0046 360.456 82.1579 321.062 74.3608C240.16 58.3446 156.7 51.6359 74.4236 40.6012C40.3348 36.0251 6.19873 30.6049 -27.0137 23.291C-26.9722 23.1466 -26.9249 23.0022 -26.8834 22.8578C-17.741 25.0125 -14.7152 21.3806 -5.36551 23.2021C33.0576 30.666 81.9791 39.0184 121.361 42.7559C155.705 46.0214 186.649 50.5308 220.957 54.0462C255.798 57.6282 290.396 62.132 324.378 68.8629C363.186 76.5433 402.089 84.0183 440.607 92.443C439.89 95.0753 439.085 97.6854 438.238 100.279H438.215ZM-24.3017 50.2975C2.11305 55.1735 29.043 58.8721 55.5703 62.1876C93.0756 66.8747 130.77 70.7622 168.181 75.9269C219.637 83.0354 271.069 90.1605 322.134 98.7462C360.622 105.216 398.862 112.547 436.616 121.016C435.432 123.237 434.198 125.434 432.915 127.608C397.98 119.794 362.683 112.952 327.126 106.865C278.731 98.574 229.958 91.6544 181.131 84.9013C175.92 84.1609 170.709 83.4408 165.499 82.741C127.603 77.5096 89.588 72.6781 51.8103 66.9691C26.3488 63.0983 0.745239 58.8666 -24.4853 53.7685C-24.4379 52.6022 -24.3767 51.436 -24.3017 50.2698V50.2975ZM-23.9524 70.9621C-11.3203 73.0169 1.33934 74.9513 14.0266 76.7655C62.6166 83.7629 111.473 89.4163 160.199 95.9583C177.608 98.2945 195.01 100.655 212.407 103.039C255.182 108.953 297.827 115.296 340.099 122.937C368.521 128.076 396.671 133.833 424.548 140.208C423.052 142.245 421.503 144.264 419.9 146.267C392.887 140.084 365.616 134.52 338.086 129.574C296.104 121.999 253.749 115.657 211.258 109.781C193.4 107.304 175.523 104.877 157.629 102.5C126.649 98.3408 95.675 94.1701 64.7897 89.6662C35.3018 85.3456 5.83753 80.9028 -23.4017 75.7381C-23.6149 74.1461 -23.7984 72.5448 -23.9524 70.9343V70.9621ZM-18.2857 98.2963C19.2847 104.227 57.2045 109.142 95.0829 113.896C168.436 123.109 241.895 131.734 314.691 143.141C345.961 148.033 377.148 153.437 408.016 159.629C405.79 161.906 403.49 164.137 401.118 166.321C300.302 145.462 196.834 131.334 94.1177 116.662C56.7545 111.33 19.3439 105.988 -17.7943 99.7791C-17.9601 99.2793 -18.1377 98.7739 -18.2976 98.2686L-18.2857 98.2963ZM-9.69396 119.077C4.96711 121.669 19.6321 124.131 34.3011 126.464C94.4316 136.149 154.994 144.412 215.421 153.054C255.993 158.852 296.542 164.799 336.872 171.436C352.95 174.079 368.993 176.856 385 179.766C381.53 182.358 377.956 184.883 374.277 187.341C321.767 177.206 268.878 168.209 215.776 159.64C193.473 156.041 171.155 152.491 148.824 148.989C103.775 141.813 58.5309 135.138 13.5707 127.602C6.71387 126.454 -0.140978 125.284 -6.99386 124.092C-7.92942 122.419 -8.82945 120.738 -9.69396 119.05V119.077ZM16.8925 156.53C24.3297 157.785 31.7668 159.014 39.2039 160.218C92.898 168.887 146.971 176.273 201.198 182.987C242.144 188.052 282.977 193.855 323.289 201.169C329.853 202.369 336.406 203.603 342.947 204.873C336.367 207.965 329.575 210.825 322.572 213.453C300.363 209.381 278.082 205.475 255.727 201.736C236.203 198.455 216.662 195.225 197.106 192.045C143.353 183.237 89.6176 174.335 36.1663 164.588C31.524 163.711 26.8817 162.843 22.2394 161.984C20.4078 160.184 18.6314 158.357 16.9103 156.502L16.8925 156.53ZM84.7266 204.746C95.8902 206.704 107.05 208.659 118.205 210.61C155.312 217.096 192.312 223.92 229.206 231.08L233.386 231.902C228.681 232.18 223.944 232.356 219.175 232.43C184.832 226.876 150.417 221.528 116.216 215.553L106.523 213.853C99.0225 211.088 91.763 208.052 84.7444 204.746H84.7266ZM349.354 -84.8243C335.546 -85.3796 321.737 -86.1738 307.947 -86.9346C280.052 -88.4785 252.186 -89.9613 224.238 -90.922L222.775 -90.972C193.092 -91.9883 163.349 -93.0324 133.826 -95.6314C125.648 -96.3478 117.353 -97.0475 109.057 -97.8528C110.389 -98.3304 111.734 -98.7969 113.078 -99.2578C116.99 -98.8876 120.906 -98.5507 124.825 -98.2471C178.709 -94.0931 233.356 -97.2308 287.441 -94.9428C300.711 -94.3874 313.998 -93.7321 327.28 -93.3545L330.832 -93.2489C337.192 -90.6573 343.364 -87.8417 349.348 -84.8021L349.354 -84.8243Z" fill="#886759" fill-opacity="0.3"/>
</g>
<path id="Vector_6" style="mix-blend-mode:multiply" opacity="0.4" fill-rule="evenodd" clip-rule="evenodd" d="M210.62 22.372C248.765 27.3158 286.921 32.2651 324.853 38.0328C336.701 39.8366 348.513 41.7258 360.29 43.7003C391.32 48.928 422.089 54.8906 452.385 61.961C452.385 60.8476 452.426 59.7898 452.426 58.7042C452.426 57.6186 452.426 56.4773 452.385 55.3638C452.08 43.6366 450.182 31.9941 446.739 20.7185C414.453 12.8612 381.674 6.04498 348.401 0.269844C322.827 -4.18399 297.081 -7.99759 271.222 -11.4215C246.869 -14.6616 222.438 -17.5455 198.008 -20.4572C155.355 -25.5123 112.797 -30.5952 70.6413 -37.5711C54.7294 -40.2044 38.7701 -42.7987 22.953 -45.7383C21.5944 -44.4133 20.2615 -43.0753 18.9542 -41.7243C10.7638 -33.282 3.49794 -24.0868 -2.73357 -14.2775L-3.18972 -13.5537C-4.37452 -11.6776 -5.48824 -9.77912 -6.56641 -7.86954C-5.26707 -7.59118 -3.96379 -7.31838 -2.65656 -7.05115C14.2743 -3.58273 31.5132 -0.915989 48.1952 1.3833C77.1221 5.37505 106.298 8.34799 135.207 12.3731C160.307 15.8583 185.466 19.1151 210.62 22.3943V22.372Z" fill="#D4AC7B" fill-opacity="0.5"/>
<path id="Vector_7" style="mix-blend-mode:multiply" opacity="0.4" fill-rule="evenodd" clip-rule="evenodd" d="M400.956 166.172C300.142 145.315 196.674 131.16 93.9652 116.511C58.7317 111.509 23.4744 106.447 -11.5874 100.678L-17.8486 99.6221C-16.3519 104.112 -14.6163 108.529 -12.6418 112.871C-11.8717 114.571 -11.0661 116.266 -10.225 117.939C-10.065 118.262 -9.90509 118.584 -9.73923 118.906L-4.57385 119.801C8.3238 122.061 21.2234 124.226 34.125 126.298C49.404 128.758 64.7026 131.138 80.0211 133.439C125.04 140.213 170.214 146.454 215.316 152.89C255.905 158.692 296.469 164.644 336.815 171.285C352.852 173.926 368.856 176.688 384.826 179.571C386.709 178.152 388.565 176.712 390.394 175.253C394.047 172.311 397.567 169.28 400.956 166.161V166.172Z" fill="#D4AC7B" fill-opacity="0.5"/>
</g>
</g>
</g>
<g id="Group_2">
<path id="Vector_8" d="M6.40514 27.7334L0.000976562 23.1587L7.69539 26.1674C7.8102 26.2412 7.90839 26.3354 7.98434 26.4447C8.0603 26.554 8.11253 26.6763 8.13806 26.8045C8.1636 26.9328 8.16193 27.0645 8.13316 27.1921C8.10438 27.3197 8.04906 27.4408 7.97036 27.5484C7.89166 27.656 7.79112 27.748 7.67447 27.8192C7.55783 27.8903 7.42736 27.9393 7.29053 27.9632C7.15369 27.9871 7.01317 27.9856 6.87698 27.9586C6.74079 27.9316 6.6116 27.8798 6.49679 27.8061L6.40514 27.7334Z" fill="#91766E"/>
<path id="Vector_9" d="M28.8804 12.972L21.9346 6.82031L30.4385 11.6374C30.5381 11.7285 30.6175 11.8371 30.6722 11.9569C30.727 12.0768 30.756 12.2056 30.7576 12.336C30.7593 12.4663 30.7335 12.5957 30.6818 12.7168C30.63 12.8378 30.5534 12.9481 30.4562 13.0414C30.3589 13.1347 30.2431 13.2091 30.1152 13.2604C29.9873 13.3117 29.8498 13.3389 29.7107 13.3405C29.5716 13.342 29.4335 13.3178 29.3043 13.2694C29.1752 13.2209 29.0574 13.149 28.9579 13.0579C28.9284 13.0324 28.9023 13.0036 28.8804 12.972Z" fill="#91766E"/>
<path id="Vector_10" d="M8.8202 113.513L0.000976562 119.081L7.52994 111.953C7.74031 111.778 8.01634 111.688 8.29732 111.704C8.57829 111.719 8.8412 111.839 9.02819 112.036C9.21518 112.233 9.31095 112.492 9.29442 112.755C9.27789 113.018 9.15042 113.265 8.94006 113.44L8.8202 113.513Z" fill="#91766E"/>
<path id="Vector_11" d="M30.4385 127.112L21.9346 135.946L28.8804 125.771C28.9683 125.67 29.0767 125.586 29.1992 125.524C29.3217 125.462 29.4561 125.424 29.5946 125.41C29.733 125.397 29.8729 125.41 30.0062 125.447C30.1396 125.485 30.2637 125.546 30.3716 125.629C30.4794 125.711 30.5689 125.813 30.6349 125.928C30.7009 126.042 30.7421 126.168 30.7562 126.298C30.7703 126.428 30.7569 126.559 30.7169 126.684C30.677 126.809 30.6111 126.925 30.5231 127.026L30.4385 127.112Z" fill="#91766E"/>
<path id="Vector_12" d="M388.811 126.821L395.37 135.419L387.253 128.163C387.153 128.072 387.074 127.963 387.019 127.843C386.964 127.723 386.935 127.594 386.934 127.464C386.932 127.334 386.958 127.204 387.01 127.083C387.061 126.962 387.138 126.852 387.235 126.759C387.332 126.665 387.448 126.591 387.576 126.54C387.704 126.488 387.841 126.461 387.981 126.46C388.12 126.458 388.258 126.482 388.387 126.531C388.516 126.579 388.634 126.651 388.733 126.742L388.811 126.821Z" fill="#91766E"/>
<path id="Vector_13" d="M410.082 111.968L417.304 119.081L408.792 113.527C408.672 113.455 408.57 113.362 408.49 113.252C408.41 113.142 408.354 113.019 408.326 112.889C408.298 112.758 408.299 112.624 408.327 112.494C408.356 112.364 408.412 112.241 408.492 112.131C408.572 112.022 408.675 111.929 408.795 111.857C408.914 111.786 409.048 111.738 409.188 111.716C409.328 111.694 409.471 111.698 409.608 111.729C409.746 111.76 409.876 111.816 409.99 111.895L410.082 111.968Z" fill="#91766E"/>
<path id="Vector_14" d="M408.784 26.1674L417.314 23.1587L410.075 27.7334C409.863 27.9086 409.586 27.998 409.305 27.9819C409.023 27.9658 408.76 27.8455 408.573 27.6475C408.386 27.4495 408.29 27.1899 408.308 26.926C408.325 26.6621 408.453 26.4154 408.664 26.2401L408.784 26.1674Z" fill="#91766E"/>
<path id="Vector_15" d="M387.252 12.6914L395.37 6.82031L388.81 14.0261C388.723 14.1272 388.615 14.2112 388.493 14.2732C388.371 14.3352 388.237 14.3741 388.099 14.3876C387.961 14.4011 387.821 14.3889 387.688 14.3519C387.555 14.3148 387.431 14.2535 387.323 14.1715C387.106 14.0037 386.968 13.7629 386.939 13.5009C386.91 13.2388 386.992 12.9766 387.168 12.7707L387.252 12.6914Z" fill="#91766E"/>
<path id="Vector_16" d="M388.416 126.842L409.412 112.563V27.1097L388.416 12.8379H29.1605L8.1709 27.1097V112.563L29.1605 126.842H388.416Z" stroke="#AD938B" stroke-width="3" stroke-miterlimit="10" stroke-linecap="round"/>
</g>
</g>
</svg>
