<svg width="21" height="20" viewBox="0 0 21 20" fill="none" xmlns="http://www.w3.org/2000/svg">
<g id="Level/Star/Active">
<g id="Icon" filter="url(#filter0_i_673_16590)">
<path d="M9.06507 1.03626C9.51672 -0.34542 11.4833 -0.34542 11.9349 1.03626L13.3793 5.4548C13.5813 6.07271 14.1606 6.49106 14.8142 6.49106H19.4883C20.9499 6.49106 21.5576 8.3501 20.3752 9.20403L16.5938 11.9348C16.0649 12.3167 15.8437 12.9936 16.0457 13.6115L17.49 18.0301C17.9417 19.4118 16.3507 20.5607 15.1683 19.7068L11.3868 16.976C10.858 16.5941 10.142 16.5941 9.61316 16.976L5.83174 19.7068C4.64929 20.5607 3.05832 19.4118 3.50997 18.0301L4.95435 13.6115C5.15633 12.9936 4.93506 12.3167 4.40625 11.9348L0.624833 9.20403C-0.557618 8.3501 0.0500824 6.49106 1.51167 6.49106H6.18576C6.8394 6.49106 7.41871 6.07271 7.62069 5.4548L9.06507 1.03626Z" fill="#FDE294"/>
</g>
</g>
<defs>
<filter id="filter0_i_673_16590" x="0" y="0" width="21" height="21" filterUnits="userSpaceOnUse" color-interpolation-filters="sRGB">
<feFlood flood-opacity="0" result="BackgroundImageFix"/>
<feBlend mode="normal" in="SourceGraphic" in2="BackgroundImageFix" result="shape"/>
<feColorMatrix in="SourceAlpha" type="matrix" values="0 0 0 0 0 0 0 0 0 0 0 0 0 0 0 0 0 0 127 0" result="hardAlpha"/>
<feOffset dy="1"/>
<feGaussianBlur stdDeviation="0.5"/>
<feComposite in2="hardAlpha" operator="arithmetic" k2="-1" k3="1"/>
<feColorMatrix type="matrix" values="0 0 0 0 1 0 0 0 0 0.956863 0 0 0 0 0.827451 0 0 0 1 0"/>
<feBlend mode="normal" in2="shape" result="effect1_innerShadow_673_16590"/>
</filter>
</defs>
</svg>
