<svg width="144" height="60" viewBox="0 0 144 60" fill="none" xmlns="http://www.w3.org/2000/svg">
<g id="Counter/Example">
<g id="Counter/Dummy">
<path id="Vector" d="M138.217 5.01214C137.648 4.36852 136.83 4 135.97 4H72H8.02925C7.17014 4 6.35225 4.36832 5.78284 5.01163L0.753583 10.6936C0.268045 11.2421 0 11.9494 0 12.6819V50.7089C0 51.5877 0.38528 52.4222 1.05409 52.9922L8.43598 59.2833C8.9788 59.7459 9.66868 60 10.3819 60H72H133.616C134.33 60 135.022 59.745 135.565 59.2808L142.949 52.9715C143.616 52.4015 144 51.5681 144 50.6907V12.685C144 11.9526 143.732 11.2456 143.247 10.6971L138.217 5.01214Z" fill="#55413B"/>
<path id="Vector_2" d="M138.217 1.01214C137.648 0.368523 136.83 0 135.97 0H72H8.02925C7.17014 0 6.35225 0.368322 5.78284 1.01163L0.753583 6.69358C0.268045 7.24213 0 7.94938 0 8.68195V46.7089C0 47.5877 0.38528 48.4222 1.05409 48.9922L8.43598 55.2833C8.9788 55.7459 9.66868 56 10.3819 56H72H133.616C134.33 56 135.022 55.745 135.565 55.2808L142.949 48.9715C143.616 48.4015 144 47.5681 144 46.6907V8.68499C144 7.95265 143.732 7.24561 143.247 6.69712L138.217 1.01214Z" fill="#96786F"/>
<g id="MaskGroup">
<mask id="mask0_673_16615" style="mask-type:alpha" maskUnits="userSpaceOnUse" x="0" y="0" width="144" height="56">
<path id="Vector_3" d="M138.217 1.01214C137.648 0.368523 136.83 0 135.97 0H72H8.02925C7.17014 0 6.35225 0.368322 5.78284 1.01163L0.753583 6.69358C0.268045 7.24213 0 7.94938 0 8.68195V46.7089C0 47.5877 0.38528 48.4222 1.05409 48.9922L8.43598 55.2833C8.9788 55.7459 9.66868 56 10.3819 56H72H133.616C134.33 56 135.022 55.745 135.565 55.2808L142.949 48.9715C143.616 48.4015 144 47.5681 144 46.6907V8.68499C144 7.95265 143.732 7.24561 143.247 6.69712L138.217 1.01214Z" fill="#96786F"/>
</mask>
<g mask="url(#mask0_673_16615)">
<path id="Vector_4" opacity="0.4" fill-rule="evenodd" clip-rule="evenodd" d="M38.5867 -5.7634C16.9791 -2.22459 -4.45394 2.46659 -25.6062 8.28696C-25.9612 10.6531 -26.1974 13.0325 -26.315 15.425C-26.3897 16.8022 -26.4302 18.168 -26.4258 19.554C-26.4235 22.135 -26.2868 24.7765 -26.0458 27.3307C-22.4296 26.4076 -18.799 25.5851 -15.1355 24.8044C15.9903 18.1814 47.7737 15.9936 78.9142 9.01452C93.9526 5.78223 108.835 1.80606 123.497 -2.89699C132.656 -5.89759 141.616 -9.46797 150.317 -13.5835C149.538 -15.9234 148.65 -18.1917 147.664 -20.4099C147.49 -20.9316 147.201 -21.3975 146.966 -21.9338C145.711 -24.5905 144.058 -27.8747 142.503 -30.3783C137.576 -28.0175 132.647 -25.4193 127.578 -23.4853C119.365 -20.4194 110.706 -18.2891 102.141 -16.4584C80.9882 -11.8037 59.7855 -9.53764 38.5076 -5.77218L38.5867 -5.7634Z" fill="#D4AC7B" fill-opacity="0.5"/>
<path id="Vector_5" opacity="0.4" fill-rule="evenodd" clip-rule="evenodd" d="M88.0808 21.4915C68.8137 26.3991 49.7602 30.3488 30.3813 34.6906C15.4537 37.9858 0.375482 41.378 -14.446 45.1069L-21.3245 46.8962C-20.3712 49.2423 -19.1523 51.9842 -17.9832 54.1747C-17.5592 54.9884 -17.1231 55.7813 -16.6526 56.5627C-16.1821 57.3441 -15.9081 57.8224 -15.5272 58.4494C-7.88908 56.6936 -0.238079 55.0339 7.44521 53.4137C17.0357 51.3763 26.614 49.3597 36.1815 47.1959C46.3128 44.9449 56.4111 42.5374 66.4513 39.8979C83.8721 35.3035 100.939 29.9895 117.838 23.9439C124.26 21.638 130.67 19.2358 137.066 16.7375L138.615 16.1046C143.912 14.0391 149.205 11.9586 154.46 9.82347C154.552 6.69491 154.288 3.14258 153.962 0.0564922C150.28 1.63415 146.642 3.11697 142.9 4.51367C124.996 11.0392 106.563 16.917 88.0808 21.4915Z" fill="#D4AC7B" fill-opacity="0.5"/>
<path id="Vector_6" opacity="0.5" fill-rule="evenodd" clip-rule="evenodd" d="M118.104 73.9758C98.1757 81.4639 77.6354 87.242 56.7793 91.2269L42.8811 93.792C40.5525 93.4784 38.2675 93.0677 36.0141 92.5805C42.3792 91.5996 48.6858 90.6712 55.1046 89.623C64.738 88.1134 74.3215 86.1781 83.8188 83.8242C94.4912 81.0874 104.97 77.5982 115.153 73.391C117.632 72.3843 120.088 71.3684 122.551 70.3171C121.068 71.5702 119.564 72.7639 118.046 73.913L118.104 73.9758ZM16.2153 85.8738C23.4813 83.9825 30.7859 82.1883 38.1293 80.4912C47.7212 78.3534 57.5468 78.0024 67.1536 75.9092C75.9672 73.9665 84.6727 71.4979 93.2093 68.5205C101.218 65.7385 109.054 62.5519 116.821 59.1573C125.333 55.4321 133.731 51.4807 142.172 47.5978C141.51 48.6927 140.831 49.7933 140.12 50.8551C132.651 54.1173 125.168 57.335 117.642 60.3688C109.728 63.5484 101.722 66.511 93.5809 69.1228C84.8862 71.9431 76.0631 74.3411 67.1525 76.3055C57.6925 78.3828 48.1127 79.7576 38.7326 82.3033C32.436 84.0038 26.1714 85.7433 19.8995 87.5181C18.6863 87.0145 17.4803 86.4756 16.2986 85.8955L16.2153 85.8738ZM147.049 38.1527C144.517 38.996 141.97 40.0255 139.55 40.9797C131.276 44.1637 123.293 47.8779 115.255 51.5441C107.738 55.1022 100.024 58.2658 92.1558 61.0173C74.2724 66.9718 55.7928 70.3364 37.5692 74.8697C28.2047 77.1957 18.8114 79.6634 9.38913 82.2726C8.84221 81.9432 8.29528 81.6138 7.76053 81.2639L10.7196 80.5591C19.6042 78.4094 28.4986 76.2894 37.4003 74.1339C55.5482 69.6588 73.9886 66.2908 91.767 60.4208C99.6745 57.6676 107.44 54.5312 115.026 51.0264C122.99 47.4836 130.913 43.8721 139.05 40.7338C141.795 39.6713 144.523 38.6145 147.258 37.5223L147.049 38.1527ZM142.42 31.444C132.815 35.4836 123.553 40.1518 113.768 43.9377C102.09 48.3653 90.1914 52.2059 78.132 55.4402C67.6811 58.3095 57.2928 60.9104 46.8635 63.6735C36.4342 66.4366 25.7802 69.324 15.2536 72.2515C10.4512 73.5865 5.63658 74.9421 0.844077 76.3068C0.252641 75.8438 -0.299624 75.3841 -0.873947 74.9154C9.25722 72.2846 19.3348 69.7211 29.5073 67.0435C35.1512 65.5713 40.7926 64.0724 46.4314 62.5469C58.6382 59.2415 70.8845 56.0549 82.9316 52.5551C93.1931 49.7488 103.332 46.4886 113.309 42.7871C123.025 39.024 132.746 35.2757 142.42 31.444ZM-9.17697 66.7075C2.48488 63.6495 14.1867 60.8257 25.8934 58.0168C37.6002 55.2079 48.9867 52.522 60.4801 49.5862C70.9954 46.91 81.565 44.3971 92.1001 41.7804C101.532 39.4483 110.942 36.9917 120.198 34.0746C131.079 30.7516 141.739 26.739 152.093 22.0689L152.022 22.8844C144.16 26.2777 136.172 29.35 128.012 32.1331C117.465 35.7437 106.756 38.864 96.0112 41.7651C84.3277 44.9293 72.6019 47.9095 60.8613 50.8452C44.8268 54.9302 28.836 58.918 12.8802 63.1252C6.09516 64.9004 -0.688843 66.7357 -7.47184 68.6312C-8.06138 68.0025 -8.61671 67.3624 -9.17697 66.7075ZM153.502 11.0563C147.939 13.4199 142.298 15.6612 136.74 17.809C106.585 29.156 75.9012 39.086 44.8237 47.5557C25.5556 52.9483 5.96625 56.7483 -13.5458 60.9516C-14.1951 60.0293 -14.82 59.0659 -15.4229 58.1117C-7.83178 56.3596 -0.193808 54.6909 7.44186 53.0725C16.9729 51.0375 26.4918 49.023 36.0005 46.8635C46.0693 44.6164 56.1058 42.2152 66.0852 39.5854C89.9227 33.2599 113.397 25.5595 136.354 16.535C142.137 14.263 147.947 12.0149 153.7 9.65371C153.697 10.1003 153.671 10.5378 153.646 10.9753L153.502 11.0563ZM133.789 -40.955C122.051 -34.8689 108.27 -31.0393 91.7573 -30.161C76.4214 -29.3447 61.0532 -28.6827 45.701 -27.6299C33.4066 -26.8705 21.1105 -25.5302 8.8647 -23.6148C0.946425 -22.3313 -6.85316 -20.6913 -14.6052 -18.7372C-13.8458 -19.9965 -13.0473 -21.2524 -12.2218 -22.4842C-4.93066 -23.9384 2.38596 -25.0876 9.80875 -25.9751C22.0291 -27.47 34.2445 -28.2373 46.5501 -29.1337C61.6037 -30.1695 76.5885 -31.2979 91.638 -32.8603C105.128 -34.0588 118.404 -37.9157 130.501 -44.1501C131.623 -43.1212 132.72 -42.0512 133.789 -40.955ZM142.707 -29.7013C137.78 -27.368 132.631 -24.6143 127.566 -22.6969C119.363 -19.6543 111.095 -17.8537 102.565 -15.9726C81.4933 -11.2005 60.0353 -9.18725 38.8556 -5.25365C17.3425 -1.51903 -4.01702 3.30116 -25.1177 9.18315C-24.8996 7.84001 -24.6251 6.49464 -24.3286 5.15842C-22.5876 4.67773 -20.6705 4.15491 -18.8512 3.68113C0.358769 -1.11319 19.7715 -4.92139 39.2877 -7.72403C47.9841 -9.06862 56.7227 -10.2293 65.4145 -11.4733C73.5758 -12.5408 81.8056 -13.631 89.8905 -14.871C97.1215 -15.9916 104.313 -17.2312 111.361 -18.9014C117.284 -20.1956 121.52 -21.7268 127.087 -24.1375C131.505 -26.1696 137.507 -28.6465 141.863 -30.9219L142.707 -29.7013ZM150.51 -12.8297C140.075 -8.02988 129.321 -3.89761 118.336 -0.466689C105.652 3.57513 92.755 6.97826 79.8701 10.2455C64.3247 14.2006 48.5654 17.1708 32.8399 20.0144C13.4601 23.5301 -6.1479 26.8744 -25.3621 31.5725C-25.5825 30.1114 -25.7637 28.6537 -25.8886 27.1938C-22.267 26.252 -18.6328 25.4049 -14.9668 24.5968C16.0349 17.7888 47.6113 15.162 78.6339 8.0171C93.613 4.6972 108.45 0.676778 123.082 -4.0269C132.254 -7.02527 141.237 -10.5677 149.968 -14.6292L150.072 -14.3173C150.235 -13.8271 150.399 -13.337 150.567 -12.832L150.51 -12.8297ZM153.214 0.542609C149.551 2.10316 145.855 3.58144 142.125 4.97746C124.326 11.4649 106.192 17.0069 87.824 21.5726C68.674 26.4639 49.3947 30.7382 30.1352 35.0719C15.2997 38.3616 0.508724 41.785 -14.2225 45.502L-21.0892 47.2603C-21.3662 46.4285 -21.6431 45.5967 -22.0227 44.7991L-16.0828 43.2834C-1.27287 39.6887 13.5455 36.4047 28.3468 33.1264C48.1255 28.8673 67.9608 24.7214 87.6546 19.979C105.967 15.7312 124.04 10.4024 141.752 4.02909C145.581 2.58899 149.361 1.0171 153.09 -0.686567C153.15 -0.277587 153.193 0.137091 153.219 0.557463L153.214 0.542609ZM17.8279 -50.8212C26.3882 -51.8895 34.9538 -52.8275 43.4928 -53.6742C53.9322 -54.5357 64.3647 -54.7567 74.7161 -54.3354C87.0134 -54.0575 99.4016 -53.6778 111.121 -57.1344C111.709 -56.8518 112.293 -56.5841 112.869 -56.281C99.2475 -51.5145 84.9387 -51.6672 70.3588 -51.6636C59.3386 -51.8586 48.2546 -51.4089 37.1773 -50.3174C28.815 -49.359 20.4488 -48.3169 12.0788 -47.191C13.9297 -48.4837 15.8345 -49.7285 17.7983 -50.9103L17.8279 -50.8212Z" fill="#886759" fill-opacity="0.3"/>
</g>
</g>
</g>
<g id="59:59" filter="url(#filter0_d_673_16615)">
<text fill="#FDE294" xml:space="preserve" style="white-space: pre" font-family="Bungee" font-size="32" letter-spacing="0em"><tspan x="57" y="39.52">1:29</tspan></text>
</g>
<g id="Counter/Icon/Time">
<g id="Circle" filter="url(#filter1_i_673_16615)">
<path d="M48 28C48 16.9543 39.0457 8 28 8C16.9543 8 8 16.9543 8 28C8 39.0457 16.9543 48 28 48C39.0457 48 48 39.0457 48 28Z" fill="#FDE294"/>
</g>
<g id="ClockIcon">
<path id="Rectangle" d="M24.9372 18.9067C24.3237 17.9881 23.0818 17.7407 22.1632 18.3541C21.2447 18.9676 20.9973 20.2095 21.6107 21.1281L27.1642 29.4442C27.7776 30.3628 29.0196 30.6102 29.9381 29.9968C30.8567 29.3834 31.1041 28.1414 30.4907 27.2228L24.9372 18.9067Z" fill="#5F443C"/>
<path id="Rectangle_2" d="M33.3068 27.747C34.2207 27.1367 34.4644 25.8972 33.8509 24.9787C33.2375 24.0601 31.9993 23.8102 31.0854 24.4205L27.7421 26.6531C26.8282 27.2635 26.5846 28.5029 27.198 29.4215C27.8114 30.34 29.0496 30.5899 29.9635 29.9796L33.3068 27.747Z" fill="#5F443C"/>
</g>
</g>
</g>
<defs>
<filter id="filter0_d_673_16615" x="58.5361" y="16.48" width="70.7212" height="27.52" filterUnits="userSpaceOnUse" color-interpolation-filters="sRGB">
<feFlood flood-opacity="0" result="BackgroundImageFix"/>
<feColorMatrix in="SourceAlpha" type="matrix" values="0 0 0 0 0 0 0 0 0 0 0 0 0 0 0 0 0 0 127 0" result="hardAlpha"/>
<feOffset dy="4"/>
<feComposite in2="hardAlpha" operator="out"/>
<feColorMatrix type="matrix" values="0 0 0 0 0.334167 0 0 0 0 0.254311 0 0 0 0 0.22974 0 0 0 0.5 0"/>
<feBlend mode="normal" in2="BackgroundImageFix" result="effect1_dropShadow_673_16615"/>
<feBlend mode="normal" in="SourceGraphic" in2="effect1_dropShadow_673_16615" result="shape"/>
</filter>
<filter id="filter1_i_673_16615" x="8" y="8" width="40" height="40" filterUnits="userSpaceOnUse" color-interpolation-filters="sRGB">
<feFlood flood-opacity="0" result="BackgroundImageFix"/>
<feBlend mode="normal" in="SourceGraphic" in2="BackgroundImageFix" result="shape"/>
<feColorMatrix in="SourceAlpha" type="matrix" values="0 0 0 0 0 0 0 0 0 0 0 0 0 0 0 0 0 0 127 0" result="hardAlpha"/>
<feOffset dy="-2"/>
<feComposite in2="hardAlpha" operator="arithmetic" k2="-1" k3="1"/>
<feColorMatrix type="matrix" values="0 0 0 0 0 0 0 0 0 0 0 0 0 0 0 0 0 0 0.25 0"/>
<feBlend mode="normal" in2="shape" result="effect1_innerShadow_673_16615"/>
</filter>
</defs>
</svg>
