<svg width="196" height="84" viewBox="0 0 196 84" fill="none" xmlns="http://www.w3.org/2000/svg">
<g id="Button/Rect/Fill/Hover">
<path id="Vector" d="M17.3764 81.9662L18.0473 81.2246L17.3764 81.9662C18.1119 82.6316 19.0683 83 20.0601 83H98H175.146C176.105 83 177.032 82.6556 177.758 82.0295L193.612 68.3608C194.493 67.601 195 66.495 195 65.3313V18.3986C195 17.2165 194.477 16.0949 193.572 15.3349L177.609 1.93624C176.889 1.33149 175.978 1 175.037 1H98H20.1343C19.1597 1 18.2186 1.35583 17.4878 2.00065L17.4878 2.00065L2.35351 15.3545C1.49295 16.1138 1 17.2061 1 18.3538V65.3745C1 66.5048 1.47821 67.5823 2.31638 68.3407L17.3764 81.9662Z" fill="#725952" stroke="#725952" stroke-width="2"/>
<path id="Vector_2" d="M177.096 6.22562C176.556 5.77579 175.876 5.52942 175.174 5.52942L98 5.52944H20.0318C19.305 5.52944 18.6029 5.79331 18.056 6.27202L3.02413 19.4291C2.3733 19.9988 2 20.8216 2 21.6865V65.3745C2 66.2222 2.35866 67.0303 2.98728 67.5991L18.0473 81.2246C18.5989 81.7236 19.3162 82 20.0601 82H98H175.146C175.865 82 176.56 81.7416 177.105 81.2721L192.959 67.6034C193.62 67.0335 194 66.204 194 65.3313V21.7298C194 20.84 193.605 19.996 192.922 19.426L177.096 6.22562Z" fill="#5F443C"/>
<path id="Vector_3" d="M177.096 2.6962C176.556 2.24637 175.876 2 175.174 2L98 2.00002H20.0318C19.305 2.00002 18.6029 2.26389 18.056 2.7426L3.02413 15.8997C2.3733 16.4694 2 17.2922 2 18.1571V61.845C2 62.6928 2.35866 63.5009 2.98728 64.0697L18.0473 77.6952C18.5989 78.1942 19.3162 78.4705 20.0601 78.4705H98H175.146C175.865 78.4705 176.56 78.2122 177.105 77.7427L192.959 64.074C193.62 63.5041 194 62.6746 194 61.8019V18.2004C194 17.3105 193.605 16.4666 192.922 15.8966L177.096 2.6962Z" fill="#96786F"/>
<g id="MaskGroup">
<mask id="mask0_3_959" style="mask-type:alpha" maskUnits="userSpaceOnUse" x="2" y="2" width="192" height="77">
<path id="Vector_4" d="M177.096 2.6962C176.556 2.24637 175.876 2 175.174 2L98 2.00002H20.0318C19.305 2.00002 18.6029 2.26389 18.056 2.7426L3.02413 15.8997C2.3733 16.4694 2 17.2922 2 18.1571V61.845C2 62.6928 2.35866 63.5009 2.98728 64.0697L18.0473 77.6952C18.5989 78.1942 19.3162 78.4705 20.0601 78.4705H98H175.146C175.865 78.4705 176.56 78.2122 177.105 77.7427L192.959 64.074C193.62 63.5041 194 62.6746 194 61.8019V18.2004C194 17.3105 193.605 16.4666 192.922 15.8966L177.096 2.6962Z" fill="#96786F"/>
</mask>
<g mask="url(#mask0_3_959)">
<g id="Group">
<path id="Vector_5" fill-rule="evenodd" clip-rule="evenodd" d="M93.1963 84.5974C128.377 90.5111 163.881 94.4666 199.531 96.4443C201.296 92.8079 202.884 89.0862 204.295 85.2793C205.119 83.0917 205.883 80.9042 206.589 78.6598C207.912 74.4835 209.059 70.1368 210 65.8753C203.943 65.4208 197.914 64.7958 191.856 64.0855C140.394 58.0342 90.1968 44.4543 38.529 38.9712C13.6484 36.0999 -11.3734 34.5162 -36.4291 34.2267C-52.1122 34.1477 -67.7829 35.0968 -83.333 37.0677C-83.333 41.2724 -83.1272 45.4202 -82.7449 49.5397C-82.7449 50.4772 -82.539 51.3863 -82.4508 52.3806C-81.8792 57.3542 -81.0154 63.5572 -79.9022 68.4444C-71.0802 67.2796 -62.1356 65.731 -53.3135 65.3333C-39.0571 64.7973 -24.5929 66.015 -10.4285 67.6666C24.6244 71.5303 58.5256 79.2848 93.3139 84.6543L93.1963 84.5974Z" fill="#89716A"/>
<path id="Vector_6" fill-rule="evenodd" clip-rule="evenodd" d="M30.3503 14.3167C62.5862 16.7352 94.001 20.5762 126.119 23.9621C150.834 26.6493 175.831 29.2613 200.606 31.1961L212.133 31.9999C211.868 27.7272 211.396 22.6776 210.718 18.5393C210.482 17.0076 210.216 15.5028 209.892 13.9979C209.568 12.4931 209.391 11.5794 209.125 10.3702C196.443 9.10717 183.791 7.68294 171.109 6.1781C155.271 4.32391 139.462 2.44286 123.595 0.80365C106.814 -0.996789 90.0025 -2.52851 73.162 -3.65714C43.9343 -5.59194 14.8836 -6.18313 -14.285 -5.51132C-25.3744 -5.2426 -36.4933 -4.81264 -47.6417 -4.22146L-50.3551 -4.03335C-59.5864 -3.54965 -68.8178 -3.03908 -78.0196 -2.42102C-79.7668 2.54899 -81.185 8.38808 -82.2666 13.5129C-75.7781 12.9486 -69.4048 12.5134 -62.9164 12.2715C-31.9523 11.3664 -0.504623 11.7829 30.3503 14.3167Z" fill="#88716A"/>
<path id="Vector_7" fill-rule="evenodd" clip-rule="evenodd" d="M11.2117 -86.4316C45.7565 -87.7995 80.3664 -86.0969 114.543 -81.3482L137.271 -78.0386C140.698 -76.2912 144.008 -74.4114 147.229 -72.4256C136.92 -74.2525 126.727 -76.1323 116.3 -77.8798C100.684 -80.6044 84.9262 -82.6191 69.0865 -83.9164C51.2399 -85.2269 33.3051 -85.2269 15.4585 -83.9164C11.1238 -83.6251 6.8183 -83.3074 2.48354 -82.9367C5.41243 -84.1546 8.34132 -85.2666 11.2702 -86.2992L11.2117 -86.4316ZM174.292 -51.0858C162.128 -51.933 149.953 -52.9568 137.769 -54.157C121.894 -55.8515 106.576 -60.5378 90.7018 -62.3117C76.1264 -63.9034 61.4478 -64.5934 46.7684 -64.3769C33.0026 -64.1915 19.2954 -63.2649 5.58817 -61.9675C-9.43705 -60.5378 -24.4037 -58.6845 -39.3996 -56.9635C-37.818 -58.3667 -36.2071 -59.77 -34.567 -61.0938C-21.3869 -62.3382 -8.20692 -63.5031 4.94381 -64.3504C18.7682 -65.2241 32.6218 -65.7007 46.5048 -65.5418C61.3472 -65.422 76.1708 -64.5557 90.9068 -62.9471C106.547 -61.2262 122.012 -58.3138 137.769 -57.3871C148.342 -56.7517 158.886 -56.1957 169.46 -55.6926C171.071 -54.2364 172.652 -52.7273 174.175 -51.1652L174.292 -51.0858ZM-51.7595 -44.4137C-47.4248 -44.4137 -42.9729 -44.705 -38.7553 -44.9433C-24.3744 -45.6316 -10.1693 -47.3261 4.09444 -48.9147C17.5005 -50.6081 31.0081 -51.563 44.5424 -51.7741C75.1494 -51.7741 105.346 -47.2997 135.748 -44.8374C151.369 -43.5665 167.107 -42.5074 182.962 -41.6602C183.635 -40.8394 184.309 -40.0187 184.954 -39.1714L180.033 -39.6215C165.242 -40.9189 150.451 -42.2692 135.631 -43.5665C105.376 -46.0817 75.2372 -50.5298 44.8353 -50.6092C31.2401 -50.4162 17.6677 -49.5323 4.1823 -47.9616C-9.90567 -46.5318 -23.9644 -44.9697 -38.1109 -44.2814C-42.885 -44.0431 -47.6298 -43.8048 -52.4039 -43.5135L-51.7595 -44.4137ZM-48.0691 -31.1756C-31.1987 -32.5259 -14.5333 -35.0676 2.48354 -35.9149C22.747 -36.78 43.0488 -36.5856 63.2873 -35.3324C80.8607 -34.3527 98.1997 -32.976 115.685 -31.8375C133.171 -30.699 151.066 -29.64 168.786 -28.7133C176.87 -28.2897 184.983 -27.8925 193.067 -27.5219C193.74 -26.4628 194.355 -25.4302 195 -24.3712C178.041 -25.5626 161.2 -26.8335 144.154 -27.972C134.704 -28.625 125.243 -29.234 115.773 -29.7988C95.2709 -31.0167 74.7686 -32.4465 54.4128 -33.2672C37.1637 -34.2466 19.8707 -34.4322 2.6007 -33.8232C-14.299 -32.976 -31.1987 -32.1552 -48.0691 -31.1756ZM203.581 -6.76446C184.046 -8.08827 164.568 -9.80923 145.091 -11.5567C125.614 -13.3041 106.694 -15.078 87.48 -16.5077C69.9067 -17.8316 52.3333 -19.4466 34.7599 -20.8763C19.0318 -22.1737 3.27435 -23.2592 -12.4831 -23.524C-30.9509 -24.005 -49.433 -23.2617 -67.7806 -21.2999L-67.2534 -22.5708C-53.3997 -23.8152 -39.5168 -24.4771 -25.5167 -24.583C-7.41612 -24.7419 10.6844 -24.027 28.7264 -22.9415C48.35 -21.7765 67.9443 -20.2938 87.5386 -18.7318C114.338 -16.7196 141.02 -14.575 167.761 -12.8011C179.125 -12.0244 190.518 -11.3449 201.941 -10.7624C202.527 -9.43857 203.054 -8.11475 203.581 -6.76446ZM-75.6007 -4.38159C-65.8182 -5.20236 -55.9772 -5.78484 -46.3118 -6.26141C5.96793 -8.35778 58.3348 -7.89819 110.56 -4.88465C143.012 -3.24312 175.142 1.12547 207.36 4.80566C207.887 6.63253 208.355 8.51234 208.795 10.3657C196.2 9.1213 183.577 7.71806 170.983 6.2354C155.255 4.40853 139.556 2.55519 123.798 0.94014C107.133 -0.833771 90.4382 -2.34293 73.7142 -3.45493C33.7437 -6.04082 -6.37263 -6.22656 -46.3704 -4.01093C-56.4458 -3.45493 -66.5505 -2.95188 -76.6258 -2.23702C-76.3915 -2.95188 -76.1279 -3.64026 -75.8643 -4.32864L-75.6007 -4.38159ZM-71.9103 89.6092C-50.7051 86.1143 -27.5083 87.3323 -1.61691 94.7456C22.4293 101.629 46.4462 108.778 70.6389 115.291C89.9701 120.641 109.602 125.06 129.451 128.529C142.309 130.7 155.167 132.236 168.112 133.242C166.296 134.857 164.422 136.446 162.518 137.981C150.539 136.419 138.677 134.354 126.786 131.812C107.191 127.682 87.9779 122.387 68.5594 117.25C44.8353 110.87 21.1699 104.674 -2.81776 99.1407C-24.2164 93.8563 -46.6494 92.9518 -68.4835 96.4931C-69.6844 94.2426 -70.8266 91.9391 -71.9103 89.6092ZM-79.8769 66.7867C-71.0902 65.6747 -61.7446 64.007 -52.9579 63.6363C-38.7587 63.1369 -25.097 64.665 -10.9894 66.2042C23.923 69.805 58.0153 78.0391 92.6641 83.0431C127.724 88.5444 163.105 92.2219 198.631 94.0572C197.606 96.0959 196.493 98.1081 195.351 100.094C192.422 99.935 189.2 99.7496 186.154 99.5378C154.099 96.9673 122.237 92.7062 90.7311 86.7762C76.6431 84.2875 62.5844 81.481 48.555 78.8334C35.4336 76.1857 22.195 73.5381 9.10284 71.2082C-2.61274 69.1431 -14.3283 67.2897 -26.0439 66.2042C-35.8327 65.1165 -43.1452 65.31 -52.9579 66.2042C-60.8074 67.1044 -71.3245 67.8722 -79.2033 69.196L-79.8769 66.7867ZM-83.2451 35.5447C-64.7052 33.4182 -46.0168 32.5333 -27.3326 32.897C-5.71736 33.1883 15.8979 34.618 37.4252 36.2595C63.4045 38.2188 89.208 41.8725 114.894 45.7115C146.556 50.4243 178.481 55.5342 210.493 58.2613C210.083 60.7236 209.615 63.1594 209.058 65.5688C202.996 65.1451 196.962 64.5627 190.899 63.9007C139.644 58.2613 89.6474 45.6056 38.1867 40.4957C13.4059 37.8198 -11.5155 36.3439 -36.4707 36.0742C-52.1402 35.9849 -67.7978 36.8695 -83.333 38.7218V38.1658C-83.333 37.2921 -83.333 36.4184 -83.333 35.5182L-83.2451 35.5447ZM-80.5506 12.6427C-74.107 12.0955 -67.6537 11.6983 -61.1906 11.4512C-30.4415 10.5507 0.339767 11.3464 30.9817 13.8341C62.9945 16.217 94.8901 19.6589 126.786 22.9949C151.33 25.6425 175.874 28.0519 200.477 29.9582L211.958 30.8054C211.958 32.2881 211.958 33.7707 212.134 35.2534L202.205 34.5121C177.543 32.3675 153.029 29.7198 128.543 27.0722C95.8859 23.3391 63.1995 19.3941 30.4252 16.4817C0.0333328 13.5141 -30.5458 12.4084 -61.1027 13.1722C-67.7415 13.4369 -74.3706 13.94 -80.9899 14.6813C-80.8727 13.993 -80.7263 13.3046 -80.5506 12.6162V12.6427ZM101.685 167.397C87.9486 164.537 74.2707 161.466 60.6806 158.262C44.155 154.067 27.9687 148.848 12.2368 142.641C-6.56673 135.625 -25.4581 128.397 -45.2867 127.682C-46.0482 126.914 -46.8097 126.173 -47.5419 125.379C-24.1108 125.008 -2.1441 132.898 20.3205 140.682C37.1989 146.883 54.5063 152.083 72.1326 156.25C85.5079 159.18 98.9319 161.978 112.405 164.643C108.89 165.729 105.317 166.708 101.685 167.555V167.397Z" fill="#7A615A"/>
</g>
</g>
</g>
<path id="Vector_8" d="M172.509 13.9125C171.954 13.3974 171.225 13.1111 170.468 13.1111H97.9031H25.3492C24.5857 13.1111 23.8509 13.4022 23.2946 13.9251L9.34582 27.035C8.74254 27.602 8.40039 28.3932 8.40039 29.2211V55.6772C8.40039 56.5238 8.75817 57.3311 9.38545 57.8998L24.0814 71.2226C24.6333 71.7228 25.3515 71.9999 26.0964 71.9999H97.9031H169.722C170.46 71.9999 171.171 71.7284 171.721 71.2371L186.599 57.9447C187.236 57.3755 187.6 56.5618 187.6 55.7075V29.232C187.6 28.3977 187.253 27.6011 186.642 27.0334L172.509 13.9125Z" fill="#6E544C"/>
<path id="Vector_9" d="M172.509 11.6904C171.954 11.1752 171.225 10.8889 170.468 10.8889H97.9031H25.3492C24.5857 10.8889 23.8509 11.18 23.2946 11.7029L9.34582 24.8129C8.74254 25.3799 8.40039 26.171 8.40039 26.9989V53.455C8.40039 54.3017 8.75817 55.1089 9.38545 55.6776L24.0814 69.0004C24.6333 69.5007 25.3515 69.7778 26.0964 69.7778H97.9031H169.722C170.46 69.7778 171.171 69.5062 171.721 69.0149L186.599 55.7225C187.236 55.1534 187.6 54.3396 187.6 53.4854V27.0098C187.6 26.1755 187.253 25.3789 186.642 24.8113L172.509 11.6904Z" fill="#B4A26C"/>
<path id="Vector_10" d="M172.684 7.23629C172.13 6.727 171.405 6.44434 170.653 6.44434H98.0004H25.3476C24.5953 6.44434 23.8705 6.727 23.3167 7.23629L9.3695 20.0645C8.75186 20.6326 8.40039 21.4334 8.40039 22.2726V50.4068C8.40039 51.2648 8.76769 52.0816 9.40945 52.651L24.1049 65.6884C24.6538 66.1754 25.3621 66.4443 26.0959 66.4443H98.0004H169.903C170.638 66.4443 171.347 66.1747 171.896 65.6867L186.593 52.6243C187.234 52.055 187.6 51.239 187.6 50.382V22.2726C187.6 21.4334 187.249 20.6326 186.631 20.0645L172.684 7.23629Z" fill="#FDE294"/>
<g id="Union" style="mix-blend-mode:soft-light">
<path d="M170.513 6.44434C171.355 6.44434 172.167 6.7604 172.785 7.32951L186.524 19.9661C187.21 20.5971 187.6 21.4846 187.6 22.4143V53.3406C187.6 54.2872 187.196 55.189 186.488 55.8213L171.822 68.9249C171.207 69.474 170.411 69.7776 169.585 69.7776H26.2354C25.4013 69.7776 24.5971 69.4678 23.9804 68.9087L9.49427 55.7761C8.79751 55.1445 8.40039 54.2498 8.40039 53.3117V22.4143C8.40039 21.4846 8.79048 20.5971 9.47649 19.9661L23.2154 7.32951C23.8341 6.7604 24.6457 6.44434 25.4881 6.44434H170.513Z" fill="#FDE294"/>
</g>
</g>
</svg>
