<svg width="92" height="87" viewBox="0 0 92 87" fill="none" xmlns="http://www.w3.org/2000/svg">
<g id="Star/Unactive">
<path id="Stroke" fill-rule="evenodd" clip-rule="evenodd" d="M90.8363 34.0962C90.9409 34.9032 90.7132 35.718 90.2054 36.3538L74.2892 56.283C73.9861 56.6625 73.7819 57.1071 73.6896 57.5773L74.3537 80.6113C74.3557 80.682 74.3541 80.7516 74.3492 80.8202L74.4075 82.6645C74.4739 84.7605 72.4242 86.2761 70.4396 85.5985L46.9505 77.5782C46.3336 77.3676 45.6649 77.3636 45.0456 77.5669L21.5267 85.2861C19.5482 85.9355 17.526 84.421 17.5927 82.3397L17.6455 80.6933C17.6452 80.6661 17.6454 80.6388 17.6462 80.6113L18.3103 57.5786C18.2182 57.1078 18.0138 56.6625 17.7103 56.2825L1.79453 36.3538C1.28673 35.718 1.059 34.9032 1.16356 34.0962L1.24238 33.4879C1.27975 33.1995 1.35787 32.9233 1.47119 32.6657C1.56048 31.8988 2.08855 31.1964 2.92435 30.9646L28.2592 23.9369C28.4031 23.8969 28.5412 23.8413 28.671 23.7715C28.7588 23.6867 28.8417 23.5963 28.919 23.5007L30.6806 21.323L44.3757 2.26079C45.1737 1.15005 46.8262 1.15005 47.6242 2.26079L62.651 23.1766C62.9169 23.5468 63.3014 23.815 63.7406 23.9369L89.0755 30.9646C89.9154 31.1975 90.4445 31.9056 90.53 32.6768C90.6434 32.9345 90.7216 33.2109 90.759 33.4996L90.8363 34.0962ZM91.5024 32.4108C91.6231 32.7151 91.7075 33.0371 91.7507 33.3711L91.828 33.9677C91.9675 35.0437 91.6638 36.1301 90.9868 36.9779L75.0706 56.9071C74.8898 57.1334 74.7617 57.3946 74.6927 57.6717L75.3533 80.5825C75.3557 80.6674 75.3546 80.7518 75.3501 80.8355L75.407 82.6329C75.4955 85.4275 72.7626 87.4483 70.1165 86.5448L46.6274 78.5246C46.2161 78.3842 45.7703 78.3815 45.3574 78.517L21.8386 86.2363C19.2005 87.1021 16.5043 85.0827 16.5932 82.3076L16.6454 80.6805C16.6453 80.6479 16.6457 80.6152 16.6466 80.5824L17.3072 57.6727C17.2382 57.395 17.11 57.1334 16.9289 56.9065L1.01314 36.9779C0.336075 36.1301 0.0324349 35.0437 0.17185 33.9677L0.250674 33.3594C0.294026 33.0248 0.37864 32.7021 0.499698 32.3972C0.682452 31.3158 1.4571 30.3338 2.65705 30.001L27.9919 22.9732C28.0218 22.965 28.0512 22.9553 28.0799 22.9444C28.101 22.9207 28.1215 22.8965 28.1416 22.8718L29.8852 20.7163L43.5635 1.67732C44.7606 0.0112036 47.2393 0.0112064 48.4363 1.67732L63.4631 22.5931C63.5961 22.7782 63.7883 22.9123 64.0079 22.9732L89.3428 30.001C90.5478 30.3352 91.3238 31.324 91.5024 32.4108Z" fill="#725952"/>
<g id="Group">
<path id="Vector" d="M43.6278 5.31739C44.8413 3.81724 47.1349 3.83618 48.3235 5.35617L62.4813 23.462C62.8844 23.9775 63.445 24.3471 64.0777 24.5144L88.5508 30.9848C89.7295 31.2964 90.6024 32.2905 90.7591 33.4996L90.8364 34.0962C90.9409 34.9032 90.7132 35.718 90.2054 36.3539L74.2893 56.283C73.8444 56.8401 73.6124 57.5375 73.6349 58.2501L74.4076 82.6645C74.4739 84.7605 72.4242 86.2761 70.4397 85.5985L46.9506 77.5783C46.3337 77.3676 45.665 77.3636 45.0456 77.5669L21.5268 85.2862C19.5482 85.9355 17.5261 84.421 17.5928 82.3397L18.3646 58.2507C18.3875 57.5377 18.1555 56.8399 17.7103 56.2825L1.79458 36.3539C1.28678 35.718 1.05905 34.9032 1.16361 34.0962L1.24244 33.4879C1.39835 32.2846 2.2637 31.2938 3.43502 30.9773L27.3692 24.5101C27.9792 24.3453 28.5217 23.992 28.9191 23.5007L43.6278 5.31739Z" fill="url(#paint0_linear_673_16585)"/>
<path id="Vector_2" d="M44.3757 2.26082C45.1737 1.15008 46.8263 1.15008 47.6243 2.26082L62.651 23.1766C62.917 23.5468 63.3014 23.815 63.7407 23.9369L89.0756 30.9646C90.4596 31.3485 90.9998 33.0228 90.1011 34.1432L74.0671 54.1336C73.77 54.504 73.6144 54.968 73.6281 55.4426L74.3537 80.6113C74.3939 82.0047 73.0321 83.0107 71.7121 82.563L46.6425 74.0589C46.2258 73.9175 45.7742 73.9175 45.3575 74.0589L20.2879 82.563C18.9679 83.0107 17.6061 82.0047 17.6463 80.6113L18.3719 55.4426C18.3856 54.968 18.23 54.504 17.9329 54.1336L1.89886 34.1432C1.00019 33.0228 1.54038 31.3485 2.92441 30.9646L28.2593 23.9369C28.6986 23.815 29.083 23.5468 29.349 23.1766L44.3757 2.26082Z" fill="#96786F"/>
<path id="Vector_3" d="M44.4766 15.0459C45.2668 14.0685 46.7521 14.0536 47.5617 15.015L58.397 27.8809C58.6458 28.1763 58.9748 28.3934 59.3443 28.5059L72.0671 32.3795L78.8065 34.1344C80.2055 34.4987 80.7678 36.1812 79.869 37.3134L67.9276 52.3564C67.6337 52.7266 67.4804 53.189 67.495 53.6615L68.0308 71.0296C68.0733 72.4077 66.7415 73.4144 65.4273 72.9978L46.6049 67.0302C46.2116 66.9055 45.7893 66.9055 45.396 67.0302L26.5736 72.9978C25.2593 73.4144 23.9276 72.4077 23.9701 71.0296L24.5055 53.673C24.5203 53.1935 24.3623 52.7248 24.0603 52.3521L12.096 37.5884C11.2015 36.4847 11.7107 34.8265 13.0704 34.415L21.4671 31.8738L33.1289 28.5081C33.5226 28.3945 33.8719 28.1626 34.1296 27.844L44.4766 15.0459Z" fill="#7A615A"/>
<path id="Vector_4" d="M44.3713 12.4113C45.1688 11.2925 46.831 11.2925 47.6286 12.4113L58.4356 27.5729C58.6934 27.9345 59.0641 28.2001 59.4894 28.3277L76.6062 33.464C78.0369 33.8933 78.5092 35.6824 77.4768 36.7619L66.2454 48.5066C65.8758 48.8931 65.6764 49.4114 65.6917 49.946L66.1766 66.9209C66.2164 68.3164 64.8504 69.3224 63.5296 68.8702L46.6478 63.0903C46.2278 62.9465 45.772 62.9465 45.3521 63.0903L28.4703 68.8702C27.1495 69.3224 25.7835 68.3164 25.8233 66.9209L26.3082 49.946C26.3235 49.4115 26.1241 48.8931 25.7545 48.5066L14.523 36.7619C13.4907 35.6824 13.963 33.8933 15.3936 33.464L32.5104 28.3277C32.9358 28.2001 33.3065 27.9345 33.5642 27.5729L44.3713 12.4113Z" fill="#5D4842"/>
<g id="Vector_5" filter="url(#filter0_i_673_16585)">
<path d="M45.2059 16.2218C45.6062 15.6986 46.3942 15.6986 46.7944 16.2218L57.7719 30.5712C57.9155 30.7588 58.1208 30.8896 58.3516 30.9403L77.1221 35.0643C77.8503 35.2243 78.1536 36.0962 77.682 36.6736L65.9522 51.0339C65.7994 51.221 65.7195 51.4571 65.7272 51.6985L66.263 68.4082C66.285 69.0931 65.6272 69.5967 64.9718 69.3968L46.2922 63.6992C46.1021 63.6412 45.8989 63.6412 45.7087 63.6992L27.0292 69.3968C26.3738 69.5967 25.716 69.0931 25.738 68.4082L26.2738 51.6985C26.2815 51.4571 26.2016 51.221 26.0487 51.0339L14.3184 36.6736C13.8468 36.0962 14.1501 35.2243 14.8783 35.0643L33.6488 30.9403C33.8795 30.8896 34.0849 30.7588 34.2284 30.5712L45.2059 16.2218Z" fill="#655550"/>
</g>
</g>
</g>
<defs>
<filter id="filter0_i_673_16585" x="14.0923" y="15.8296" width="63.8159" height="54.6113" filterUnits="userSpaceOnUse" color-interpolation-filters="sRGB">
<feFlood flood-opacity="0" result="BackgroundImageFix"/>
<feBlend mode="normal" in="SourceGraphic" in2="BackgroundImageFix" result="shape"/>
<feColorMatrix in="SourceAlpha" type="matrix" values="0 0 0 0 0 0 0 0 0 0 0 0 0 0 0 0 0 0 127 0" result="hardAlpha"/>
<feOffset dy="1"/>
<feGaussianBlur stdDeviation="1"/>
<feComposite in2="hardAlpha" operator="arithmetic" k2="-1" k3="1"/>
<feColorMatrix type="matrix" values="0 0 0 0 0 0 0 0 0 0 0 0 0 0 0 0 0 0 0.25 0"/>
<feBlend mode="normal" in2="shape" result="effect1_innerShadow_673_16585"/>
</filter>
<linearGradient id="paint0_linear_673_16585" x1="46" y1="2.38477" x2="46" y2="87.0002" gradientUnits="userSpaceOnUse">
<stop offset="0.526042" stop-color="#7B625B"/>
<stop offset="1" stop-color="#5F443C"/>
</linearGradient>
</defs>
</svg>
