<svg width="1280" height="720" viewBox="0 0 1280 720" fill="none" xmlns="http://www.w3.org/2000/svg">
<g id="Background/Vector/Forest" clip-path="url(#clip0_587_9922)">
<g id="BackgroundsVector" clip-path="url(#clip1_587_9922)">
<rect id="Rectangle" x="-463.695" y="-585.064" width="2580.56" height="1451.57" fill="white"/>
<path id="Vector" d="M449.381 609.656C471.155 607.237 460.066 562.883 444.341 566.31C447.97 551.19 418.939 549.174 419.342 559.456C413.294 539.295 387.085 543.731 387.286 554.416C382.65 540.908 359.263 548.367 363.295 558.448C355.433 547.359 345.554 550.384 340.312 558.851C345.554 542.521 328.417 536.473 316.321 549.577C329.224 513.691 279.629 518.933 282.653 537.682C267.734 513.288 233.864 514.901 236.888 533.65C215.518 526.191 211.082 550.585 228.219 555.424C208.663 550.787 200.397 556.432 200.8 568.528C192.131 546.351 173.785 549.174 165.519 555.424C175.6 534.457 145.56 521.957 131.851 534.658C134.069 511.473 86.0863 508.449 87.4975 526.997C79.8365 508.449 55.8453 519.739 59.8774 527.199C54.0308 508.853 20.5642 515.506 29.6365 538.489C15.7256 530.021 -4.03184 537.279 -4.43505 551.19C-4.83827 562.682 -4.43505 598.164 -4.43505 598.164C-4.43505 598.164 228.622 607.237 260.274 608.446C291.927 609.656 449.381 609.656 449.381 609.656Z" fill="#334126"/>
<path id="Vector_2" d="M431.841 621.954C431.841 605.624 452.606 598.164 463.09 608.043C455.832 593.124 473.372 588.487 485.67 591.108C485.67 572.963 503.613 573.367 509.863 580.221C509.863 556.432 551.595 563.488 548.773 579.617C565.103 562.077 580.626 572.963 577.401 581.229C598.368 565.101 619.94 589.898 607.037 601.39C620.746 595.14 633.246 605.825 630.222 612.075C637.076 601.995 656.632 595.342 657.035 612.68C669.938 579.213 707.84 590.1 710.864 603.406C728.001 578.81 760.661 594.132 756.831 605.825C785.459 580.625 810.66 601.188 812.877 616.712C816.305 597.156 846.747 600.382 851.787 607.035C849.973 590.503 905.213 588.487 895.133 614.091C926.986 601.188 957.832 641.51 915.898 655.824C845.336 654.211 432.042 644.332 432.042 644.332V621.954H431.841Z" fill="#41472B"/>
<path id="Vector_3" d="M711.268 571.754C711.268 555.424 732.033 547.964 742.517 557.843C735.259 542.924 752.799 538.287 765.097 540.908C765.097 522.763 783.04 523.167 789.289 530.021C789.289 506.232 831.022 513.288 828.199 529.416C844.529 511.877 860.053 522.763 856.828 531.029C877.795 514.901 899.367 539.698 886.464 551.19C900.173 544.94 912.673 555.625 909.648 561.875C916.503 551.795 936.059 545.142 936.462 562.48C949.365 529.013 987.267 539.9 990.291 553.206C1007.43 528.61 1040.09 543.932 1036.26 555.625C1064.89 530.424 1090.09 550.988 1092.3 566.512C1095.73 546.956 1126.17 550.182 1131.21 556.835C1129.4 540.303 1184.64 538.287 1174.56 563.891C1206.41 550.988 1237.26 591.31 1195.32 605.624C1124.76 604.011 711.469 594.132 711.469 594.132V571.754H711.268Z" fill="#334126"/>
<path id="Vector_4" opacity="0.5" d="M1289.68 -81.0482H-5.64453V727.394H1289.68V-81.0482Z" fill="url(#paint0_linear_587_9922)"/>
<path id="Vector_5" opacity="0.3" d="M1026.98 150.598L982.227 641.711L837.877 645.945L961.26 106.244L1026.98 150.598Z" fill="url(#paint1_linear_587_9922)"/>
<path id="Vector_6" d="M1114.48 642.316C1112.87 582.237 1116.5 238.297 1116.5 238.297L1140.69 237.692L1145.93 645.542L1114.48 642.316Z" fill="#A37F5E"/>
<path id="Vector_7" d="M746.145 625.784C744.936 584.052 739.492 384.663 739.089 370.954C738.686 357.244 747.153 353.011 755.218 347.971C763.282 342.93 771.951 331.036 771.749 321.358C771.548 311.681 768.927 221.16 768.927 221.16L757.234 221.563C757.234 221.563 759.25 294.545 759.451 305.432C759.653 316.318 761.871 325.794 751.589 330.632C742.92 334.664 740.904 334.463 740.904 334.463L736.871 185.677L695.139 186.887L692.316 627.196L746.145 625.784Z" fill="#A37F5E"/>
<path id="Vector_8" opacity="0.3" d="M976.582 83.6644L875.376 626.389L703.809 641.308L906.02 57.8588L980.816 68.9471L976.582 83.6644Z" fill="url(#paint2_linear_587_9922)"/>
<path id="Vector_9" d="M1023.15 630.825C1026.38 536.271 1023.15 392.526 1023.15 376.195C1023.15 359.865 1016.7 345.753 1010.05 341.317C1003.19 336.882 996.34 326.399 996.34 320.35C996.34 314.302 998.759 260.876 998.759 260.876H1018.31C1018.31 260.876 1018.31 290.916 1018.31 296.762C1018.11 310.875 1018.52 319.746 1028.8 319.746C1039.89 319.746 1041.5 316.721 1041.5 308.859C1041.5 301.198 1041.5 252.611 1041.5 252.611H1068.31C1068.31 252.611 1068.31 315.713 1068.31 324.383C1068.31 333.052 1075.57 333.455 1079.8 329.221C1084.04 324.987 1088.27 315.31 1088.27 303.415C1088.27 291.521 1089.08 274.586 1089.08 274.586H1105.01C1105.01 274.586 1105.01 323.979 1105.01 330.834C1105.01 337.689 1100.37 346.358 1095.93 351.196C1091.5 356.236 1080.81 363.696 1076.38 367.93C1072.14 372.163 1073.15 379.22 1073.15 385.671C1073.15 392.122 1073.15 630.018 1073.15 630.018L1023.15 630.825Z" fill="#A37F5E"/>
<path id="Vector_10" d="M523.975 665.702C524.177 653.203 522.765 422.968 522.362 416.718C521.556 405.025 520.951 393.735 513.491 389.3C506.032 384.865 497.363 377.405 489.299 371.559C481.234 365.712 475.791 353.817 475.791 349.382C475.791 344.946 478.613 101.406 478.613 101.406L496.556 101.607C496.556 101.607 495.952 312.085 495.75 319.342C495.145 341.519 496.153 346.358 506.435 351.599C513.491 355.228 517.927 357.446 517.927 357.446L516.314 83.866L550.385 84.2692C550.385 84.2692 561.071 656.63 560.869 665.702C560.869 674.573 523.975 673.565 523.975 665.702Z" fill="#A37F5E"/>
<path id="Vector_11" d="M198.179 619.131C196.566 559.053 200.195 215.112 200.195 215.112L224.388 214.507L229.629 622.357L198.179 619.131Z" fill="#A37F5E"/>
<path id="Vector_12" d="M390.31 649.776C392.729 555.222 390.31 411.477 390.31 395.146C390.31 378.816 385.471 364.704 380.028 360.269C374.786 355.833 369.343 345.35 369.343 339.301C369.343 333.455 371.157 279.828 371.157 279.828H386.278C386.278 279.828 386.278 309.867 386.278 315.714C386.278 329.826 386.479 338.697 394.342 338.697C403.011 338.697 404.221 335.673 404.221 327.81C404.221 319.947 404.221 271.562 404.221 271.562H424.986C424.986 271.562 424.986 334.665 424.986 343.334C424.986 352.003 430.631 352.406 433.857 348.172C437.284 343.938 440.51 334.261 440.51 322.367C440.51 310.472 441.115 293.537 441.115 293.537H453.413C453.413 293.537 453.413 342.93 453.413 349.785C453.413 356.64 449.985 365.309 446.356 370.147C442.929 375.187 434.663 382.647 431.236 386.881C427.809 391.114 428.817 398.171 428.817 404.622C428.817 411.073 428.817 648.969 428.817 648.969L390.31 649.776Z" fill="#A37F5E"/>
<path id="Vector_13" d="M-5.64453 422.968C9.27435 436.677 28.427 419.541 24.3948 406.638C40.725 417.323 54.4342 388.897 54.4342 388.897C54.4342 388.897 74.7965 411.275 83.6672 402.606C92.5378 393.937 89.5137 378.413 80.2399 369.341C100.602 380.228 130.641 363.293 130.641 344.745C140.923 357.648 166.931 350.793 161.084 330.834C178.422 353.615 211.486 342.326 201.405 311.681C215.921 337.084 239.711 323.173 243.34 315.31C239.912 332.648 275.597 334.664 275.597 318.939C279.83 337.285 318.337 343.737 332.853 323.778C334.264 338.293 344.748 343.938 344.748 343.938C344.748 343.938 362.086 340.108 362.086 324.181C367.126 343.334 391.722 334.664 391.722 325.391C393.133 342.124 436.479 338.495 433.454 313.899C438.696 330.632 444.341 331.64 444.341 331.64C444.341 331.64 464.905 331.439 469.945 314.302C472.768 330.632 486.275 326.802 491.316 323.375C493.332 332.648 539.903 329.221 534.863 309.464C542.725 323.374 583.248 318.133 583.248 301.198C587.482 310.068 594.538 301.198 594.538 301.198C594.538 301.198 592.925 322.165 596.756 328.818C604.417 327.205 614.9 316.117 618.731 297.77C625.989 307.044 642.117 306.843 646.553 297.77C651.19 303.819 676.189 295.754 668.124 283.658C676.794 293.134 705.623 289.706 712.881 282.448C707.236 294.545 735.058 321.56 750.582 299.988C747.557 321.56 767.315 325.995 773.363 323.173C774.573 331.64 804.209 331.439 804.209 312.488C808.241 321.762 818.523 320.149 818.523 309.464C818.523 324.584 838.684 327.608 847.353 318.939C837.071 333.656 874.368 376.8 906.625 338.697C905.415 362.889 937.672 356.236 940.898 346.962C948.761 357.849 976.381 351.801 969.728 332.044C977.994 350.39 986.461 348.575 990.897 344.14C995.13 339.503 995.735 327.205 985.453 319.342C1005.01 330.431 1036.86 332.648 1036.86 286.884C1048.76 313.899 1073.15 303.617 1073.15 293.738C1074.97 310.472 1094.93 299.787 1091.7 291.319C1089.68 311.48 1109.84 325.995 1127.79 318.334C1130.81 331.036 1153.39 328.616 1159.04 317.931C1154.2 336.681 1163.27 348.172 1179 339.301C1171.33 355.43 1205.81 361.478 1205.81 343.132C1208.63 361.075 1224.16 369.542 1232.22 360.067C1232.22 375.994 1290.48 384.461 1290.48 355.228C1290.48 325.995 1290.48 96.1639 1290.48 96.1639H-5.64453V422.968Z" fill="#A38464"/>
<path id="Vector_14" opacity="0.3" d="M580.022 238.901L572.159 636.066L684.656 642.115L626.996 218.136L580.022 238.901Z" fill="url(#paint3_linear_587_9922)"/>
<path id="Vector_15" d="M810.861 622.76C809.249 562.681 812.878 218.741 812.878 218.741L837.07 218.136L842.312 625.986L810.861 622.76Z" fill="#A37F5E"/>
<path id="Vector_16" d="M71.7717 611.672C69.9572 507.24 68.1428 407.444 67.9412 400.59C67.7396 393.735 71.7717 388.695 78.6263 385.873C85.4809 383.05 94.7548 376.599 94.5532 363.293C94.3516 350.188 92.9404 273.578 92.9404 273.578L81.6504 273.779C81.6504 273.779 83.0617 349.987 83.0617 357.648C83.0617 365.309 82.86 366.317 74.5942 370.55C66.5299 374.784 62.901 374.784 62.6994 366.72C62.4978 358.656 63.1026 257.852 63.1026 257.852L41.7323 258.256L41.3291 611.47L71.7717 611.672Z" fill="#A37F5E"/>
<path id="Vector_17" opacity="0.3" d="M368.335 251.199L439.502 634.05L560.063 637.074L435.067 210.475L368.335 251.199Z" fill="url(#paint4_linear_587_9922)"/>
<path id="Vector_18" opacity="0.3" d="M279.427 283.053L248.984 617.922L150.398 620.744L234.468 252.812L279.427 283.053Z" fill="url(#paint5_linear_587_9922)"/>
<path id="Vector_19" opacity="0.3" d="M33.0635 268.739L46.7727 616.712L137.899 620.744L80.0378 250.595L33.0635 268.739Z" fill="url(#paint6_linear_587_9922)"/>
<path id="Vector_20" opacity="0.24" d="M-5.64453 422.968C9.27435 436.677 28.427 419.541 24.3948 406.638C40.725 417.323 54.4342 388.897 54.4342 388.897C54.4342 388.897 74.7965 411.275 83.6672 402.606C92.5378 393.937 89.5137 378.413 80.2399 369.341C100.602 380.228 130.641 363.293 130.641 344.745C140.923 357.648 166.931 350.793 161.084 330.834C178.422 353.615 211.486 342.326 201.405 311.681C215.921 337.084 239.711 323.173 243.34 315.31C239.912 332.648 275.597 334.664 275.597 318.939C279.83 337.285 318.337 343.737 332.853 323.778C334.264 338.293 344.748 343.938 344.748 343.938C344.748 343.938 362.086 340.108 362.086 324.181C367.126 343.334 391.722 334.664 391.722 325.391C393.133 342.124 436.479 338.495 433.454 313.899C438.696 330.632 444.341 331.64 444.341 331.64C444.341 331.64 464.905 331.439 469.945 314.302C472.768 330.632 486.275 326.802 491.316 323.375C493.332 332.648 539.903 329.221 534.863 309.464C542.725 323.374 583.248 318.133 583.248 301.198C587.482 310.068 594.538 301.198 594.538 301.198C594.538 301.198 592.925 322.165 596.756 328.818C604.417 327.205 614.9 316.117 618.731 297.77C625.989 307.044 642.117 306.843 646.553 297.77C651.19 303.819 676.189 295.754 668.124 283.658C676.794 293.134 705.623 289.706 712.881 282.448C707.236 294.545 735.058 321.56 750.582 299.988C747.557 321.56 767.315 325.995 773.363 323.173C774.573 331.64 804.209 331.439 804.209 312.488C808.241 321.762 818.523 320.149 818.523 309.464C818.523 324.584 838.684 327.608 847.353 318.939C837.071 333.656 874.368 376.8 906.625 338.697C905.415 362.889 937.672 356.236 940.898 346.962C948.761 357.849 976.381 351.801 969.728 332.044C977.994 350.39 986.461 348.575 990.897 344.14C995.13 339.503 995.735 327.205 985.453 319.342C1005.01 330.431 1036.86 332.648 1036.86 286.884C1048.76 313.899 1073.15 303.617 1073.15 293.738C1074.97 310.472 1094.93 299.787 1091.7 291.319C1089.68 311.48 1109.84 325.995 1127.79 318.334C1130.81 331.036 1153.39 328.616 1159.04 317.931C1154.2 336.681 1163.27 348.172 1179 339.301C1171.33 355.43 1205.81 361.478 1205.81 343.132C1208.63 361.075 1224.16 369.542 1232.22 360.067C1232.22 375.994 1290.48 384.461 1290.48 355.228C1290.48 325.995 1290.48 96.1639 1290.48 96.1639H-5.64453V422.968Z" fill="url(#paint7_linear_587_9922)"/>
<path id="Vector_21" opacity="0.3" d="M1067.91 262.086L1023.15 630.824H1121.94L1103.8 258.054L1067.91 262.086Z" fill="url(#paint8_linear_587_9922)"/>
<path id="Vector_22" opacity="0.3" d="M1289.68 270.554L1227.99 626.994L1291.49 625.784L1289.68 270.554Z" fill="url(#paint9_linear_587_9922)"/>
<path id="Vector_23" d="M-5.64453 321.358C-5.64453 346.962 49.3941 350.39 51.6117 331.439C63.9097 358.454 85.28 365.309 87.2961 327.003C94.3523 350.188 142.133 330.431 132.254 312.286C141.528 350.188 184.672 329.624 182.253 309.464C189.712 326.6 204.833 331.64 206.244 330.834C209.066 329.423 216.123 317.326 210.478 298.778C216.324 317.729 256.847 313.496 260.476 298.778C256.646 337.285 301.604 312.689 297.572 301.601C306.442 321.762 340.111 298.577 329.224 287.69C339.506 312.488 367.731 287.287 356.844 276.4C367.328 302.004 390.512 291.117 393.335 278.416C396.359 307.246 439.301 287.287 435.269 264.909C437.688 298.577 471.76 295.553 483.655 275.795C488.09 317.931 523.169 311.883 530.226 293.738C537.08 317.729 547.161 328.213 552.604 327.205C556.434 327.205 566.918 313.294 568.531 291.319C580.426 307.649 616.916 308.052 610.062 278.416C630.424 304.827 664.899 282.448 665.1 264.909C670.947 300.19 713.083 291.521 716.913 278.416C717.72 299.182 722.961 315.512 727.397 316.721C731.832 318.939 745.945 306.238 752.396 290.714C755.219 309.464 796.346 305.431 796.145 281.844C812.878 304.827 823.362 285.674 820.741 275.997C833.24 289.706 867.11 270.957 858.844 247.167C869.126 286.682 902.794 273.376 906.423 256.643C908.036 286.279 953.801 282.852 960.454 264.909C957.43 294.545 999.162 291.117 1006.42 275.392C1013.27 294.746 1030.21 304.827 1033.64 304.827C1037.67 304.827 1043.92 287.085 1039.69 270.957C1054.6 299.182 1084.85 293.335 1090.29 277.005C1093.72 312.286 1135.85 297.77 1136.25 283.053C1142.3 312.286 1165.89 297.77 1163.47 286.077C1166.5 312.085 1213.47 299.988 1205.41 278.618C1215.89 304.827 1247.34 301.399 1249.36 280.231C1251.78 322.568 1283.63 314.705 1289.88 295.754C1289.88 281.037 1289.88 -80.645 1289.88 -80.645H-5.64453V321.358Z" fill="#A3A579"/>
<path id="Vector_24" d="M535.467 221.966C528.613 268.134 555.628 273.174 568.531 231.039C572.563 256.441 599.78 253.417 603.006 231.039C607.441 264.304 657.843 259.062 650.182 227.007C654.617 245.756 708.244 238.297 696.954 208.459C709.655 245.756 751.791 218.539 745.138 203.015C748.767 228.216 757.638 238.7 760.46 238.095C763.081 238.095 771.347 226.402 773.161 208.459C780.823 250.595 822.353 237.087 822.353 220.757C826.184 239.305 862.675 231.644 855.014 209.87C869.731 239.305 888.884 223.176 885.456 206.644C889.892 229.224 919.125 235.272 919.125 215.717C923.762 235.474 946.745 228.015 946.341 216.12C954.607 241.119 999.969 231.644 999.969 212.088C1003.19 242.127 1046.34 229.426 1041.3 210.273C1041.3 248.377 1104.2 250.595 1112.06 220.757C1117.91 244.546 1129.8 253.014 1133.03 252.006C1135.65 251.199 1143.11 238.297 1138.88 219.346C1151.98 246.562 1183.03 242.732 1178.39 218.942C1183.03 244.95 1202.58 245.958 1211.05 237.49C1204.6 261.481 1240.89 269.546 1246.94 253.417C1258.03 283.86 1289.88 266.118 1289.88 257.046C1289.88 247.974 1289.88 -80.8466 1289.88 -80.8466H-5.64453V313.899C8.06471 330.632 42.9426 310.27 33.4671 291.722C65.321 323.576 124.593 286.481 103.828 250.998C118.948 274.586 134.875 275.594 137.899 273.578C140.52 271.158 141.528 249.788 131.448 234.668C144.754 254.828 165.519 240.716 165.923 224.184C166.124 214.104 166.931 224.184 166.931 224.184C185.68 239.103 191.325 232.047 193.543 222.974C191.325 248.78 233.058 241.119 231.646 224.789C241.122 251.199 282.048 258.457 291.12 239.305C296.967 258.457 333.458 249.385 326.401 229.426C337.49 251.199 344.143 239.708 349.586 229.426C349.586 251.199 378.618 250.393 381.843 240.313C387.69 255.232 416.318 256.643 415.915 234.869C418.334 252.006 430.229 261.885 433.454 261.885C437.487 261.885 451.397 248.78 444.543 234.869C463.695 274.183 536.274 255.635 535.467 221.966Z" fill="#84842E"/>
<path id="Vector_25" opacity="0.2" d="M535.467 230.636C528.613 276.803 555.628 281.844 568.531 239.708C572.563 265.11 599.78 262.086 603.006 239.708C607.441 272.973 657.843 267.731 650.182 235.676C654.617 254.425 708.244 246.966 696.954 217.128C709.655 254.425 751.791 227.208 745.138 211.685C748.767 236.885 757.638 247.369 760.46 246.764C763.081 246.764 771.347 235.071 773.161 217.128C780.823 259.264 822.353 245.756 822.353 229.426C826.184 247.974 862.675 240.313 855.014 218.539C869.731 247.974 888.884 231.845 885.456 215.313C889.892 237.893 919.125 243.942 919.125 224.386C923.762 244.143 946.745 236.684 946.341 224.789C954.607 249.788 999.969 240.313 999.969 220.757C1003.19 250.796 1046.34 238.095 1041.3 218.942C1041.3 257.046 1104.2 259.264 1112.06 229.426C1117.91 253.215 1129.8 261.683 1133.03 260.675C1135.65 259.868 1143.11 246.966 1138.88 228.015C1151.98 255.232 1183.03 251.401 1178.39 227.611C1183.03 253.619 1202.58 254.627 1211.05 246.159C1204.6 270.15 1240.89 278.215 1246.94 262.086C1258.03 292.529 1289.88 274.787 1289.88 265.715C1289.88 256.643 1289.88 -72.1775 1289.88 -72.1775H-5.64453V322.568C8.06471 339.301 42.9426 318.939 33.4671 300.391C65.321 332.245 124.593 295.15 103.828 259.667C118.948 283.255 134.875 284.263 137.899 282.247C140.52 279.828 141.528 258.457 131.448 243.337C144.754 263.497 165.519 249.385 165.923 232.853C166.124 222.773 166.931 232.853 166.931 232.853C185.68 247.772 191.325 240.716 193.543 231.644C191.325 257.449 233.058 249.788 231.646 233.458C241.122 259.868 282.048 267.126 291.12 247.974C296.967 267.126 333.458 258.054 326.401 238.095C337.49 259.868 344.143 248.377 349.586 238.095C349.586 259.868 378.618 259.062 381.843 248.982C387.69 263.901 416.318 265.312 415.915 243.538C418.334 260.675 430.229 270.554 433.454 270.554C437.487 270.554 451.397 257.449 444.543 243.538C463.695 282.852 536.274 264.304 535.467 230.636Z" fill="#84842E"/>
<path id="Vector_26" opacity="0.1" d="M491.719 123.784L384.867 635.663L580.627 642.114L550.991 119.349L491.719 123.784Z" fill="#84842E"/>
<path id="Vector_27" opacity="0.2" d="M749.976 127.01L642.923 639.09L838.884 645.34L809.248 122.574L749.976 127.01Z" fill="#84842E"/>
<path id="Vector_28" d="M-5.64453 245.554C9.27435 259.264 28.427 242.127 24.3948 229.224C40.725 239.909 54.4342 211.483 54.4342 211.483C54.4342 211.483 74.7965 233.861 83.6672 225.192C92.5378 216.523 89.5137 200.999 80.2399 191.927C100.602 202.814 130.641 185.879 130.641 167.331C140.923 180.234 166.931 173.379 161.084 153.42C178.422 176.202 211.486 164.912 201.405 134.268C215.921 159.67 239.711 145.759 243.34 137.897C239.912 155.235 275.597 157.251 275.597 141.525C279.83 159.872 318.337 166.323 332.853 146.364C334.264 160.88 344.748 166.525 344.748 166.525C344.748 166.525 362.086 162.694 362.086 146.767C367.126 165.92 391.722 157.251 391.722 147.977C393.133 164.71 436.479 161.081 433.454 136.485C438.696 153.219 444.341 154.227 444.341 154.227C444.341 154.227 464.905 154.025 469.945 136.889C472.768 153.219 486.275 149.388 491.316 145.961C493.332 155.235 539.903 151.807 534.863 132.05C542.725 145.961 583.248 140.719 583.248 123.784C587.482 132.655 594.538 123.784 594.538 123.784C594.538 123.784 592.925 144.751 596.756 151.404C604.417 149.791 614.9 138.703 618.731 120.357C625.989 129.631 642.117 129.429 646.553 120.357C651.19 126.405 676.189 118.341 668.124 106.244C676.794 115.72 705.623 112.293 712.881 105.035C707.236 117.131 735.058 144.146 750.582 122.574C747.557 144.146 767.315 148.582 773.363 145.759C774.573 154.227 804.209 154.025 804.209 135.074C808.241 144.348 818.523 142.735 818.523 132.05C818.523 147.17 838.684 150.195 847.353 141.525C837.071 156.243 874.368 199.387 906.625 161.283C905.415 185.476 937.672 178.823 940.898 169.549C948.761 180.436 976.381 174.387 969.728 154.63C977.994 172.976 986.461 171.162 990.897 166.726C995.332 162.291 995.735 149.791 985.453 141.929C1005.01 153.017 1036.86 155.235 1036.86 109.47C1048.76 136.485 1073.15 126.203 1073.15 116.325C1074.97 133.058 1094.93 122.373 1091.7 113.905C1089.68 134.066 1109.84 148.582 1127.79 140.921C1130.81 153.622 1153.39 151.203 1159.04 140.517C1154.2 159.267 1163.27 170.758 1179 161.888C1171.33 178.016 1205.81 184.064 1205.81 165.718C1208.63 183.661 1224.16 192.129 1232.22 182.653C1232.22 198.58 1290.48 207.048 1290.48 177.815C1290.48 148.582 1290.48 -81.2498 1290.48 -81.2498H-5.64453V245.554Z" fill="#6B772A"/>
<path id="Vector_29" opacity="0.2" d="M-5.64453 115.518C5.24222 135.477 28.8302 130.437 36.4912 125.599C44.1523 120.558 45.1603 102.817 36.4912 93.3415C51.0069 109.268 67.7402 107.454 76.0061 101.003C84.272 94.5512 86.8929 75.6002 81.0463 66.9311C91.5298 79.6323 102.013 75.6001 104.231 73.3825C102.417 79.8339 111.489 91.9303 120.561 95.156C129.633 98.3817 153.221 96.9704 153.221 79.2291C162.697 95.5592 178.221 91.5271 182.656 86.8901C180.842 98.3817 190.922 111.889 206.244 111.889C221.566 111.889 225.397 97.7769 222.574 93.3415C227.614 102.414 242.533 109.268 253.017 102.817C263.5 96.3656 265.718 86.8901 267.129 82.858C263.097 98.3817 266.121 105.035 275.395 107.857C284.467 110.68 295.354 110.68 297.572 103.22C292.128 125.397 302.209 134.469 315.716 134.469C329.224 134.469 332.651 116.929 323.377 107.656C340.715 117.131 359.667 112.696 363.295 103.623C366.924 94.5512 366.118 88.7046 366.118 81.85C369.747 100.599 403.818 116.325 407.85 83.2612C405.028 109.067 409.665 112.293 416.116 119.55C424.785 115.921 437.89 108.26 427.406 85.4789C442.325 100.599 465.51 99.1881 465.51 78.221C465.51 104.027 479.219 112.696 479.219 112.696C479.219 112.696 497.364 103.22 489.703 81.85C508.251 98.5833 529.621 75.3985 528.21 58.6652C542.725 76.8098 579.014 70.56 579.014 43.1415C584.861 82.2532 631.634 63.1005 631.634 43.1415C617.118 77.6162 629.819 88.7046 629.819 88.7046C629.819 88.7046 662.479 79.4307 662.479 53.625C660.262 84.0676 677.398 103.019 694.333 77.213C694.333 98.5833 714.696 107.656 732.034 107.656C749.372 107.656 761.468 91.7287 753.001 74.9953C763.484 98.1801 801.185 91.3255 804.209 78.6242C799.169 109.873 826.99 124.389 832.837 88.9062C844.127 107.656 886.868 105.438 884.65 76.0034C888.682 107.252 900.174 109.672 900.174 109.672C900.174 109.672 915.697 101.003 915.697 78.4226C925.173 94.7528 947.551 82.4548 947.551 63.5038C947.551 91.7287 964.284 96.164 966.099 95.7608C967.913 95.3576 984.244 85.6805 984.244 63.1005C990.09 89.1078 1049.97 84.0676 1049.56 52.617C1049.56 89.1078 1087.26 68.9471 1087.26 68.9471C1087.26 68.9471 1070.53 83.866 1073.56 106.648C1094.52 107.656 1102.99 92.9383 1105.81 79.8339C1099.97 104.833 1121.34 117.131 1135.85 97.9785C1142.71 121.566 1182.22 117.131 1184.44 100.196C1180 123.784 1192.1 131.445 1192.1 131.445C1192.1 131.445 1210.65 126.002 1210.65 106.849C1218.91 145.356 1290.69 138.703 1290.69 96.7688C1290.69 54.8347 1290.69 -76.6128 1290.69 -76.6128H-5.64453V115.518Z" fill="#D9E071"/>
<path id="Vector_30" opacity="0.3" d="M-5.64453 259.667C8.66953 272.973 27.8222 256.038 23.79 243.135C40.1202 253.82 53.8294 225.394 53.8294 225.394C53.8294 225.394 74.1917 247.772 83.0623 239.103C91.933 230.232 88.9089 214.91 79.635 205.838C99.9973 216.725 130.037 199.79 130.037 181.242C140.319 194.145 166.326 187.29 160.479 167.331C177.817 190.113 210.881 178.823 200.801 148.178C215.316 173.581 239.106 159.67 242.735 151.807C239.307 169.145 274.992 171.162 274.992 155.436C279.225 173.782 317.732 180.234 332.248 160.275C333.659 174.79 344.143 180.435 344.143 180.435C344.143 180.435 361.481 176.605 361.481 160.678C366.521 179.831 391.117 171.162 391.117 161.888C392.528 178.621 435.874 174.992 432.85 150.396C438.091 167.129 443.736 168.137 443.736 168.137C443.736 168.137 464.3 167.936 469.34 150.799C472.163 167.129 485.671 163.299 490.711 159.872C492.727 169.145 539.298 165.718 534.258 145.961C542.12 159.872 582.643 154.63 582.643 137.695C586.877 146.566 593.933 137.695 593.933 137.695C593.933 137.695 592.32 158.662 596.151 165.315C603.812 163.702 614.296 152.614 618.126 134.268C625.384 143.541 641.512 143.34 645.948 134.268C650.585 140.316 675.584 132.251 667.52 120.155C676.189 129.631 705.018 126.203 712.276 118.945C706.631 131.042 734.453 158.057 749.977 136.485C746.953 158.057 766.71 162.492 772.758 159.67C773.968 168.137 803.604 167.936 803.604 148.985C807.636 158.259 817.918 156.646 817.918 145.961C817.918 161.081 838.079 164.105 846.748 155.436C836.466 170.154 873.763 213.297 906.02 175.194C904.811 199.386 937.068 192.733 940.293 183.46C948.156 194.346 975.776 188.298 969.123 168.541C977.389 186.887 985.856 185.072 990.292 180.637C994.526 176 995.13 163.702 984.848 155.839C1004.4 166.928 1036.26 169.145 1036.26 123.381C1048.15 150.396 1072.55 140.114 1072.55 130.235C1074.36 146.969 1094.32 136.284 1091.09 127.816C1089.08 147.977 1109.24 162.492 1127.18 154.831C1130.21 167.533 1152.79 165.113 1158.43 154.428C1153.59 173.178 1162.67 184.669 1178.39 175.798C1170.73 191.927 1205.2 197.975 1205.2 179.629C1208.03 197.572 1223.55 206.039 1231.61 196.564C1231.61 212.491 1289.88 220.958 1289.88 191.725C1289.88 162.694 1289.88 -67.339 1289.88 -67.339L-5.64453 -66.9358V259.667Z" fill="#6B772A"/>
<path id="Vector_31" d="M-5.64453 579.616C-5.64453 557.44 19.9595 547.359 30.6446 560.867C23.1852 540.505 41.3298 534.053 53.8294 537.682C53.8294 512.683 72.3772 513.288 78.8286 522.763C78.8286 490.103 121.771 499.78 118.747 521.957C135.48 497.966 151.609 512.885 148.181 524.175C169.35 501.998 191.527 535.868 178.422 551.795C192.535 543.327 205.438 557.843 202.212 566.512C209.268 552.803 229.227 543.529 229.63 567.117C242.735 521.352 281.846 536.271 285.072 554.416C302.813 520.747 336.28 541.714 332.248 557.641C361.683 523.167 387.69 551.392 389.908 572.56C393.335 545.948 424.785 550.384 429.826 559.456C428.011 536.674 488.896 539.295 478.413 574.173C517.121 562.278 533.855 625.986 495.549 625.986C422.971 623.768 -5.64453 610.059 -5.64453 610.059V579.616Z" fill="#41472B"/>
<path id="Vector_32" d="M668.326 628.002C638.891 628.808 645.947 581.028 675.18 580.423C676.39 557.238 704.413 554.819 709.655 570.947C718.727 539.093 746.146 544.94 753.605 564.697C766.306 540.908 792.314 556.028 786.064 572.359C794.935 559.053 808.845 560.061 817.313 574.173C810.861 547.763 835.659 536.876 851.384 558.246C838.078 520.747 894.327 516.11 896.544 543.327C896.343 505.627 959.244 513.691 955.817 538.287C976.784 530.626 991.299 568.528 970.131 574.173C993.92 569.939 1007.83 577.197 1006.82 596.35C1019.52 561.472 1044.52 566.915 1055.41 577.399C1044.52 544.335 1086.66 530.828 1104.8 545.746C1101.98 506.635 1162.06 507.24 1162.87 536.069C1174.16 507.038 1206.41 525.989 1200.57 537.884C1209.24 508.853 1254.6 521.352 1241.49 557.44C1260.85 544.537 1291.69 554.214 1291.69 576.391C1291.69 594.535 1291.69 619.736 1291.69 619.736C1291.69 619.736 1002.99 624.171 959.849 624.171C916.705 624.171 668.326 628.002 668.326 628.002Z" fill="#41472B"/>
<path id="Vector_33" opacity="0.15" d="M286.08 149.993L241.525 641.106L97.1748 645.34L220.356 105.639L286.08 149.993Z" fill="#84842E"/>
<path id="Vector_34" d="M1151.17 623.567C1149.56 565.706 1157.83 400.791 1158.23 377.203C1158.63 354.422 1156.01 346.963 1147.95 339.301C1140.08 331.842 1136.46 330.632 1130.61 325.794C1124.76 320.955 1122.55 315.512 1122.34 306.036C1122.14 296.561 1122.34 48.5848 1122.34 48.5848L1144.12 47.98C1144.12 47.98 1145.33 272.368 1145.73 282.65C1146.54 312.891 1149.36 311.48 1156.82 314.101C1164.28 316.722 1170.93 318.133 1170.12 291.521C1169.92 283.658 1169.12 47.3752 1169.12 47.3752L1193.31 46.7704C1193.31 46.7704 1202.18 317.73 1202.38 325.391C1202.58 333.253 1201.37 340.309 1207.02 334.866C1212.66 329.221 1217.91 324.584 1221.53 320.552C1225.16 316.52 1228.39 312.085 1228.19 301.803C1227.99 291.521 1223.75 60.6812 1223.75 60.6812L1241.69 59.8748C1241.69 59.8748 1243.91 294.545 1244.11 301.399C1244.32 308.254 1244.11 328.012 1239.28 335.874C1234.44 343.737 1210.45 390.51 1210.45 390.51C1210.45 390.51 1213.67 603.809 1214.28 620.946C1214.48 638.284 1151.58 641.913 1151.17 623.567Z" fill="#783933"/>
<g id="Group">
<path id="Vector_35" d="M1213.87 620.946C1213.47 603.809 1210.04 390.509 1210.04 390.509C1210.04 390.509 1234.03 343.938 1238.87 335.874C1243.71 328.011 1243.91 308.254 1243.71 301.399C1243.51 294.545 1241.49 60.0764 1241.49 60.0764L1223.55 60.8828C1223.55 60.8828 1227.78 291.722 1227.99 302.004C1228.19 312.286 1224.96 316.721 1221.33 320.754C1217.7 324.584 1212.46 329.423 1206.82 335.068C1201.17 340.713 1202.38 333.455 1202.18 325.592C1201.98 317.73 1193.11 46.9719 1193.11 46.9719L1180 47.3751C1180 129.832 1180 539.295 1180 636.066C1196.53 635.461 1214.28 630.22 1213.87 620.946Z" fill="#6D3933"/>
</g>
<path id="Vector_36" d="M101.408 620.744C101.408 598.971 102.416 363.293 102.416 354.019C102.416 344.745 104.432 338.092 109.876 334.664C115.319 331.237 130.641 318.738 135.681 313.899C140.721 309.06 143.544 304.625 143.544 297.972C143.544 291.117 143.544 51.004 143.544 51.004H122.98C122.98 51.004 122.98 266.723 122.98 274.182C122.98 281.642 124.19 284.263 116.327 290.513C108.464 296.762 105.44 299.383 100.4 302.811C95.36 306.238 91.5295 306.641 91.5295 296.359C91.5295 286.077 91.5295 27.6177 91.5295 27.6177H54.4338C54.4338 27.6177 53.829 604.212 54.4338 619.534C55.0387 632.034 101.408 631.631 101.408 620.744Z" fill="#783933"/>
<path id="Vector_37" d="M316.321 628.002L311.684 385.066C311.684 382.848 312.692 380.832 314.304 379.623C323.982 372.163 356.44 346.358 356.44 336.681V49.7945C356.44 45.964 353.215 42.7382 349.182 43.1415L331.643 44.3511C328.215 44.5527 325.393 47.5768 325.393 51.0041C325.191 90.519 324.183 303.617 322.772 313.093C322.167 317.73 313.901 322.568 308.055 325.592C303.821 328.012 297.168 332.85 297.168 316.318C297.168 302.004 292.329 75.8017 291.523 35.0772C291.523 31.6499 288.7 28.6258 285.072 28.6258C273.378 28.021 249.79 27.2145 249.79 29.029C249.79 31.4483 256.242 206.04 256.242 214.104C256.242 222.168 257.653 229.426 252.814 226.402C247.976 223.378 238.097 219.749 238.097 209.467C238.097 205.032 233.057 76.8098 231.847 45.5607C231.646 41.7302 228.622 38.9077 224.791 39.1093L210.679 39.7142C207.05 39.9158 204.026 43.1415 204.227 46.7704C206.042 79.229 214.106 218.136 214.106 227.41C214.106 235.676 217.332 237.49 224.388 244.345C231.444 251.401 247.169 267.126 248.581 271.158C249.992 275.191 249.992 316.117 249.992 316.117C249.992 316.117 250.194 618.123 252.814 630.22C255.234 642.114 300.394 645.743 314.103 632.639C315.716 631.631 316.321 629.817 316.321 628.002Z" fill="#783933"/>
<path id="Vector_38" d="M73.3849 27.4161H54.4338C54.4338 27.4161 53.829 604.011 54.4338 619.333C54.6355 625.381 65.7238 628.405 77.2154 628.808C76.409 530.424 73.5865 196.967 73.3849 27.4161Z" fill="#6D3933"/>
<path id="Vector_39" d="M271.766 28.2226C261.081 27.8194 249.993 27.8194 249.993 29.029C249.993 31.4483 256.444 206.04 256.444 214.104C256.444 222.168 257.855 229.426 253.017 226.402C248.178 223.378 238.299 219.749 238.299 209.467C238.299 205.032 233.259 76.8098 232.05 45.5608C231.848 41.7302 228.824 38.9077 224.993 39.1093L210.881 39.7142C207.252 39.9158 204.228 43.1415 204.429 46.7704C206.244 79.2291 214.308 218.136 214.308 227.41C214.308 235.676 217.534 237.49 224.59 244.345C231.646 251.401 247.372 267.126 248.783 271.158C250.194 275.191 250.194 316.117 250.194 316.117C250.194 316.117 250.396 618.123 253.017 630.22C254.428 637.074 269.952 641.107 285.475 640.905L271.766 28.2226Z" fill="#6D3933"/>
<path id="Vector_40" d="M876.786 62.0925C874.166 142.937 866.706 258.86 866.505 269.747C866.101 280.634 869.529 284.868 876.383 293.537C883.238 302.206 934.244 369.542 934.244 369.542C934.244 369.542 941.502 376.599 941.099 388.493C940.696 399.783 943.317 612.478 943.72 636.268C943.72 637.679 944.526 638.889 945.736 639.494C952.994 642.719 977.993 652.598 1004 641.51C1005.41 640.905 1006.22 639.494 1006.22 638.082C1006.42 600.987 996.944 332.648 997.75 308.859C998.557 284.464 994.525 283.86 1005.41 273.779C1016.3 263.497 1025.77 253.215 1036.46 241.321C1046.34 230.232 1045.33 218.741 1045.33 213.902C1045.53 199.991 1044.12 35.4804 1044.12 35.4804L1012.87 35.2788C1012.87 35.2788 1011.46 201.604 1011.26 210.072C1011.06 218.539 1008.64 224.386 1004.4 228.418C1000.17 232.45 986.864 245.151 984.041 247.772C981.219 250.393 977.791 249.788 977.993 244.143C978.195 238.498 976.783 33.8676 976.783 33.8676L931.422 34.4724C931.422 34.4724 937.672 286.279 937.47 296.359C937.067 306.641 937.268 315.915 931.019 308.456C924.769 300.996 910.052 280.836 905.011 272.973C899.77 264.909 900.576 259.062 901.383 233.055C902.189 207.048 906.019 58.0603 906.019 58.0603L876.786 62.0925Z" fill="#783933"/>
<path id="Vector_41" d="M1043.92 35.2789L1012.67 35.0773C1012.67 35.0773 1011.26 201.403 1011.06 209.87C1010.86 218.338 1008.44 224.184 1004.2 228.216C999.969 232.248 986.663 244.95 983.84 247.571C981.018 250.191 977.591 249.587 977.792 243.942C977.994 238.297 976.582 33.666 976.582 33.666L960.051 34.0692C963.075 152.815 973.962 569.335 975.978 646.752C984.445 646.953 994.122 645.744 1003.8 641.711C1005.21 641.107 1006.02 639.695 1006.02 638.284C1006.22 601.188 996.743 332.85 997.55 309.061C998.356 284.666 994.324 284.061 1005.21 273.981C1016.1 263.699 1025.57 253.417 1036.26 241.522C1046.14 230.434 1045.13 218.942 1045.13 214.104C1045.33 199.79 1043.92 35.2789 1043.92 35.2789Z" fill="#6D3933"/>
<g id="Group_2">
<path id="Vector_42" opacity="0.1" d="M101.408 620.744C101.408 598.971 102.416 363.293 102.416 354.019C102.416 344.745 104.432 338.092 109.876 334.664C115.319 331.237 130.641 318.738 135.681 313.899C140.721 309.06 143.544 304.625 143.544 297.972C143.544 291.117 143.544 51.004 143.544 51.004H122.98C122.98 51.004 122.98 266.723 122.98 274.182C122.98 281.642 124.19 284.263 116.327 290.513C108.464 296.762 105.44 299.383 100.4 302.811C95.36 306.238 91.5295 306.641 91.5295 296.359C91.5295 286.077 91.5295 27.6177 91.5295 27.6177H54.4338C54.4338 27.6177 53.829 604.212 54.4338 619.534C54.8371 632.034 101.207 631.631 101.408 620.744Z" fill="#773A10"/>
<g id="Group_3" opacity="0.4">
<g id="Group_4">
<path id="Vector_43" d="M54.0307 548.972C54.0307 548.972 62.095 525.787 79.0299 516.312C95.9649 506.836 101.811 485.668 101.811 485.668V469.338C101.811 469.338 93.7472 494.538 77.8203 503.409C61.8934 512.28 53.8291 526.594 53.8291 532.642C54.0307 538.69 54.0307 548.972 54.0307 548.972Z" fill="#492326"/>
<path id="Vector_44" d="M101.408 591.914C96.9725 591.713 85.2793 587.882 81.4488 586.068C77.6182 584.253 56.6512 572.963 54.0303 571.35C54.0303 576.189 54.0303 576.391 54.0303 576.391C54.0303 576.391 70.9652 588.689 74.9974 590.906C83.0616 595.14 101.408 597.962 101.408 597.962V591.914Z" fill="#492326"/>
<path id="Vector_45" d="M102.013 419.339C83.0616 419.339 65.7235 404.42 54.0303 404.42C54.0303 396.961 54.0303 396.961 54.0303 396.961C54.0303 396.961 92.1339 411.678 102.013 411.678C102.214 416.92 102.013 419.339 102.013 419.339Z" fill="#492326"/>
<path id="Vector_46" d="M54.0303 336.68C71.3684 337.285 88.7066 357.446 102.214 357.446C102.416 349.18 102.416 349.18 102.416 349.18C102.416 349.18 71.57 328.213 54.0303 328.213C54.0303 336.68 54.0303 336.68 54.0303 336.68Z" fill="#492326"/>
<path id="Vector_47" d="M54.2324 224.789C73.1834 224.789 84.0702 243.538 91.5296 243.538C91.5296 232.652 91.5296 232.652 91.5296 232.652C91.5296 232.652 79.03 215.918 54.2324 215.918C54.2324 224.789 54.2324 224.789 54.2324 224.789Z" fill="#492326"/>
<path id="Vector_48" d="M54.2324 243.337C73.5867 243.337 80.0381 257.852 91.5296 257.852C91.5296 269.747 91.5296 269.747 91.5296 269.747C90.1184 269.949 79.8365 271.36 70.3609 263.094C60.8854 254.828 54.2324 256.643 54.2324 256.643V243.337Z" fill="#492326"/>
<path id="Vector_49" d="M54.2324 174.992C71.369 174.992 80.8445 150.396 86.2879 155.638C91.7312 161.081 91.7312 162.089 91.7312 161.081C91.7312 160.073 91.7312 148.38 91.7312 148.38C91.7312 148.38 84.2718 141.929 80.6429 144.751C77.014 147.574 67.7401 161.081 62.6999 162.694C57.6597 164.307 54.434 164.307 54.434 164.307L54.2324 174.992Z" fill="#492326"/>
<path id="Vector_50" d="M54.2324 125.397C71.5706 125.397 85.0782 132.655 91.5296 135.88C91.5296 125.397 91.5296 125.397 91.5296 125.397C91.5296 125.397 84.2718 120.961 72.7802 118.341C61.2886 115.72 54.2324 115.921 54.2324 115.921V125.397Z" fill="#492326"/>
<path id="Vector_51" d="M54.2324 81.8498C71.1674 81.8498 80.0381 67.3341 91.328 67.3341C91.328 60.0763 91.328 60.0763 91.328 60.0763C91.328 60.0763 80.4413 61.4875 72.7802 67.3341C65.1192 73.1807 54.2324 74.7936 54.2324 74.7936V81.8498Z" fill="#492326"/>
<path id="Vector_52" d="M105.844 298.577C130.44 300.795 136.085 304.625 140.52 308.254C145.157 301.803 143.544 297.77 143.544 297.77C143.544 297.77 128.424 293.94 115.319 291.117C105.844 298.577 105.844 298.577 105.844 298.577Z" fill="#492326"/>
<path id="Vector_53" d="M122.98 264.707C132.658 264.707 140.52 256.643 143.544 256.643C143.544 250.796 143.544 250.796 143.544 250.796C143.544 250.796 137.899 254.425 133.262 256.643C128.625 258.86 122.98 260.07 122.98 260.07V264.707Z" fill="#492326"/>
<path id="Vector_54" d="M122.98 215.918C137.093 215.918 143.544 202.814 143.544 202.814L143.746 190.516C143.746 190.516 136.891 203.015 132.254 204.83C127.416 206.644 122.98 206.241 122.98 206.241V215.918Z" fill="#492326"/>
<path id="Vector_55" d="M122.98 171.363C134.27 171.363 143.544 181.443 143.544 181.443V169.347C143.544 169.347 132.658 162.492 122.98 162.492C122.98 171.363 122.98 171.363 122.98 171.363Z" fill="#492326"/>
<path id="Vector_56" d="M122.98 133.461C133.262 133.461 143.544 127.413 143.544 127.413V123.179C143.544 123.179 136.891 127.01 132.859 128.421C127.819 129.631 122.98 130.235 122.98 130.235V133.461Z" fill="#492326"/>
<path id="Vector_57" d="M122.98 97.5752C130.44 97.5752 143.544 105.236 143.544 105.236V99.7929C143.544 99.7929 131.65 93.9463 122.98 93.9463C122.98 97.5752 122.98 97.5752 122.98 97.5752Z" fill="#492326"/>
<path id="Vector_58" d="M101.408 445.548C68.5459 445.548 54.0303 467.12 54.0303 467.12L54.2319 478.41C54.2319 478.41 87.6986 455.427 101.408 455.427C101.408 445.548 101.408 445.548 101.408 445.548Z" fill="#492326"/>
</g>
</g>
</g>
<g id="Group_5">
<path id="Vector_59" opacity="0.15" d="M316.321 628.002L311.684 385.066C311.684 382.848 312.692 380.832 314.304 379.623C323.982 372.163 356.44 346.358 356.44 336.681V49.7945C356.44 45.964 353.215 42.7382 349.182 43.1415L331.643 44.3511C328.215 44.5527 325.393 47.5768 325.393 51.0041C325.191 90.519 324.183 303.617 322.772 313.093C322.167 317.73 313.901 322.568 308.055 325.592C303.821 328.012 297.168 332.85 297.168 316.318C297.168 302.004 292.329 75.8017 291.523 35.0772C291.523 31.6499 288.7 28.6258 285.072 28.6258C273.378 28.021 249.79 27.2145 249.79 29.029C249.79 31.4483 256.242 206.04 256.242 214.104C256.242 222.168 257.653 229.426 252.814 226.402C247.976 223.378 238.097 219.749 238.097 209.467C238.097 205.032 233.057 76.8098 231.847 45.5607C231.646 41.7302 228.622 38.9077 224.791 39.1093L210.679 39.7142C207.05 39.9158 204.026 43.1415 204.227 46.7704C206.042 79.229 214.106 218.136 214.106 227.41C214.106 235.676 217.332 237.49 224.388 244.345C231.444 251.401 247.169 267.126 248.581 271.158C249.992 275.191 249.992 316.117 249.992 316.117C249.992 316.117 250.194 618.123 252.814 630.22C255.234 642.114 300.394 645.743 314.103 632.639C315.716 631.631 316.321 629.817 316.321 628.002Z" fill="#773A10"/>
<g id="Group_6" opacity="0.4">
<path id="Vector_60" d="M212.695 186.685C227.009 186.685 237.291 177.815 237.291 177.815L236.887 169.549C236.887 169.549 222.372 179.428 212.09 179.428C212.695 186.685 212.695 186.685 212.695 186.685Z" fill="#492326"/>
<path id="Vector_61" d="M255.637 186.685C277.007 186.685 295.152 199.79 295.152 199.79L294.95 190.113C294.95 190.113 269.951 179.629 255.436 179.629C255.637 186.685 255.637 186.685 255.637 186.685Z" fill="#492326"/>
<path id="Vector_62" d="M255.234 172.573C266.322 172.573 291.321 162.896 294.346 159.872C294.144 153.824 294.144 151.203 294.144 151.203C294.144 151.203 266.927 166.928 255.032 166.928C255.234 172.573 255.234 172.573 255.234 172.573Z" fill="#492326"/>
<path id="Vector_63" d="M221.768 241.724C231.848 236.482 243.138 231.039 246.968 222.773C252.21 225.797 252.21 225.797 252.21 225.797C252.21 225.797 246.364 237.49 240.92 240.313C235.477 243.135 226.405 246.159 226.405 246.159L221.768 241.724Z" fill="#492326"/>
<path id="Vector_64" d="M256.646 218.741C265.919 218.741 295.757 228.821 295.757 228.821V234.466C295.757 234.466 261.484 223.579 256.646 223.579C256.646 220.354 256.646 218.741 256.646 218.741Z" fill="#492326"/>
<path id="Vector_65" d="M213.502 201.604C222.574 201.604 238.3 205.233 238.3 205.233V209.669C238.3 209.669 219.752 205.636 213.704 205.636C213.502 201.604 213.502 201.604 213.502 201.604Z" fill="#492326"/>
<path id="Vector_66" d="M248.984 271.562C259.266 266.32 287.088 263.296 296.362 263.296C296.362 268.134 296.362 268.134 296.362 268.134C296.362 268.134 254.428 274.586 249.388 276.602C249.388 273.174 248.984 271.562 248.984 271.562Z" fill="#492326"/>
<path id="Vector_67" d="M249.993 285.876C264.71 285.876 284.064 298.174 296.967 298.174C296.967 302.407 296.967 302.407 296.967 302.407C296.967 302.407 271.766 300.391 249.791 290.714C249.993 285.876 249.993 285.876 249.993 285.876Z" fill="#492326"/>
<path id="Vector_68" d="M324.385 230.636C335.473 230.636 346.763 223.579 356.642 223.579C356.642 229.224 356.642 229.628 356.642 229.628C356.642 229.628 334.667 236.885 324.385 236.885C324.385 230.636 324.385 230.636 324.385 230.636Z" fill="#492326"/>
<path id="Vector_69" d="M324.183 245.756C341.32 245.756 356.44 256.038 356.44 256.038V262.086C356.44 262.086 336.078 250.595 323.981 250.595C324.183 245.756 324.183 245.756 324.183 245.756Z" fill="#492326"/>
<path id="Vector_70" d="M250.396 366.317C288.701 366.317 311.684 390.106 311.684 390.106V400.187C311.684 400.187 274.79 376.196 250.396 376.196C250.396 366.317 250.396 366.317 250.396 366.317Z" fill="#492326"/>
<path id="Vector_71" d="M250.799 443.935C281.645 443.935 312.692 429.823 312.692 429.823L312.894 441.919C312.894 441.919 269.548 455.628 250.799 455.628C250.799 448.371 250.799 443.935 250.799 443.935Z" fill="#492326"/>
<path id="Vector_72" d="M251.202 525.384C280.233 525.384 313.902 500.99 313.902 500.99C313.902 500.99 313.902 500.99 313.7 488.692C291.12 488.692 273.782 516.11 251.202 516.11V525.384Z" fill="#492326"/>
<path id="Vector_73" d="M251.403 556.23C276.604 556.23 297.974 569.738 315.111 569.738C315.313 576.391 315.313 576.391 315.313 576.391C315.313 576.391 270.959 562.48 251.403 562.48C251.403 556.23 251.403 556.23 251.403 556.23Z" fill="#492326"/>
<path id="Vector_74" d="M252.21 606.027C278.217 606.027 290.112 593.931 315.716 593.931C315.313 606.027 315.716 601.188 315.716 601.188C315.716 601.188 270.959 612.68 252.21 612.68C252.21 606.027 252.21 606.027 252.21 606.027Z" fill="#492326"/>
<path id="Vector_75" d="M309.869 324.786C312.288 348.374 339.102 359.059 339.102 359.059L343.336 355.027C343.336 355.027 316.925 334.665 314.506 321.963C309.869 324.786 309.869 324.786 309.869 324.786Z" fill="#492326"/>
<path id="Vector_76" d="M324.587 203.217C345.554 203.217 356.642 193.137 356.642 193.137V186.685C356.642 186.685 336.482 198.58 324.789 198.58C324.587 203.217 324.587 203.217 324.587 203.217Z" fill="#492326"/>
<path id="Vector_77" d="M323.176 307.246C347.369 307.246 356.441 319.947 356.441 319.947V310.673C356.441 310.673 345.353 302.407 323.176 302.407C323.176 307.246 323.176 307.246 323.176 307.246Z" fill="#492326"/>
<path id="Vector_78" d="M324.99 157.251C338.699 157.251 356.642 171.968 356.642 171.968V162.493C356.642 162.493 335.877 149.993 324.99 149.993C324.99 157.251 324.99 157.251 324.99 157.251Z" fill="#492326"/>
<path id="Vector_79" d="M210.881 155.033C224.59 155.033 236.082 148.582 236.082 148.582L235.88 140.719C235.88 140.719 222.171 147.775 210.881 147.775C210.881 155.033 210.881 155.033 210.881 155.033Z" fill="#492326"/>
<path id="Vector_80" d="M253.823 133.461C279.427 121.97 293.741 128.219 293.741 128.219V135.88C293.741 135.88 268.137 136.889 255.033 144.146C253.823 133.461 253.823 133.461 253.823 133.461Z" fill="#492326"/>
<path id="Vector_81" d="M325.191 109.47C345.352 109.47 356.44 123.179 356.44 123.179V133.663C356.44 133.663 338.296 118.542 325.191 118.542C325.191 109.47 325.191 109.47 325.191 109.47Z" fill="#492326"/>
<path id="Vector_82" d="M208.26 107.656C227.614 97.172 234.469 103.422 234.469 103.422V109.268C234.469 109.268 208.461 109.873 208.663 115.921C208.26 107.656 208.26 107.656 208.26 107.656Z" fill="#492326"/>
</g>
</g>
<g id="Group_7">
<path id="Vector_83" opacity="0.1" d="M1151.17 623.567C1149.56 565.706 1157.83 400.791 1158.23 377.203C1158.63 354.422 1156.01 346.963 1147.95 339.301C1140.08 331.842 1136.46 330.632 1130.61 325.794C1124.76 320.955 1122.55 315.512 1122.34 306.036C1122.14 296.561 1122.34 48.5848 1122.34 48.5848L1144.12 47.98C1144.12 47.98 1145.33 272.368 1145.73 282.65C1146.54 312.891 1149.36 311.48 1156.82 314.101C1164.28 316.722 1170.93 318.133 1170.12 291.521C1169.92 283.658 1169.12 47.3752 1169.12 47.3752L1193.31 46.7704C1193.31 46.7704 1202.18 317.73 1202.38 325.391C1202.58 333.253 1201.37 340.309 1207.02 334.866C1212.66 329.221 1217.91 324.584 1221.53 320.552C1225.16 316.52 1228.39 312.085 1228.19 301.803C1227.99 291.521 1223.75 60.6812 1223.75 60.6812L1241.69 59.8748C1241.69 59.8748 1243.91 294.545 1244.11 301.399C1244.32 308.254 1244.11 328.012 1239.28 335.874C1234.44 343.737 1210.45 390.51 1210.45 390.51C1210.45 390.51 1213.67 603.809 1214.28 620.946C1214.48 638.284 1151.58 641.913 1151.17 623.567Z" fill="#773A10"/>
<g id="Group_8" opacity="0.5">
<path id="Vector_84" d="M1121.94 195.959C1138.47 195.959 1144.72 205.838 1144.72 205.838V213.297C1144.72 213.297 1134.84 203.015 1121.94 203.015C1121.94 195.959 1121.94 195.959 1121.94 195.959Z" fill="#492326"/>
<path id="Vector_85" d="M1121.94 247.974C1136.05 247.974 1144.92 242.732 1144.92 242.732L1144.72 251.804C1144.72 251.804 1134.84 258.457 1121.94 251.804C1121.94 247.974 1121.94 247.974 1121.94 247.974Z" fill="#492326"/>
<path id="Vector_86" d="M1169.32 230.232C1192.7 230.232 1199.16 244.345 1199.16 244.345V253.014C1199.16 253.014 1186.86 237.692 1169.32 237.692C1169.32 233.66 1169.32 230.232 1169.32 230.232Z" fill="#492326"/>
<path id="Vector_87" d="M1169.72 296.158C1195.12 296.158 1200.77 289.303 1200.77 289.303L1200.97 298.174C1200.97 298.174 1177.99 305.028 1169.32 305.028C1169.32 298.778 1169.72 296.158 1169.72 296.158Z" fill="#492326"/>
<path id="Vector_88" d="M1227.18 263.094C1238.47 263.094 1243.51 273.376 1243.51 273.376V279.223C1243.51 279.223 1240.28 269.949 1227.18 269.949C1227.18 263.094 1227.18 263.094 1227.18 263.094Z" fill="#492326"/>
<path id="Vector_89" d="M1169.32 199.79C1183.03 199.79 1197.34 187.492 1197.34 187.492L1196.94 176.807C1196.94 176.807 1183.43 192.935 1169.32 192.935C1169.32 199.79 1169.32 199.79 1169.32 199.79Z" fill="#492326"/>
<path id="Vector_90" d="M1225.57 173.984C1239.48 173.984 1242.7 181.242 1242.7 181.242V186.887C1242.7 186.887 1235.04 180.436 1225.77 180.436C1225.57 175.194 1225.57 173.984 1225.57 173.984Z" fill="#492326"/>
<path id="Vector_91" d="M1223.75 317.73C1241.69 329.221 1237.66 338.495 1237.66 338.495L1234.03 344.946C1234.03 344.946 1232.62 329.624 1220.12 321.963C1223.75 317.73 1223.75 317.73 1223.75 317.73Z" fill="#492326"/>
<path id="Vector_92" d="M1147.95 339.503C1154 331.439 1157.22 324.383 1159.64 315.109C1164.08 315.109 1164.08 315.109 1164.08 315.109C1164.08 315.109 1162.06 338.495 1151.78 343.938C1147.95 339.503 1147.95 339.503 1147.95 339.503Z" fill="#492326"/>
<path id="Vector_93" d="M1158.03 379.824C1189.88 379.824 1210.24 398.574 1210.24 398.574V412.888C1210.24 412.888 1177.99 390.913 1157.62 390.913C1158.03 379.824 1158.03 379.824 1158.03 379.824Z" fill="#492326"/>
<path id="Vector_94" d="M1155.41 448.371C1185.45 448.371 1210.85 436.073 1210.85 436.073L1211.05 452.604C1211.05 452.604 1174.16 463.088 1154.6 463.088C1155.41 449.58 1155.41 448.371 1155.41 448.371Z" fill="#492326"/>
<path id="Vector_95" d="M1154 493.732C1163.27 493.732 1212.26 517.522 1212.26 517.522L1212.06 510.264C1212.06 510.264 1176.58 485.466 1154 485.466V493.732Z" fill="#492326"/>
<path id="Vector_96" d="M1152.38 528.408C1171.74 528.408 1212.06 523.57 1212.06 523.57L1212.26 533.449L1151.78 540.505L1152.38 528.408Z" fill="#492326"/>
<path id="Vector_97" d="M1151.17 574.778C1179.4 574.778 1213.47 592.721 1213.47 592.721V600.382C1213.47 600.382 1161.86 582.641 1151.17 582.641C1151.17 576.996 1151.17 574.778 1151.17 574.778Z" fill="#492326"/>
<path id="Vector_98" d="M1121.94 180.435C1138.88 180.435 1144.52 168.742 1144.52 168.742V161.484C1144.52 161.484 1135.65 173.984 1122.14 173.984C1121.94 180.436 1121.94 180.435 1121.94 180.435Z" fill="#492326"/>
<path id="Vector_99" d="M1151.17 598.568C1170.12 598.568 1213.87 611.269 1213.87 611.269V617.317C1213.87 617.317 1163.67 607.841 1151.17 607.841C1151.17 598.568 1151.17 598.568 1151.17 598.568Z" fill="#492326"/>
<path id="Vector_100" d="M1169.12 156.243C1183.43 156.243 1196.13 143.743 1196.13 143.743L1195.93 136.889C1195.93 136.889 1181.01 151.203 1169.52 151.203C1169.12 156.243 1169.12 156.243 1169.12 156.243Z" fill="#492326"/>
<path id="Vector_101" d="M1224.56 120.155C1233.23 120.155 1242.1 130.639 1242.1 130.639V140.316C1242.1 140.316 1234.44 130.235 1224.56 130.235C1224.56 120.155 1224.56 120.155 1224.56 120.155Z" fill="#492326"/>
<path id="Vector_102" d="M1121.94 123.582C1132.42 123.582 1144.12 109.672 1144.12 109.672V121.97C1144.12 121.97 1137.06 136.889 1121.94 136.889C1121.94 123.582 1121.94 123.582 1121.94 123.582Z" fill="#492326"/>
</g>
</g>
<g id="Group_9">
<path id="Vector_103" opacity="0.15" d="M876.786 62.0925C874.166 142.937 866.706 258.86 866.505 269.747C866.101 280.634 869.529 284.868 876.383 293.537C883.238 302.206 934.244 369.542 934.244 369.542C934.244 369.542 941.502 376.599 941.099 388.493C940.696 399.783 943.317 612.478 943.72 636.268C943.72 637.679 944.526 638.889 945.736 639.494C952.994 642.719 977.993 652.598 1004 641.51C1005.41 640.905 1006.22 639.494 1006.22 638.082C1006.42 600.987 996.944 332.648 997.75 308.859C998.557 284.464 994.525 283.86 1005.41 273.779C1016.3 263.497 1025.77 253.215 1036.46 241.321C1046.34 230.232 1045.33 218.741 1045.33 213.902C1045.53 199.991 1044.12 35.4804 1044.12 35.4804L1012.87 35.2788C1012.87 35.2788 1011.46 201.604 1011.26 210.072C1011.06 218.539 1008.64 224.386 1004.4 228.418C1000.17 232.45 986.864 245.151 984.041 247.772C981.219 250.393 977.791 249.788 977.993 244.143C978.195 238.498 976.783 33.8676 976.783 33.8676L931.422 34.4724C931.422 34.4724 937.672 286.279 937.47 296.359C937.067 306.641 937.268 315.915 931.019 308.456C924.769 300.996 910.052 280.836 905.011 272.973C899.77 264.909 900.576 259.062 901.383 233.055C902.189 207.048 906.019 58.0603 906.019 58.0603L876.786 62.0925Z" fill="#773A10"/>
<g id="Group_10" opacity="0.4">
<path id="Vector_104" opacity="0.8" d="M868.521 231.039C881.02 231.039 901.382 225.394 901.382 225.394L901.584 219.547C901.584 219.547 881.02 225.192 868.924 225.192C868.521 231.039 868.521 231.039 868.521 231.039Z" fill="#492326"/>
<path id="Vector_105" opacity="0.8" d="M870.134 200.596C887.674 200.596 901.584 213.499 901.584 213.499V204.225C901.584 204.225 888.883 193.137 870.537 193.137C870.134 200.596 870.134 200.596 870.134 200.596Z" fill="#492326"/>
<path id="Vector_106" opacity="0.8" d="M874.77 291.722C885.455 281.037 904.608 272.973 904.608 272.973L901.584 266.521C901.584 266.521 878.802 279.626 870.939 286.682C874.77 291.722 874.77 291.722 874.77 291.722Z" fill="#492326"/>
<path id="Vector_107" opacity="0.8" d="M937.066 302.206C955.614 302.206 997.548 320.754 997.548 320.754V311.48C997.548 311.48 952.792 294.948 937.47 294.948C937.066 302.206 937.066 302.206 937.066 302.206Z" fill="#492326"/>
<path id="Vector_108" opacity="0.8" d="M936.462 245.151C969.324 245.151 977.792 235.071 977.792 235.071V225.394C977.792 225.394 955.615 237.49 936.261 237.49C936.462 245.151 936.462 245.151 936.462 245.151Z" fill="#492326"/>
<path id="Vector_109" opacity="0.8" d="M995.532 236.482C1001.98 255.433 1019.93 258.86 1019.93 258.86L1024.36 254.022C1024.36 254.022 1005.81 245.554 999.766 232.45C995.532 236.482 995.532 236.482 995.532 236.482Z" fill="#492326"/>
<path id="Vector_110" opacity="0.8" d="M1010.85 213.499C1031.42 213.499 1043.51 228.216 1043.51 228.216C1043.51 228.216 1045.13 226.805 1045.13 220.757C1039.89 216.12 1023.96 207.048 1011.06 207.048C1010.85 213.499 1010.85 213.499 1010.85 213.499Z" fill="#492326"/>
<path id="Vector_111" opacity="0.8" d="M935.454 202.007C957.026 202.007 977.791 213.297 977.791 213.297V202.007C977.791 202.007 953.195 188.701 935.454 188.701C935.454 202.007 935.454 202.007 935.454 202.007Z" fill="#492326"/>
<path id="Vector_112" opacity="0.8" d="M937.873 375.187C954.203 358.857 998.557 367.123 998.557 367.123V377.808C998.557 377.808 955.614 375.792 940.696 384.663C940.091 381.437 937.873 375.187 937.873 375.187Z" fill="#492326"/>
<path id="Vector_113" opacity="0.8" d="M940.897 417.122C975.977 417.122 999.767 407.646 999.767 407.646V417.122C999.767 417.122 968.114 425.992 941.099 425.992C940.897 417.122 940.897 417.122 940.897 417.122Z" fill="#492326"/>
<path id="Vector_114" opacity="0.8" d="M941.704 492.119C974.768 492.119 1002.99 517.723 1002.99 517.723V528.408C1002.99 528.408 971.34 501.393 941.704 501.393C941.704 492.119 941.704 492.119 941.704 492.119Z" fill="#492326"/>
<path id="Vector_115" opacity="0.8" d="M942.913 589.495C975.372 589.495 1004.81 576.995 1004.81 576.995V586.673C1004.81 586.673 972.348 599.374 942.913 599.374C942.913 589.495 942.913 589.495 942.913 589.495Z" fill="#492326"/>
<path id="Vector_116" opacity="0.8" d="M941.301 455.024C970.534 455.024 1000.98 446.354 1000.98 446.354L1001.18 456.435C1001.18 456.435 972.953 464.701 941.301 464.701C941.301 455.024 941.301 455.024 941.301 455.024Z" fill="#492326"/>
<path id="Vector_117" opacity="0.8" d="M943.115 618.93C966.703 618.93 1005.81 628.808 1005.81 628.808V634.05L943.115 626.389V618.93Z" fill="#492326"/>
<path id="Vector_118" opacity="0.8" d="M934.647 168.742C958.437 168.742 977.388 151.404 977.388 151.404L977.791 140.316C977.791 140.316 949.97 162.493 934.647 162.493C934.647 168.742 934.647 168.742 934.647 168.742Z" fill="#492326"/>
<path id="Vector_119" opacity="0.8" d="M1011.66 158.057C1034.24 158.057 1044.93 172.774 1044.93 172.774L1045.13 184.064C1045.13 184.064 1029 167.533 1011.66 167.533C1011.66 158.057 1011.66 158.057 1011.66 158.057Z" fill="#492326"/>
<path id="Vector_120" opacity="0.8" d="M872.956 150.799C897.149 152.815 903.802 140.316 903.802 140.316L904.003 130.639C904.003 130.639 896.342 144.953 873.359 144.953C872.956 150.799 872.956 150.799 872.956 150.799Z" fill="#492326"/>
<path id="Vector_121" opacity="0.8" d="M1011.86 140.316C1027.79 140.316 1044.72 127.413 1044.72 127.413V119.953C1044.72 119.953 1021.74 134.066 1012.06 134.066C1011.86 140.316 1011.86 140.316 1011.86 140.316Z" fill="#492326"/>
<path id="Vector_122" opacity="0.8" d="M933.236 109.47C960.252 109.47 977.187 122.978 977.187 122.978V130.034C977.187 130.034 947.147 119.752 933.236 119.752" fill="#492326"/>
</g>
</g>
<path id="Vector_123" d="M752.194 628.405C752.194 612.075 772.96 604.616 783.443 614.494C776.186 599.576 793.725 594.939 806.023 597.559C806.023 579.415 823.966 579.818 830.216 586.673C830.216 562.883 871.949 569.939 869.126 586.068C885.456 568.528 900.98 579.415 897.754 587.681C918.721 571.552 940.293 596.35 927.39 607.841C941.1 601.592 953.599 612.277 950.575 618.527C957.43 608.446 976.986 601.793 977.389 619.131C990.292 585.665 1028.19 596.551 1031.22 609.858C1048.35 585.262 1081.01 600.584 1077.18 612.277C1105.81 587.076 1131.01 607.64 1133.23 623.163C1136.66 603.608 1167.1 606.833 1172.14 613.486C1170.33 596.955 1225.57 594.939 1215.49 620.543C1247.34 607.64 1278.19 647.961 1236.25 662.275C1165.69 660.662 752.396 650.784 752.396 650.784V628.405H752.194Z" fill="#334126"/>
<path id="Vector_124" d="M454.219 640.3C475.993 637.881 465.913 607.035 450.187 610.261C453.816 595.14 424.785 593.124 425.188 603.406C419.14 583.245 392.931 587.681 393.133 598.366C388.496 584.858 365.109 592.318 369.141 602.398C361.279 591.31 351.4 594.334 346.158 602.801C351.4 586.471 334.264 580.423 322.167 593.527C335.07 557.641 285.475 562.883 288.499 581.633C273.58 557.238 239.71 558.851 242.734 577.6C221.364 570.141 216.929 594.535 234.065 599.374C214.509 594.737 206.243 600.382 206.647 612.478C197.977 590.302 179.631 593.124 171.365 599.374C181.446 578.407 151.406 565.907 137.697 578.608C139.915 555.424 91.9325 552.4 93.3437 570.947C85.6827 552.4 61.6915 563.69 65.7236 571.149C59.877 552.803 26.4103 559.456 35.4826 582.439C21.5718 573.971 7.66092 579.012 7.25771 592.922C6.8545 604.011 5.04004 620.543 5.04004 620.543C5.04004 620.543 209.267 630.018 240.718 631.026C272.169 632.034 454.219 640.3 454.219 640.3Z" fill="#334126"/>
<path id="Vector_125" d="M-5.64453 610.261C65.7242 610.261 483.453 628.002 596.353 628.002C709.252 628.002 1240.28 619.131 1291.49 619.131C1291.49 664.694 1291.49 726.386 1291.49 726.386H-3.83007L-5.64453 610.261Z" fill="#4C5F37"/>
<path id="Vector_126" opacity="0.4" d="M1038.68 635.663C926.987 635.663 758.243 646.953 631.835 646.953C505.428 646.953 367.126 628.808 268.54 628.808C169.955 628.808 52.0149 634.655 -5.24132 634.655H-5.64453V661.67H-5.44292L-5.64453 726.386H1291.49V640.3C1210.65 640.3 1150.37 635.663 1038.68 635.663Z" fill="#5A6C38"/>
<path id="Vector_127" d="M-3.83008 655.219C58.2647 653.203 241.323 707.032 333.861 707.032C426.398 707.032 579.619 655.824 665.907 655.824C752.194 655.824 898.561 694.734 1027.19 694.734C1155.81 694.734 1247.14 646.751 1290.89 646.751C1292.7 726.184 1291.29 726.588 1291.29 726.588H-3.83008V655.219Z" fill="#405735"/>
<path id="Vector_128" opacity="0.5" d="M-3.83008 689.895C65.1194 689.895 190.922 679.008 316.926 679.008C442.93 679.008 567.926 697.355 667.318 697.355C766.71 697.355 923.157 661.872 1012.27 661.872C1101.38 661.872 1231.21 697.355 1291.49 697.355C1291.49 726.386 1291.49 726.386 1291.49 726.386H-3.83008V689.895Z" fill="#485E2F"/>
<path id="Vector_129" d="M-5.64453 -81.0481V110.881C5.24222 130.84 28.8302 125.8 36.4912 120.962C44.1523 116.123 45.1603 98.1801 36.4912 88.7045C51.0069 104.631 67.7402 102.817 76.0061 96.3656C84.272 89.9142 86.8929 70.9632 81.0463 62.2941C91.5298 74.9953 102.013 70.9632 104.231 68.7455C102.417 75.1969 111.489 87.2933 120.561 90.519C129.633 93.7447 153.221 92.3335 153.221 74.5921C162.697 90.9222 178.221 86.8901 182.656 82.2531C180.842 93.7447 190.922 107.252 206.244 107.252C221.566 107.252 225.397 93.1399 222.574 88.7045C227.614 97.7768 242.533 104.631 253.017 98.1801C263.5 91.7287 265.718 82.2531 267.129 78.221C263.097 93.7447 266.121 100.398 275.395 103.22C284.467 106.043 295.354 106.043 297.572 98.5833C292.128 120.76 302.209 129.832 315.716 129.832C329.426 129.832 332.651 112.293 323.377 103.019C340.715 112.494 359.667 108.059 363.295 98.9865C366.924 89.9142 366.118 84.0676 366.118 77.213C369.747 95.9624 403.818 111.688 407.85 78.6242C405.23 104.43 409.665 107.656 416.116 114.913C424.785 111.284 437.89 103.623 427.406 80.8419C442.325 95.9624 465.51 94.5511 465.51 73.5841C465.51 99.3897 479.219 108.059 479.219 108.059C479.219 108.059 497.364 98.5833 489.703 77.213C508.251 93.9463 529.621 70.7616 528.21 54.0282C542.725 72.1728 579.014 65.923 579.014 38.5045C583.853 70.9632 616.916 63.3021 628.005 48.1816C619.537 74.9953 629.819 84.0676 629.819 84.0676C629.819 84.0676 660.06 75.3985 662.278 51.8106C661.27 80.4387 678.003 97.5752 694.132 72.576C694.132 93.9463 714.494 103.019 731.832 103.019C749.17 103.019 761.267 87.0917 752.799 70.3584C763.283 93.5431 800.983 86.6885 804.007 73.9873C798.967 105.236 826.789 119.752 832.635 84.2692C843.925 103.019 886.666 100.801 884.448 71.3664C888.48 102.615 899.972 105.035 899.972 105.035C899.972 105.035 915.496 96.3656 915.496 73.7857C924.971 90.1158 947.35 77.8178 947.35 58.8668C947.35 87.0917 964.083 91.527 965.897 91.1238C967.712 90.7206 984.042 81.0435 984.042 58.4636C989.889 84.4708 1049.77 79.4306 1049.36 47.98C1049.36 84.4708 1087.06 64.3102 1087.06 64.3102C1087.06 64.3102 1070.33 79.229 1073.35 102.011C1094.32 102.817 1102.79 88.3013 1105.61 75.1969C1099.76 100.196 1121.13 112.494 1135.65 93.3415C1142.5 116.929 1182.02 112.494 1184.24 95.5592C1179.8 119.147 1191.9 126.808 1191.9 126.808C1191.9 126.808 1210.45 121.365 1210.45 102.212C1218.71 140.719 1290.48 134.066 1290.48 92.1319C1290.48 50.1977 1290.48 -81.2498 1290.48 -81.2498H-5.64453V-81.0481Z" fill="#C9D96D"/>
<path id="Vector_130" d="M-5.64453 -80.4434V-50.2024C-5.64453 -50.2024 -5.64453 -49.7992 -5.64453 -48.9927C-5.64453 -42.1381 -5.64453 -6.25215 -5.64453 5.23942C-5.64453 17.9406 30.6446 25.6017 14.3145 -6.05054C23.3868 -1.01038 35.2816 -9.67947 35.2816 -25.4048C41.5314 -19.3566 52.2165 -18.9534 64.1113 -29.2353C64.5145 -24.3967 79.8366 -17.7437 86.8929 -29.2353C90.925 -23.1871 101.207 -26.4128 108.062 -38.7108C108.062 -30.4449 117.537 -18.5502 131.246 -26.816C128.424 -11.6955 139.714 5.64263 139.714 5.64263C139.714 5.64263 147.98 -3.63126 149.996 -24.3967C154.431 -17.9453 169.35 -7.05858 179.229 -28.8321C181.85 -21.7759 196.567 -12.502 204.43 -30.8482C205.034 -23.9935 211.486 -4.03448 232.654 -27.0176C230.638 -17.7437 235.679 4.02978 260.879 -6.85697C255.436 6.44906 274.185 22.376 285.677 13.9085C292.128 20.3599 316.724 22.1744 323.176 9.47316C330.635 14.9165 342.933 15.3197 350.796 3.02175C352.812 7.86031 367.529 11.8924 370.553 -1.6152C372.973 5.64264 386.279 7.8603 386.279 7.8603C386.279 7.8603 388.698 -10.8891 386.279 -22.1791C392.327 -17.7437 410.471 -11.2923 418.536 -24.5983C417.931 -16.7357 426.802 -4.4377 437.89 -10.2843C440.511 -1.4136 457.647 2.01371 466.115 -10.2843C467.526 -4.84091 483.05 0.60247 488.896 -11.2923C490.912 -6.45376 508.251 -1.6152 513.492 -15.7277C516.516 -8.67143 528.814 -1.6152 528.814 -1.6152C528.814 -1.6152 530.831 -12.3003 525.387 -19.3566C532.847 -15.5261 560.87 -10.8891 548.169 -25.4048C557.443 -22.5823 559.66 -32.2594 559.66 -32.2594C560.063 -27.8241 573.369 -15.3244 584.458 -36.6947C584.458 -31.2514 596.756 -18.7518 607.643 -31.6546C606.635 -25.808 610.465 -7.86501 610.465 -7.86501C610.465 -7.86501 625.182 -14.7196 628.206 -28.2273C631.634 -18.7518 636.674 -12.9052 647.561 -21.171C649.174 -16.3325 657.641 -12.3003 663.488 -22.7839C668.931 -17.9453 684.858 -15.3244 684.858 -33.0658C693.124 -28.2273 705.22 -24.8 714.091 -39.114C716.51 -32.0578 719.131 -18.9534 736.268 -27.2192C738.687 -18.3485 746.751 -14.7196 756.63 -21.171C756.63 -17.7437 765.097 -12.3003 770.339 -19.5582C771.75 -5.84894 787.072 3.82817 790.5 2.61854C793.927 1.20729 798.766 -4.8409 793.524 -20.7678C797.354 -16.3325 809.249 -16.3325 806.023 -28.2273C810.862 -24.8 821.346 -18.9534 823.765 -33.0658C827.595 -25.2032 848.966 -26.2112 850.377 -41.5333C850.377 -37.5012 855.82 -28.2273 864.288 -37.098C868.118 -30.0417 874.57 -26.2112 883.44 -35.4851C887.271 -30.6465 906.222 -24.1951 911.665 -46.3719C919.73 -40.3237 928.6 -37.9044 941.906 -48.9927H942.713C942.914 -38.9124 958.841 -33.6706 966.906 -43.3478C965.494 -39.9204 966.905 -26.0096 983.639 -26.0096C980.211 -17.1389 998.356 0.199249 1012.47 -12.7036C1012.47 -6.65537 1031.22 0.199249 1039.08 -12.7036C1038.48 -6.85698 1052.79 7.05388 1066.9 -7.6634C1062.06 -2.62323 1063.47 10.078 1063.47 10.078C1063.47 10.078 1071.74 16.5294 1078.39 -3.22806C1076.98 2.21532 1080.41 13.1021 1092.3 14.5133C1097.14 8.06191 1092.3 -3.22806 1092.3 -3.22806C1092.3 -3.22806 1097.75 4.6346 1107.02 -3.22806C1105.01 0.199257 1100.17 27.4161 1123.76 16.1262C1123.76 25.6017 1137.67 37.4965 1151.98 26.6097C1152.59 44.9559 1188.47 51.8105 1194.52 36.0852C1207.02 44.5527 1207.83 32.0531 1207.83 32.0531C1207.83 32.0531 1219.12 45.9639 1222.14 29.2306C1223.75 43.5447 1241.29 45.9639 1241.29 45.9639C1241.29 45.9639 1245.73 36.0852 1239.28 23.5856C1245.12 26.4081 1257.22 23.5856 1257.22 23.5856C1257.22 23.5856 1257.22 12.2956 1250.36 6.24745C1252.38 7.6587 1280.61 15.1181 1290.28 3.82817V-48.9927V-49.5976V-80.4434H-5.64453Z" fill="#B0C866"/>
<path id="Vector_131" opacity="0.2" d="M-5.64453 -77.0161V-46.7751C-5.64453 -46.7751 -5.64453 -46.3719 -5.64453 -45.5655C-5.64453 -38.7109 -5.64453 -2.82491 -5.64453 8.66666C-5.64453 21.3679 30.6446 29.0289 14.3145 -2.6233C23.3868 2.41686 35.2816 -6.25222 35.2816 -21.9775C41.5314 -15.9293 52.2165 -15.5261 64.1113 -25.8081C64.5145 -20.9695 79.8366 -14.3165 86.8929 -25.8081C90.925 -19.7599 101.207 -22.9856 108.062 -35.2836C108.062 -27.0177 117.537 -15.1229 131.246 -23.3888C128.424 -8.06668 139.714 9.27148 139.714 9.27148C139.714 9.27148 147.98 -0.00241852 149.996 -20.7679C154.431 -14.3165 169.35 -3.42973 179.229 -25.2032C181.85 -18.147 196.567 -8.8731 204.43 -27.2193C205.034 -20.3647 211.486 -0.405632 232.654 -23.3888C230.638 -14.1149 235.679 7.65863 260.879 -3.22813C255.436 10.0779 274.185 26.0048 285.677 17.5374C292.128 23.9888 316.724 25.8032 323.176 13.102C330.635 18.5454 342.933 18.9486 350.796 6.6506C352.812 11.4892 367.529 15.5213 370.553 2.01365C372.973 9.27148 386.279 11.4892 386.279 11.4892C386.279 11.4892 388.698 -7.26025 386.279 -18.5502C392.327 -14.1149 410.471 -7.66347 418.536 -20.9695C417.931 -13.1068 426.802 -0.808838 437.89 -6.65543C440.511 2.21526 457.647 5.64257 466.115 -6.65543C467.526 -1.21205 483.05 4.23132 488.896 -7.66346C490.912 -2.82491 508.251 2.01365 513.492 -12.0988C516.516 -5.04258 528.814 2.01365 528.814 2.01365C528.814 2.01365 530.831 -8.6715 525.387 -15.7277C532.847 -11.8972 560.87 -7.26025 548.169 -21.7759C557.443 -18.9534 559.66 -28.6305 559.66 -28.6305C560.063 -24.1952 573.369 -11.6956 584.458 -33.0659C584.458 -27.6225 596.756 -15.1229 607.643 -28.0257C606.635 -22.1791 610.465 -4.23616 610.465 -4.23616C610.465 -4.23616 625.182 -11.0908 628.206 -24.5984C631.634 -15.1229 636.674 -9.27631 647.561 -17.5422C649.174 -12.7036 657.641 -8.67149 663.488 -19.155C668.931 -14.3165 684.858 -11.6956 684.858 -29.437C693.124 -24.5984 705.22 -21.1711 714.091 -35.4852C716.51 -28.4289 719.131 -15.3245 736.268 -23.5904C738.687 -14.7197 746.751 -11.0908 756.63 -17.5422C756.63 -14.1149 765.097 -8.6715 770.339 -15.9293C771.75 -2.22009 787.072 7.45702 790.5 6.24738C793.927 4.83614 798.766 -1.21205 793.524 -17.139C797.354 -12.7036 809.249 -12.7036 806.023 -24.5984C810.862 -21.1711 821.346 -15.3245 823.765 -29.437C827.595 -21.5743 848.966 -22.5823 850.377 -37.9044C850.377 -33.8723 855.82 -24.5984 864.288 -33.4691C868.118 -26.4129 874.57 -22.5823 883.44 -31.8563C887.271 -27.0177 906.222 -20.5663 911.665 -42.743C919.73 -36.6948 928.6 -34.2755 941.906 -45.3639H942.713C942.914 -35.2836 958.841 -30.0418 966.906 -39.7189C965.494 -36.2916 966.905 -22.3807 983.639 -22.3807C980.211 -13.5101 998.356 3.82811 1012.47 -9.07471C1012.47 -3.02651 1031.22 3.82811 1039.08 -9.07471C1038.48 -3.22812 1052.79 10.6827 1066.9 -4.03455C1062.06 1.00562 1063.47 13.7068 1063.47 13.7068C1063.47 13.7068 1071.74 20.1582 1078.39 0.400803C1076.98 5.84418 1080.41 16.7309 1092.3 18.1422C1097.14 11.6908 1092.3 0.400803 1092.3 0.400803C1092.3 0.400803 1097.75 8.26346 1107.02 0.400803C1105.01 3.82811 1100.17 31.045 1123.76 19.755C1123.76 29.2305 1137.67 41.1253 1151.98 30.2386C1152.59 48.5848 1188.47 55.4394 1194.52 39.7141C1207.02 48.1815 1207.83 35.6819 1207.83 35.6819C1207.83 35.6819 1219.12 49.5928 1222.14 33.0611C1223.75 47.3751 1241.29 49.7944 1241.29 49.7944C1241.29 49.7944 1245.73 39.9157 1239.28 27.4161C1245.12 30.2386 1257.22 27.4161 1257.22 27.4161C1257.22 27.4161 1257.22 16.1261 1250.36 10.0779C1252.38 11.4892 1280.61 18.9486 1290.28 7.65863V-45.5655V-46.1703V-77.0161H-5.64453Z" fill="#82AC66"/>
<g id="Group_11">
<g id="Group_12">
<path id="Vector_132" d="M653.81 697.556C655.221 683.444 632.036 675.38 616.109 696.347C629.012 696.75 641.512 697.355 653.81 697.556Z" fill="#596B29"/>
<path id="Vector_133" d="M749.775 692.315C753.807 677.799 727.598 668.727 718.526 687.073C716.308 679.008 692.922 668.727 686.269 697.355C706.026 696.548 727.598 694.734 749.775 692.315Z" fill="#596B29"/>
<path id="Vector_134" d="M616.109 696.145C622.964 683.041 616.109 672.154 616.109 672.154C616.109 672.154 605.223 675.783 599.779 695.339C605.223 695.742 610.666 695.943 616.109 696.145Z" fill="#596B29"/>
<path id="Vector_135" d="M811.264 684.452C808.644 670.541 787.676 651.59 749.774 692.113C769.733 690.097 790.499 687.274 811.264 684.452Z" fill="#596B29"/>
<path id="Vector_136" d="M668.125 697.556C673.971 697.556 680.221 697.355 686.471 697.153C689.697 683.645 657.439 668.525 653.811 697.355C658.649 697.556 663.286 697.556 668.125 697.556Z" fill="#596B29"/>
<path id="Vector_137" d="M534.661 690.903C537.887 655.42 490.509 662.275 477.203 686.468C496.557 687.879 515.71 689.492 534.661 690.903Z" fill="#596B29"/>
<path id="Vector_138" d="M451.8 684.653C460.066 685.258 468.332 685.863 476.598 686.468C476.8 670.743 449.18 664.291 451.8 684.653Z" fill="#596B29"/>
<path id="Vector_139" d="M577.603 693.927C579.418 677.194 555.023 662.074 534.661 690.903C549.177 691.911 563.491 693.121 577.603 693.927Z" fill="#596B29"/>
<path id="Vector_140" d="M599.779 695.339C601.191 688.484 588.086 672.154 577.603 693.927C585.062 694.532 592.521 694.935 599.779 695.339Z" fill="#596B29"/>
</g>
</g>
<path id="Vector_141" d="M703.204 172.774C708.244 167.734 707.639 155.436 705.623 148.985C703.607 142.533 694.736 134.671 685.866 133.663C679.414 151.404 688.285 159.872 689.898 162.291C691.712 164.509 703.204 172.774 703.204 172.774Z" fill="#596B29"/>
<path id="Vector_142" d="M1056.01 191.725C1066.3 174.992 1080.81 164.912 1100.57 169.347C1100.57 169.347 1093.51 185.072 1082.63 191.725C1071.54 198.379 1056.01 191.725 1056.01 191.725Z" fill="#596B29"/>
<path id="Vector_143" d="M175.196 213.902C182.253 215.717 192.333 208.862 196.97 203.822C201.405 198.782 203.824 187.29 200.196 179.024C181.648 182.452 178.825 194.346 177.616 196.967C176.406 199.79 175.196 213.902 175.196 213.902Z" fill="#596B29"/>
<path id="Vector_144" d="M774.774 169.549C774.774 169.549 769.936 164.509 763.686 166.525C757.234 168.541 754.009 171.363 752.194 173.782C753.001 181.443 763.283 181.645 766.105 179.427C768.928 177.21 774.774 169.549 774.774 169.549Z" fill="#596B29"/>
<path id="Vector_145" d="M433.656 179.024C433.656 179.024 430.43 185.072 434.26 190.516C438.091 195.959 441.922 198.177 444.744 199.185C451.599 196.161 448.776 186.282 445.752 184.064C442.526 182.048 433.656 179.024 433.656 179.024Z" fill="#596B29"/>
<path id="Vector_146" d="M1267.9 242.732C1272.54 238.095 1271.94 226.805 1270.12 220.958C1268.31 215.112 1260.24 207.854 1252.18 207.048C1246.33 223.176 1254.4 231.039 1256.01 233.256C1257.22 235.273 1267.9 242.732 1267.9 242.732Z" fill="#596B29"/>
<path id="Vector_147" d="M569.538 172.573C573.973 173.379 580.223 168.742 582.844 165.315C585.465 161.888 586.473 154.428 583.852 149.388C572.159 152.211 570.949 159.872 570.143 161.686C569.74 163.702 569.538 172.573 569.538 172.573Z" fill="#596B29"/>
<path id="Vector_148" d="M20.1611 255.635C32.4591 255.836 42.9427 260.473 46.7732 272.771C46.7732 272.771 35.8864 273.981 28.6286 270.15C21.3708 266.32 20.1611 255.635 20.1611 255.635Z" fill="#596B29"/>
<path id="Vector_149" d="M630.021 141.525C630.021 141.525 628.61 145.356 630.021 149.993C631.432 154.831 636.472 157.452 636.472 157.452C636.472 157.452 640.908 150.396 639.496 147.574C638.085 144.953 630.021 141.525 630.021 141.525Z" fill="#596B29"/>
<path id="Vector_150" d="M949.769 7.45704C955.212 -1.61526 963.276 -7.05863 973.76 -4.63935C973.76 -4.63935 969.929 3.82812 964.083 7.45704C958.236 11.086 949.769 7.45704 949.769 7.45704Z" fill="#B0C866"/>
<path id="Vector_151" d="M704.817 9.06996C708.042 5.84425 707.639 -2.01841 706.429 -6.25214C705.22 -10.4859 699.373 -15.526 693.728 -16.1309C689.495 -4.84089 695.341 0.60248 696.349 2.21533C697.357 3.82818 704.817 9.06996 704.817 9.06996Z" fill="#B0C866"/>
<path id="Vector_152" d="M1213.27 46.7704C1213.27 46.7704 1206.41 48.1816 1204.8 54.633C1203.19 61.0845 1203.79 65.5198 1204.8 68.3423C1211.65 71.7696 1217.3 63.3021 1217.1 59.4716C1216.7 55.6411 1213.27 46.7704 1213.27 46.7704Z" fill="#B0C866"/>
<path id="Vector_153" d="M398.98 -6.05054C398.98 -6.05054 395.149 0.400869 396.963 4.23139C398.778 8.06192 402.81 10.078 402.81 10.078C402.81 10.078 405.633 6.24746 405.633 2.01372C405.633 -2.22001 398.98 -6.05054 398.98 -6.05054Z" fill="#B0C866"/>
<path id="Vector_154" d="M164.713 -8.06661C178.825 -8.26822 190.72 -3.42967 195.76 10.2796C195.76 10.2796 183.462 12.094 175.196 8.06191C166.527 4.02978 164.713 -8.06661 164.713 -8.06661Z" fill="#B0C866"/>
<path id="Vector_155" d="M843.925 8.06191C841.103 -3.42966 842.917 -14.1148 853.199 -20.7678C853.199 -20.7678 856.828 -11.0907 855.215 -3.42966C853.603 4.23139 843.925 8.06191 843.925 8.06191Z" fill="#B0C866"/>
<path id="Vector_156" d="M59.2726 -14.5181C59.2726 -14.5181 52.418 -13.1068 50.8052 -6.65541C49.1923 -0.204 49.7971 4.23134 50.8052 7.05383C57.6598 10.4811 63.3048 2.01367 63.1032 -1.81686C62.6999 -5.84899 59.2726 -14.5181 59.2726 -14.5181Z" fill="#B0C866"/>
<path id="Vector_157" d="M768.121 256.24C773.766 246.966 782.032 241.119 793.12 243.74C793.12 243.74 789.088 252.611 783.04 256.24C776.79 260.07 768.121 256.24 768.121 256.24Z" fill="#84842E"/>
<path id="Vector_158" d="M530.225 250.595C530.225 250.595 523.37 250.191 519.943 255.836C516.516 261.683 516.113 266.118 516.314 268.941C521.959 273.981 529.822 267.328 530.427 263.699C531.031 260.07 530.225 250.595 530.225 250.595Z" fill="#84842E"/>
<path id="Vector_159" d="M1115.09 262.288C1104.4 260.272 1096.13 254.627 1094.52 243.337C1094.52 243.337 1104.2 243.941 1109.84 248.377C1115.49 252.611 1115.09 262.288 1115.09 262.288Z" fill="#84842E"/>
<path id="Vector_160" d="M816.305 242.329C816.305 242.329 814.894 246.159 816.305 250.796C817.716 255.635 822.756 258.256 822.756 258.256C822.756 258.256 827.192 251.199 825.78 248.377C824.369 245.756 816.305 242.329 816.305 242.329Z" fill="#84842E"/>
<path id="Vector_161" d="M217.936 273.981C220.759 271.158 220.356 264.102 219.348 260.473C218.34 256.844 213.098 252.409 208.259 251.804C204.63 261.885 209.67 266.723 210.477 267.933C211.283 269.344 217.936 273.981 217.936 273.981Z" fill="#84842E"/>
<path id="Vector_162" d="M169.753 258.86C169.753 258.86 165.922 265.312 167.737 269.142C169.551 272.973 173.584 274.989 173.584 274.989C173.584 274.989 176.406 271.158 176.406 266.925C176.406 262.691 169.753 258.86 169.753 258.86Z" fill="#84842E"/>
<path id="Vector_163" d="M22.9834 338.898C27.822 331.036 34.8782 325.995 44.1521 328.213C44.1521 328.213 40.7248 335.673 35.483 338.898C30.4428 342.326 22.9834 338.898 22.9834 338.898Z" fill="#84842E"/>
<path id="Vector_164" d="M1109.84 339.906C1107.63 333.656 1078.39 355.833 1077.59 369.744C1094.52 375.591 1117.51 361.881 1109.84 339.906Z" fill="#596B29"/>
<path id="Vector_165" d="M1042.31 377.808C1045.94 374.179 1045.53 365.309 1044.12 360.672C1042.71 356.035 1036.26 350.39 1029.81 349.583C1025.17 362.285 1031.62 368.534 1032.83 370.147C1034.04 371.962 1042.31 377.808 1042.31 377.808Z" fill="#597F2D"/>
<path id="Vector_166" d="M1067.51 399.985C1067.51 399.985 1063.27 405.63 1066.3 411.477C1069.32 417.525 1072.75 420.347 1075.37 421.557C1082.63 419.541 1081.42 409.259 1078.59 406.84C1075.97 404.42 1067.51 399.985 1067.51 399.985Z" fill="#596B29"/>
<path id="Vector_167" d="M673.971 350.39C675.785 339.301 681.229 330.632 692.72 328.616C692.72 328.616 692.317 338.495 688.083 344.543C683.648 350.591 673.971 350.39 673.971 350.39Z" fill="#596B29"/>
<path id="Vector_168" d="M719.534 420.952C723.365 417.122 722.76 408.049 721.349 403.412C719.937 398.574 713.284 392.929 706.833 392.122C701.994 405.227 708.647 411.477 709.857 413.291C711.067 415.105 719.534 420.952 719.534 420.952Z" fill="#597F2D"/>
<path id="Vector_169" d="M682.841 469.539C682.841 469.539 675.986 470.951 674.374 477.402C672.761 483.853 673.365 488.289 674.374 491.111C681.228 494.538 686.873 486.071 686.672 482.24C686.268 478.41 682.841 469.539 682.841 469.539Z" fill="#596B29"/>
<path id="Vector_170" d="M461.074 423.573C447.566 420.146 437.486 412.485 436.276 398.171C436.276 398.171 448.373 399.783 455.429 405.63C462.284 411.477 461.074 423.573 461.074 423.573Z" fill="#597F2D"/>
<path id="Vector_171" d="M231.646 392.526C234.469 380.228 230.84 374.381 222.372 367.93C213.905 374.784 220.558 383.856 221.364 384.461C222.171 385.066 231.646 392.526 231.646 392.526Z" fill="#596B29"/>
<path id="Vector_172" d="M198.582 467.523C205.84 455.83 216.122 448.572 229.831 451.798C229.831 451.798 224.791 462.886 217.13 467.523C209.469 472.362 198.582 467.523 198.582 467.523Z" fill="#597F2D"/>
<path id="Vector_173" d="M589.699 397.364C589.699 397.364 582.844 396.155 579.014 401.598C574.982 407.041 574.175 411.275 573.974 414.299C579.014 419.944 587.481 414.098 588.691 410.469C589.901 406.84 589.699 397.364 589.699 397.364Z" fill="#596B29"/>
<path id="Vector_174" d="M483.654 494.135C481.033 478.612 484.46 464.701 498.774 456.838C498.774 456.838 502.806 470.144 499.782 480.023C496.758 490.103 483.654 494.135 483.654 494.135Z" fill="#596B29"/>
<path id="Vector_175" d="M871.142 407.848C874.166 404.824 873.762 397.163 872.553 393.332C871.343 389.3 865.9 384.663 860.456 384.058C856.424 394.945 861.868 399.985 862.876 401.598C864.085 402.808 871.142 407.848 871.142 407.848Z" fill="#596B29"/>
<path id="Vector_176" d="M891.705 453.814C888.278 442.121 889.689 431.032 900.173 423.775C900.173 423.775 904.407 433.653 902.995 441.516C901.584 449.379 891.705 453.814 891.705 453.814Z" fill="#597F2D"/>
<path id="Vector_177" d="M185.478 409.864C185.478 409.864 178.623 411.275 177.01 417.726C175.397 424.178 176.002 428.613 177.01 431.436C183.865 434.863 189.51 426.396 189.308 422.565C189.107 418.734 185.478 409.864 185.478 409.864Z" fill="#596B29"/>
<path id="Vector_178" d="M622.763 524.578C623.368 521.554 606.634 523.973 603.207 529.416C608.65 535.666 620.948 535.263 622.763 524.578Z" fill="#597F2D"/>
<path id="Vector_179" d="M138.504 444.54C129.23 442.524 121.972 437.484 120.964 427.605C120.964 427.605 129.431 428.412 134.27 432.242C139.108 436.274 138.504 444.54 138.504 444.54Z" fill="#597F2D"/>
<path id="Vector_180" d="M141.73 389.098C145.157 385.671 144.754 377.607 143.342 373.373C141.931 369.139 136.085 363.897 130.238 363.293C126.004 374.986 131.851 380.631 132.859 382.244C134.069 383.655 141.73 389.098 141.73 389.098Z" fill="#596B29"/>
<g id="Group_13">
<g id="Group_14">
<path id="Vector_181" d="M631.835 646.55C634.053 646.55 636.069 646.55 638.287 646.55C637.279 641.106 627.602 636.671 613.086 646.348C619.336 646.55 625.586 646.55 631.835 646.55Z" fill="#6B772A"/>
<path id="Vector_182" d="M653.81 646.55C652.197 639.292 643.125 633.849 638.488 646.55C643.327 646.55 648.569 646.55 653.81 646.55Z" fill="#6B772A"/>
<path id="Vector_183" d="M696.551 645.743C696.349 641.711 684.656 636.873 679.011 646.147C684.857 645.945 690.502 645.945 696.551 645.743Z" fill="#6B772A"/>
<path id="Vector_184" d="M679.011 646.147C677.802 638.486 665.302 633.849 653.811 646.55C662.076 646.348 670.544 646.348 679.011 646.147Z" fill="#6B772A"/>
<path id="Vector_185" d="M732.034 644.937C732.034 644.937 714.091 632.437 696.954 645.945C708.446 645.542 720.139 645.139 732.034 644.937Z" fill="#6B772A"/>
<path id="Vector_186" d="M612.884 646.348C608.449 636.066 580.022 636.469 574.176 645.34C587.079 645.945 599.981 646.348 612.884 646.348Z" fill="#6B772A"/>
<path id="Vector_187" d="M560.668 644.937C559.458 639.292 555.426 635.865 545.749 644.332C550.588 644.534 555.628 644.735 560.668 644.937Z" fill="#6B772A"/>
<path id="Vector_188" d="M464.098 639.292C463.09 635.663 461.074 628.607 451.598 638.486C451.8 630.825 438.091 626.792 429.019 636.873C440.51 637.679 452.405 638.486 464.098 639.292Z" fill="#6B772A"/>
<path id="Vector_189" d="M573.974 645.542C572.16 638.687 567.12 629.413 561.475 645.139C565.708 645.139 569.942 645.34 573.974 645.542Z" fill="#6B772A"/>
<path id="Vector_190" d="M429.019 636.671C428.213 626.792 405.431 628.405 397.972 634.453C398.375 627.8 390.915 622.357 383.456 633.445C379.827 626.389 365.11 621.349 355.836 631.631C355.836 623.567 330.837 612.478 329.627 630.22C360.876 631.833 394.343 634.252 429.019 636.671Z" fill="#6B772A"/>
<path id="Vector_191" d="M516.314 642.719C515.306 636.469 506.032 633.042 499.379 641.711C499.581 633.647 473.372 628.607 464.3 639.292C481.436 640.502 498.775 641.711 516.314 642.719Z" fill="#6B772A"/>
<path id="Vector_192" d="M544.741 644.13C542.322 635.461 525.589 627.8 516.113 642.518C525.79 643.324 535.266 643.727 544.741 644.13Z" fill="#6B772A"/>
</g>
</g>
<g id="Group_15">
<path id="Vector_193" d="M253.823 628.808C253.823 622.559 229.63 622.155 223.38 629.212C222.372 620.946 201.607 617.922 192.736 629.817C189.712 621.349 182.656 619.736 176.003 630.22C173.987 622.155 157.656 620.139 150.6 630.825C150.197 625.583 142.334 616.51 137.899 631.228C136.689 620.543 113.303 616.51 103.223 632.236C150.197 630.623 203.219 629.01 253.823 628.808Z" fill="#596B29"/>
<path id="Vector_194" d="M85.4814 632.639C85.4814 625.381 65.1191 622.357 65.1191 633.244C71.5706 633.042 78.4252 632.841 85.4814 632.639Z" fill="#6B772A"/>
<path id="Vector_195" d="M103.223 632.236C103.223 626.994 90.5216 620.744 85.4814 632.841C91.328 632.437 97.1746 632.236 103.223 632.236Z" fill="#6B772A"/>
</g>
<g id="Group_16">
<path id="Vector_196" d="M969.325 636.873C967.712 630.22 946.946 628.204 940.092 637.679C949.971 637.477 959.648 637.074 969.325 636.873Z" fill="#6B772A"/>
<path id="Vector_197" d="M1038.88 635.865C1085.65 635.865 1121.54 636.671 1153.39 637.679C1150.77 630.824 1138.88 626.389 1130.21 637.074C1128.19 629.615 1111.46 622.559 1101.38 636.469C1100.97 628.405 1087.87 616.914 1077.79 636.066C1075.57 628.607 1058.23 614.091 1045.33 635.865C1044.12 629.212 1041.5 622.559 1032.43 635.865C1030.21 629.615 1019.32 622.76 1012.47 635.865C1012.47 626.389 992.912 626.994 984.445 636.469C983.638 630.421 975.776 626.188 969.324 636.873C994.122 636.268 1017.71 635.865 1038.88 635.865Z" fill="#596B29"/>
<path id="Vector_198" d="M939.89 637.679C939.689 632.841 931.826 627.397 925.173 638.082C930.011 638.082 934.85 637.881 939.89 637.679Z" fill="#6B772A"/>
<path id="Vector_199" d="M924.77 638.284C923.157 630.623 895.335 631.228 895.335 639.292C905.214 638.889 915.092 638.687 924.77 638.284Z" fill="#6B772A"/>
</g>
<path id="Vector_200" d="M363.497 477.805C353.618 472.563 347.167 464.297 348.981 452.806C348.981 452.806 358.255 456.435 362.489 462.483C366.924 468.531 363.497 477.805 363.497 477.805Z" fill="#596B29"/>
<path id="Vector_201" d="M378.819 386.881C378.819 386.881 371.964 385.671 368.134 391.114C364.102 396.558 363.295 400.791 363.094 403.816C368.134 409.461 376.601 403.614 377.811 399.985C378.819 396.356 378.819 386.881 378.819 386.881Z" fill="#597F2D"/>
<path id="Vector_202" d="M796.951 461.072C795.54 454.62 763.888 473.571 761.67 487.482C778 494.942 802.193 483.652 796.951 461.072Z" fill="#597F2D"/>
<path id="Vector_203" d="M825.78 174.186C825.78 174.186 819.531 171.363 814.289 175.395C809.047 179.629 807.031 183.661 806.225 186.282C809.652 193.137 819.329 189.508 821.345 186.282C823.16 183.258 825.78 174.186 825.78 174.186Z" fill="#596B29"/>
<path id="Vector_204" d="M523.371 207.249C529.016 203.62 500.186 180.637 486.477 183.46C485.065 201.201 504.016 219.95 523.371 207.249Z" fill="#596B29"/>
<path id="Vector_205" d="M624.981 188.5C625.585 185.476 608.852 187.895 605.425 193.338C610.868 199.387 623.166 198.983 624.981 188.5Z" fill="#596B29"/>
<path id="Vector_206" d="M395.955 210.475C384.866 209.064 376.802 204.427 376.601 194.75C376.601 194.75 386.681 195.153 392.326 198.58C397.769 202.209 395.955 210.475 395.955 210.475Z" fill="#596B29"/>
<path id="Vector_207" d="M606.029 358.656C610.666 361.478 619.335 358.656 623.569 356.035C627.803 353.414 631.835 345.551 631.028 339.1C617.118 337.689 612.682 345.551 611.271 347.164C609.658 348.777 606.029 358.656 606.029 358.656Z" fill="#597F2D"/>
<path id="Vector_208" d="M-5.24138 675.38C-12.4992 611.672 66.1273 620.744 63.5065 660.662C101.61 622.76 136.488 645.34 136.488 668.323C159.471 640.3 209.47 647.558 209.47 686.871C247.976 660.662 284.669 703.604 269.347 726.386C230.638 726.386 -5.24138 726.386 -5.24138 726.386V675.38Z" fill="#84842E"/>
<path id="Vector_209" d="M-5.64453 661.872C12.9033 656.025 27.0157 667.718 29.2334 674.573C37.9025 660.259 60.4824 665.098 61.0872 674.573C73.7884 647.759 83.8688 660.864 84.272 669.936C92.5378 647.759 126.408 658.646 123.787 674.573C141.931 651.388 161.487 676.791 151.407 689.492C169.955 682.234 168.14 697.758 166.931 702.193C177.011 687.678 199.188 699.975 195.156 710.862C211.083 703.604 218.744 715.298 216.123 720.943C229.227 710.056 263.702 713.08 261.081 726.588C241.525 726.588 -5.03971 726.588 -5.03971 726.588V661.872H-5.64453Z" fill="#6B772A"/>
<path id="Vector_210" d="M-5.64453 702.798C-5.64453 672.557 41.3298 677.396 39.7169 695.943C63.9097 678.404 85.0784 692.516 82.4575 702.798C92.9411 674.775 132.859 689.694 132.859 708.04C157.455 695.742 183.866 707.435 170.963 726.386C146.367 726.386 -5.44292 726.386 -5.44292 726.386V702.798H-5.64453Z" fill="#596B29"/>
<path id="Vector_211" d="M1290.89 675.38C1298.14 611.672 1213.47 620.744 1215.89 660.662C1177.79 622.76 1144.72 653.203 1148.96 675.38C1130 630.825 1072.55 651.187 1069.93 686.871C1045.13 655.622 989.888 685.661 1010.05 726.386C1048.76 726.386 1290.69 726.386 1290.69 726.386V675.38H1290.89Z" fill="#84842E"/>
<path id="Vector_212" d="M1290.89 686.468C1290.89 635.26 1230 640.703 1225.97 671.347C1220.73 640.905 1166.29 651.388 1162.66 686.468C1151.98 651.388 1091.9 664.493 1091.9 695.54C1078.39 677.799 1027.19 699.169 1038.27 726.386C1072.95 726.386 1290.89 726.386 1290.89 726.386V686.468Z" fill="#6B772A"/>
<path id="Vector_213" d="M1290.89 674.17C1275.97 669.331 1257.62 679.008 1255.81 684.452C1248.75 672.96 1230.61 676.791 1230.2 684.452C1219.92 662.88 1211.86 673.363 1211.45 680.823C1204.8 662.88 1177.38 671.751 1179.6 684.452C1164.88 665.702 1149.16 686.266 1157.22 696.548C1142.1 690.702 1143.71 703.201 1144.72 706.83C1136.66 695.137 1118.71 705.016 1121.94 713.886C1109.04 708.04 1102.79 717.314 1105.01 721.951C1094.32 713.08 1066.5 715.701 1068.72 726.588C1084.44 726.588 1290.68 726.588 1290.68 726.588V674.17H1290.89Z" fill="#596B29"/>
</g>
</g>
<defs>
<linearGradient id="paint0_linear_587_9922" x1="641.945" y1="727.307" x2="641.945" y2="-81.0482" gradientUnits="userSpaceOnUse">
<stop stop-color="#E8E4D2"/>
<stop offset="0.4089" stop-color="#EFE5C8"/>
<stop offset="1" stop-color="#FDE5B4"/>
</linearGradient>
<linearGradient id="paint1_linear_587_9922" x1="837.91" y1="376.087" x2="1026.95" y2="376.087" gradientUnits="userSpaceOnUse">
<stop offset="1.33195e-07" stop-color="#FDD06A"/>
<stop offset="0.176" stop-color="#FCD16E"/>
<stop offset="0.357" stop-color="#FBD47B"/>
<stop offset="0.5404" stop-color="#F8D98F"/>
<stop offset="0.7253" stop-color="#F3DFA9"/>
<stop offset="0.9097" stop-color="#ECE7C9"/>
<stop offset="1" stop-color="#E9ECDB"/>
</linearGradient>
<linearGradient id="paint2_linear_587_9922" x1="703.752" y1="349.529" x2="980.873" y2="349.529" gradientUnits="userSpaceOnUse">
<stop offset="1.33195e-07" stop-color="#FDD06A"/>
<stop offset="0.176" stop-color="#FCD16E"/>
<stop offset="0.357" stop-color="#FBD47B"/>
<stop offset="0.5404" stop-color="#F8D98F"/>
<stop offset="0.7253" stop-color="#F3DFA9"/>
<stop offset="0.9097" stop-color="#ECE7C9"/>
<stop offset="1" stop-color="#E9ECDB"/>
</linearGradient>
<linearGradient id="paint3_linear_587_9922" x1="572.115" y1="430.128" x2="684.706" y2="430.128" gradientUnits="userSpaceOnUse">
<stop offset="1.33195e-07" stop-color="#FDD06A"/>
<stop offset="0.176" stop-color="#FCD16E"/>
<stop offset="0.357" stop-color="#FBD47B"/>
<stop offset="0.5404" stop-color="#F8D98F"/>
<stop offset="0.7253" stop-color="#F3DFA9"/>
<stop offset="0.9097" stop-color="#ECE7C9"/>
<stop offset="1" stop-color="#E9ECDB"/>
</linearGradient>
<linearGradient id="paint4_linear_587_9922" x1="559.997" y1="423.789" x2="368.335" y2="423.789" gradientUnits="userSpaceOnUse">
<stop offset="1.33195e-07" stop-color="#FDD06A"/>
<stop offset="0.176" stop-color="#FCD16E"/>
<stop offset="0.357" stop-color="#FBD47B"/>
<stop offset="0.5404" stop-color="#F8D98F"/>
<stop offset="0.7253" stop-color="#F3DFA9"/>
<stop offset="0.9097" stop-color="#ECE7C9"/>
<stop offset="1" stop-color="#E9ECDB"/>
</linearGradient>
<linearGradient id="paint5_linear_587_9922" x1="150.445" y1="436.787" x2="279.388" y2="436.787" gradientUnits="userSpaceOnUse">
<stop offset="1.33195e-07" stop-color="#FDD06A"/>
<stop offset="0.176" stop-color="#FCD16E"/>
<stop offset="0.357" stop-color="#FBD47B"/>
<stop offset="0.5404" stop-color="#F8D98F"/>
<stop offset="0.7253" stop-color="#F3DFA9"/>
<stop offset="0.9097" stop-color="#ECE7C9"/>
<stop offset="1" stop-color="#E9ECDB"/>
</linearGradient>
<linearGradient id="paint6_linear_587_9922" x1="33.1058" y1="435.697" x2="137.827" y2="435.697" gradientUnits="userSpaceOnUse">
<stop offset="1.33195e-07" stop-color="#FDD06A"/>
<stop offset="0.176" stop-color="#FCD16E"/>
<stop offset="0.357" stop-color="#FBD47B"/>
<stop offset="0.5404" stop-color="#F8D98F"/>
<stop offset="0.7253" stop-color="#F3DFA9"/>
<stop offset="0.9097" stop-color="#ECE7C9"/>
<stop offset="1" stop-color="#E9ECDB"/>
</linearGradient>
<linearGradient id="paint7_linear_587_9922" x1="-5.71368" y1="262.144" x2="1289.6" y2="262.144" gradientUnits="userSpaceOnUse">
<stop offset="1.33195e-07" stop-color="#FDD06A"/>
<stop offset="0.176" stop-color="#FCD16E"/>
<stop offset="0.357" stop-color="#FBD47B"/>
<stop offset="0.5404" stop-color="#F8D98F"/>
<stop offset="0.7253" stop-color="#F3DFA9"/>
<stop offset="0.9097" stop-color="#ECE7C9"/>
<stop offset="1" stop-color="#E9ECDB"/>
</linearGradient>
<linearGradient id="paint8_linear_587_9922" x1="1023.11" y1="444.373" x2="1122.02" y2="444.373" gradientUnits="userSpaceOnUse">
<stop offset="1.33195e-07" stop-color="#FDD06A"/>
<stop offset="0.176" stop-color="#FCD16E"/>
<stop offset="0.357" stop-color="#FBD47B"/>
<stop offset="0.5404" stop-color="#F8D98F"/>
<stop offset="0.7253" stop-color="#F3DFA9"/>
<stop offset="0.9097" stop-color="#ECE7C9"/>
<stop offset="1" stop-color="#E9ECDB"/>
</linearGradient>
<linearGradient id="paint9_linear_587_9922" x1="1227.91" y1="448.795" x2="1291.42" y2="448.795" gradientUnits="userSpaceOnUse">
<stop offset="1.33195e-07" stop-color="#FDD06A"/>
<stop offset="0.176" stop-color="#FCD16E"/>
<stop offset="0.357" stop-color="#FBD47B"/>
<stop offset="0.5404" stop-color="#F8D98F"/>
<stop offset="0.7253" stop-color="#F3DFA9"/>
<stop offset="0.9097" stop-color="#ECE7C9"/>
<stop offset="1" stop-color="#E9ECDB"/>
</linearGradient>
<clipPath id="clip0_587_9922">
<rect width="1280" height="720" fill="white"/>
</clipPath>
<clipPath id="clip1_587_9922">
<rect width="1280" height="720" fill="white"/>
</clipPath>
</defs>
</svg>
