<svg width="496" height="52" viewBox="0 0 496 52" fill="none" xmlns="http://www.w3.org/2000/svg">
<g id="Bar/Example">
<g id="Bar/Background">
<rect id="Fill" width="496" height="48" rx="13" fill="#96786F"/>
<g id="MaskGroup">
<mask id="mask0_673_16619" style="mask-type:alpha" maskUnits="userSpaceOnUse" x="0" y="0" width="496" height="48">
<rect id="Rectangle" width="496" height="48" rx="14" fill="#D9D9D9"/>
</mask>
<g mask="url(#mask0_673_16619)">
<path id="Vector" fill-rule="evenodd" clip-rule="evenodd" d="M172.557 59.4681C244.278 62.413 314.171 67.0899 385.63 71.2128C440.618 74.4849 496.233 77.6654 551.352 80.0213L577 81C576.409 75.7974 575.36 69.6488 573.85 64.6097C573.325 62.7446 572.735 60.9123 572.013 59.0799C571.291 57.2475 570.898 56.135 570.307 54.6626C542.091 53.1247 513.941 51.3905 485.725 49.5581C450.488 47.3004 415.317 45.0099 380.014 43.0139C342.678 40.8216 305.275 38.9565 267.807 37.5823C202.78 35.2264 138.146 34.5065 73.2498 35.3245C48.5774 35.6517 23.8393 36.1753 -0.964333 36.8951L-7.00121 37.1242C-27.5397 37.7131 -48.0781 38.3348 -68.551 39.0874C-72.4383 45.1391 -75.5937 52.2491 -78 58.4894C-63.564 57.8022 -49.3843 57.2723 -34.9484 56.9778C33.9424 55.8757 103.909 56.3828 172.557 59.4681Z" fill="#88716A"/>
<path id="Vector_2" fill-rule="evenodd" clip-rule="evenodd" d="M130.23 -62.4428C207.044 -64.1094 284.002 -62.035 359.997 -56.2495L410.536 -52.2173C418.156 -50.0883 425.515 -47.7981 432.679 -45.3788C409.754 -47.6045 387.09 -49.8948 363.905 -52.0238C329.18 -55.3433 294.141 -57.7979 258.92 -59.3784C219.237 -60.9751 179.357 -60.9751 139.673 -59.3784C130.034 -59.0236 120.461 -58.6365 110.822 -58.1849C117.334 -59.6687 123.847 -61.0235 130.36 -62.2815L130.23 -62.4428ZM492.856 -19.3795C465.807 -20.4118 438.736 -21.659 411.643 -23.1214C376.344 -25.1858 342.283 -30.8953 306.984 -33.0566C274.574 -34.9958 241.935 -35.8365 209.294 -35.5726C178.684 -35.3468 148.205 -34.2178 117.725 -32.6372C84.3151 -30.8953 51.0353 -28.6373 17.6903 -26.5406C21.2072 -28.2503 24.7892 -29.9599 28.4363 -31.5727C57.7433 -33.0888 87.0505 -34.5081 116.292 -35.5404C147.032 -36.6049 177.837 -37.1855 208.707 -36.9919C241.711 -36.8459 274.673 -35.7906 307.44 -33.8307C342.218 -31.734 376.605 -28.1857 411.643 -27.0567C435.154 -26.2826 458.599 -25.6052 482.11 -24.9923C485.692 -23.2181 489.209 -21.3795 492.596 -19.4763L492.856 -19.3795ZM-9.79322 -11.2507C-0.154442 -11.2507 9.74484 -11.6056 19.1231 -11.8959C51.1004 -12.7346 82.687 -14.799 114.404 -16.7344C144.214 -18.7976 174.249 -19.961 204.344 -20.2182C272.402 -20.2182 339.547 -14.7668 407.149 -11.7668C441.883 -10.2185 476.878 -8.92822 512.134 -7.89599C513.631 -6.89602 515.129 -5.89605 516.562 -4.86382L505.621 -5.41219C472.732 -6.99279 439.843 -8.63791 406.889 -10.2185C339.612 -13.2829 272.597 -18.7021 204.995 -18.7989C174.765 -18.5638 144.585 -17.4868 114.599 -15.5732C83.2731 -13.8313 52.0122 -11.9281 20.5559 -11.0895C9.94022 -10.7991 -0.610336 -10.5088 -11.226 -10.154L-9.79322 -11.2507ZM-1.58723 4.87785C35.9259 3.23273 72.983 0.13604 110.822 -0.896191C155.88 -1.95029 201.023 -1.71335 246.025 -0.186535C285.101 1.00698 323.656 2.68436 362.537 4.07142C401.418 5.45847 441.21 6.74875 480.612 7.87775C498.587 8.39387 516.627 8.87772 534.602 9.32932C536.1 10.6196 537.468 11.8776 538.901 13.1679C501.192 11.7164 463.744 10.168 425.841 8.78096C404.826 7.98528 383.79 7.24335 362.733 6.5552C317.144 5.07137 271.555 3.3295 226.292 2.32953C187.937 1.13628 149.484 0.910187 111.082 1.65213C73.5041 2.68436 35.9259 3.68433 -1.58723 4.87785ZM557.983 34.6189C514.543 33.0061 471.234 30.9094 427.925 28.7804C384.615 26.6514 342.543 24.4902 299.82 22.7483C260.744 21.1354 221.668 19.1678 182.592 17.4259C147.618 15.8453 112.58 14.5227 77.5419 14.2002C36.4768 13.614 -4.61983 14.5197 -45.4176 16.9098L-44.2453 15.3614C-13.4403 13.8453 17.4298 13.0389 48.5605 12.9099C88.8089 12.7163 129.057 13.5873 169.175 14.9098C212.81 16.3291 256.38 18.1355 299.95 20.0387C359.541 22.4902 418.872 25.1031 478.333 27.2643C503.602 28.2105 528.936 29.0385 554.336 29.7481C555.638 31.361 556.811 32.9738 557.983 34.6189ZM-62.8065 37.5221C-41.0541 36.5221 -19.1715 35.8124 2.32037 35.2318C118.57 32.6777 235.013 33.2377 351.14 36.9092C423.301 38.9091 494.745 44.2316 566.384 48.7153C567.557 50.941 568.599 53.2313 569.576 55.4893C541.571 53.9732 513.501 52.2636 485.497 50.4572C450.523 48.2315 415.616 45.9734 380.577 44.0058C343.52 41.8445 306.398 40.0059 269.21 38.6511C180.332 35.5006 91.1292 35.2743 2.19012 37.9737C-20.2135 38.6511 -42.6823 39.264 -65.0859 40.1349C-64.5649 39.264 -63.9788 38.4253 -63.3926 37.5866L-62.8065 37.5221ZM-54.6005 152.035C-7.44865 147.777 44.1318 149.261 101.704 158.293C155.173 166.68 208.577 175.389 262.372 183.324C305.357 189.843 349.01 195.226 393.147 199.453C421.737 202.098 450.328 203.969 479.114 205.195C475.076 207.162 470.908 209.098 466.675 210.969C440.038 209.066 413.662 206.55 387.22 203.453C343.65 198.421 300.927 191.969 257.748 185.711C204.995 177.937 152.373 170.389 99.0338 163.648C51.4517 157.209 1.56976 156.107 -46.9807 160.422C-49.6509 157.68 -52.1908 154.874 -54.6005 152.035ZM-72.315 124.229C-52.777 122.874 -31.996 120.843 -12.4579 120.391C19.1155 119.783 49.4937 121.644 80.8634 123.52C158.495 127.907 234.302 137.939 311.347 144.035C389.307 150.738 467.98 155.218 546.977 157.454C544.697 159.938 542.222 162.389 539.682 164.809C533.17 164.615 526.006 164.389 519.232 164.131C447.954 161 377.105 155.808 307.049 148.583C275.723 145.551 244.462 142.132 213.266 138.906C184.09 135.681 154.652 132.455 125.54 129.616C99.4897 127.1 73.4389 124.842 47.3882 123.52C25.6218 122.194 9.36166 122.43 -12.4579 123.52C-29.9119 124.616 -53.298 125.552 -70.8171 127.165L-72.315 124.229ZM-79.8046 86.1659C-38.5792 83.5751 2.97634 82.497 44.5226 82.9402C92.5862 83.295 140.65 85.0369 188.518 87.0368C246.286 89.4238 303.662 93.8753 360.779 98.5526C431.181 104.294 502.169 110.52 573.353 113.842C572.441 116.842 571.399 119.81 570.162 122.745C556.68 122.229 543.264 121.52 529.783 120.713C415.811 113.842 304.639 98.4236 190.211 92.1979C135.109 88.9378 79.6935 87.1396 24.203 86.811C-10.6395 86.7022 -45.456 87.78 -80 90.0367V89.3593C-80 88.2948 -80 87.2303 -80 86.1336L-79.8046 86.1659ZM-73.8129 58.2634C-59.485 57.5968 -45.1354 57.1129 -30.7641 56.8119C37.6097 55.7147 106.055 56.6842 174.19 59.715C245.374 62.6182 316.297 66.8116 387.22 70.876C441.797 74.1017 496.373 77.0371 551.08 79.3596L576.609 80.3918C576.609 82.1982 576.609 84.0046 577 85.811L554.922 84.9078C500.085 82.295 445.574 79.0693 391.128 75.8436C318.511 71.2953 245.83 66.489 172.953 62.9407C105.373 59.3251 37.3778 57.978 -30.5687 58.9086C-45.3308 59.2311 -60.0712 59.844 -74.7898 60.7472C-74.5293 59.9085 -74.2037 59.0699 -73.8129 58.2312V58.2634ZM331.407 246.806C300.862 243.323 270.448 239.581 240.229 235.678C203.482 230.567 167.491 224.208 132.509 216.646C90.6976 208.098 48.6907 199.292 4.59982 198.421C2.90652 197.485 1.21322 196.582 -0.414955 195.614C51.6866 195.163 100.532 204.775 150.484 214.259C188.015 221.814 226.5 228.15 265.694 233.226C295.435 236.796 325.285 240.205 355.243 243.452C347.428 244.774 339.482 245.968 331.407 247V246.806Z" fill="#7A615A"/>
</g>
</g>
<g id="Fill_2" filter="url(#filter0_d_673_16619)">
<rect x="8" y="8" width="480" height="32" rx="6" fill="#3E2D28" fill-opacity="0.8" shape-rendering="crispEdges"/>
<rect x="4" y="4" width="488" height="40" rx="10" stroke="#96786F" stroke-opacity="0.5" stroke-width="8" shape-rendering="crispEdges"/>
</g>
</g>
<g id="Bar/Line">
<g id="Fill_3" filter="url(#filter1_i_673_16619)">
<rect x="8" y="8" width="206" height="32" rx="6" fill="#FDE294"/>
</g>
</g>
</g>
<defs>
<filter id="filter0_d_673_16619" x="0" y="0" width="496" height="52" filterUnits="userSpaceOnUse" color-interpolation-filters="sRGB">
<feFlood flood-opacity="0" result="BackgroundImageFix"/>
<feColorMatrix in="SourceAlpha" type="matrix" values="0 0 0 0 0 0 0 0 0 0 0 0 0 0 0 0 0 0 127 0" result="hardAlpha"/>
<feOffset dy="4"/>
<feComposite in2="hardAlpha" operator="out"/>
<feColorMatrix type="matrix" values="0 0 0 0 0.334167 0 0 0 0 0.254311 0 0 0 0 0.22974 0 0 0 1 0"/>
<feBlend mode="normal" in2="BackgroundImageFix" result="effect1_dropShadow_673_16619"/>
<feBlend mode="normal" in="SourceGraphic" in2="effect1_dropShadow_673_16619" result="shape"/>
</filter>
<filter id="filter1_i_673_16619" x="8" y="8" width="206" height="32" filterUnits="userSpaceOnUse" color-interpolation-filters="sRGB">
<feFlood flood-opacity="0" result="BackgroundImageFix"/>
<feBlend mode="normal" in="SourceGraphic" in2="BackgroundImageFix" result="shape"/>
<feColorMatrix in="SourceAlpha" type="matrix" values="0 0 0 0 0 0 0 0 0 0 0 0 0 0 0 0 0 0 127 0" result="hardAlpha"/>
<feOffset dy="-3"/>
<feComposite in2="hardAlpha" operator="arithmetic" k2="-1" k3="1"/>
<feColorMatrix type="matrix" values="0 0 0 0 1 0 0 0 0 0.956863 0 0 0 0 0.827451 0 0 0 0.5 0"/>
<feBlend mode="normal" in2="shape" result="effect1_innerShadow_673_16619"/>
</filter>
</defs>
</svg>
