<svg width="196" height="84" viewBox="0 0 196 84" fill="none" xmlns="http://www.w3.org/2000/svg">
<g id="Buttons/Rect/PlayIcon/Default">
<g id="Button/Rect/Fill/Default">
<path id="Vector" d="M17.3764 81.9662L18.0473 81.2246L17.3764 81.9662C18.1119 82.6316 19.0683 83 20.0601 83H98H175.146C176.105 83 177.032 82.6556 177.758 82.0295L193.612 68.3608C194.493 67.601 195 66.495 195 65.3313V18.3986C195 17.2165 194.477 16.0949 193.572 15.3349L177.609 1.93624C176.889 1.33149 175.978 1 175.037 1H98H20.1343C19.1597 1 18.2186 1.35583 17.4878 2.00065L17.4878 2.00065L2.35351 15.3545C1.49295 16.1138 1 17.2061 1 18.3538V65.3745C1 66.5048 1.47821 67.5823 2.31638 68.3407L17.3764 81.9662Z" fill="#725952" stroke="#725952" stroke-width="2"/>
<path id="Vector_2" d="M177.096 6.2255C176.556 5.77567 175.876 5.5293 175.174 5.5293L98 5.52931H20.0318C19.305 5.52931 18.6029 5.79319 18.056 6.2719L3.02412 19.429C2.3733 19.9987 2 20.8215 2 21.6864V65.3744C2 66.2221 2.35866 67.0303 2.98728 67.599L18.0473 81.2245C18.5989 81.7235 19.3162 81.9999 20.0601 81.9999H98H175.146C175.865 81.9999 176.56 81.7416 177.105 81.272L192.959 67.6033C193.62 67.0334 194 66.204 194 65.3312V21.7297C194 20.8398 193.605 19.9959 192.922 19.4259L177.096 6.2255Z" fill="#5F443C"/>
<path id="Vector_3" d="M177.096 2.6962C176.556 2.24637 175.876 2 175.174 2L98 2.00002H20.0318C19.305 2.00002 18.6029 2.26389 18.056 2.74261L3.02412 15.8997C2.3733 16.4694 2 17.2922 2 18.1571V61.8451C2 62.6928 2.35866 63.501 2.98728 64.0697L18.0473 77.6952C18.5989 78.1943 19.3162 78.4706 20.0601 78.4706H98H175.146C175.865 78.4706 176.56 78.2123 177.105 77.7427L192.959 64.074C193.62 63.5041 194 62.6747 194 61.8019V18.2004C194 17.3106 193.605 16.4666 192.922 15.8966L177.096 2.6962Z" fill="#96786F"/>
<g id="MaskGroup">
<mask id="mask0_690_13124" style="mask-type:alpha" maskUnits="userSpaceOnUse" x="2" y="2" width="192" height="77">
<path id="Vector_4" d="M177.096 2.6962C176.556 2.24637 175.876 2 175.174 2L98 2.00002H20.0318C19.305 2.00002 18.6029 2.26389 18.056 2.74261L3.02412 15.8997C2.3733 16.4694 2 17.2922 2 18.1571V61.8451C2 62.6928 2.35866 63.501 2.98728 64.0697L18.0473 77.6952C18.5989 78.1943 19.3162 78.4706 20.0601 78.4706H98H175.146C175.865 78.4706 176.56 78.2123 177.105 77.7427L192.959 64.074C193.62 63.5041 194 62.6747 194 61.8019V18.2004C194 17.3106 193.605 16.4666 192.922 15.8966L177.096 2.6962Z" fill="#96786F"/>
</mask>
<g mask="url(#mask0_690_13124)">
<g id="Group">
<path id="Vector_5" fill-rule="evenodd" clip-rule="evenodd" d="M93.1963 84.5975C128.377 90.5112 163.881 94.4667 199.531 96.4444C201.296 92.8079 202.884 89.0862 204.295 85.2793C205.119 83.0917 205.883 80.9042 206.589 78.6598C207.912 74.4835 209.059 70.1368 210 65.8753C203.943 65.4208 197.914 64.7958 191.856 64.0855C140.394 58.0342 90.1968 44.4543 38.529 38.9712C13.6484 36.0999 -11.3734 34.5162 -36.4291 34.2267C-52.1122 34.1477 -67.7829 35.0968 -83.333 37.0677C-83.333 41.2724 -83.1272 45.4202 -82.7449 49.5397C-82.7449 50.4772 -82.539 51.3863 -82.4508 52.3807C-81.8792 57.3542 -81.0154 63.5572 -79.9022 68.4444C-71.0802 67.2796 -62.1356 65.731 -53.3135 65.3333C-39.0571 64.7974 -24.5929 66.015 -10.4285 67.6666C24.6244 71.5304 58.5256 79.2848 93.3139 84.6543L93.1963 84.5975Z" fill="#89716A"/>
<path id="Vector_6" fill-rule="evenodd" clip-rule="evenodd" d="M30.3503 14.3162C62.5862 16.7347 94.001 20.5757 126.119 23.9616C150.834 26.6489 175.831 29.2609 200.606 31.1957L212.133 31.9995C211.868 27.7268 211.396 22.6772 210.718 18.5388C210.482 17.0071 210.216 15.5023 209.892 13.9974C209.568 12.4926 209.391 11.5789 209.125 10.3697C196.443 9.10669 183.791 7.68246 171.109 6.17762C155.271 4.32343 139.462 2.44237 123.595 0.803166C106.814 -0.997274 90.0025 -2.52899 73.162 -3.65763C43.9343 -5.59243 14.8836 -6.18362 -14.285 -5.51181C-25.3744 -5.24309 -36.4933 -4.81313 -47.6417 -4.22194L-50.3551 -4.03384C-59.5864 -3.55014 -68.8178 -3.03956 -78.0196 -2.4215C-79.7668 2.5485 -81.185 8.3876 -82.2666 13.5125C-75.7781 12.9481 -69.4048 12.5129 -62.9164 12.2711C-31.9523 11.366 -0.504623 11.7824 30.3503 14.3162Z" fill="#88716A"/>
<path id="Vector_7" fill-rule="evenodd" clip-rule="evenodd" d="M11.2117 -86.4318C45.7565 -87.7998 80.3664 -86.0971 114.543 -81.3484L137.271 -78.0389C140.698 -76.2914 144.008 -74.4116 147.229 -72.4259C136.92 -74.2527 126.727 -76.1326 116.3 -77.88C100.684 -80.6046 84.9262 -82.6193 69.0865 -83.9166C51.2399 -85.2271 33.3051 -85.2271 15.4585 -83.9166C11.1238 -83.6254 6.8183 -83.3076 2.48354 -82.937C5.41243 -84.1549 8.34132 -85.2669 11.2702 -86.2995L11.2117 -86.4318ZM174.292 -51.086C162.128 -51.9332 149.953 -52.957 137.769 -54.1572C121.894 -55.8517 106.576 -60.538 90.7018 -62.3119C76.1264 -63.9037 61.4478 -64.5936 46.7684 -64.3771C33.0026 -64.1918 19.2954 -63.2651 5.58817 -61.9677C-9.43705 -60.538 -24.4037 -58.6847 -39.3996 -56.9637C-37.818 -58.367 -36.2071 -59.7702 -34.567 -61.094C-21.3869 -62.3384 -8.20692 -63.5034 4.94381 -64.3506C18.7682 -65.2243 32.6218 -65.7009 46.5048 -65.542C61.3472 -65.4222 76.1708 -64.556 90.9068 -62.9474C106.547 -61.2264 122.012 -58.314 137.769 -57.3873C148.342 -56.7519 158.886 -56.1959 169.46 -55.6929C171.071 -54.2367 172.652 -52.7275 174.175 -51.1654L174.292 -51.086ZM-51.7595 -44.414C-47.4248 -44.414 -42.9729 -44.7052 -38.7553 -44.9435C-24.3744 -45.6319 -10.1693 -47.3263 4.09444 -48.9149C17.5005 -50.6084 31.0081 -51.5633 44.5424 -51.7744C75.1494 -51.7744 105.346 -47.2999 135.748 -44.8376C151.369 -43.5667 167.107 -42.5077 182.962 -41.6604C183.635 -40.8397 184.309 -40.0189 184.954 -39.1717L180.033 -39.6217C165.242 -40.9191 150.451 -42.2694 135.631 -43.5667C105.376 -46.082 75.2372 -50.53 44.8353 -50.6094C31.2401 -50.4164 17.6677 -49.5325 4.1823 -47.9618C-9.90567 -46.5321 -23.9644 -44.97 -38.1109 -44.2816C-42.885 -44.0433 -47.6298 -43.805 -52.4039 -43.5138L-51.7595 -44.414ZM-48.0691 -31.1758C-31.1987 -32.5261 -14.5333 -35.0678 2.48354 -35.9151C22.747 -36.7803 43.0488 -36.5858 63.2873 -35.3326C80.8607 -34.353 98.1997 -32.9762 115.685 -31.8377C133.171 -30.6992 151.066 -29.6402 168.786 -28.7135C176.87 -28.2899 184.983 -27.8927 193.067 -27.5221C193.74 -26.463 194.355 -25.4305 195 -24.3714C178.041 -25.5628 161.2 -26.8337 144.154 -27.9722C134.704 -28.6253 125.243 -29.2342 115.773 -29.799C95.2709 -31.017 74.7686 -32.4467 54.4128 -33.2674C37.1637 -34.2468 19.8707 -34.4324 2.6007 -33.8234C-14.299 -32.9762 -31.1987 -32.1554 -48.0691 -31.1758ZM203.581 -6.76466C184.046 -8.08847 164.568 -9.80943 145.091 -11.5569C125.614 -13.3043 106.694 -15.0782 87.48 -16.5079C69.9067 -17.8317 52.3333 -19.4468 34.7599 -20.8765C19.0318 -22.1739 3.27435 -23.2594 -12.4831 -23.5242C-30.9509 -24.0052 -49.433 -23.2619 -67.7806 -21.3001L-67.2534 -22.571C-53.3997 -23.8154 -39.5168 -24.4773 -25.5167 -24.5832C-7.41612 -24.7421 10.6844 -24.0272 28.7264 -22.9417C48.35 -21.7767 67.9443 -20.2941 87.5386 -18.7319C114.338 -16.7197 141.02 -14.5752 167.761 -12.8013C179.125 -12.0246 190.518 -11.3451 201.941 -10.7626C202.527 -9.43876 203.054 -8.11494 203.581 -6.76466ZM-75.6007 -4.38179C-65.8182 -5.20255 -55.9772 -5.78503 -46.3118 -6.26161C5.96793 -8.35798 58.3348 -7.89838 110.56 -4.88484C143.012 -3.24332 175.142 1.12527 207.36 4.80547C207.887 6.63234 208.355 8.51216 208.795 10.3655C196.2 9.12112 183.577 7.71788 170.983 6.23521C155.255 4.40834 139.556 2.555 123.798 0.939949C107.133 -0.833969 90.4382 -2.34312 73.7142 -3.45512C33.7437 -6.04102 -6.37263 -6.22675 -46.3704 -4.01112C-56.4458 -3.45512 -66.5505 -2.95207 -76.6258 -2.23721C-76.3915 -2.95207 -76.1279 -3.64046 -75.8643 -4.32883L-75.6007 -4.38179ZM-71.9103 89.6091C-50.7051 86.1142 -27.5083 87.3321 -1.61691 94.7455C22.4293 101.629 46.4462 108.778 70.6389 115.291C89.9701 120.641 109.602 125.06 129.451 128.529C142.309 130.7 155.167 132.236 168.112 133.242C166.296 134.857 164.422 136.446 162.518 137.981C150.539 136.419 138.677 134.354 126.786 131.812C107.191 127.682 87.9779 122.387 68.5594 117.25C44.8353 110.87 21.1699 104.674 -2.81776 99.1405C-24.2164 93.8562 -46.6494 92.9517 -68.4835 96.4929C-69.6844 94.2424 -70.8266 91.939 -71.9103 89.6091ZM-79.8769 66.7865C-71.0902 65.6745 -61.7446 64.0068 -52.9579 63.6362C-38.7587 63.1367 -25.097 64.6648 -10.9894 66.204C23.923 69.8048 58.0153 78.0389 92.6641 83.043C127.724 88.5443 163.105 92.2217 198.631 94.0571C197.606 96.0958 196.493 98.108 195.351 100.094C192.422 99.9348 189.2 99.7495 186.154 99.5377C154.099 96.9672 122.237 92.7061 90.7311 86.7761C76.6431 84.2873 62.5844 81.4808 48.555 78.8332C35.4336 76.1856 22.195 73.538 9.10284 71.2081C-2.61274 69.1429 -14.3283 67.2896 -26.0439 66.204C-35.8327 65.1163 -43.1452 65.3099 -52.9579 66.204C-60.8074 67.1042 -71.3245 67.872 -79.2033 69.1958L-79.8769 66.7865ZM-83.2451 35.5445C-64.7052 33.4181 -46.0168 32.5331 -27.3326 32.8968C-5.71736 33.1881 15.8979 34.6178 37.4252 36.2593C63.4045 38.2186 89.208 41.8723 114.894 45.7114C146.556 50.4241 178.481 55.5341 210.493 58.2611C210.083 60.7234 209.615 63.1593 209.058 65.5686C202.996 65.145 196.962 64.5625 190.899 63.9006C139.644 58.2611 89.6474 45.6055 38.1867 40.4955C13.4059 37.8197 -11.5155 36.3437 -36.4707 36.074C-52.1402 35.9847 -67.7978 36.8693 -83.333 38.7216V38.1656C-83.333 37.2919 -83.333 36.4182 -83.333 35.518L-83.2451 35.5445ZM-80.5506 12.6425C-74.107 12.0953 -67.6537 11.6982 -61.1906 11.451C-30.4415 10.5505 0.339767 11.3463 30.9817 13.8339C62.9945 16.2168 94.8901 19.6587 126.786 22.9947C151.33 25.6423 175.874 28.0517 200.477 29.958L211.958 30.8052C211.958 32.2879 211.958 33.7706 212.134 35.2532L202.205 34.5119C177.543 32.3673 153.029 29.7197 128.543 27.072C95.8859 23.3389 63.1995 19.3939 30.4252 16.4815C0.0333328 13.5139 -30.5458 12.4082 -61.1027 13.172C-67.7415 13.4368 -74.3706 13.9398 -80.9899 14.6811C-80.8727 13.9928 -80.7263 13.3044 -80.5506 12.616V12.6425ZM101.685 167.396C87.9486 164.537 74.2707 161.466 60.6806 158.262C44.155 154.067 27.9687 148.848 12.2368 142.641C-6.56673 135.625 -25.4581 128.397 -45.2867 127.682C-46.0482 126.914 -46.8097 126.173 -47.5419 125.379C-24.1108 125.008 -2.1441 132.898 20.3205 140.682C37.1989 146.883 54.5063 152.083 72.1326 156.25C85.5079 159.18 98.9319 161.978 112.405 164.643C108.89 165.728 105.317 166.708 101.685 167.555V167.396Z" fill="#7A615A"/>
</g>
</g>
</g>
<path id="Vector_8" d="M172.509 13.9128C171.954 13.3976 171.225 13.1113 170.468 13.1113H97.9031H25.3492C24.5857 13.1113 23.8509 13.4024 23.2946 13.9253L9.34582 27.0353C8.74253 27.6023 8.40039 28.3934 8.40039 29.2213V55.6774C8.40039 56.5241 8.75817 57.3314 9.38545 57.9001L24.0814 71.2228C24.6333 71.7231 25.3515 72.0002 26.0964 72.0002H97.9031H169.722C170.46 72.0002 171.171 71.7287 171.721 71.2374L186.599 57.945C187.236 57.3758 187.6 56.5621 187.6 55.7078V29.2322C187.6 28.3979 187.253 27.6013 186.642 27.0337L172.509 13.9128Z" fill="#6E544C"/>
<path id="Vector_9" d="M172.509 11.6901C171.954 11.175 171.225 10.8887 170.468 10.8887H97.9031H25.3492C24.5857 10.8887 23.8509 11.1798 23.2946 11.7026L9.34582 24.8126C8.74253 25.3796 8.40039 26.1708 8.40039 26.9987V53.4548C8.40039 54.3015 8.75817 55.1087 9.38545 55.6774L24.0814 69.0002C24.6333 69.5005 25.3515 69.7776 26.0964 69.7776H97.9031H169.722C170.46 69.7776 171.171 69.506 171.721 69.0147L186.599 55.7223C187.236 55.1532 187.6 54.3394 187.6 53.4851V27.0096C187.6 26.1753 187.253 25.3787 186.642 24.811L172.509 11.6901Z" fill="#B4A26C"/>
<path id="Vector_10" d="M172.684 7.23629C172.13 6.727 171.405 6.44434 170.653 6.44434H98.0004H25.3476C24.5953 6.44434 23.8705 6.727 23.3167 7.23629L9.3695 20.0645C8.75186 20.6326 8.40039 21.4334 8.40039 22.2726V50.4069C8.40039 51.2648 8.76769 52.0817 9.40945 52.651L24.1049 65.6885C24.6538 66.1754 25.3621 66.4443 26.0959 66.4443H98.0004H169.903C170.638 66.4443 171.347 66.1747 171.896 65.6867L186.593 52.6244C187.234 52.0551 187.6 51.239 187.6 50.382V22.2726C187.6 21.4334 187.249 20.6326 186.631 20.0645L172.684 7.23629Z" fill="#FDE294"/>
</g>
<g id="Icon/Play">
<g id="Play" filter="url(#filter0_i_690_13124)">
<path d="M115.171 31.1611C118.943 33.3228 118.943 38.6772 115.171 40.8389L86.5747 57.2284C82.7736 59.407 78 56.7131 78 52.3895L78 19.6105C78 15.2869 82.7736 12.593 86.5747 14.7716L115.171 31.1611Z" fill="#B4A26C"/>
</g>
</g>
</g>
<defs>
<filter id="filter0_i_690_13124" x="78" y="14" width="40" height="44" filterUnits="userSpaceOnUse" color-interpolation-filters="sRGB">
<feFlood flood-opacity="0" result="BackgroundImageFix"/>
<feBlend mode="normal" in="SourceGraphic" in2="BackgroundImageFix" result="shape"/>
<feColorMatrix in="SourceAlpha" type="matrix" values="0 0 0 0 0 0 0 0 0 0 0 0 0 0 0 0 0 0 127 0" result="hardAlpha"/>
<feOffset dy="2"/>
<feComposite in2="hardAlpha" operator="arithmetic" k2="-1" k3="1"/>
<feColorMatrix type="matrix" values="0 0 0 0 0.425833 0 0 0 0 0.392122 0 0 0 0 0.298083 0 0 0 1 0"/>
<feBlend mode="normal" in2="shape" result="effect1_innerShadow_690_13124"/>
</filter>
</defs>
</svg>
