<svg width="67" height="20" viewBox="0 0 67 20" fill="none" xmlns="http://www.w3.org/2000/svg">
<g id="Level/Star/Group/0-3">
<g id="Level/Star/Unactive">
<g id="Icon" filter="url(#filter0_i_673_16592)">
<path d="M9.06507 1.03626C9.51672 -0.34542 11.4833 -0.34542 11.9349 1.03626L13.3793 5.4548C13.5813 6.07271 14.1606 6.49106 14.8142 6.49106H19.4883C20.9499 6.49106 21.5576 8.3501 20.3752 9.20403L16.5938 11.9348C16.0649 12.3167 15.8437 12.9936 16.0457 13.6115L17.49 18.0301C17.9417 19.4118 16.3507 20.5607 15.1683 19.7068L11.3868 16.976C10.858 16.5941 10.142 16.5941 9.61316 16.976L5.83174 19.7068C4.64929 20.5607 3.05832 19.4118 3.50997 18.0301L4.95435 13.6115C5.15633 12.9936 4.93506 12.3167 4.40625 11.9348L0.624833 9.20403C-0.557618 8.3501 0.0500824 6.49106 1.51167 6.49106H6.18576C6.8394 6.49106 7.41871 6.07271 7.62069 5.4548L9.06507 1.03626Z" fill="#655550"/>
</g>
</g>
<g id="Level/Star/Unactive_2">
<g id="Icon_2" filter="url(#filter1_i_673_16592)">
<path d="M32.0651 1.03626C32.5167 -0.34542 34.4833 -0.34542 34.9349 1.03626L36.3793 5.4548C36.5813 6.07271 37.1606 6.49106 37.8142 6.49106H42.4883C43.9499 6.49106 44.5576 8.3501 43.3752 9.20403L39.5938 11.9348C39.0649 12.3167 38.8437 12.9936 39.0457 13.6115L40.49 18.0301C40.9417 19.4118 39.3507 20.5607 38.1683 19.7068L34.3868 16.976C33.858 16.5941 33.142 16.5941 32.6132 16.976L28.8317 19.7068C27.6493 20.5607 26.0583 19.4118 26.51 18.0301L27.9543 13.6115C28.1563 12.9936 27.9351 12.3167 27.4063 11.9348L23.6248 9.20403C22.4424 8.3501 23.0501 6.49106 24.5117 6.49106H29.1858C29.8394 6.49106 30.4187 6.07271 30.6207 5.4548L32.0651 1.03626Z" fill="#655550"/>
</g>
</g>
<g id="Level/Star/Unactive_3">
<g id="Icon_3" filter="url(#filter2_i_673_16592)">
<path d="M55.0651 1.03626C55.5167 -0.34542 57.4833 -0.34542 57.9349 1.03626L59.3793 5.4548C59.5813 6.07271 60.1606 6.49106 60.8142 6.49106H65.4883C66.9499 6.49106 67.5576 8.3501 66.3752 9.20403L62.5938 11.9348C62.0649 12.3167 61.8437 12.9936 62.0457 13.6115L63.49 18.0301C63.9417 19.4118 62.3507 20.5607 61.1683 19.7068L57.3868 16.976C56.858 16.5941 56.142 16.5941 55.6132 16.976L51.8317 19.7068C50.6493 20.5607 49.0583 19.4118 49.51 18.0301L50.9543 13.6115C51.1563 12.9936 50.9351 12.3167 50.4063 11.9348L46.6248 9.20403C45.4424 8.3501 46.0501 6.49106 47.5117 6.49106H52.1858C52.8394 6.49106 53.4187 6.07271 53.6207 5.4548L55.0651 1.03626Z" fill="#655550"/>
</g>
</g>
</g>
<defs>
<filter id="filter0_i_673_16592" x="0" y="0" width="21" height="21" filterUnits="userSpaceOnUse" color-interpolation-filters="sRGB">
<feFlood flood-opacity="0" result="BackgroundImageFix"/>
<feBlend mode="normal" in="SourceGraphic" in2="BackgroundImageFix" result="shape"/>
<feColorMatrix in="SourceAlpha" type="matrix" values="0 0 0 0 0 0 0 0 0 0 0 0 0 0 0 0 0 0 127 0" result="hardAlpha"/>
<feOffset dy="1"/>
<feGaussianBlur stdDeviation="1"/>
<feComposite in2="hardAlpha" operator="arithmetic" k2="-1" k3="1"/>
<feColorMatrix type="matrix" values="0 0 0 0 0 0 0 0 0 0 0 0 0 0 0 0 0 0 0.25 0"/>
<feBlend mode="normal" in2="shape" result="effect1_innerShadow_673_16592"/>
</filter>
<filter id="filter1_i_673_16592" x="23" y="0" width="21" height="21" filterUnits="userSpaceOnUse" color-interpolation-filters="sRGB">
<feFlood flood-opacity="0" result="BackgroundImageFix"/>
<feBlend mode="normal" in="SourceGraphic" in2="BackgroundImageFix" result="shape"/>
<feColorMatrix in="SourceAlpha" type="matrix" values="0 0 0 0 0 0 0 0 0 0 0 0 0 0 0 0 0 0 127 0" result="hardAlpha"/>
<feOffset dy="1"/>
<feGaussianBlur stdDeviation="1"/>
<feComposite in2="hardAlpha" operator="arithmetic" k2="-1" k3="1"/>
<feColorMatrix type="matrix" values="0 0 0 0 0 0 0 0 0 0 0 0 0 0 0 0 0 0 0.25 0"/>
<feBlend mode="normal" in2="shape" result="effect1_innerShadow_673_16592"/>
</filter>
<filter id="filter2_i_673_16592" x="46" y="0" width="21" height="21" filterUnits="userSpaceOnUse" color-interpolation-filters="sRGB">
<feFlood flood-opacity="0" result="BackgroundImageFix"/>
<feBlend mode="normal" in="SourceGraphic" in2="BackgroundImageFix" result="shape"/>
<feColorMatrix in="SourceAlpha" type="matrix" values="0 0 0 0 0 0 0 0 0 0 0 0 0 0 0 0 0 0 127 0" result="hardAlpha"/>
<feOffset dy="1"/>
<feGaussianBlur stdDeviation="1"/>
<feComposite in2="hardAlpha" operator="arithmetic" k2="-1" k3="1"/>
<feColorMatrix type="matrix" values="0 0 0 0 0 0 0 0 0 0 0 0 0 0 0 0 0 0 0.25 0"/>
<feBlend mode="normal" in2="shape" result="effect1_innerShadow_673_16592"/>
</filter>
</defs>
</svg>
