<svg width="90" height="105" viewBox="0 0 90 105" fill="none" xmlns="http://www.w3.org/2000/svg">
<g id="Level/Button/Dummy">
<path id="Vector" d="M80.9372 3.68946C80.4354 2.65606 79.3875 2 78.2386 2H45.0469H11.7614C10.6125 2 9.56461 2.65606 9.06275 3.68946L0.301391 21.7305C0.103052 22.1389 0 22.587 0 23.0411V95.2308C0 96.0421 0.328614 96.8189 0.910892 97.3838L7.88729 104.153C8.44708 104.696 9.19641 105 9.9764 105H27.4035H45.0469H62.6434H80.0236C80.8036 105 81.5529 104.696 82.1127 104.153L89.0891 97.3838C89.6714 96.8189 90 96.0421 90 95.2308V23.0411C90 22.587 89.8969 22.1389 89.6986 21.7305L80.9372 3.68946Z" fill="#5F443C"/>
<g id="Vector_2" filter="url(#filter0_ii_673_16588)">
<path d="M83.2918 1.19244C82.5401 0.429541 81.5137 0 80.4427 0H45.0469H9.55732C8.48626 0 7.45994 0.429543 6.70817 1.19245L1.15085 6.8321C0.413395 7.58048 0 8.58897 0 9.63965V86.8144C0 87.8922 0.434979 88.9245 1.20639 89.6772L9.59482 97.8628C10.342 98.5919 11.3445 99 12.3884 99H45.0469H77.7267C78.7017 99 79.6432 98.6439 80.3741 97.9986L88.6474 90.6942C89.5074 89.9349 90 88.8429 90 87.6956V9.63966C90 8.58898 89.5866 7.58048 88.8491 6.8321L83.2918 1.19244Z" fill="#977970"/>
</g>
<g id="MaskGroup">
<mask id="mask0_673_16588" style="mask-type:alpha" maskUnits="userSpaceOnUse" x="0" y="0" width="90" height="99">
<path id="Vector_3" d="M82.9981 0.894333C82.4342 0.322157 81.6645 0 80.8612 0H45.0469H9.13879C8.3355 0 7.56576 0.322157 7.00193 0.894335L0.863141 7.12407C0.310047 7.68536 0 8.44173 0 9.22974V87.2358C0 88.0442 0.326234 88.8183 0.904796 89.3829L9.88615 98.1471C10.4465 98.6939 11.1984 99 11.9814 99H45.0469H78.105C78.8363 99 79.5424 98.7329 80.0905 98.2489L88.9855 90.3957C89.6306 89.8262 90 89.0072 90 88.1467V9.22974C90 8.44173 89.69 7.68536 89.1369 7.12407L82.9981 0.894333Z" fill="#AD938B"/>
</mask>
<g mask="url(#mask0_673_16588)">
<g id="Group">
<path id="Vector_4" opacity="0.4" fill-rule="evenodd" clip-rule="evenodd" d="M67.7954 86.2861C95.4562 90.724 123.371 93.6924 151.401 95.1765C152.788 92.4476 154.037 89.6547 155.147 86.7978C155.794 85.1562 156.395 83.5145 156.95 81.8302C157.991 78.6962 158.892 75.4343 159.632 72.2363C154.869 71.8951 150.129 71.4261 145.366 70.8931C104.905 66.352 65.4371 56.161 24.8135 52.0463C5.25119 49.8916 -14.422 48.703 -34.122 48.4858C-46.4528 48.4265 -58.7738 49.1388 -71 50.6178C-71 53.7732 -70.8382 56.8859 -70.5376 59.9773C-70.5376 60.6809 -70.3757 61.3631 -70.3064 62.1093C-69.8569 65.8417 -69.1778 70.4966 -68.3025 74.1642C-61.3662 73.2901 -54.3336 72.128 -47.3973 71.8295C-36.1883 71.4273 -24.8159 72.3411 -13.6792 73.5805C13.8811 76.48 40.5358 82.2993 67.8879 86.3288L67.7954 86.2861Z" fill="#D4AC7B" fill-opacity="0.5"/>
<path id="Vector_5" opacity="0.4" fill-rule="evenodd" clip-rule="evenodd" d="M18.7287 33.1948C44.1014 35.025 68.8277 37.9316 94.1075 40.4939C113.561 42.5275 133.236 44.5041 152.735 45.9682L161.809 46.5765C161.6 43.3432 161.229 39.5219 160.695 36.3902C160.509 35.2311 160.3 34.0923 160.045 32.9535C159.789 31.8147 159.65 31.1233 159.441 30.2082C149.459 29.2525 139.5 28.1747 129.518 27.0359C117.053 25.6328 104.61 24.2093 92.1211 22.9688C78.9124 21.6063 65.6806 20.4472 52.4255 19.5931C29.4207 18.129 6.55508 17.6816 -16.4034 18.19C-25.1317 18.3933 -33.8833 18.7187 -42.6582 19.1661L-44.7938 19.3084C-52.0597 19.6745 -59.3256 20.0608 -66.5683 20.5285C-67.9436 24.2896 -69.0598 28.7083 -69.9111 32.5865C-64.8041 32.1595 -59.7877 31.8301 -54.6807 31.6471C-30.3092 30.9622 -5.55691 31.2773 18.7287 33.1948Z" fill="#D4AC7B" fill-opacity="0.5"/>
<path id="Vector_6" opacity="0.5" fill-rule="evenodd" clip-rule="evenodd" d="M3.49483 -42.654C30.7138 -43.6889 57.9841 -42.4008 84.9129 -38.8083L102.821 -36.3045C105.521 -34.9825 108.129 -33.5604 110.668 -32.0581C102.544 -33.4402 94.5133 -34.8623 86.2976 -36.1843C73.993 -38.2456 61.577 -39.7698 49.0964 -40.7512C35.0344 -41.7426 20.903 -41.7426 6.84108 -40.7512C3.42558 -40.5308 0.033165 -40.2905 -3.38234 -40.0101C-1.07457 -40.9314 1.2332 -41.7727 3.54097 -42.5539L3.49483 -42.654ZM131.991 -15.9139C122.407 -16.5549 112.814 -17.3294 103.214 -18.2374C90.7055 -19.5193 78.6358 -23.0647 66.1277 -24.4067C54.6433 -25.6108 43.0775 -26.1328 31.5112 -25.969C20.6646 -25.8288 9.86427 -25.1277 -0.936096 -24.1463C-12.775 -23.0647 -24.5677 -21.6626 -36.3834 -20.3606C-35.1372 -21.4222 -33.868 -22.4838 -32.5756 -23.4853C-22.1907 -24.4267 -11.8057 -25.308 -1.44381 -25.949C9.44887 -26.61 20.3646 -26.9705 31.3035 -26.8503C42.9983 -26.7597 54.6783 -26.1043 66.2893 -24.8874C78.6127 -23.5854 90.7978 -21.3821 103.214 -20.6811C111.545 -20.2004 119.853 -19.7797 128.184 -19.3992C129.453 -18.2975 130.699 -17.1558 131.899 -15.974L131.991 -15.9139ZM-46.1222 -10.8664C-42.7067 -10.8664 -39.1989 -11.0867 -35.8757 -11.267C-24.5446 -11.7877 -13.3519 -13.0697 -2.11306 -14.2715C8.45004 -15.5526 19.0931 -16.275 29.7572 -16.4347C53.8734 -16.4347 77.6665 -13.0496 101.621 -11.1868C113.929 -10.2254 126.33 -9.4242 138.822 -8.78324C139.353 -8.16231 139.884 -7.54138 140.392 -6.90042L136.515 -7.24092C124.86 -8.2224 113.206 -9.24393 101.529 -10.2254C77.6896 -12.1283 53.9427 -15.4933 29.988 -15.5534C19.2759 -15.4074 8.58176 -14.7387 -2.04382 -13.5504C-13.1442 -12.4688 -24.2215 -11.287 -35.368 -10.7662C-39.1297 -10.5859 -42.8683 -10.4057 -46.6299 -10.1853L-46.1222 -10.8664ZM-43.2144 -0.851341C-29.9217 -1.87288 -16.7905 -3.79576 -3.38234 -4.43672C12.5839 -5.09127 28.5803 -4.94413 44.527 -3.99606C58.3736 -3.25495 72.0356 -2.21339 85.813 -1.35209C99.5904 -0.490803 113.691 0.310394 127.653 1.01144C134.022 1.33192 140.415 1.63238 146.784 1.9128C147.315 2.714 147.8 3.49517 148.307 4.29637C134.945 3.39502 121.676 2.43358 108.245 1.57229C100.798 1.07822 93.344 0.617516 85.8822 0.190208C69.7278 -0.731174 53.5734 -1.81279 37.5344 -2.43372C23.9433 -3.17466 10.3175 -3.31506 -3.29002 -2.85435C-16.6059 -2.21339 -29.9217 -1.59245 -43.2144 -0.851341ZM155.069 17.6163C139.676 16.6148 124.33 15.3129 108.983 13.9909C93.6363 12.6689 78.7281 11.3269 63.5892 10.2453C49.7425 9.24379 35.8959 8.02196 22.0493 6.94034C9.65658 5.95887 -2.75923 5.13763 -15.175 4.93733C-29.7265 4.57339 -44.289 5.13573 -58.7457 6.61985L-58.3303 5.65842C-47.4146 4.71701 -36.4758 4.21625 -25.4446 4.13613C-11.1826 4.01595 3.07943 4.55676 17.2953 5.37799C32.7573 6.25932 48.1963 7.381 63.6353 8.56277C84.7514 10.085 105.775 11.7075 126.845 13.0495C135.799 13.637 144.777 14.1512 153.777 14.5918C154.238 15.5933 154.654 16.5948 155.069 17.6163ZM-64.9075 19.4191C-57.1995 18.7981 -49.4454 18.3575 -41.8298 17.9969C-0.636864 16.411 40.6247 16.7587 81.7744 19.0385C107.344 20.2803 132.661 23.5853 158.046 26.3695C158.462 27.7515 158.831 29.1737 159.177 30.5758C149.254 29.6344 139.307 28.5728 129.384 27.4511C116.991 26.069 104.621 24.6669 92.2055 23.4451C79.0743 22.1031 65.92 20.9614 52.7426 20.1201C21.2485 18.1638 -10.3604 18.0233 -41.8759 19.6995C-49.8147 20.1201 -57.7765 20.5007 -65.7152 21.0415C-65.5306 20.5007 -65.3229 19.9799 -65.1152 19.4591L-64.9075 19.4191ZM-61.9997 90.5257C-45.2914 87.8817 -27.0139 88.8031 -6.61321 94.4115C12.3336 99.6193 31.2573 105.027 50.3195 109.955C65.5512 114.002 81.0196 117.345 96.6595 119.97C106.791 121.612 116.922 122.774 127.122 123.535C125.691 124.757 124.214 125.959 122.714 127.121C113.275 125.939 103.929 124.376 94.5594 122.454C79.1205 119.329 63.9815 115.323 48.681 111.437C29.988 106.61 11.3412 101.923 -7.55939 97.7365C-24.4201 93.7387 -42.0958 93.0544 -59.2996 95.7335C-60.2458 94.0309 -61.1458 92.2883 -61.9997 90.5257ZM-68.2768 73.2598C-61.3535 72.4185 -53.9898 71.1569 -47.0665 70.8765C-35.8784 70.4986 -25.1139 71.6547 -13.9981 72.8191C13.5105 75.5432 40.373 81.7725 67.6739 85.5582C95.299 89.7202 123.177 92.5022 151.169 93.8907C150.361 95.433 149.484 96.9553 148.584 98.4576C146.277 98.3374 143.738 98.1972 141.338 98.0369C116.08 96.0923 90.9752 92.8687 66.1508 88.3825C55.0504 86.4996 43.9731 84.3764 32.9189 82.3734C22.5801 80.3704 12.149 78.3674 1.83322 76.6048C-7.39786 75.0425 -16.6289 73.6404 -25.86 72.8191C-33.5729 71.9963 -39.3347 72.1427 -47.0665 72.8191C-53.2513 73.5001 -61.5381 74.081 -67.746 75.0825L-68.2768 73.2598ZM-70.9308 49.6244C-56.3226 48.0156 -41.5973 47.3462 -26.8754 47.6213C-9.84409 47.8417 7.18726 48.9233 24.1494 50.1652C44.6193 51.6474 64.9507 54.4115 85.1899 57.3159C110.137 60.8812 135.292 64.747 160.516 66.8101C160.192 68.6729 159.823 70.5157 159.385 72.3384C154.608 72.0179 149.854 71.5773 145.077 71.0765C104.691 66.8101 65.2969 57.2357 24.7494 53.37C5.22375 51.3456 -14.4126 50.229 -34.0757 50.0249C-46.4221 49.9574 -58.7593 50.6266 -71 52.0279V51.6073C-71 50.9463 -71 50.2853 -71 49.6043L-70.9308 49.6244ZM-68.8076 32.2984C-63.7305 31.8844 -58.6457 31.584 -53.5533 31.397C-29.325 30.7157 -5.07148 31.3177 19.0723 33.1997C44.2962 35.0024 69.4278 37.6063 94.5594 40.1301C113.899 42.1331 133.238 43.9558 152.623 45.398L161.669 46.039C161.669 47.1606 161.669 48.2823 161.808 49.404L153.985 48.8432C134.553 47.2207 115.237 45.2177 95.9441 43.2147C70.2124 40.3905 44.4577 37.406 18.6338 35.2027C-5.31293 32.9576 -29.4072 32.1211 -53.484 32.699C-58.715 32.8993 -63.9382 33.2798 -69.1538 33.8407C-69.0615 33.3199 -68.9461 32.7991 -68.8076 32.2783V32.2984ZM74.7819 149.374C63.9584 147.211 53.1811 144.887 42.4731 142.464C29.452 139.29 16.6983 135.341 4.30254 130.646C-10.5133 125.338 -25.3985 119.87 -41.0221 119.329C-41.6221 118.748 -42.2221 118.187 -42.799 117.586C-24.3369 117.306 -7.02861 123.275 10.672 129.164C23.9711 133.855 37.6081 137.789 51.4964 140.941C62.0353 143.158 72.6125 145.274 83.2283 147.291C80.4589 148.112 77.6435 148.853 74.7819 149.494V149.374Z" fill="#886759" fill-opacity="0.3"/>
</g>
</g>
</g>
<g id="Fill" filter="url(#filter1_ii_673_16588)">
<rect x="8" y="5" width="74" height="66" rx="9" fill="#614B45" fill-opacity="0.7"/>
</g>
</g>
<defs>
<filter id="filter0_ii_673_16588" x="0" y="0" width="90" height="99" filterUnits="userSpaceOnUse" color-interpolation-filters="sRGB">
<feFlood flood-opacity="0" result="BackgroundImageFix"/>
<feBlend mode="normal" in="SourceGraphic" in2="BackgroundImageFix" result="shape"/>
<feColorMatrix in="SourceAlpha" type="matrix" values="0 0 0 0 0 0 0 0 0 0 0 0 0 0 0 0 0 0 127 0" result="hardAlpha"/>
<feOffset dx="3"/>
<feComposite in2="hardAlpha" operator="arithmetic" k2="-1" k3="1"/>
<feColorMatrix type="matrix" values="0 0 0 0 0.678431 0 0 0 0 0.576471 0 0 0 0 0.545098 0 0 0 1 0"/>
<feBlend mode="normal" in2="shape" result="effect1_innerShadow_673_16588"/>
<feColorMatrix in="SourceAlpha" type="matrix" values="0 0 0 0 0 0 0 0 0 0 0 0 0 0 0 0 0 0 127 0" result="hardAlpha"/>
<feOffset dx="-3"/>
<feComposite in2="hardAlpha" operator="arithmetic" k2="-1" k3="1"/>
<feColorMatrix type="matrix" values="0 0 0 0 0.678431 0 0 0 0 0.576471 0 0 0 0 0.545098 0 0 0 1 0"/>
<feBlend mode="normal" in2="effect1_innerShadow_673_16588" result="effect2_innerShadow_673_16588"/>
</filter>
<filter id="filter1_ii_673_16588" x="8" y="5" width="74" height="66" filterUnits="userSpaceOnUse" color-interpolation-filters="sRGB">
<feFlood flood-opacity="0" result="BackgroundImageFix"/>
<feBlend mode="normal" in="SourceGraphic" in2="BackgroundImageFix" result="shape"/>
<feColorMatrix in="SourceAlpha" type="matrix" values="0 0 0 0 0 0 0 0 0 0 0 0 0 0 0 0 0 0 127 0" result="hardAlpha"/>
<feOffset dy="5"/>
<feComposite in2="hardAlpha" operator="arithmetic" k2="-1" k3="1"/>
<feColorMatrix type="matrix" values="0 0 0 0 0.368627 0 0 0 0 0.27451 0 0 0 0 0.243137 0 0 0 1 0"/>
<feBlend mode="normal" in2="shape" result="effect1_innerShadow_673_16588"/>
<feColorMatrix in="SourceAlpha" type="matrix" values="0 0 0 0 0 0 0 0 0 0 0 0 0 0 0 0 0 0 127 0" result="hardAlpha"/>
<feOffset dy="-5"/>
<feComposite in2="hardAlpha" operator="arithmetic" k2="-1" k3="1"/>
<feColorMatrix type="matrix" values="0 0 0 0 0.364706 0 0 0 0 0.286275 0 0 0 0 0.258824 0 0 0 0.8 0"/>
<feBlend mode="normal" in2="effect1_innerShadow_673_16588" result="effect2_innerShadow_673_16588"/>
</filter>
</defs>
</svg>
