<svg width="40" height="56" viewBox="0 0 40 56" fill="none" xmlns="http://www.w3.org/2000/svg">
<g id="Icon/ArrowLeft-Thin">
<path id="Vector" d="M2.68801 33.7413L28.651 54.4823C29.3772 55.0617 30.2079 55.4891 31.0957 55.7403C31.9835 55.9914 32.9111 56.0613 33.8253 55.9461C34.7396 55.8308 35.6226 55.5325 36.4241 55.0683C37.2256 54.6041 37.9299 53.9831 38.4966 53.2407C39.6411 51.7413 40.1562 49.8385 39.9284 47.9509C39.7006 46.0633 38.7487 44.3456 37.2821 43.1755L18.2877 28.0115L37.2821 12.8374C38.0134 12.2619 38.6256 11.5436 39.0832 10.7243C39.5408 9.90491 39.8346 9.00079 39.9476 8.06439C40.0606 7.128 39.9905 6.17799 39.7414 5.26951C39.4923 4.36103 39.0692 3.51218 38.4966 2.77224C37.9329 2.02535 37.2297 1.40036 36.4279 0.933514C35.626 0.466671 34.7415 0.167286 33.8256 0.0527269C32.9096 -0.0618324 31.9805 0.0107155 31.0923 0.266163C30.204 0.52161 29.3742 0.954872 28.651 1.5408L2.68802 22.2716C1.84896 22.9612 1.1719 23.8344 0.706696 24.8269C0.24149 25.8194 9.62139e-08 26.9059 0 28.0065C-9.62141e-08 29.107 0.241489 30.1936 0.706695 31.1861C1.1719 32.1786 1.84896 33.0517 2.68801 33.7413Z" fill="#212121"/>
</g>
</svg>
