<svg width="40" height="56" viewBox="0 0 40 56" fill="none" xmlns="http://www.w3.org/2000/svg">
<g id="Icon/ArrowRight-Thin">
<path id="Vector" d="M37.312 22.2587L11.349 1.51771C10.6228 0.938347 9.79209 0.510885 8.90427 0.259731C8.01646 0.00857815 7.08894 -0.0613477 6.17469 0.0539464C5.26044 0.169241 4.37736 0.467497 3.57586 0.931686C2.77436 1.39587 2.07015 2.01691 1.50342 2.75932C0.358869 4.2587 -0.156176 6.16147 0.0715912 8.04906C0.299358 9.93665 1.25128 11.6544 2.71795 12.8245L21.7123 27.9885L2.71794 43.1626C1.98661 43.7381 1.37438 44.4564 0.916803 45.2757C0.459226 46.0951 0.165414 46.9992 0.0524232 47.9356C-0.0605678 48.872 0.00951333 49.822 0.258598 50.7305C0.507683 51.639 0.93081 52.4878 1.50341 53.2278C2.06709 53.9746 2.77026 54.5996 3.57211 55.0665C4.37395 55.5333 5.25851 55.8327 6.17445 55.9473C7.09038 56.0618 8.01945 55.9893 8.90774 55.7338C9.79603 55.4784 10.6258 55.0451 11.349 54.4592L37.312 33.7284C38.151 33.0388 38.8281 32.1656 39.2933 31.1731C39.7585 30.1807 40 29.0941 40 27.9935C40 26.893 39.7585 25.8064 39.2933 24.8139C38.8281 23.8214 38.151 22.9483 37.312 22.2587Z" fill="#212121"/>
</g>
</svg>
