<svg width="62" height="56" viewBox="0 0 62 56" fill="none" xmlns="http://www.w3.org/2000/svg">
<g id="Icon/Heart">
<path id="Icon/Heart_2" d="M44.8145 0C39.128 0 34.0977 2.75614 30.9693 6.99586C27.8368 2.80243 22.8355 0.0817227 17.1854 0.0817227C7.69275 0.0817227 0 7.74656 0 17.2043C0 19.5396 0.466296 21.7641 1.31565 23.7924L1.32929 23.8127C1.93146 25.2451 2.73074 26.5758 3.68107 27.7793L30.8593 55.9991C39.9682 46.9144 50.1986 36.1307 58.3189 27.6967C59.2693 26.4933 60.0686 25.1624 60.6707 23.7301L60.6843 23.7098C61.5337 21.6815 62 19.4568 62 17.1217C62 7.66375 54.3069 0 44.8145 0Z" fill="#212121"/>
</g>
</svg>
