<svg width="56" height="57" viewBox="0 0 56 57" fill="none" xmlns="http://www.w3.org/2000/svg">
<g id="Icon/Home">
<path id="Vector" d="M55.0594 26.0476L31.7219 2.4219L30.2689 0.951693C29.971 0.649993 29.6173 0.41065 29.228 0.247351C28.8387 0.0840525 28.4214 0 28 0C27.5786 0 27.1613 0.0840525 26.772 0.247351C26.3827 0.41065 26.029 0.649993 25.7312 0.951693L24.2781 2.4219L0.940566 26.0476C0.642393 26.3489 0.405849 26.7068 0.244459 27.1007C0.0830698 27.4946 0 27.9169 0 28.3433C0 28.7697 0.0830698 29.1919 0.244459 29.5859C0.405849 29.9798 0.642393 30.3376 0.940566 30.639L2.38167 32.1092C2.6795 32.4109 3.03317 32.6502 3.42248 32.8135C3.81179 32.9768 4.22909 33.0609 4.65052 33.0609C5.07195 33.0609 5.48925 32.9768 5.87856 32.8135C6.26787 32.6502 6.62154 32.4109 6.91937 32.1092L9.64079 29.3556V54.0929C9.64079 54.3436 9.68964 54.5919 9.78455 54.8234C9.87945 55.055 10.0185 55.2654 10.1939 55.4425C10.3692 55.6196 10.5773 55.76 10.8063 55.8557C11.0354 55.9514 11.2808 56.0004 11.5285 56H44.0933C44.341 56.0004 44.5862 55.9513 44.8151 55.8556C45.0439 55.7599 45.2518 55.6195 45.4269 55.4423C45.602 55.2652 45.7408 55.0548 45.8354 54.8232C45.93 54.5917 45.9785 54.3435 45.9781 54.0929V28.985L49.0657 32.1092C49.6681 32.7179 50.4847 33.0599 51.3361 33.0599C52.1875 33.0599 53.004 32.7179 53.6064 32.1092L55.0594 30.639C55.3576 30.3376 55.5942 29.9798 55.7555 29.5859C55.9169 29.1919 56 28.7697 56 28.3433C56 27.9169 55.9169 27.4946 55.7555 27.1007C55.5942 26.7068 55.3576 26.3489 55.0594 26.0476Z" fill="#212121"/>
</g>
</svg>
