<svg width="56" height="56" viewBox="0 0 56 56" fill="none" xmlns="http://www.w3.org/2000/svg">
<g id="Icon/Levels">
<path id="Rectangle" d="M20.2812 0H1.71875C0.769511 0 0 0.783502 0 1.75V12.25C0 13.2165 0.769511 14 1.71875 14H20.2812C21.2305 14 22 13.2165 22 12.25V1.75C22 0.783502 21.2305 0 20.2812 0Z" fill="#212121"/>
<path id="Rectangle_2" d="M20.2812 21H1.71875C0.769511 21 0 21.7835 0 22.75V33.25C0 34.2165 0.769511 35 1.71875 35H20.2812C21.2305 35 22 34.2165 22 33.25V22.75C22 21.7835 21.2305 21 20.2812 21Z" fill="#212121"/>
<path id="Rectangle_3" d="M20.2812 42H1.71875C0.769511 42 0 42.7835 0 43.75V54.25C0 55.2165 0.769511 56 1.71875 56H20.2812C21.2305 56 22 55.2165 22 54.25V43.75C22 42.7835 21.2305 42 20.2812 42Z" fill="#212121"/>
<path id="Rectangle_4" d="M54.2812 0H35.7188C34.7695 0 34 0.783502 34 1.75V12.25C34 13.2165 34.7695 14 35.7188 14H54.2812C55.2305 14 56 13.2165 56 12.25V1.75C56 0.783502 55.2305 0 54.2812 0Z" fill="#212121"/>
<path id="Rectangle_5" d="M54.2812 21H35.7188C34.7695 21 34 21.7835 34 22.75V33.25C34 34.2165 34.7695 35 35.7188 35H54.2812C55.2305 35 56 34.2165 56 33.25V22.75C56 21.7835 55.2305 21 54.2812 21Z" fill="#212121"/>
<path id="Rectangle_6" d="M54.2812 42H35.7188C34.7695 42 34 42.7835 34 43.75V54.25C34 55.2165 34.7695 56 35.7188 56H54.2812C55.2305 56 56 55.2165 56 54.25V43.75C56 42.7835 55.2305 42 54.2812 42Z" fill="#212121"/>
</g>
</svg>
