<svg width="48" height="57" viewBox="0 0 48 57" fill="none" xmlns="http://www.w3.org/2000/svg">
<g id="Icon/Replay">
<path id="Fill" fill-rule="evenodd" clip-rule="evenodd" d="M43.0045 29.0009C43.0045 29.0009 38.504 28.5009 37.6826 32.2728C36.9175 39.5087 31.099 45.135 24.0348 45.135C16.4496 45.135 10.3 38.648 10.3 30.6465C10.3 23.9727 15.7759 19.6189 21.9966 18.3586C23.0535 18.1442 24.0348 19.0003 24.0348 20.135V23.5516C24.0348 25.014 25.5969 25.8716 26.7322 25.0324L40.4713 14.8885C40.9301 14.5485 41.203 13.9972 41.203 13.4061C41.203 12.8578 40.9664 12.3372 40.5599 11.9941L26.8207 0.399954C25.6971 -0.547978 24.0348 0.295819 24.0348 1.8119V5.5194C24.0348 6.43824 23.383 7.21466 22.5163 7.31573C10.5192 8.71848 0 17.7905 0 30.6465C0 44.6496 10.7602 56.0018 24.0348 56.0018C36.6881 56.0018 47.0578 45.6863 48 32.5929C48 30.5009 46.0048 29.0009 43.0045 29.0009Z" fill="#212121"/>
</g>
</svg>
