<svg width="56" height="56" viewBox="0 0 56 56" fill="none" xmlns="http://www.w3.org/2000/svg">
<g id="Icon/Shield">
<path id="Icon" d="M27.3354 0.12273L7.20715 7.75922C6.85331 7.89539 6.54883 8.13491 6.33347 8.44651C6.11812 8.75811 6.0019 9.1273 6 9.50586V30.6281C6 38.8332 17 50.7212 27.1726 55.7987C27.4281 55.9316 27.7119 56.001 28 56.001C28.2881 56.001 28.5719 55.9316 28.8274 55.7987C39.0135 50.7212 50 38.8332 50 30.6281V9.50586C50.0019 9.12642 49.8872 8.75553 49.6713 8.44321C49.4555 8.13089 49.1488 7.89216 48.7928 7.75922L28.6646 0.12273C28.2364 -0.0396081 27.7635 -0.0396081 27.3354 0.12273Z" fill="#212121"/>
</g>
</svg>
