<svg width="56" height="56" viewBox="0 0 56 56" fill="none" xmlns="http://www.w3.org/2000/svg">
<g id="Icon/SoundOn">
<g id="Group">
<path id="Vector" d="M29.5808 1.0624L17.4394 11.3795L12.4773 15.6072H3.676C2.70185 15.6097 1.76831 16.0018 1.07948 16.6977C0.390639 17.3936 0.00253358 18.3368 0 19.3209L0 36.668C-3.30884e-06 37.6538 0.386982 38.5994 1.07609 39.2974C1.7652 39.9954 2.70019 40.3889 3.676 40.3914H12.4773L17.4394 44.59L29.5808 54.9265C30.2384 55.4868 31.0409 55.8454 31.8936 55.9601C32.7463 56.0748 33.6136 55.9408 34.3934 55.5739C35.1732 55.207 35.8329 54.6225 36.2948 53.8893C36.7566 53.1561 37.0013 52.3048 37 51.4358V4.55314C36.9974 3.68577 36.7503 2.83709 36.2878 2.10638C35.8252 1.37567 35.1662 0.793152 34.3879 0.426966C33.6096 0.0607797 32.7442 -0.0739284 31.8929 0.0386007C31.0416 0.15113 30.2396 0.506242 29.5808 1.0624Z" fill="#212121"/>
<path id="Vector_2" d="M47.7449 17.8546C47.2246 17.3073 46.5198 17 45.785 17C45.0501 17 44.3453 17.3073 43.825 17.8546C43.5639 18.1237 43.3564 18.4452 43.2147 18.8001C43.073 19.155 43 19.5362 43 19.9213C43 20.3063 43.073 20.6875 43.2147 21.0424C43.3564 21.3974 43.5639 21.7188 43.825 21.988C45.3841 23.6399 46.2593 25.8757 46.2593 28.2063C46.2593 30.5369 45.3841 32.7727 43.825 34.4247C43.5639 34.6938 43.3564 35.0153 43.2147 35.3702C43.073 35.7251 43 36.1063 43 36.4913C43 36.8764 43.073 37.2576 43.2147 37.6125C43.3564 37.9674 43.5639 38.2889 43.825 38.558C44.0769 38.8311 44.3793 39.0467 44.7135 39.1915C45.0476 39.3362 45.4064 39.4069 45.7676 39.3993C46.134 39.4076 46.4982 39.3373 46.8381 39.1927C47.178 39.0481 47.4865 38.8322 47.7449 38.558C50.3419 35.8089 51.8 32.0867 51.8 28.2063C51.8 24.326 50.3419 20.6037 47.7449 17.8546Z" fill="#212121"/>
</g>
</g>
</svg>
