<svg width="56" height="56" viewBox="0 0 56 56" fill="none" xmlns="http://www.w3.org/2000/svg">
<g id="Icon/SoundOff">
<g id="Group">
<path id="Vector" d="M29.5808 1.0624L17.4394 11.3795L12.4773 15.6072H3.676C2.70185 15.6097 1.76831 16.0018 1.07948 16.6977C0.390639 17.3936 0.00253358 18.3368 0 19.3209L0 36.668C-3.30884e-06 37.6538 0.386982 38.5994 1.07609 39.2974C1.7652 39.9954 2.70019 40.3889 3.676 40.3914H12.4773L17.4394 44.59L29.5808 54.9265C30.2384 55.4868 31.0409 55.8454 31.8936 55.9601C32.7463 56.0748 33.6136 55.9408 34.3934 55.5739C35.1732 55.207 35.8329 54.6225 36.2948 53.8893C36.7566 53.1561 37.0013 52.3048 37 51.4358V4.55314C36.9974 3.68577 36.7503 2.83709 36.2878 2.10638C35.8252 1.37567 35.1662 0.793152 34.3879 0.426966C33.6096 0.0607797 32.7442 -0.0739284 31.8929 0.0386007C31.0416 0.15113 30.2396 0.506242 29.5808 1.0624Z" fill="#212121"/>
<path id="Union" d="M42.7986 21.7986C41.7338 22.8635 41.7338 24.5899 42.7986 25.6547L45.1439 28L42.7986 30.3453C41.7338 31.4101 41.7338 33.1365 42.7986 34.2013C43.8634 35.2662 45.5899 35.2661 46.6548 34.2014L49 31.8561L51.3453 34.2014C52.4101 35.2662 54.1365 35.2662 55.2013 34.2014C56.2662 33.1365 56.2662 31.4101 55.2013 30.3452L52.8561 28L55.2013 25.6547C56.2662 24.5899 56.2662 22.8634 55.2013 21.7986C54.1365 20.7338 52.41 20.7338 51.3453 21.7986L49.6055 23.5384L49 24.1439L48.6817 23.8256L46.6547 21.7986C45.5898 20.7338 43.8635 20.7339 42.7986 21.7986Z" fill="#212121"/>
</g>
</g>
</svg>
