<svg width="58" height="57" viewBox="0 0 58 57" fill="none" xmlns="http://www.w3.org/2000/svg">
<g id="Icon/Star">
<path id="Icon" d="M25.0369 2.90153C26.2843 -0.967177 31.7157 -0.967175 32.9632 2.90153L36.9524 15.2734C37.5102 17.0036 39.1102 18.175 40.9155 18.175H53.8249C57.8617 18.175 59.5401 23.3803 56.2743 25.7713L45.8304 33.4175C44.3698 34.4868 43.7587 36.3822 44.3166 38.1123L48.3058 50.4842C49.5532 54.3529 45.1591 57.57 41.8933 55.179L31.4494 47.5327C29.9888 46.4634 28.0112 46.4635 26.5506 47.5327L16.1067 55.179C12.8409 57.57 8.44678 54.3529 9.69421 50.4842L13.6834 38.1123C14.2413 36.3822 13.6302 34.4868 12.1696 33.4175L1.72573 25.7713C-1.54009 23.3803 0.138323 18.175 4.17509 18.175H17.0845C18.8898 18.175 20.4898 17.0036 21.0476 15.2734L25.0369 2.90153Z" fill="#212121"/>
</g>
</svg>
