<svg width="596" height="406" viewBox="0 0 596 406" fill="none" xmlns="http://www.w3.org/2000/svg">
<g id="@Bar">
<g id="Hint">
<rect x="50" y="50" width="38" height="24" rx="4" fill="#FED70A"/>
<text id="Text" fill="#212121" xml:space="preserve" style="white-space: pre" font-family="Arial" font-size="14" letter-spacing="0em"><tspan x="58" y="66.8535">Bar</tspan></text>
</g>
<g id="Bar/Background">
<rect id="Fill" x="50" y="124" width="496" height="48" rx="13" fill="#96786F"/>
<g id="MaskGroup">
<mask id="mask0_673_16616" style="mask-type:alpha" maskUnits="userSpaceOnUse" x="50" y="124" width="496" height="48">
<rect id="Rectangle" x="50" y="124" width="496" height="48" rx="14" fill="#D9D9D9"/>
</mask>
<g mask="url(#mask0_673_16616)">
<path id="Vector" fill-rule="evenodd" clip-rule="evenodd" d="M222.557 183.468C294.278 186.413 364.171 191.09 435.63 195.213C490.618 198.485 546.233 201.665 601.352 204.021L627 205C626.409 199.797 625.36 193.649 623.85 188.61C623.325 186.745 622.735 184.912 622.013 183.08C621.291 181.248 620.898 180.135 620.307 178.663C592.091 177.125 563.941 175.39 535.725 173.558C500.488 171.3 465.317 169.01 430.014 167.014C392.678 164.822 355.275 162.957 317.807 161.582C252.78 159.226 188.146 158.506 123.25 159.325C98.5774 159.652 73.8393 160.175 49.0357 160.895L42.9988 161.124C22.4603 161.713 1.92186 162.335 -18.551 163.087C-22.4383 169.139 -25.5937 176.249 -28 182.489C-13.564 181.802 0.615658 181.272 15.0516 180.978C83.9424 179.876 153.909 180.383 222.557 183.468Z" fill="#88716A"/>
<path id="Vector_2" fill-rule="evenodd" clip-rule="evenodd" d="M180.23 61.5572C257.044 59.8906 334.002 61.965 409.997 67.7505L460.536 71.7827C468.156 73.9117 475.515 76.2019 482.679 78.6212C459.754 76.3955 437.09 74.1052 413.905 71.9762C379.18 68.6567 344.141 66.2021 308.92 64.6216C269.237 63.0249 229.357 63.0249 189.673 64.6216C180.034 64.9764 170.461 65.3635 160.822 65.8151C167.334 64.3313 173.847 62.9765 180.36 61.7185L180.23 61.5572ZM542.856 104.62C515.807 103.588 488.736 102.341 461.643 100.879C426.344 98.8142 392.283 93.1047 356.984 90.9434C324.574 89.0042 291.935 88.1635 259.294 88.4274C228.684 88.6532 198.205 89.7822 167.725 91.3628C134.315 93.1047 101.035 95.3627 67.6903 97.4594C71.2072 95.7497 74.7892 94.0401 78.4363 92.4273C107.743 90.9112 137.05 89.4919 166.292 88.4596C197.032 87.3951 227.837 86.8145 258.707 87.0081C291.711 87.1541 324.673 88.2094 357.44 90.1693C392.218 92.266 426.605 95.8143 461.643 96.9433C485.154 97.7174 508.599 98.3948 532.11 99.0077C535.692 100.782 539.209 102.621 542.596 104.524L542.856 104.62ZM40.2068 112.749C49.8456 112.749 59.7448 112.394 69.1231 112.104C101.1 111.265 132.687 109.201 164.404 107.266C194.214 105.202 224.249 104.039 254.344 103.782C322.402 103.782 389.547 109.233 457.149 112.233C491.883 113.781 526.878 115.072 562.134 116.104C563.631 117.104 565.129 118.104 566.562 119.136L555.621 118.588C522.732 117.007 489.843 115.362 456.889 113.781C389.612 110.717 322.597 105.298 254.995 105.201C224.765 105.436 194.585 106.513 164.599 108.427C133.273 110.169 102.012 112.072 70.5559 112.911C59.9402 113.201 49.3897 113.491 38.774 113.846L40.2068 112.749ZM48.4128 128.878C85.9259 127.233 122.983 124.136 160.822 123.104C205.88 122.05 251.023 122.287 296.025 123.813C335.101 125.007 373.656 126.684 412.537 128.071C451.418 129.458 491.21 130.749 530.612 131.878C548.587 132.394 566.627 132.878 584.602 133.329C586.1 134.62 587.468 135.878 588.901 137.168C551.192 135.716 513.744 134.168 475.841 132.781C454.826 131.985 433.79 131.243 412.733 130.555C367.144 129.071 321.555 127.329 276.292 126.33C237.937 125.136 199.484 124.91 161.082 125.652C123.504 126.684 85.9259 127.684 48.4128 128.878ZM607.983 158.619C564.543 157.006 521.234 154.909 477.925 152.78C434.615 150.651 392.543 148.49 349.82 146.748C310.744 145.135 271.668 143.168 232.592 141.426C197.618 139.845 162.58 138.523 127.542 138.2C86.4768 137.614 45.3802 138.52 4.58237 140.91L5.75466 139.361C36.5597 137.845 67.4298 137.039 98.5605 136.91C138.809 136.716 179.057 137.587 219.175 138.91C262.81 140.329 306.38 142.136 349.95 144.039C409.541 146.49 468.872 149.103 528.333 151.264C553.602 152.211 578.936 153.038 604.336 153.748C605.638 155.361 606.811 156.974 607.983 158.619ZM-12.8065 161.522C8.94588 160.522 30.8285 159.812 52.3204 159.232C168.57 156.678 285.013 157.238 401.14 160.909C473.301 162.909 544.745 168.232 616.384 172.715C617.557 174.941 618.599 177.231 619.576 179.489C591.571 177.973 563.501 176.264 535.497 174.457C500.523 172.231 465.616 169.973 430.577 168.006C393.52 165.845 356.398 164.006 319.21 162.651C230.332 159.501 141.129 159.274 52.1901 161.974C29.7865 162.651 7.31771 163.264 -15.0859 164.135C-14.5649 163.264 -13.9788 162.425 -13.3926 161.587L-12.8065 161.522ZM-4.60051 276.035C42.5513 271.777 94.1318 273.261 151.704 282.293C205.173 290.68 258.577 299.389 312.372 307.324C355.357 313.843 399.01 319.226 443.147 323.453C471.737 326.098 500.328 327.969 529.114 329.195C525.076 331.162 520.908 333.098 516.675 334.969C490.038 333.066 463.662 330.55 437.22 327.453C393.65 322.421 350.927 315.969 307.748 309.711C254.995 301.937 202.373 294.389 149.034 287.648C101.452 281.209 51.5698 280.107 3.01933 284.422C0.349125 281.68 -2.19082 278.874 -4.60051 276.035ZM-22.315 248.229C-2.77696 246.874 18.004 244.843 37.5421 244.391C69.1155 243.783 99.4937 245.644 130.863 247.52C208.495 251.907 284.302 261.939 361.347 268.035C439.307 274.738 517.98 279.218 596.977 281.454C594.697 283.938 592.222 286.389 589.682 288.809C583.17 288.615 576.006 288.389 569.232 288.131C497.954 285 427.105 279.808 357.049 272.583C325.723 269.551 294.462 266.132 263.266 262.906C234.09 259.681 204.652 256.455 175.54 253.616C149.49 251.1 123.439 248.842 97.3882 247.52C75.6218 246.194 59.3617 246.43 37.5421 247.52C20.0881 248.616 -3.29798 249.552 -20.8171 251.165L-22.315 248.229ZM-29.8046 210.166C11.4208 207.575 52.9763 206.497 94.5226 206.94C142.586 207.295 190.65 209.037 238.518 211.037C296.286 213.424 353.662 217.875 410.779 222.553C481.181 228.294 552.169 234.52 623.353 237.842C622.441 240.842 621.399 243.81 620.162 246.745C606.68 246.229 593.264 245.52 579.783 244.713C465.811 237.842 354.639 222.424 240.211 216.198C185.109 212.938 129.693 211.14 74.203 210.811C39.3605 210.702 4.54405 211.78 -30 214.037V213.359C-30 212.295 -30 211.23 -30 210.134L-29.8046 210.166ZM-23.8129 182.263C-9.48503 181.597 4.86459 181.113 19.2359 180.812C87.6097 179.715 156.055 180.684 224.19 183.715C295.374 186.618 366.297 190.812 437.22 194.876C491.797 198.102 546.373 201.037 601.08 203.36L626.609 204.392C626.609 206.198 626.609 208.005 627 209.811L604.922 208.908C550.085 206.295 495.574 203.069 441.128 199.844C368.511 195.295 295.83 190.489 222.953 186.941C155.373 183.325 87.3778 181.978 19.4313 182.909C4.66921 183.231 -10.0712 183.844 -24.7898 184.747C-24.5293 183.909 -24.2037 183.07 -23.8129 182.231V182.263ZM381.407 370.806C350.862 367.323 320.448 363.581 290.229 359.678C253.482 354.567 217.491 348.208 182.509 340.646C140.698 332.098 98.6907 323.292 54.5998 322.421C52.9065 321.485 51.2132 320.582 49.585 319.614C101.687 319.163 150.532 328.775 200.484 338.259C238.015 345.814 276.5 352.15 315.694 357.226C345.435 360.796 375.285 364.205 405.243 367.452C397.428 368.774 389.482 369.968 381.407 371V370.806Z" fill="#7A615A"/>
</g>
</g>
<g id="Fill_2" filter="url(#filter0_d_673_16616)">
<rect x="58" y="132" width="480" height="32" rx="6" fill="#3E2D28" fill-opacity="0.8" shape-rendering="crispEdges"/>
<rect x="54" y="128" width="488" height="40" rx="10" stroke="#96786F" stroke-opacity="0.5" stroke-width="8" shape-rendering="crispEdges"/>
</g>
</g>
<g id="Bar/Line">
<g id="Fill_3" filter="url(#filter1_i_673_16616)">
<rect x="50" y="226" width="480" height="32" rx="6" fill="#FDE294"/>
</g>
</g>
<g id="Bar/Example">
<g id="Bar/Background_2">
<rect id="Fill_4" x="50" y="308" width="496" height="48" rx="13" fill="#96786F"/>
<g id="MaskGroup_2">
<mask id="mask1_673_16616" style="mask-type:alpha" maskUnits="userSpaceOnUse" x="50" y="308" width="496" height="48">
<rect id="Rectangle_2" x="50" y="308" width="496" height="48" rx="14" fill="#D9D9D9"/>
</mask>
<g mask="url(#mask1_673_16616)">
<path id="Vector_3" fill-rule="evenodd" clip-rule="evenodd" d="M222.557 367.468C294.278 370.413 364.171 375.09 435.63 379.213C490.618 382.485 546.233 385.665 601.352 388.021L627 389C626.409 383.797 625.36 377.649 623.85 372.61C623.325 370.745 622.735 368.912 622.013 367.08C621.291 365.248 620.898 364.135 620.307 362.663C592.091 361.125 563.941 359.39 535.725 357.558C500.488 355.3 465.317 353.01 430.014 351.014C392.678 348.822 355.275 346.957 317.807 345.582C252.78 343.226 188.146 342.506 123.25 343.325C98.5774 343.652 73.8393 344.175 49.0357 344.895L42.9988 345.124C22.4603 345.713 1.92186 346.335 -18.551 347.087C-22.4383 353.139 -25.5937 360.249 -28 366.489C-13.564 365.802 0.615658 365.272 15.0516 364.978C83.9424 363.876 153.909 364.383 222.557 367.468Z" fill="#88716A"/>
<path id="Vector_4" fill-rule="evenodd" clip-rule="evenodd" d="M180.23 245.557C257.044 243.891 334.002 245.965 409.997 251.751L460.536 255.783C468.156 257.912 475.515 260.202 482.679 262.621C459.754 260.395 437.09 258.105 413.905 255.976C379.18 252.657 344.141 250.202 308.92 248.622C269.237 247.025 229.357 247.025 189.673 248.622C180.034 248.976 170.461 249.364 160.822 249.815C167.334 248.331 173.847 246.976 180.36 245.718L180.23 245.557ZM542.856 288.62C515.807 287.588 488.736 286.341 461.643 284.879C426.344 282.814 392.283 277.105 356.984 274.943C324.574 273.004 291.935 272.164 259.294 272.427C228.684 272.653 198.205 273.782 167.725 275.363C134.315 277.105 101.035 279.363 67.6903 281.459C71.2072 279.75 74.7892 278.04 78.4363 276.427C107.743 274.911 137.05 273.492 166.292 272.46C197.032 271.395 227.837 270.815 258.707 271.008C291.711 271.154 324.673 272.209 357.44 274.169C392.218 276.266 426.605 279.814 461.643 280.943C485.154 281.717 508.599 282.395 532.11 283.008C535.692 284.782 539.209 286.621 542.596 288.524L542.856 288.62ZM40.2068 296.749C49.8456 296.749 59.7448 296.394 69.1231 296.104C101.1 295.265 132.687 293.201 164.404 291.266C194.214 289.202 224.249 288.039 254.344 287.782C322.402 287.782 389.547 293.233 457.149 296.233C491.883 297.781 526.878 299.072 562.134 300.104C563.631 301.104 565.129 302.104 566.562 303.136L555.621 302.588C522.732 301.007 489.843 299.362 456.889 297.781C389.612 294.717 322.597 289.298 254.995 289.201C224.765 289.436 194.585 290.513 164.599 292.427C133.273 294.169 102.012 296.072 70.5559 296.911C59.9402 297.201 49.3897 297.491 38.774 297.846L40.2068 296.749ZM48.4128 312.878C85.9259 311.233 122.983 308.136 160.822 307.104C205.88 306.05 251.023 306.287 296.025 307.813C335.101 309.007 373.656 310.684 412.537 312.071C451.418 313.458 491.21 314.749 530.612 315.878C548.587 316.394 566.627 316.878 584.602 317.329C586.1 318.62 587.468 319.878 588.901 321.168C551.192 319.716 513.744 318.168 475.841 316.781C454.826 315.985 433.79 315.243 412.733 314.555C367.144 313.071 321.555 311.329 276.292 310.33C237.937 309.136 199.484 308.91 161.082 309.652C123.504 310.684 85.9259 311.684 48.4128 312.878ZM607.983 342.619C564.543 341.006 521.234 338.909 477.925 336.78C434.615 334.651 392.543 332.49 349.82 330.748C310.744 329.135 271.668 327.168 232.592 325.426C197.618 323.845 162.58 322.523 127.542 322.2C86.4768 321.614 45.3802 322.52 4.58237 324.91L5.75466 323.361C36.5597 321.845 67.4298 321.039 98.5605 320.91C138.809 320.716 179.057 321.587 219.175 322.91C262.81 324.329 306.38 326.136 349.95 328.039C409.541 330.49 468.872 333.103 528.333 335.264C553.602 336.211 578.936 337.038 604.336 337.748C605.638 339.361 606.811 340.974 607.983 342.619ZM-12.8065 345.522C8.94588 344.522 30.8285 343.812 52.3204 343.232C168.57 340.678 285.013 341.238 401.14 344.909C473.301 346.909 544.745 352.232 616.384 356.715C617.557 358.941 618.599 361.231 619.576 363.489C591.571 361.973 563.501 360.264 535.497 358.457C500.523 356.231 465.616 353.973 430.577 352.006C393.52 349.845 356.398 348.006 319.21 346.651C230.332 343.501 141.129 343.274 52.1901 345.974C29.7865 346.651 7.31771 347.264 -15.0859 348.135C-14.5649 347.264 -13.9788 346.425 -13.3926 345.587L-12.8065 345.522ZM-4.60051 460.035C42.5513 455.777 94.1318 457.261 151.704 466.293C205.173 474.68 258.577 483.389 312.372 491.324C355.357 497.843 399.01 503.226 443.147 507.453C471.737 510.098 500.328 511.969 529.114 513.195C525.076 515.162 520.908 517.098 516.675 518.969C490.038 517.066 463.662 514.55 437.22 511.453C393.65 506.421 350.927 499.969 307.748 493.711C254.995 485.937 202.373 478.389 149.034 471.648C101.452 465.209 51.5698 464.107 3.01933 468.422C0.349125 465.68 -2.19082 462.874 -4.60051 460.035ZM-22.315 432.229C-2.77696 430.874 18.004 428.843 37.5421 428.391C69.1155 427.783 99.4937 429.644 130.863 431.52C208.495 435.907 284.302 445.939 361.347 452.035C439.307 458.738 517.98 463.218 596.977 465.454C594.697 467.938 592.222 470.389 589.682 472.809C583.17 472.615 576.006 472.389 569.232 472.131C497.954 469 427.105 463.808 357.049 456.583C325.723 453.551 294.462 450.132 263.266 446.906C234.09 443.681 204.652 440.455 175.54 437.616C149.49 435.1 123.439 432.842 97.3882 431.52C75.6218 430.194 59.3617 430.43 37.5421 431.52C20.0881 432.616 -3.29798 433.552 -20.8171 435.165L-22.315 432.229ZM-29.8046 394.166C11.4208 391.575 52.9763 390.497 94.5226 390.94C142.586 391.295 190.65 393.037 238.518 395.037C296.286 397.424 353.662 401.875 410.779 406.553C481.181 412.294 552.169 418.52 623.353 421.842C622.441 424.842 621.399 427.81 620.162 430.745C606.68 430.229 593.264 429.52 579.783 428.713C465.811 421.842 354.639 406.424 240.211 400.198C185.109 396.938 129.693 395.14 74.203 394.811C39.3605 394.702 4.54405 395.78 -30 398.037V397.359C-30 396.295 -30 395.23 -30 394.134L-29.8046 394.166ZM-23.8129 366.263C-9.48503 365.597 4.86459 365.113 19.2359 364.812C87.6097 363.715 156.055 364.684 224.19 367.715C295.374 370.618 366.297 374.812 437.22 378.876C491.797 382.102 546.373 385.037 601.08 387.36L626.609 388.392C626.609 390.198 626.609 392.005 627 393.811L604.922 392.908C550.085 390.295 495.574 387.069 441.128 383.844C368.511 379.295 295.83 374.489 222.953 370.941C155.373 367.325 87.3778 365.978 19.4313 366.909C4.66921 367.231 -10.0712 367.844 -24.7898 368.747C-24.5293 367.909 -24.2037 367.07 -23.8129 366.231V366.263ZM381.407 554.806C350.862 551.323 320.448 547.581 290.229 543.678C253.482 538.567 217.491 532.208 182.509 524.646C140.698 516.098 98.6907 507.292 54.5998 506.421C52.9065 505.485 51.2132 504.582 49.585 503.614C101.687 503.163 150.532 512.775 200.484 522.259C238.015 529.814 276.5 536.15 315.694 541.226C345.435 544.796 375.285 548.205 405.243 551.452C397.428 552.774 389.482 553.968 381.407 555V554.806Z" fill="#7A615A"/>
</g>
</g>
<g id="Fill_5" filter="url(#filter2_d_673_16616)">
<rect x="58" y="316" width="480" height="32" rx="6" fill="#3E2D28" fill-opacity="0.8" shape-rendering="crispEdges"/>
<rect x="54" y="312" width="488" height="40" rx="10" stroke="#96786F" stroke-opacity="0.5" stroke-width="8" shape-rendering="crispEdges"/>
</g>
</g>
<g id="Bar/Line_2">
<g id="Fill_6" filter="url(#filter3_i_673_16616)">
<rect x="58" y="316" width="206" height="32" rx="6" fill="#FDE294"/>
</g>
</g>
</g>
<rect x="0.5" y="0.5" width="595" height="405" stroke="#00FF19"/>
</g>
<defs>
<filter id="filter0_d_673_16616" x="50" y="124" width="496" height="52" filterUnits="userSpaceOnUse" color-interpolation-filters="sRGB">
<feFlood flood-opacity="0" result="BackgroundImageFix"/>
<feColorMatrix in="SourceAlpha" type="matrix" values="0 0 0 0 0 0 0 0 0 0 0 0 0 0 0 0 0 0 127 0" result="hardAlpha"/>
<feOffset dy="4"/>
<feComposite in2="hardAlpha" operator="out"/>
<feColorMatrix type="matrix" values="0 0 0 0 0.334167 0 0 0 0 0.254311 0 0 0 0 0.22974 0 0 0 1 0"/>
<feBlend mode="normal" in2="BackgroundImageFix" result="effect1_dropShadow_673_16616"/>
<feBlend mode="normal" in="SourceGraphic" in2="effect1_dropShadow_673_16616" result="shape"/>
</filter>
<filter id="filter1_i_673_16616" x="50" y="226" width="480" height="32" filterUnits="userSpaceOnUse" color-interpolation-filters="sRGB">
<feFlood flood-opacity="0" result="BackgroundImageFix"/>
<feBlend mode="normal" in="SourceGraphic" in2="BackgroundImageFix" result="shape"/>
<feColorMatrix in="SourceAlpha" type="matrix" values="0 0 0 0 0 0 0 0 0 0 0 0 0 0 0 0 0 0 127 0" result="hardAlpha"/>
<feOffset dy="-3"/>
<feComposite in2="hardAlpha" operator="arithmetic" k2="-1" k3="1"/>
<feColorMatrix type="matrix" values="0 0 0 0 1 0 0 0 0 0.956863 0 0 0 0 0.827451 0 0 0 0.5 0"/>
<feBlend mode="normal" in2="shape" result="effect1_innerShadow_673_16616"/>
</filter>
<filter id="filter2_d_673_16616" x="50" y="308" width="496" height="52" filterUnits="userSpaceOnUse" color-interpolation-filters="sRGB">
<feFlood flood-opacity="0" result="BackgroundImageFix"/>
<feColorMatrix in="SourceAlpha" type="matrix" values="0 0 0 0 0 0 0 0 0 0 0 0 0 0 0 0 0 0 127 0" result="hardAlpha"/>
<feOffset dy="4"/>
<feComposite in2="hardAlpha" operator="out"/>
<feColorMatrix type="matrix" values="0 0 0 0 0.334167 0 0 0 0 0.254311 0 0 0 0 0.22974 0 0 0 1 0"/>
<feBlend mode="normal" in2="BackgroundImageFix" result="effect1_dropShadow_673_16616"/>
<feBlend mode="normal" in="SourceGraphic" in2="effect1_dropShadow_673_16616" result="shape"/>
</filter>
<filter id="filter3_i_673_16616" x="58" y="316" width="206" height="32" filterUnits="userSpaceOnUse" color-interpolation-filters="sRGB">
<feFlood flood-opacity="0" result="BackgroundImageFix"/>
<feBlend mode="normal" in="SourceGraphic" in2="BackgroundImageFix" result="shape"/>
<feColorMatrix in="SourceAlpha" type="matrix" values="0 0 0 0 0 0 0 0 0 0 0 0 0 0 0 0 0 0 127 0" result="hardAlpha"/>
<feOffset dy="-3"/>
<feComposite in2="hardAlpha" operator="arithmetic" k2="-1" k3="1"/>
<feColorMatrix type="matrix" values="0 0 0 0 1 0 0 0 0 0.956863 0 0 0 0 0.827451 0 0 0 0.5 0"/>
<feBlend mode="normal" in2="shape" result="effect1_innerShadow_673_16616"/>
</filter>
</defs>
</svg>
