<svg width="524" height="718" viewBox="0 0 524 718" fill="none" xmlns="http://www.w3.org/2000/svg">
<g id="@Button Rect">
<rect x="0.5" y="0.5" width="523" height="717" fill="white"/>
<g id="Hint">
<rect x="50" y="50" width="90" height="24" rx="4" fill="#FED70A"/>
<text id="Text" fill="#212121" xml:space="preserve" style="white-space: pre" font-family="Arial" font-size="14" letter-spacing="0em"><tspan x="58" y="66.8535">Button/Rect</tspan></text>
</g>
<g id="Group 4">
<g id="Button/Rect/Fill/Default">
<path id="Vector" d="M65.3764 203.966L66.0473 203.225L65.3764 203.966C66.1119 204.632 67.0683 205 68.0601 205H146H223.146C224.105 205 225.032 204.656 225.758 204.029L241.612 190.361C242.493 189.601 243 188.495 243 187.331V140.399C243 139.216 242.477 138.095 241.572 137.335L225.609 123.936C224.889 123.331 223.978 123 223.037 123H146H68.1343C67.1597 123 66.2186 123.356 65.4878 124.001L65.4878 124.001L50.3535 137.354C49.493 138.114 49 139.206 49 140.354V187.375C49 188.505 49.4782 189.582 50.3164 190.341L65.3764 203.966Z" fill="#725952" stroke="#725952" stroke-width="2"/>
<path id="Vector_2" d="M225.096 128.225C224.556 127.776 223.876 127.529 223.174 127.529L146 127.529H68.0318C67.305 127.529 66.6029 127.793 66.056 128.272L51.0241 141.429C50.3733 141.999 50 142.822 50 143.686V187.374C50 188.222 50.3587 189.03 50.9873 189.599L66.0473 203.225C66.5989 203.724 67.3162 204 68.0601 204H146H223.146C223.865 204 224.56 203.742 225.105 203.272L240.959 189.603C241.62 189.033 242 188.204 242 187.331V143.73C242 142.84 241.605 141.996 240.922 141.426L225.096 128.225Z" fill="#5F443C"/>
<path id="Vector_3" d="M225.096 124.696C224.556 124.246 223.876 124 223.174 124L146 124H68.0318C67.305 124 66.6029 124.264 66.056 124.743L51.0241 137.9C50.3733 138.469 50 139.292 50 140.157V183.845C50 184.693 50.3587 185.501 50.9873 186.07L66.0473 199.695C66.5989 200.194 67.3162 200.471 68.0601 200.471H146H223.146C223.865 200.471 224.56 200.212 225.105 199.743L240.959 186.074C241.62 185.504 242 184.675 242 183.802V140.2C242 139.311 241.605 138.467 240.922 137.897L225.096 124.696Z" fill="#96786F"/>
<g id="MaskGroup">
<mask id="mask0_690_13120" style="mask-type:alpha" maskUnits="userSpaceOnUse" x="50" y="124" width="192" height="77">
<path id="Vector_4" d="M225.096 124.696C224.556 124.246 223.876 124 223.174 124L146 124H68.0318C67.305 124 66.6029 124.264 66.056 124.743L51.0241 137.9C50.3733 138.469 50 139.292 50 140.157V183.845C50 184.693 50.3587 185.501 50.9873 186.07L66.0473 199.695C66.5989 200.194 67.3162 200.471 68.0601 200.471H146H223.146C223.865 200.471 224.56 200.212 225.105 199.743L240.959 186.074C241.62 185.504 242 184.675 242 183.802V140.2C242 139.311 241.605 138.467 240.922 137.897L225.096 124.696Z" fill="#96786F"/>
</mask>
<g mask="url(#mask0_690_13120)">
<g id="Group">
<path id="Vector_5" fill-rule="evenodd" clip-rule="evenodd" d="M141.196 206.597C176.377 212.511 211.881 216.467 247.531 218.444C249.296 214.808 250.884 211.086 252.295 207.279C253.119 205.092 253.883 202.904 254.589 200.66C255.912 196.484 257.059 192.137 258 187.875C251.943 187.421 245.914 186.796 239.856 186.086C188.394 180.034 138.197 166.454 86.529 160.971C61.6484 158.1 36.6266 156.516 11.5709 156.227C-4.11224 156.148 -19.7829 157.097 -35.333 159.068C-35.333 163.272 -35.1272 167.42 -34.7449 171.54C-34.7449 172.477 -34.539 173.386 -34.4508 174.381C-33.8792 179.354 -33.0154 185.557 -31.9022 190.444C-23.0802 189.28 -14.1356 187.731 -5.31352 187.333C8.94289 186.797 23.4071 188.015 37.5715 189.667C72.6244 193.53 106.526 201.285 141.314 206.654L141.196 206.597Z" fill="#89716A"/>
<path id="Vector_6" fill-rule="evenodd" clip-rule="evenodd" d="M78.3503 136.316C110.586 138.735 142.001 142.576 174.119 145.962C198.834 148.649 223.831 151.261 248.606 153.196L260.133 153.999C259.868 149.727 259.396 144.677 258.718 140.539C258.482 139.007 258.216 137.502 257.892 135.997C257.568 134.493 257.391 133.579 257.125 132.37C244.443 131.107 231.791 129.682 219.109 128.178C203.271 126.323 187.462 124.442 171.595 122.803C154.814 121.003 138.003 119.471 121.162 118.342C91.9343 116.408 62.8836 115.816 33.715 116.488C22.6256 116.757 11.5067 117.187 0.358284 117.778L-2.35508 117.966C-11.5864 118.45 -20.8178 118.96 -30.0196 119.578C-31.7668 124.549 -33.185 130.388 -34.2666 135.512C-27.7781 134.948 -21.4048 134.513 -14.9164 134.271C16.0477 133.366 47.4954 133.782 78.3503 136.316Z" fill="#88716A"/>
<path id="Vector_7" fill-rule="evenodd" clip-rule="evenodd" d="M59.2117 35.5682C93.7565 34.2002 128.366 35.9029 162.543 40.6516L185.271 43.9611C188.698 45.7086 192.008 47.5884 195.229 49.5741C184.92 47.7473 174.727 45.8674 164.3 44.12C148.684 41.3954 132.926 39.3807 117.087 38.0834C99.2399 36.7729 81.3051 36.7729 63.4585 38.0834C59.1238 38.3746 54.8183 38.6924 50.4835 39.063C53.4124 37.8451 56.3413 36.7331 59.2702 35.7005L59.2117 35.5682ZM222.292 70.914C210.128 70.0668 197.953 69.043 185.769 67.8428C169.894 66.1483 154.576 61.462 138.702 59.6881C124.126 58.0963 109.448 57.4064 94.7684 57.6229C81.0026 57.8082 67.2954 58.7349 53.5882 60.0323C38.563 61.462 23.5963 63.3153 8.60038 65.0363C10.182 63.633 11.7929 62.2298 13.433 60.906C26.6131 59.6616 39.7931 58.4966 52.9438 57.6494C66.7682 56.7757 80.6218 56.2991 94.5048 56.458C109.347 56.5778 124.171 57.444 138.907 59.0526C154.547 60.7736 170.012 63.686 185.769 64.6127C196.342 65.2481 206.886 65.8041 217.46 66.3071C219.071 67.7633 220.652 69.2725 222.175 70.8346L222.292 70.914ZM-3.75955 77.586C0.575214 77.586 5.02713 77.2948 9.24474 77.0565C23.6256 76.3681 37.8307 74.6737 52.0944 73.0851C65.5005 71.3916 79.0081 70.4367 92.5424 70.2256C123.149 70.2256 153.346 74.7001 183.748 77.1624C199.369 78.4333 215.107 79.4923 230.962 80.3396C231.635 81.1603 232.309 81.9811 232.954 82.8283L228.033 82.3783C213.242 81.0809 198.451 79.7306 183.631 78.4333C153.376 75.918 123.237 71.47 92.8353 71.3906C79.2401 71.5836 65.6677 72.4675 52.1823 74.0382C38.0943 75.4679 24.0356 77.03 9.88909 77.7184C5.115 77.9567 0.37019 78.195 -4.40391 78.4862L-3.75955 77.586ZM-0.0691452 90.8242C16.8013 89.4739 33.4667 86.9322 50.4835 86.0849C70.747 85.2197 91.0488 85.4142 111.287 86.6674C128.861 87.647 146.2 89.0238 163.685 90.1623C181.171 91.3008 199.066 92.3598 216.786 93.2865C224.87 93.7101 232.983 94.1073 241.067 94.4779C241.74 95.537 242.355 96.5695 243 97.6286C226.041 96.4372 209.2 95.1663 192.154 94.0278C182.704 93.3747 173.243 92.7658 163.773 92.201C143.271 90.983 122.769 89.5533 102.413 88.7326C85.1637 87.7532 67.8707 87.5676 50.6007 88.1766C33.701 89.0238 16.8013 89.8446 -0.0691452 90.8242ZM251.581 115.235C232.046 113.912 212.568 112.191 193.091 110.443C173.614 108.696 154.694 106.922 135.48 105.492C117.907 104.168 100.333 102.553 82.7599 101.123C67.0318 99.8261 51.2743 98.7406 35.5169 98.4758C17.0491 97.9948 -1.43297 98.7381 -19.7806 100.7L-19.2534 99.429C-5.39973 98.1846 8.48322 97.5227 22.4833 97.4168C40.5839 97.2579 58.6844 97.9728 76.7264 99.0583C96.35 100.223 115.944 101.706 135.539 103.268C162.338 105.28 189.02 107.425 215.761 109.199C227.125 109.975 238.518 110.655 249.941 111.237C250.527 112.561 251.054 113.885 251.581 115.235ZM-27.6007 117.618C-17.8182 116.797 -7.97716 116.215 1.68819 115.738C53.9679 113.642 106.335 114.102 158.56 117.115C191.012 118.757 223.142 123.125 255.36 126.805C255.887 128.632 256.355 130.512 256.795 132.366C244.2 131.121 231.577 129.718 218.983 128.235C203.255 126.408 187.556 124.555 171.798 122.94C155.133 121.166 138.438 119.657 121.714 118.545C81.7437 115.959 41.6274 115.773 1.62962 117.989C-8.44578 118.545 -18.5505 119.048 -28.6258 119.763C-28.3915 119.048 -28.1279 118.36 -27.8643 117.671L-27.6007 117.618ZM-23.9103 211.609C-2.70515 208.114 20.4917 209.332 46.3831 216.745C70.4293 223.629 94.4462 230.778 118.639 237.291C137.97 242.641 157.602 247.06 177.451 250.529C190.309 252.7 203.167 254.236 216.112 255.242C214.296 256.857 212.422 258.446 210.518 259.981C198.539 258.419 186.677 256.354 174.786 253.812C155.191 249.682 135.978 244.387 116.559 239.25C92.8353 232.87 69.1699 226.674 45.1822 221.141C23.7836 215.856 1.35062 214.952 -20.4835 218.493C-21.6844 216.242 -22.8266 213.939 -23.9103 211.609ZM-31.8769 188.786C-23.0902 187.674 -13.7446 186.007 -4.95793 185.636C9.2413 185.137 22.903 186.665 37.0106 188.204C71.923 191.805 106.015 200.039 140.664 205.043C175.724 210.544 211.105 214.222 246.631 216.057C245.606 218.096 244.493 220.108 243.351 222.094C240.422 221.935 237.2 221.749 234.154 221.538C202.099 218.967 170.237 214.706 138.731 208.776C124.643 206.287 110.584 203.481 96.555 200.833C83.4336 198.186 70.195 195.538 57.1028 193.208C45.3873 191.143 33.6717 189.29 21.9561 188.204C12.1673 187.116 4.8548 187.31 -4.95793 188.204C-12.8074 189.104 -23.3245 189.872 -31.2033 191.196L-31.8769 188.786ZM-35.2451 157.544C-16.7052 155.418 1.98319 154.533 20.6674 154.897C42.2826 155.188 63.8979 156.618 85.4252 158.259C111.405 160.219 137.208 163.872 162.894 167.711C194.556 172.424 226.481 177.534 258.493 180.261C258.083 182.723 257.615 185.159 257.058 187.569C250.996 187.145 244.962 186.562 238.899 185.901C187.644 180.261 137.647 167.605 86.1867 162.496C61.4059 159.82 36.4845 158.344 11.5293 158.074C-4.14015 157.985 -19.7978 158.869 -35.333 160.722V160.166C-35.333 159.292 -35.333 158.418 -35.333 157.518L-35.2451 157.544ZM-32.5506 134.642C-26.107 134.095 -19.6537 133.698 -13.1906 133.451C17.5585 132.55 48.3398 133.346 78.9817 135.834C110.994 138.217 142.89 141.659 174.786 144.995C199.33 147.642 223.874 150.052 248.477 151.958L259.958 152.805C259.958 154.288 259.958 155.771 260.134 157.253L250.205 156.512C225.543 154.367 201.029 151.72 176.543 149.072C143.886 145.339 111.199 141.394 78.4252 138.482C48.0333 135.514 17.4542 134.408 -13.1027 135.172C-19.7415 135.437 -26.3706 135.94 -32.9899 136.681C-32.8727 135.993 -32.7263 135.304 -32.5506 134.616V134.642ZM149.685 289.396C135.949 286.537 122.271 283.466 108.681 280.262C92.155 276.067 75.9687 270.848 60.2368 264.641C41.4333 257.625 22.5419 250.397 2.71331 249.682C1.95179 248.914 1.19028 248.173 0.458057 247.379C23.8892 247.008 45.8559 254.898 68.3205 262.682C85.1989 268.883 102.506 274.083 120.133 278.25C133.508 281.18 146.932 283.978 160.405 286.643C156.89 287.728 153.317 288.708 149.685 289.555V289.396Z" fill="#7A615A"/>
</g>
</g>
</g>
<path id="Vector_8" d="M220.509 135.913C219.954 135.398 219.225 135.111 218.468 135.111H145.903H73.3492C72.5857 135.111 71.8509 135.402 71.2946 135.925L57.3458 149.035C56.7425 149.602 56.4004 150.393 56.4004 151.221V177.677C56.4004 178.524 56.7582 179.331 57.3855 179.9L72.0814 193.223C72.6333 193.723 73.3515 194 74.0964 194H145.903H217.722C218.46 194 219.171 193.729 219.721 193.237L234.599 179.945C235.236 179.376 235.6 178.562 235.6 177.708V151.232C235.6 150.398 235.253 149.601 234.642 149.034L220.509 135.913Z" fill="#6E544C"/>
<path id="Vector_9" d="M220.509 133.69C219.954 133.175 219.225 132.889 218.468 132.889H145.903H73.3492C72.5857 132.889 71.8509 133.18 71.2946 133.703L57.3458 146.813C56.7425 147.38 56.4004 148.171 56.4004 148.999V175.455C56.4004 176.301 56.7582 177.109 57.3855 177.677L72.0814 191C72.6333 191.5 73.3515 191.778 74.0964 191.778H145.903H217.722C218.46 191.778 219.171 191.506 219.721 191.015L234.599 177.722C235.236 177.153 235.6 176.339 235.6 175.485V149.01C235.6 148.175 235.253 147.379 234.642 146.811L220.509 133.69Z" fill="#B4A26C"/>
<path id="Vector_10" d="M220.684 129.236C220.13 128.727 219.405 128.444 218.653 128.444H146H73.3476C72.5953 128.444 71.8705 128.727 71.3167 129.236L57.3695 142.065C56.7519 142.633 56.4004 143.433 56.4004 144.273V172.407C56.4004 173.265 56.7677 174.082 57.4094 174.651L72.1049 187.688C72.6538 188.175 73.3621 188.444 74.0959 188.444H146H217.903C218.638 188.444 219.347 188.175 219.896 187.687L234.593 174.624C235.234 174.055 235.6 173.239 235.6 172.382V144.273C235.6 143.433 235.249 142.633 234.631 142.065L220.684 129.236Z" fill="#FDE294"/>
</g>
<g id="Button/Rect/Fill/Hover">
<path id="Vector_11" d="M297.376 203.966L298.047 203.225L297.376 203.966C298.112 204.632 299.068 205 300.06 205H378H455.146C456.105 205 457.032 204.656 457.758 204.029L473.612 190.361C474.493 189.601 475 188.495 475 187.331V140.399C475 139.216 474.477 138.095 473.572 137.335L457.609 123.936C456.889 123.331 455.978 123 455.037 123H378H300.134C299.16 123 298.219 123.356 297.488 124.001L297.488 124.001L282.354 137.354C281.493 138.114 281 139.206 281 140.354V187.375C281 188.505 281.478 189.582 282.316 190.341L297.376 203.966Z" fill="#725952" stroke="#725952" stroke-width="2"/>
<path id="Vector_12" d="M457.096 128.225C456.556 127.776 455.876 127.529 455.174 127.529L378 127.529H300.032C299.305 127.529 298.603 127.793 298.056 128.272L283.024 141.429C282.373 141.999 282 142.821 282 143.686V187.374C282 188.222 282.359 189.03 282.987 189.599L298.047 203.224C298.599 203.724 299.316 204 300.06 204H378H455.146C455.865 204 456.56 203.742 457.105 203.272L472.959 189.603C473.62 189.033 474 188.204 474 187.331V143.73C474 142.84 473.605 141.996 472.922 141.426L457.096 128.225Z" fill="#5F443C"/>
<path id="Vector_13" d="M457.096 124.696C456.556 124.246 455.876 124 455.174 124L378 124H300.032C299.305 124 298.603 124.264 298.056 124.743L283.024 137.9C282.373 138.469 282 139.292 282 140.157V183.845C282 184.693 282.359 185.501 282.987 186.07L298.047 199.695C298.599 200.194 299.316 200.471 300.06 200.471H378H455.146C455.865 200.471 456.56 200.212 457.105 199.743L472.959 186.074C473.62 185.504 474 184.675 474 183.802V140.2C474 139.311 473.605 138.467 472.922 137.897L457.096 124.696Z" fill="#96786F"/>
<g id="MaskGroup_2">
<mask id="mask1_690_13120" style="mask-type:alpha" maskUnits="userSpaceOnUse" x="282" y="124" width="192" height="77">
<path id="Vector_14" d="M457.096 124.696C456.556 124.246 455.876 124 455.174 124L378 124H300.032C299.305 124 298.603 124.264 298.056 124.743L283.024 137.9C282.373 138.469 282 139.292 282 140.157V183.845C282 184.693 282.359 185.501 282.987 186.07L298.047 199.695C298.599 200.194 299.316 200.471 300.06 200.471H378H455.146C455.865 200.471 456.56 200.212 457.105 199.743L472.959 186.074C473.62 185.504 474 184.675 474 183.802V140.2C474 139.311 473.605 138.467 472.922 137.897L457.096 124.696Z" fill="#96786F"/>
</mask>
<g mask="url(#mask1_690_13120)">
<g id="Group_2">
<path id="Vector_15" fill-rule="evenodd" clip-rule="evenodd" d="M373.196 206.597C408.377 212.511 443.881 216.467 479.531 218.444C481.296 214.808 482.884 211.086 484.295 207.279C485.119 205.092 485.883 202.904 486.589 200.66C487.912 196.484 489.059 192.137 490 187.875C483.943 187.421 477.914 186.796 471.856 186.086C420.394 180.034 370.197 166.454 318.529 160.971C293.648 158.1 268.627 156.516 243.571 156.227C227.888 156.148 212.217 157.097 196.667 159.068C196.667 163.272 196.873 167.42 197.255 171.54C197.255 172.477 197.461 173.386 197.549 174.381C198.121 179.354 198.985 185.557 200.098 190.444C208.92 189.28 217.864 187.731 226.686 187.333C240.943 186.797 255.407 188.015 269.571 189.667C304.624 193.53 338.526 201.285 373.314 206.654L373.196 206.597Z" fill="#89716A"/>
<path id="Vector_16" fill-rule="evenodd" clip-rule="evenodd" d="M310.35 136.317C342.586 138.736 374.001 142.577 406.119 145.963C430.834 148.65 455.831 151.262 480.606 153.197L492.133 154C491.868 149.728 491.396 144.678 490.718 140.54C490.482 139.008 490.216 137.503 489.892 135.998C489.568 134.494 489.391 133.58 489.125 132.371C476.443 131.108 463.791 129.683 451.109 128.179C435.271 126.324 419.462 124.443 403.595 122.804C386.814 121.004 370.003 119.472 353.162 118.343C323.934 116.409 294.884 115.817 265.715 116.489C254.626 116.758 243.507 117.188 232.358 117.779L229.645 117.967C220.414 118.451 211.182 118.961 201.98 119.579C200.233 124.549 198.815 130.389 197.733 135.513C204.222 134.949 210.595 134.514 217.084 134.272C248.048 133.367 279.495 133.783 310.35 136.317Z" fill="#88716A"/>
<path id="Vector_17" fill-rule="evenodd" clip-rule="evenodd" d="M291.212 35.5686C325.756 34.2007 360.366 35.9034 394.543 40.6521L417.271 43.9616C420.698 45.7091 424.008 47.5889 427.229 49.5746C416.92 47.7477 406.727 45.8679 396.3 44.1205C380.684 41.3959 364.926 39.3811 349.087 38.0839C331.24 36.7734 313.305 36.7734 295.459 38.0839C291.124 38.3751 286.818 38.6928 282.484 39.0635C285.412 37.8456 288.341 36.7336 291.27 35.701L291.212 35.5686ZM454.292 70.9145C442.128 70.0672 429.953 69.0435 417.769 67.8432C401.894 66.1488 386.576 61.4625 370.702 59.6885C356.126 58.0968 341.448 57.4068 326.768 57.6234C313.003 57.8087 299.295 58.7354 285.588 60.0327C270.563 61.4624 255.596 63.3158 240.6 65.0367C242.182 63.6335 243.793 62.2303 245.433 60.9065C258.613 59.6621 271.793 58.4971 284.944 57.6499C298.768 56.7761 312.622 56.2996 326.505 56.4584C341.347 56.5783 356.171 57.4445 370.907 59.0531C386.547 60.7741 402.012 63.6865 417.769 64.6131C428.342 65.2486 438.886 65.8046 449.46 66.3076C451.071 67.7638 452.652 69.273 454.175 70.8351L454.292 70.9145ZM228.24 77.5865C232.575 77.5865 237.027 77.2953 241.245 77.057C255.626 76.3686 269.831 74.6741 284.094 73.0855C297.501 71.3921 311.008 70.4372 324.542 70.2261C355.149 70.2261 385.346 74.7006 415.748 77.1629C431.369 78.4338 447.107 79.4928 462.962 80.34C463.635 81.1608 464.309 81.9816 464.954 82.8288L460.033 82.3787C445.242 81.0814 430.451 79.7311 415.631 78.4337C385.376 75.9185 355.237 71.4705 324.835 71.3911C311.24 71.584 297.668 72.468 284.182 74.0387C270.094 75.4684 256.036 77.0305 241.889 77.7189C237.115 77.9572 232.37 78.1955 227.596 78.4867L228.24 77.5865ZM231.931 90.8247C248.801 89.4744 265.467 86.9326 282.484 86.0854C302.747 85.2202 323.049 85.4147 343.287 86.6679C360.861 87.6475 378.2 89.0243 395.685 90.1627C413.171 91.3012 431.066 92.3603 448.786 93.2869C456.87 93.7106 464.983 94.1077 473.067 94.4784C473.74 95.5374 474.355 96.57 475 97.6291C458.041 96.4376 441.2 95.1668 424.154 94.0283C414.704 93.3752 405.243 92.7662 395.773 92.2014C375.271 90.9835 354.769 89.5538 334.413 88.733C317.164 87.7536 299.871 87.568 282.601 88.177C265.701 89.0243 248.801 89.845 231.931 90.8247ZM483.581 115.236C464.046 113.912 444.568 112.191 425.091 110.444C405.614 108.696 386.694 106.922 367.48 105.493C349.907 104.169 332.333 102.554 314.76 101.124C299.032 99.8266 283.274 98.7411 267.517 98.4763C249.049 97.9952 230.567 98.7385 212.219 100.7L212.747 99.4294C226.6 98.1851 240.483 97.5231 254.483 97.4172C272.584 97.2584 290.684 97.9732 308.726 99.0588C328.35 100.224 347.944 101.706 367.539 103.268C394.338 105.281 421.02 107.425 447.761 109.199C459.125 109.976 470.518 110.655 481.941 111.238C482.527 112.562 483.054 113.885 483.581 115.236ZM204.399 117.619C214.182 116.798 224.023 116.215 233.688 115.739C285.968 113.642 338.335 114.102 390.56 117.116C423.012 118.757 455.142 123.126 487.36 126.806C487.887 128.633 488.355 130.513 488.795 132.366C476.2 131.122 463.577 129.718 450.983 128.236C435.255 126.409 419.556 124.555 403.798 122.94C387.133 121.166 370.438 119.657 353.714 118.545C313.744 115.959 273.627 115.774 233.63 117.989C223.554 118.545 213.45 119.048 203.374 119.763C203.608 119.048 203.872 118.36 204.136 117.672L204.399 117.619ZM208.09 211.609C229.295 208.115 252.492 209.333 278.383 216.746C302.429 223.63 326.446 230.778 350.639 237.291C369.97 242.642 389.602 247.06 409.451 250.53C422.309 252.701 435.167 254.236 448.112 255.242C446.296 256.857 444.422 258.446 442.518 259.982C430.539 258.42 418.677 256.354 406.786 253.813C387.191 249.682 367.978 244.387 348.559 239.251C324.835 232.87 301.17 226.674 277.182 221.141C255.784 215.857 233.351 214.952 211.516 218.493C210.316 216.243 209.173 213.939 208.09 211.609ZM200.123 188.787C208.91 187.675 218.255 186.007 227.042 185.637C241.241 185.137 254.903 186.665 269.011 188.204C303.923 191.805 338.015 200.039 372.664 205.043C407.724 210.545 443.105 214.222 478.631 216.057C477.606 218.096 476.493 220.108 475.351 222.094C472.422 221.935 469.2 221.75 466.154 221.538C434.099 218.968 402.237 214.706 370.731 208.776C356.643 206.288 342.584 203.481 328.555 200.834C315.434 198.186 302.195 195.538 289.103 193.208C277.387 191.143 265.672 189.29 253.956 188.204C244.167 187.117 236.855 187.31 227.042 188.204C219.193 189.105 208.675 189.872 200.797 191.196L200.123 188.787ZM196.755 157.545C215.295 155.418 233.983 154.534 252.667 154.897C274.283 155.188 295.898 156.618 317.425 158.26C343.405 160.219 369.208 163.873 394.894 167.712C426.556 172.425 458.481 177.534 490.493 180.262C490.083 182.724 489.615 185.16 489.058 187.569C482.996 187.145 476.962 186.563 470.899 185.901C419.644 180.262 369.647 167.606 318.187 162.496C293.406 159.82 268.484 158.344 243.529 158.074C227.86 157.985 212.202 158.87 196.667 160.722V160.166C196.667 159.292 196.667 158.419 196.667 157.518L196.755 157.545ZM199.449 134.643C205.893 134.096 212.346 133.699 218.809 133.451C249.559 132.551 280.34 133.347 310.982 135.834C342.994 138.217 374.89 141.659 406.786 144.995C431.33 147.643 455.874 150.052 480.477 151.958L491.958 152.806C491.958 154.288 491.958 155.771 492.134 157.254L482.205 156.512C457.543 154.368 433.029 151.72 408.543 149.072C375.886 145.339 343.199 141.394 310.425 138.482C280.033 135.514 249.454 134.409 218.897 135.172C212.258 135.437 205.629 135.94 199.01 136.682C199.127 135.993 199.274 135.305 199.449 134.616V134.643ZM381.685 289.397C367.949 286.537 354.271 283.466 340.681 280.262C324.155 276.067 307.969 270.848 292.237 264.641C273.433 257.625 254.542 250.397 234.713 249.682C233.952 248.915 233.19 248.173 232.458 247.379C255.889 247.008 277.856 254.898 300.321 262.682C317.199 268.883 334.506 274.083 352.133 278.25C365.508 281.18 378.932 283.978 392.405 286.643C388.89 287.729 385.317 288.708 381.685 289.556V289.397Z" fill="#7A615A"/>
</g>
</g>
</g>
<path id="Vector_18" d="M452.509 135.913C451.954 135.398 451.225 135.111 450.468 135.111H377.903H305.349C304.586 135.111 303.851 135.402 303.295 135.925L289.346 149.035C288.743 149.602 288.4 150.393 288.4 151.221V177.677C288.4 178.524 288.758 179.331 289.385 179.9L304.081 193.223C304.633 193.723 305.352 194 306.096 194H377.903H449.722C450.46 194 451.171 193.729 451.721 193.237L466.599 179.945C467.236 179.376 467.6 178.562 467.6 177.708V151.232C467.6 150.398 467.253 149.601 466.642 149.034L452.509 135.913Z" fill="#6E544C"/>
<path id="Vector_19" d="M452.509 133.69C451.954 133.175 451.225 132.889 450.468 132.889H377.903H305.349C304.586 132.889 303.851 133.18 303.295 133.703L289.346 146.813C288.743 147.38 288.4 148.171 288.4 148.999V175.455C288.4 176.301 288.758 177.109 289.385 177.677L304.081 191C304.633 191.5 305.352 191.778 306.096 191.778H377.903H449.722C450.46 191.778 451.171 191.506 451.721 191.015L466.599 177.722C467.236 177.153 467.6 176.339 467.6 175.485V149.01C467.6 148.175 467.253 147.379 466.642 146.811L452.509 133.69Z" fill="#B4A26C"/>
<path id="Vector_20" d="M452.684 129.236C452.13 128.727 451.405 128.444 450.653 128.444H378H305.348C304.595 128.444 303.87 128.727 303.317 129.236L289.369 142.065C288.752 142.633 288.4 143.433 288.4 144.273V172.407C288.4 173.265 288.768 174.082 289.409 174.651L304.105 187.688C304.654 188.175 305.362 188.444 306.096 188.444H378H449.903C450.638 188.444 451.347 188.175 451.896 187.687L466.593 174.624C467.234 174.055 467.6 173.239 467.6 172.382V144.273C467.6 143.433 467.249 142.633 466.631 142.065L452.684 129.236Z" fill="#FDE294"/>
<g id="Union" style="mix-blend-mode:soft-light">
<path d="M450.513 128.444C451.355 128.444 452.167 128.76 452.785 129.33L466.524 141.966C467.21 142.597 467.6 143.485 467.6 144.414V175.341C467.6 176.287 467.196 177.189 466.488 177.821L451.822 190.925C451.207 191.474 450.411 191.778 449.585 191.778H306.235C305.401 191.778 304.597 191.468 303.98 190.909L289.494 177.776C288.798 177.144 288.4 176.25 288.4 175.312V144.414C288.4 143.485 288.79 142.597 289.476 141.966L303.215 129.33C303.834 128.76 304.646 128.444 305.488 128.444H450.513Z" fill="#FDE294"/>
</g>
</g>
</g>
<g id="Hint_2">
<rect x="50" y="254" width="97" height="24" rx="4" fill="#FED70A"/>
<text id="Text_2" fill="#212121" xml:space="preserve" style="white-space: pre" font-family="Arial" font-size="14" letter-spacing="0em"><tspan x="58" y="270.854">Buttons/Rect</tspan></text>
</g>
<g id="Group 5">
<g id="Buttons/Rect/PlayText/Default">
<g id="Button/Rect/Fill/Default_2">
<path id="Vector_21" d="M65.3764 407.966L66.0473 407.225L65.3764 407.966C66.1119 408.632 67.0683 409 68.0601 409H146H223.146C224.105 409 225.032 408.656 225.758 408.029L241.612 394.361C242.493 393.601 243 392.495 243 391.331V344.399C243 343.216 242.477 342.095 241.572 341.335L225.609 327.936C224.889 327.331 223.978 327 223.037 327H146H68.1343C67.1597 327 66.2186 327.356 65.4878 328.001L65.4878 328.001L50.3535 341.354C49.493 342.114 49 343.206 49 344.354V391.375C49 392.505 49.4782 393.582 50.3164 394.341L65.3764 407.966Z" fill="#725952" stroke="#725952" stroke-width="2"/>
<path id="Vector_22" d="M225.096 332.225C224.556 331.776 223.876 331.529 223.174 331.529L146 331.529H68.0318C67.305 331.529 66.6029 331.793 66.056 332.272L51.0241 345.429C50.3733 345.999 50 346.822 50 347.686V391.374C50 392.222 50.3587 393.03 50.9873 393.599L66.0473 407.225C66.5989 407.724 67.3162 408 68.0601 408H146H223.146C223.865 408 224.56 407.742 225.105 407.272L240.959 393.603C241.62 393.033 242 392.204 242 391.331V347.73C242 346.84 241.605 345.996 240.922 345.426L225.096 332.225Z" fill="#5F443C"/>
<path id="Vector_23" d="M225.096 328.696C224.556 328.246 223.876 328 223.174 328L146 328H68.0318C67.305 328 66.6029 328.264 66.056 328.743L51.0241 341.9C50.3733 342.469 50 343.292 50 344.157V387.845C50 388.693 50.3587 389.501 50.9873 390.07L66.0473 403.695C66.5989 404.194 67.3162 404.471 68.0601 404.471H146H223.146C223.865 404.471 224.56 404.212 225.105 403.743L240.959 390.074C241.62 389.504 242 388.675 242 387.802V344.2C242 343.311 241.605 342.467 240.922 341.897L225.096 328.696Z" fill="#96786F"/>
<g id="MaskGroup_3">
<mask id="mask2_690_13120" style="mask-type:alpha" maskUnits="userSpaceOnUse" x="50" y="328" width="192" height="77">
<path id="Vector_24" d="M225.096 328.696C224.556 328.246 223.876 328 223.174 328L146 328H68.0318C67.305 328 66.6029 328.264 66.056 328.743L51.0241 341.9C50.3733 342.469 50 343.292 50 344.157V387.845C50 388.693 50.3587 389.501 50.9873 390.07L66.0473 403.695C66.5989 404.194 67.3162 404.471 68.0601 404.471H146H223.146C223.865 404.471 224.56 404.212 225.105 403.743L240.959 390.074C241.62 389.504 242 388.675 242 387.802V344.2C242 343.311 241.605 342.467 240.922 341.897L225.096 328.696Z" fill="#96786F"/>
</mask>
<g mask="url(#mask2_690_13120)">
<g id="Group_3">
<path id="Vector_25" fill-rule="evenodd" clip-rule="evenodd" d="M141.196 410.597C176.377 416.511 211.881 420.467 247.531 422.444C249.296 418.808 250.884 415.086 252.295 411.279C253.119 409.092 253.883 406.904 254.589 404.66C255.912 400.484 257.059 396.137 258 391.875C251.943 391.421 245.914 390.796 239.856 390.086C188.394 384.034 138.197 370.454 86.529 364.971C61.6484 362.1 36.6266 360.516 11.5709 360.227C-4.11224 360.148 -19.7829 361.097 -35.333 363.068C-35.333 367.272 -35.1272 371.42 -34.7449 375.54C-34.7449 376.477 -34.539 377.386 -34.4508 378.381C-33.8792 383.354 -33.0154 389.557 -31.9022 394.444C-23.0802 393.28 -14.1356 391.731 -5.31352 391.333C8.94289 390.797 23.4071 392.015 37.5715 393.667C72.6244 397.53 106.526 405.285 141.314 410.654L141.196 410.597Z" fill="#89716A"/>
<path id="Vector_26" fill-rule="evenodd" clip-rule="evenodd" d="M78.3503 340.316C110.586 342.735 142.001 346.576 174.119 349.962C198.834 352.649 223.831 355.261 248.606 357.196L260.133 357.999C259.868 353.727 259.396 348.677 258.718 344.539C258.482 343.007 258.216 341.502 257.892 339.997C257.568 338.493 257.391 337.579 257.125 336.37C244.443 335.107 231.791 333.682 219.109 332.178C203.271 330.323 187.462 328.442 171.595 326.803C154.814 325.003 138.003 323.471 121.162 322.342C91.9343 320.408 62.8836 319.816 33.715 320.488C22.6256 320.757 11.5067 321.187 0.358284 321.778L-2.35508 321.966C-11.5864 322.45 -20.8178 322.96 -30.0196 323.578C-31.7668 328.549 -33.185 334.388 -34.2666 339.512C-27.7781 338.948 -21.4048 338.513 -14.9164 338.271C16.0477 337.366 47.4954 337.782 78.3503 340.316Z" fill="#88716A"/>
<path id="Vector_27" fill-rule="evenodd" clip-rule="evenodd" d="M59.2117 239.568C93.7565 238.2 128.366 239.903 162.543 244.652L185.271 247.961C188.698 249.709 192.008 251.588 195.229 253.574C184.92 251.747 174.727 249.867 164.3 248.12C148.684 245.395 132.926 243.381 117.087 242.083C99.2399 240.773 81.3051 240.773 63.4585 242.083C59.1238 242.375 54.8183 242.692 50.4835 243.063C53.4124 241.845 56.3413 240.733 59.2702 239.701L59.2117 239.568ZM222.292 274.914C210.128 274.067 197.953 273.043 185.769 271.843C169.894 270.148 154.576 265.462 138.702 263.688C124.126 262.096 109.448 261.406 94.7684 261.623C81.0026 261.808 67.2954 262.735 53.5882 264.032C38.563 265.462 23.5963 267.315 8.60038 269.036C10.182 267.633 11.7929 266.23 13.433 264.906C26.6131 263.662 39.7931 262.497 52.9438 261.649C66.7682 260.776 80.6218 260.299 94.5048 260.458C109.347 260.578 124.171 261.444 138.907 263.053C154.547 264.774 170.012 267.686 185.769 268.613C196.342 269.248 206.886 269.804 217.46 270.307C219.071 271.763 220.652 273.272 222.175 274.835L222.292 274.914ZM-3.75955 281.586C0.575214 281.586 5.02713 281.295 9.24474 281.057C23.6256 280.368 37.8307 278.674 52.0944 277.085C65.5005 275.392 79.0081 274.437 92.5424 274.226C123.149 274.226 153.346 278.7 183.748 281.162C199.369 282.433 215.107 283.492 230.962 284.34C231.635 285.16 232.309 285.981 232.954 286.828L228.033 286.378C213.242 285.081 198.451 283.731 183.631 282.433C153.376 279.918 123.237 275.47 92.8353 275.391C79.2401 275.584 65.6677 276.468 52.1823 278.038C38.0943 279.468 24.0356 281.03 9.88909 281.718C5.115 281.957 0.37019 282.195 -4.40391 282.486L-3.75955 281.586ZM-0.0691452 294.824C16.8013 293.474 33.4667 290.932 50.4835 290.085C70.747 289.22 91.0488 289.414 111.287 290.667C128.861 291.647 146.2 293.024 163.685 294.162C181.171 295.301 199.066 296.36 216.786 297.286C224.87 297.71 232.983 298.107 241.067 298.478C241.74 299.537 242.355 300.57 243 301.629C226.041 300.437 209.2 299.166 192.154 298.028C182.704 297.375 173.243 296.766 163.773 296.201C143.271 294.983 122.769 293.553 102.413 292.733C85.1637 291.753 67.8707 291.568 50.6007 292.177C33.701 293.024 16.8013 293.845 -0.0691452 294.824ZM251.581 319.235C232.046 317.912 212.568 316.191 193.091 314.443C173.614 312.696 154.694 310.922 135.48 309.492C117.907 308.168 100.333 306.553 82.7599 305.123C67.0318 303.826 51.2743 302.741 35.5169 302.476C17.0491 301.995 -1.43297 302.738 -19.7806 304.7L-19.2534 303.429C-5.39973 302.185 8.48322 301.523 22.4833 301.417C40.5839 301.258 58.6844 301.973 76.7264 303.058C96.35 304.223 115.944 305.706 135.539 307.268C162.338 309.28 189.02 311.425 215.761 313.199C227.125 313.975 238.518 314.655 249.941 315.237C250.527 316.561 251.054 317.885 251.581 319.235ZM-27.6007 321.618C-17.8182 320.797 -7.97716 320.215 1.68819 319.738C53.9679 317.642 106.335 318.102 158.56 321.115C191.012 322.757 223.142 327.125 255.36 330.805C255.887 332.632 256.355 334.512 256.795 336.366C244.2 335.121 231.577 333.718 218.983 332.235C203.255 330.408 187.556 328.555 171.798 326.94C155.133 325.166 138.438 323.657 121.714 322.545C81.7437 319.959 41.6274 319.773 1.62962 321.989C-8.44578 322.545 -18.5505 323.048 -28.6258 323.763C-28.3915 323.048 -28.1279 322.36 -27.8643 321.671L-27.6007 321.618ZM-23.9103 415.609C-2.70515 412.114 20.4917 413.332 46.3831 420.745C70.4293 427.629 94.4462 434.778 118.639 441.291C137.97 446.641 157.602 451.06 177.451 454.529C190.309 456.7 203.167 458.236 216.112 459.242C214.296 460.857 212.422 462.446 210.518 463.981C198.539 462.419 186.677 460.354 174.786 457.812C155.191 453.682 135.978 448.387 116.559 443.25C92.8353 436.87 69.1699 430.674 45.1822 425.141C23.7836 419.856 1.35062 418.952 -20.4835 422.493C-21.6844 420.242 -22.8266 417.939 -23.9103 415.609ZM-31.8769 392.786C-23.0902 391.674 -13.7446 390.007 -4.95793 389.636C9.2413 389.137 22.903 390.665 37.0106 392.204C71.923 395.805 106.015 404.039 140.664 409.043C175.724 414.544 211.105 418.222 246.631 420.057C245.606 422.096 244.493 424.108 243.351 426.094C240.422 425.935 237.2 425.749 234.154 425.538C202.099 422.967 170.237 418.706 138.731 412.776C124.643 410.287 110.584 407.481 96.555 404.833C83.4336 402.186 70.195 399.538 57.1028 397.208C45.3873 395.143 33.6717 393.29 21.9561 392.204C12.1673 391.116 4.8548 391.31 -4.95793 392.204C-12.8074 393.104 -23.3245 393.872 -31.2033 395.196L-31.8769 392.786ZM-35.2451 361.544C-16.7052 359.418 1.98319 358.533 20.6674 358.897C42.2826 359.188 63.8979 360.618 85.4252 362.259C111.405 364.219 137.208 367.872 162.894 371.711C194.556 376.424 226.481 381.534 258.493 384.261C258.083 386.723 257.615 389.159 257.058 391.569C250.996 391.145 244.962 390.562 238.899 389.901C187.644 384.261 137.647 371.605 86.1867 366.496C61.4059 363.82 36.4845 362.344 11.5293 362.074C-4.14015 361.985 -19.7978 362.869 -35.333 364.722V364.166C-35.333 363.292 -35.333 362.418 -35.333 361.518L-35.2451 361.544ZM-32.5506 338.642C-26.107 338.095 -19.6537 337.698 -13.1906 337.451C17.5585 336.55 48.3398 337.346 78.9817 339.834C110.994 342.217 142.89 345.659 174.786 348.995C199.33 351.642 223.874 354.052 248.477 355.958L259.958 356.805C259.958 358.288 259.958 359.771 260.134 361.253L250.205 360.512C225.543 358.367 201.029 355.72 176.543 353.072C143.886 349.339 111.199 345.394 78.4252 342.482C48.0333 339.514 17.4542 338.408 -13.1027 339.172C-19.7415 339.437 -26.3706 339.94 -32.9899 340.681C-32.8727 339.993 -32.7263 339.304 -32.5506 338.616V338.642ZM149.685 493.396C135.949 490.537 122.271 487.466 108.681 484.262C92.155 480.067 75.9687 474.848 60.2368 468.641C41.4333 461.625 22.5419 454.397 2.71331 453.682C1.95179 452.914 1.19028 452.173 0.458057 451.379C23.8892 451.008 45.8559 458.898 68.3205 466.682C85.1989 472.883 102.506 478.083 120.133 482.25C133.508 485.18 146.932 487.978 160.405 490.643C156.89 491.728 153.317 492.708 149.685 493.555V493.396Z" fill="#7A615A"/>
</g>
</g>
</g>
<path id="Vector_28" d="M220.509 339.913C219.954 339.398 219.225 339.111 218.468 339.111H145.903H73.3492C72.5857 339.111 71.8509 339.402 71.2946 339.925L57.3458 353.035C56.7425 353.602 56.4004 354.393 56.4004 355.221V381.677C56.4004 382.524 56.7582 383.331 57.3855 383.9L72.0814 397.223C72.6333 397.723 73.3515 398 74.0964 398H145.903H217.722C218.46 398 219.171 397.729 219.721 397.237L234.599 383.945C235.236 383.376 235.6 382.562 235.6 381.708V355.232C235.6 354.398 235.253 353.601 234.642 353.034L220.509 339.913Z" fill="#6E544C"/>
<path id="Vector_29" d="M220.509 337.69C219.954 337.175 219.225 336.889 218.468 336.889H145.903H73.3492C72.5857 336.889 71.8509 337.18 71.2946 337.703L57.3458 350.813C56.7425 351.38 56.4004 352.171 56.4004 352.999V379.455C56.4004 380.301 56.7582 381.109 57.3855 381.677L72.0814 395C72.6333 395.5 73.3515 395.778 74.0964 395.778H145.903H217.722C218.46 395.778 219.171 395.506 219.721 395.015L234.599 381.722C235.236 381.153 235.6 380.339 235.6 379.485V353.01C235.6 352.175 235.253 351.379 234.642 350.811L220.509 337.69Z" fill="#B4A26C"/>
<path id="Vector_30" d="M220.684 333.236C220.13 332.727 219.405 332.444 218.653 332.444H146H73.3476C72.5953 332.444 71.8705 332.727 71.3167 333.236L57.3695 346.065C56.7519 346.633 56.4004 347.433 56.4004 348.273V376.407C56.4004 377.265 56.7677 378.082 57.4094 378.651L72.1049 391.688C72.6538 392.175 73.3621 392.444 74.0959 392.444H146H217.903C218.638 392.444 219.347 392.175 219.896 391.687L234.593 378.624C235.234 378.055 235.6 377.239 235.6 376.382V348.273C235.6 347.433 235.249 346.633 234.631 346.065L220.684 333.236Z" fill="#FDE294"/>
</g>
<g id="Play" filter="url(#filter0_i_690_13120)">
<text fill="#A4925F" xml:space="preserve" style="white-space: pre" font-family="Bungee" font-size="40" letter-spacing="0em"><tspan x="90.2578" y="378.4">Play</tspan></text>
</g>
</g>
<g id="Buttons/Rect/PlayText/Hover">
<g id="Button/Rect/Fill/Hover_2">
<path id="Vector_31" d="M297.376 407.966L298.047 407.225L297.376 407.966C298.112 408.632 299.068 409 300.06 409H378H455.146C456.105 409 457.032 408.656 457.758 408.029L473.612 394.361C474.493 393.601 475 392.495 475 391.331V344.399C475 343.216 474.477 342.095 473.572 341.335L457.609 327.936C456.889 327.331 455.978 327 455.037 327H378H300.134C299.16 327 298.219 327.356 297.488 328.001L297.488 328.001L282.354 341.354C281.493 342.114 281 343.206 281 344.354V391.375C281 392.505 281.478 393.582 282.316 394.341L297.376 407.966Z" fill="#725952" stroke="#725952" stroke-width="2"/>
<path id="Vector_32" d="M457.096 332.225C456.556 331.776 455.876 331.529 455.174 331.529L378 331.529H300.032C299.305 331.529 298.603 331.793 298.056 332.272L283.024 345.429C282.373 345.999 282 346.821 282 347.686V391.374C282 392.222 282.359 393.03 282.987 393.599L298.047 407.224C298.599 407.724 299.316 408 300.06 408H378H455.146C455.865 408 456.56 407.742 457.105 407.272L472.959 393.603C473.62 393.033 474 392.204 474 391.331V347.73C474 346.84 473.605 345.996 472.922 345.426L457.096 332.225Z" fill="#5F443C"/>
<path id="Vector_33" d="M457.096 328.696C456.556 328.246 455.876 328 455.174 328L378 328H300.032C299.305 328 298.603 328.264 298.056 328.743L283.024 341.9C282.373 342.469 282 343.292 282 344.157V387.845C282 388.693 282.359 389.501 282.987 390.07L298.047 403.695C298.599 404.194 299.316 404.471 300.06 404.471H378H455.146C455.865 404.471 456.56 404.212 457.105 403.743L472.959 390.074C473.62 389.504 474 388.675 474 387.802V344.2C474 343.311 473.605 342.467 472.922 341.897L457.096 328.696Z" fill="#96786F"/>
<g id="MaskGroup_4">
<mask id="mask3_690_13120" style="mask-type:alpha" maskUnits="userSpaceOnUse" x="282" y="328" width="192" height="77">
<path id="Vector_34" d="M457.096 328.696C456.556 328.246 455.876 328 455.174 328L378 328H300.032C299.305 328 298.603 328.264 298.056 328.743L283.024 341.9C282.373 342.469 282 343.292 282 344.157V387.845C282 388.693 282.359 389.501 282.987 390.07L298.047 403.695C298.599 404.194 299.316 404.471 300.06 404.471H378H455.146C455.865 404.471 456.56 404.212 457.105 403.743L472.959 390.074C473.62 389.504 474 388.675 474 387.802V344.2C474 343.311 473.605 342.467 472.922 341.897L457.096 328.696Z" fill="#96786F"/>
</mask>
<g mask="url(#mask3_690_13120)">
<g id="Group_4">
<path id="Vector_35" fill-rule="evenodd" clip-rule="evenodd" d="M373.196 410.597C408.377 416.511 443.881 420.467 479.531 422.444C481.296 418.808 482.884 415.086 484.295 411.279C485.119 409.092 485.883 406.904 486.589 404.66C487.912 400.484 489.059 396.137 490 391.875C483.943 391.421 477.914 390.796 471.856 390.086C420.394 384.034 370.197 370.454 318.529 364.971C293.648 362.1 268.627 360.516 243.571 360.227C227.888 360.148 212.217 361.097 196.667 363.068C196.667 367.272 196.873 371.42 197.255 375.54C197.255 376.477 197.461 377.386 197.549 378.381C198.121 383.354 198.985 389.557 200.098 394.444C208.92 393.28 217.864 391.731 226.686 391.333C240.943 390.797 255.407 392.015 269.571 393.667C304.624 397.53 338.526 405.285 373.314 410.654L373.196 410.597Z" fill="#89716A"/>
<path id="Vector_36" fill-rule="evenodd" clip-rule="evenodd" d="M310.35 340.317C342.586 342.736 374.001 346.577 406.119 349.963C430.834 352.65 455.831 355.262 480.606 357.197L492.133 358C491.868 353.728 491.396 348.678 490.718 344.54C490.482 343.008 490.216 341.503 489.892 339.998C489.568 338.494 489.391 337.58 489.125 336.371C476.443 335.108 463.791 333.683 451.109 332.179C435.271 330.324 419.462 328.443 403.595 326.804C386.814 325.004 370.003 323.472 353.162 322.343C323.934 320.409 294.884 319.817 265.715 320.489C254.626 320.758 243.507 321.188 232.358 321.779L229.645 321.967C220.414 322.451 211.182 322.961 201.98 323.579C200.233 328.549 198.815 334.389 197.733 339.513C204.222 338.949 210.595 338.514 217.084 338.272C248.048 337.367 279.495 337.783 310.35 340.317Z" fill="#88716A"/>
<path id="Vector_37" fill-rule="evenodd" clip-rule="evenodd" d="M291.212 239.569C325.756 238.201 360.366 239.903 394.543 244.652L417.271 247.962C420.698 249.709 424.008 251.589 427.229 253.575C416.92 251.748 406.727 249.868 396.3 248.12C380.684 245.396 364.926 243.381 349.087 242.084C331.24 240.773 313.305 240.773 295.459 242.084C291.124 242.375 286.818 242.693 282.484 243.064C285.412 241.846 288.341 240.734 291.27 239.701L291.212 239.569ZM454.292 274.914C442.128 274.067 429.953 273.043 417.769 271.843C401.894 270.149 386.576 265.462 370.702 263.689C356.126 262.097 341.448 261.407 326.768 261.623C313.003 261.809 299.295 262.735 285.588 264.033C270.563 265.462 255.596 267.316 240.6 269.037C242.182 267.634 243.793 266.23 245.433 264.906C258.613 263.662 271.793 262.497 284.944 261.65C298.768 260.776 312.622 260.3 326.505 260.458C341.347 260.578 356.171 261.444 370.907 263.053C386.547 264.774 402.012 267.686 417.769 268.613C428.342 269.249 438.886 269.805 449.46 270.308C451.071 271.764 452.652 273.273 454.175 274.835L454.292 274.914ZM228.24 281.587C232.575 281.587 237.027 281.295 241.245 281.057C255.626 280.369 269.831 278.674 284.094 277.086C297.501 275.392 311.008 274.437 324.542 274.226C355.149 274.226 385.346 278.701 415.748 281.163C431.369 282.434 447.107 283.493 462.962 284.34C463.635 285.161 464.309 285.982 464.954 286.829L460.033 286.379C445.242 285.081 430.451 283.731 415.631 282.434C385.376 279.919 355.237 275.47 324.835 275.391C311.24 275.584 297.668 276.468 284.182 278.039C270.094 279.468 256.036 281.031 241.889 281.719C237.115 281.957 232.37 282.195 227.596 282.487L228.24 281.587ZM231.931 294.825C248.801 293.474 265.467 290.933 282.484 290.085C302.747 289.22 323.049 289.415 343.287 290.668C360.861 291.647 378.2 293.024 395.685 294.163C413.171 295.301 431.066 296.36 448.786 297.287C456.87 297.711 464.983 298.108 473.067 298.478C473.74 299.537 474.355 300.57 475 301.629C458.041 300.438 441.2 299.167 424.154 298.028C414.704 297.375 405.243 296.766 395.773 296.201C375.271 294.983 354.769 293.554 334.413 292.733C317.164 291.754 299.871 291.568 282.601 292.177C265.701 293.024 248.801 293.845 231.931 294.825ZM483.581 319.236C464.046 317.912 444.568 316.191 425.091 314.444C405.614 312.696 386.694 310.922 367.48 309.493C349.907 308.169 332.333 306.554 314.76 305.124C299.032 303.827 283.274 302.741 267.517 302.476C249.049 301.995 230.567 302.739 212.219 304.7L212.747 303.429C226.6 302.185 240.483 301.523 254.483 301.417C272.584 301.258 290.684 301.973 308.726 303.059C328.35 304.224 347.944 305.706 367.539 307.268C394.338 309.281 421.02 311.425 447.761 313.199C459.125 313.976 470.518 314.655 481.941 315.238C482.527 316.562 483.054 317.885 483.581 319.236ZM204.399 321.619C214.182 320.798 224.023 320.215 233.688 319.739C285.968 317.642 338.335 318.102 390.56 321.116C423.012 322.757 455.142 327.126 487.36 330.806C487.887 332.633 488.355 334.513 488.795 336.366C476.2 335.122 463.577 333.718 450.983 332.236C435.255 330.409 419.556 328.555 403.798 326.94C387.133 325.166 370.438 323.657 353.714 322.545C313.744 319.959 273.627 319.774 233.63 321.989C223.554 322.545 213.45 323.048 203.374 323.763C203.608 323.048 203.872 322.36 204.136 321.672L204.399 321.619ZM208.09 415.609C229.295 412.115 252.492 413.333 278.383 420.746C302.429 427.63 326.446 434.778 350.639 441.291C369.97 446.642 389.602 451.06 409.451 454.53C422.309 456.701 435.167 458.236 448.112 459.242C446.296 460.857 444.422 462.446 442.518 463.982C430.539 462.42 418.677 460.354 406.786 457.813C387.191 453.682 367.978 448.387 348.559 443.251C324.835 436.87 301.17 430.674 277.182 425.141C255.784 419.857 233.351 418.952 211.516 422.493C210.316 420.243 209.173 417.939 208.09 415.609ZM200.123 392.787C208.91 391.675 218.255 390.007 227.042 389.637C241.241 389.137 254.903 390.665 269.011 392.204C303.923 395.805 338.015 404.039 372.664 409.043C407.724 414.545 443.105 418.222 478.631 420.057C477.606 422.096 476.493 424.108 475.351 426.094C472.422 425.935 469.2 425.75 466.154 425.538C434.099 422.968 402.237 418.706 370.731 412.776C356.643 410.288 342.584 407.481 328.555 404.834C315.434 402.186 302.195 399.538 289.103 397.208C277.387 395.143 265.672 393.29 253.956 392.204C244.167 391.117 236.855 391.31 227.042 392.204C219.193 393.105 208.675 393.872 200.797 395.196L200.123 392.787ZM196.755 361.545C215.295 359.418 233.983 358.534 252.667 358.897C274.283 359.188 295.898 360.618 317.425 362.26C343.405 364.219 369.208 367.873 394.894 371.712C426.556 376.425 458.481 381.534 490.493 384.262C490.083 386.724 489.615 389.16 489.058 391.569C482.996 391.145 476.962 390.563 470.899 389.901C419.644 384.262 369.647 371.606 318.187 366.496C293.406 363.82 268.484 362.344 243.529 362.074C227.86 361.985 212.202 362.87 196.667 364.722V364.166C196.667 363.292 196.667 362.419 196.667 361.518L196.755 361.545ZM199.449 338.643C205.893 338.096 212.346 337.699 218.809 337.451C249.559 336.551 280.34 337.347 310.982 339.834C342.994 342.217 374.89 345.659 406.786 348.995C431.33 351.643 455.874 354.052 480.477 355.958L491.958 356.806C491.958 358.288 491.958 359.771 492.134 361.254L482.205 360.512C457.543 358.368 433.029 355.72 408.543 353.072C375.886 349.339 343.199 345.394 310.425 342.482C280.033 339.514 249.454 338.409 218.897 339.172C212.258 339.437 205.629 339.94 199.01 340.682C199.127 339.993 199.274 339.305 199.449 338.616V338.643ZM381.685 493.397C367.949 490.537 354.271 487.466 340.681 484.262C324.155 480.067 307.969 474.848 292.237 468.641C273.433 461.625 254.542 454.397 234.713 453.682C233.952 452.915 233.19 452.173 232.458 451.379C255.889 451.008 277.856 458.898 300.321 466.682C317.199 472.883 334.506 478.083 352.133 482.25C365.508 485.18 378.932 487.978 392.405 490.643C388.89 491.729 385.317 492.708 381.685 493.556V493.397Z" fill="#7A615A"/>
</g>
</g>
</g>
<path id="Vector_38" d="M452.509 339.913C451.954 339.398 451.225 339.111 450.468 339.111H377.903H305.349C304.586 339.111 303.851 339.402 303.295 339.925L289.346 353.035C288.743 353.602 288.4 354.393 288.4 355.221V381.677C288.4 382.524 288.758 383.331 289.385 383.9L304.081 397.223C304.633 397.723 305.352 398 306.096 398H377.903H449.722C450.46 398 451.171 397.729 451.721 397.237L466.599 383.945C467.236 383.376 467.6 382.562 467.6 381.708V355.232C467.6 354.398 467.253 353.601 466.642 353.034L452.509 339.913Z" fill="#6E544C"/>
<path id="Vector_39" d="M452.509 337.69C451.954 337.175 451.225 336.889 450.468 336.889H377.903H305.349C304.586 336.889 303.851 337.18 303.295 337.703L289.346 350.813C288.743 351.38 288.4 352.171 288.4 352.999V379.455C288.4 380.301 288.758 381.109 289.385 381.677L304.081 395C304.633 395.5 305.352 395.778 306.096 395.778H377.903H449.722C450.46 395.778 451.171 395.506 451.721 395.015L466.599 381.722C467.236 381.153 467.6 380.339 467.6 379.485V353.01C467.6 352.175 467.253 351.379 466.642 350.811L452.509 337.69Z" fill="#B4A26C"/>
<path id="Vector_40" d="M452.684 333.236C452.13 332.727 451.405 332.444 450.653 332.444H378H305.348C304.595 332.444 303.87 332.727 303.317 333.236L289.369 346.065C288.752 346.633 288.4 347.433 288.4 348.273V376.407C288.4 377.265 288.768 378.082 289.409 378.651L304.105 391.688C304.654 392.175 305.362 392.444 306.096 392.444H378H449.903C450.638 392.444 451.347 392.175 451.896 391.687L466.593 378.624C467.234 378.055 467.6 377.239 467.6 376.382V348.273C467.6 347.433 467.249 346.633 466.631 346.065L452.684 333.236Z" fill="#FDE294"/>
<g id="Union_2" style="mix-blend-mode:soft-light">
<path d="M450.513 332.444C451.355 332.444 452.167 332.76 452.785 333.33L466.524 345.966C467.21 346.597 467.6 347.485 467.6 348.414V379.341C467.6 380.287 467.196 381.189 466.488 381.821L451.822 394.925C451.207 395.474 450.411 395.778 449.585 395.778H306.235C305.401 395.778 304.597 395.468 303.98 394.909L289.494 381.776C288.798 381.144 288.4 380.25 288.4 379.312V348.414C288.4 347.485 288.79 346.597 289.476 345.966L303.215 333.33C303.834 332.76 304.646 332.444 305.488 332.444H450.513Z" fill="#FDE294"/>
</g>
</g>
<g id="Play_2" filter="url(#filter1_i_690_13120)">
<text fill="#A4925F" xml:space="preserve" style="white-space: pre" font-family="Bungee" font-size="40" letter-spacing="0em"><tspan x="322.258" y="378.4">Play</tspan></text>
</g>
</g>
</g>
<g id="Group 6">
<g id="Buttons/Rect/PlayIcon/Default">
<g id="Button/Rect/Fill/Default_3">
<path id="Vector_41" d="M65.3764 537.966L66.0473 537.225L65.3764 537.966C66.1119 538.632 67.0683 539 68.0601 539H146H223.146C224.105 539 225.032 538.656 225.758 538.029L241.612 524.361C242.493 523.601 243 522.495 243 521.331V474.399C243 473.216 242.477 472.095 241.572 471.335L225.609 457.936C224.889 457.331 223.978 457 223.037 457H146H68.1343C67.1597 457 66.2186 457.356 65.4878 458.001L65.4878 458.001L50.3535 471.354C49.493 472.114 49 473.206 49 474.354V521.375C49 522.505 49.4782 523.582 50.3164 524.341L65.3764 537.966Z" fill="#725952" stroke="#725952" stroke-width="2"/>
<path id="Vector_42" d="M225.096 462.225C224.556 461.776 223.876 461.529 223.174 461.529L146 461.529H68.0318C67.305 461.529 66.6029 461.793 66.056 462.272L51.0241 475.429C50.3733 475.999 50 476.822 50 477.686V521.374C50 522.222 50.3587 523.03 50.9873 523.599L66.0473 537.225C66.5989 537.724 67.3162 538 68.0601 538H146H223.146C223.865 538 224.56 537.742 225.105 537.272L240.959 523.603C241.62 523.033 242 522.204 242 521.331V477.73C242 476.84 241.605 475.996 240.922 475.426L225.096 462.225Z" fill="#5F443C"/>
<path id="Vector_43" d="M225.096 458.696C224.556 458.246 223.876 458 223.174 458L146 458H68.0318C67.305 458 66.6029 458.264 66.056 458.743L51.0241 471.9C50.3733 472.469 50 473.292 50 474.157V517.845C50 518.693 50.3587 519.501 50.9873 520.07L66.0473 533.695C66.5989 534.194 67.3162 534.471 68.0601 534.471H146H223.146C223.865 534.471 224.56 534.212 225.105 533.743L240.959 520.074C241.62 519.504 242 518.675 242 517.802V474.2C242 473.311 241.605 472.467 240.922 471.897L225.096 458.696Z" fill="#96786F"/>
<g id="MaskGroup_5">
<mask id="mask4_690_13120" style="mask-type:alpha" maskUnits="userSpaceOnUse" x="50" y="458" width="192" height="77">
<path id="Vector_44" d="M225.096 458.696C224.556 458.246 223.876 458 223.174 458L146 458H68.0318C67.305 458 66.6029 458.264 66.056 458.743L51.0241 471.9C50.3733 472.469 50 473.292 50 474.157V517.845C50 518.693 50.3587 519.501 50.9873 520.07L66.0473 533.695C66.5989 534.194 67.3162 534.471 68.0601 534.471H146H223.146C223.865 534.471 224.56 534.212 225.105 533.743L240.959 520.074C241.62 519.504 242 518.675 242 517.802V474.2C242 473.311 241.605 472.467 240.922 471.897L225.096 458.696Z" fill="#96786F"/>
</mask>
<g mask="url(#mask4_690_13120)">
<g id="Group_5">
<path id="Vector_45" fill-rule="evenodd" clip-rule="evenodd" d="M141.196 540.597C176.377 546.511 211.881 550.467 247.531 552.444C249.296 548.808 250.884 545.086 252.295 541.279C253.119 539.092 253.883 536.904 254.589 534.66C255.912 530.484 257.059 526.137 258 521.875C251.943 521.421 245.914 520.796 239.856 520.086C188.394 514.034 138.197 500.454 86.529 494.971C61.6484 492.1 36.6266 490.516 11.5709 490.227C-4.11224 490.148 -19.7829 491.097 -35.333 493.068C-35.333 497.272 -35.1272 501.42 -34.7449 505.54C-34.7449 506.477 -34.539 507.386 -34.4508 508.381C-33.8792 513.354 -33.0154 519.557 -31.9022 524.444C-23.0802 523.28 -14.1356 521.731 -5.31352 521.333C8.94289 520.797 23.4071 522.015 37.5715 523.667C72.6244 527.53 106.526 535.285 141.314 540.654L141.196 540.597Z" fill="#89716A"/>
<path id="Vector_46" fill-rule="evenodd" clip-rule="evenodd" d="M78.3503 470.316C110.586 472.735 142.001 476.576 174.119 479.962C198.834 482.649 223.831 485.261 248.606 487.196L260.133 487.999C259.868 483.727 259.396 478.677 258.718 474.539C258.482 473.007 258.216 471.502 257.892 469.997C257.568 468.493 257.391 467.579 257.125 466.37C244.443 465.107 231.791 463.682 219.109 462.178C203.271 460.323 187.462 458.442 171.595 456.803C154.814 455.003 138.003 453.471 121.162 452.342C91.9343 450.408 62.8836 449.816 33.715 450.488C22.6256 450.757 11.5067 451.187 0.358284 451.778L-2.35508 451.966C-11.5864 452.45 -20.8178 452.96 -30.0196 453.578C-31.7668 458.549 -33.185 464.388 -34.2666 469.512C-27.7781 468.948 -21.4048 468.513 -14.9164 468.271C16.0477 467.366 47.4954 467.782 78.3503 470.316Z" fill="#88716A"/>
<path id="Vector_47" fill-rule="evenodd" clip-rule="evenodd" d="M59.2117 369.568C93.7565 368.2 128.366 369.903 162.543 374.652L185.271 377.961C188.698 379.709 192.008 381.588 195.229 383.574C184.92 381.747 174.727 379.867 164.3 378.12C148.684 375.395 132.926 373.381 117.087 372.083C99.2399 370.773 81.3051 370.773 63.4585 372.083C59.1238 372.375 54.8183 372.692 50.4835 373.063C53.4124 371.845 56.3413 370.733 59.2702 369.701L59.2117 369.568ZM222.292 404.914C210.128 404.067 197.953 403.043 185.769 401.843C169.894 400.148 154.576 395.462 138.702 393.688C124.126 392.096 109.448 391.406 94.7684 391.623C81.0026 391.808 67.2954 392.735 53.5882 394.032C38.563 395.462 23.5963 397.315 8.60038 399.036C10.182 397.633 11.7929 396.23 13.433 394.906C26.6131 393.662 39.7931 392.497 52.9438 391.649C66.7682 390.776 80.6218 390.299 94.5048 390.458C109.347 390.578 124.171 391.444 138.907 393.053C154.547 394.774 170.012 397.686 185.769 398.613C196.342 399.248 206.886 399.804 217.46 400.307C219.071 401.763 220.652 403.272 222.175 404.835L222.292 404.914ZM-3.75955 411.586C0.575214 411.586 5.02713 411.295 9.24474 411.057C23.6256 410.368 37.8307 408.674 52.0944 407.085C65.5005 405.392 79.0081 404.437 92.5424 404.226C123.149 404.226 153.346 408.7 183.748 411.162C199.369 412.433 215.107 413.492 230.962 414.34C231.635 415.16 232.309 415.981 232.954 416.828L228.033 416.378C213.242 415.081 198.451 413.731 183.631 412.433C153.376 409.918 123.237 405.47 92.8353 405.391C79.2401 405.584 65.6677 406.468 52.1823 408.038C38.0943 409.468 24.0356 411.03 9.88909 411.718C5.115 411.957 0.37019 412.195 -4.40391 412.486L-3.75955 411.586ZM-0.0691452 424.824C16.8013 423.474 33.4667 420.932 50.4835 420.085C70.747 419.22 91.0488 419.414 111.287 420.667C128.861 421.647 146.2 423.024 163.685 424.162C181.171 425.301 199.066 426.36 216.786 427.286C224.87 427.71 232.983 428.107 241.067 428.478C241.74 429.537 242.355 430.57 243 431.629C226.041 430.437 209.2 429.166 192.154 428.028C182.704 427.375 173.243 426.766 163.773 426.201C143.271 424.983 122.769 423.553 102.413 422.733C85.1637 421.753 67.8707 421.568 50.6007 422.177C33.701 423.024 16.8013 423.845 -0.0691452 424.824ZM251.581 449.235C232.046 447.912 212.568 446.191 193.091 444.443C173.614 442.696 154.694 440.922 135.48 439.492C117.907 438.168 100.333 436.553 82.7599 435.123C67.0318 433.826 51.2743 432.741 35.5169 432.476C17.0491 431.995 -1.43297 432.738 -19.7806 434.7L-19.2534 433.429C-5.39973 432.185 8.48322 431.523 22.4833 431.417C40.5839 431.258 58.6844 431.973 76.7264 433.058C96.35 434.223 115.944 435.706 135.539 437.268C162.338 439.28 189.02 441.425 215.761 443.199C227.125 443.975 238.518 444.655 249.941 445.237C250.527 446.561 251.054 447.885 251.581 449.235ZM-27.6007 451.618C-17.8182 450.797 -7.97716 450.215 1.68819 449.738C53.9679 447.642 106.335 448.102 158.56 451.115C191.012 452.757 223.142 457.125 255.36 460.805C255.887 462.632 256.355 464.512 256.795 466.366C244.2 465.121 231.577 463.718 218.983 462.235C203.255 460.408 187.556 458.555 171.798 456.94C155.133 455.166 138.438 453.657 121.714 452.545C81.7437 449.959 41.6274 449.773 1.62962 451.989C-8.44578 452.545 -18.5505 453.048 -28.6258 453.763C-28.3915 453.048 -28.1279 452.36 -27.8643 451.671L-27.6007 451.618ZM-23.9103 545.609C-2.70515 542.114 20.4917 543.332 46.3831 550.745C70.4293 557.629 94.4462 564.778 118.639 571.291C137.97 576.641 157.602 581.06 177.451 584.529C190.309 586.7 203.167 588.236 216.112 589.242C214.296 590.857 212.422 592.446 210.518 593.981C198.539 592.419 186.677 590.354 174.786 587.812C155.191 583.682 135.978 578.387 116.559 573.25C92.8353 566.87 69.1699 560.674 45.1822 555.141C23.7836 549.856 1.35062 548.952 -20.4835 552.493C-21.6844 550.242 -22.8266 547.939 -23.9103 545.609ZM-31.8769 522.786C-23.0902 521.674 -13.7446 520.007 -4.95793 519.636C9.2413 519.137 22.903 520.665 37.0106 522.204C71.923 525.805 106.015 534.039 140.664 539.043C175.724 544.544 211.105 548.222 246.631 550.057C245.606 552.096 244.493 554.108 243.351 556.094C240.422 555.935 237.2 555.749 234.154 555.538C202.099 552.967 170.237 548.706 138.731 542.776C124.643 540.287 110.584 537.481 96.555 534.833C83.4336 532.186 70.195 529.538 57.1028 527.208C45.3873 525.143 33.6717 523.29 21.9561 522.204C12.1673 521.116 4.8548 521.31 -4.95793 522.204C-12.8074 523.104 -23.3245 523.872 -31.2033 525.196L-31.8769 522.786ZM-35.2451 491.544C-16.7052 489.418 1.98319 488.533 20.6674 488.897C42.2826 489.188 63.8979 490.618 85.4252 492.259C111.405 494.219 137.208 497.872 162.894 501.711C194.556 506.424 226.481 511.534 258.493 514.261C258.083 516.723 257.615 519.159 257.058 521.569C250.996 521.145 244.962 520.562 238.899 519.901C187.644 514.261 137.647 501.605 86.1867 496.496C61.4059 493.82 36.4845 492.344 11.5293 492.074C-4.14015 491.985 -19.7978 492.869 -35.333 494.722V494.166C-35.333 493.292 -35.333 492.418 -35.333 491.518L-35.2451 491.544ZM-32.5506 468.642C-26.107 468.095 -19.6537 467.698 -13.1906 467.451C17.5585 466.55 48.3398 467.346 78.9817 469.834C110.994 472.217 142.89 475.659 174.786 478.995C199.33 481.642 223.874 484.052 248.477 485.958L259.958 486.805C259.958 488.288 259.958 489.771 260.134 491.253L250.205 490.512C225.543 488.367 201.029 485.72 176.543 483.072C143.886 479.339 111.199 475.394 78.4252 472.482C48.0333 469.514 17.4542 468.408 -13.1027 469.172C-19.7415 469.437 -26.3706 469.94 -32.9899 470.681C-32.8727 469.993 -32.7263 469.304 -32.5506 468.616V468.642ZM149.685 623.396C135.949 620.537 122.271 617.466 108.681 614.262C92.155 610.067 75.9687 604.848 60.2368 598.641C41.4333 591.625 22.5419 584.397 2.71331 583.682C1.95179 582.914 1.19028 582.173 0.458057 581.379C23.8892 581.008 45.8559 588.898 68.3205 596.682C85.1989 602.883 102.506 608.083 120.133 612.25C133.508 615.18 146.932 617.978 160.405 620.643C156.89 621.728 153.317 622.708 149.685 623.555V623.396Z" fill="#7A615A"/>
</g>
</g>
</g>
<path id="Vector_48" d="M220.509 469.913C219.954 469.398 219.225 469.111 218.468 469.111H145.903H73.3492C72.5857 469.111 71.8509 469.402 71.2946 469.925L57.3458 483.035C56.7425 483.602 56.4004 484.393 56.4004 485.221V511.677C56.4004 512.524 56.7582 513.331 57.3855 513.9L72.0814 527.223C72.6333 527.723 73.3515 528 74.0964 528H145.903H217.722C218.46 528 219.171 527.729 219.721 527.237L234.599 513.945C235.236 513.376 235.6 512.562 235.6 511.708V485.232C235.6 484.398 235.253 483.601 234.642 483.034L220.509 469.913Z" fill="#6E544C"/>
<path id="Vector_49" d="M220.509 467.69C219.954 467.175 219.225 466.889 218.468 466.889H145.903H73.3492C72.5857 466.889 71.8509 467.18 71.2946 467.703L57.3458 480.813C56.7425 481.38 56.4004 482.171 56.4004 482.999V509.455C56.4004 510.301 56.7582 511.109 57.3855 511.677L72.0814 525C72.6333 525.5 73.3515 525.778 74.0964 525.778H145.903H217.722C218.46 525.778 219.171 525.506 219.721 525.015L234.599 511.722C235.236 511.153 235.6 510.339 235.6 509.485V483.01C235.6 482.175 235.253 481.379 234.642 480.811L220.509 467.69Z" fill="#B4A26C"/>
<path id="Vector_50" d="M220.684 463.236C220.13 462.727 219.405 462.444 218.653 462.444H146H73.3476C72.5953 462.444 71.8705 462.727 71.3167 463.236L57.3695 476.065C56.7519 476.633 56.4004 477.433 56.4004 478.273V506.407C56.4004 507.265 56.7677 508.082 57.4094 508.651L72.1049 521.688C72.6538 522.175 73.3621 522.444 74.0959 522.444H146H217.903C218.638 522.444 219.347 522.175 219.896 521.687L234.593 508.624C235.234 508.055 235.6 507.239 235.6 506.382V478.273C235.6 477.433 235.249 476.633 234.631 476.065L220.684 463.236Z" fill="#FDE294"/>
</g>
<g id="Icon/Play">
<g id="Play_3" filter="url(#filter2_i_690_13120)">
<path d="M163.171 487.161C166.943 489.323 166.943 494.677 163.171 496.839L134.575 513.228C130.774 515.407 126 512.713 126 508.39L126 475.61C126 471.287 130.774 468.593 134.575 470.772L163.171 487.161Z" fill="#B4A26C"/>
</g>
</g>
</g>
<g id="Buttons/Rect/PlayIcon/Hover">
<g id="Button/Rect/Fill/Hover_3">
<path id="Vector_51" d="M297.376 537.966L298.047 537.225L297.376 537.966C298.112 538.632 299.068 539 300.06 539H378H455.146C456.105 539 457.032 538.656 457.758 538.029L473.612 524.361C474.493 523.601 475 522.495 475 521.331V474.399C475 473.216 474.477 472.095 473.572 471.335L457.609 457.936C456.889 457.331 455.978 457 455.037 457H378H300.134C299.16 457 298.219 457.356 297.488 458.001L297.488 458.001L282.354 471.354C281.493 472.114 281 473.206 281 474.354V521.375C281 522.505 281.478 523.582 282.316 524.341L297.376 537.966Z" fill="#725952" stroke="#725952" stroke-width="2"/>
<path id="Vector_52" d="M457.096 462.225C456.556 461.776 455.876 461.529 455.174 461.529L378 461.529H300.032C299.305 461.529 298.603 461.793 298.056 462.272L283.024 475.429C282.373 475.999 282 476.821 282 477.686V521.374C282 522.222 282.359 523.03 282.987 523.599L298.047 537.224C298.599 537.724 299.316 538 300.06 538H378H455.146C455.865 538 456.56 537.742 457.105 537.272L472.959 523.603C473.62 523.033 474 522.204 474 521.331V477.73C474 476.84 473.605 475.996 472.922 475.426L457.096 462.225Z" fill="#5F443C"/>
<path id="Vector_53" d="M457.096 458.696C456.556 458.246 455.876 458 455.174 458L378 458H300.032C299.305 458 298.603 458.264 298.056 458.743L283.024 471.9C282.373 472.469 282 473.292 282 474.157V517.845C282 518.693 282.359 519.501 282.987 520.07L298.047 533.695C298.599 534.194 299.316 534.471 300.06 534.471H378H455.146C455.865 534.471 456.56 534.212 457.105 533.743L472.959 520.074C473.62 519.504 474 518.675 474 517.802V474.2C474 473.311 473.605 472.467 472.922 471.897L457.096 458.696Z" fill="#96786F"/>
<g id="MaskGroup_6">
<mask id="mask5_690_13120" style="mask-type:alpha" maskUnits="userSpaceOnUse" x="282" y="458" width="192" height="77">
<path id="Vector_54" d="M457.096 458.696C456.556 458.246 455.876 458 455.174 458L378 458H300.032C299.305 458 298.603 458.264 298.056 458.743L283.024 471.9C282.373 472.469 282 473.292 282 474.157V517.845C282 518.693 282.359 519.501 282.987 520.07L298.047 533.695C298.599 534.194 299.316 534.471 300.06 534.471H378H455.146C455.865 534.471 456.56 534.212 457.105 533.743L472.959 520.074C473.62 519.504 474 518.675 474 517.802V474.2C474 473.311 473.605 472.467 472.922 471.897L457.096 458.696Z" fill="#96786F"/>
</mask>
<g mask="url(#mask5_690_13120)">
<g id="Group_6">
<path id="Vector_55" fill-rule="evenodd" clip-rule="evenodd" d="M373.196 540.597C408.377 546.511 443.881 550.467 479.531 552.444C481.296 548.808 482.884 545.086 484.295 541.279C485.119 539.092 485.883 536.904 486.589 534.66C487.912 530.484 489.059 526.137 490 521.875C483.943 521.421 477.914 520.796 471.856 520.086C420.394 514.034 370.197 500.454 318.529 494.971C293.648 492.1 268.627 490.516 243.571 490.227C227.888 490.148 212.217 491.097 196.667 493.068C196.667 497.272 196.873 501.42 197.255 505.54C197.255 506.477 197.461 507.386 197.549 508.381C198.121 513.354 198.985 519.557 200.098 524.444C208.92 523.28 217.864 521.731 226.686 521.333C240.943 520.797 255.407 522.015 269.571 523.667C304.624 527.53 338.526 535.285 373.314 540.654L373.196 540.597Z" fill="#89716A"/>
<path id="Vector_56" fill-rule="evenodd" clip-rule="evenodd" d="M310.35 470.317C342.586 472.736 374.001 476.577 406.119 479.963C430.834 482.65 455.831 485.262 480.606 487.197L492.133 488C491.868 483.728 491.396 478.678 490.718 474.54C490.482 473.008 490.216 471.503 489.892 469.998C489.568 468.494 489.391 467.58 489.125 466.371C476.443 465.108 463.791 463.683 451.109 462.179C435.271 460.324 419.462 458.443 403.595 456.804C386.814 455.004 370.003 453.472 353.162 452.343C323.934 450.409 294.884 449.817 265.715 450.489C254.626 450.758 243.507 451.188 232.358 451.779L229.645 451.967C220.414 452.451 211.182 452.961 201.98 453.579C200.233 458.549 198.815 464.389 197.733 469.513C204.222 468.949 210.595 468.514 217.084 468.272C248.048 467.367 279.495 467.783 310.35 470.317Z" fill="#88716A"/>
<path id="Vector_57" fill-rule="evenodd" clip-rule="evenodd" d="M291.212 369.569C325.756 368.201 360.366 369.903 394.543 374.652L417.271 377.962C420.698 379.709 424.008 381.589 427.229 383.575C416.92 381.748 406.727 379.868 396.3 378.12C380.684 375.396 364.926 373.381 349.087 372.084C331.24 370.773 313.305 370.773 295.459 372.084C291.124 372.375 286.818 372.693 282.484 373.064C285.412 371.846 288.341 370.734 291.27 369.701L291.212 369.569ZM454.292 404.914C442.128 404.067 429.953 403.043 417.769 401.843C401.894 400.149 386.576 395.462 370.702 393.689C356.126 392.097 341.448 391.407 326.768 391.623C313.003 391.809 299.295 392.735 285.588 394.033C270.563 395.462 255.596 397.316 240.6 399.037C242.182 397.634 243.793 396.23 245.433 394.906C258.613 393.662 271.793 392.497 284.944 391.65C298.768 390.776 312.622 390.3 326.505 390.458C341.347 390.578 356.171 391.444 370.907 393.053C386.547 394.774 402.012 397.686 417.769 398.613C428.342 399.249 438.886 399.805 449.46 400.308C451.071 401.764 452.652 403.273 454.175 404.835L454.292 404.914ZM228.24 411.587C232.575 411.587 237.027 411.295 241.245 411.057C255.626 410.369 269.831 408.674 284.094 407.086C297.501 405.392 311.008 404.437 324.542 404.226C355.149 404.226 385.346 408.701 415.748 411.163C431.369 412.434 447.107 413.493 462.962 414.34C463.635 415.161 464.309 415.982 464.954 416.829L460.033 416.379C445.242 415.081 430.451 413.731 415.631 412.434C385.376 409.919 355.237 405.47 324.835 405.391C311.24 405.584 297.668 406.468 284.182 408.039C270.094 409.468 256.036 411.031 241.889 411.719C237.115 411.957 232.37 412.195 227.596 412.487L228.24 411.587ZM231.931 424.825C248.801 423.474 265.467 420.933 282.484 420.085C302.747 419.22 323.049 419.415 343.287 420.668C360.861 421.647 378.2 423.024 395.685 424.163C413.171 425.301 431.066 426.36 448.786 427.287C456.87 427.711 464.983 428.108 473.067 428.478C473.74 429.537 474.355 430.57 475 431.629C458.041 430.438 441.2 429.167 424.154 428.028C414.704 427.375 405.243 426.766 395.773 426.201C375.271 424.983 354.769 423.554 334.413 422.733C317.164 421.754 299.871 421.568 282.601 422.177C265.701 423.024 248.801 423.845 231.931 424.825ZM483.581 449.236C464.046 447.912 444.568 446.191 425.091 444.444C405.614 442.696 386.694 440.922 367.48 439.493C349.907 438.169 332.333 436.554 314.76 435.124C299.032 433.827 283.274 432.741 267.517 432.476C249.049 431.995 230.567 432.739 212.219 434.7L212.747 433.429C226.6 432.185 240.483 431.523 254.483 431.417C272.584 431.258 290.684 431.973 308.726 433.059C328.35 434.224 347.944 435.706 367.539 437.268C394.338 439.281 421.02 441.425 447.761 443.199C459.125 443.976 470.518 444.655 481.941 445.238C482.527 446.562 483.054 447.885 483.581 449.236ZM204.399 451.619C214.182 450.798 224.023 450.215 233.688 449.739C285.968 447.642 338.335 448.102 390.56 451.116C423.012 452.757 455.142 457.126 487.36 460.806C487.887 462.633 488.355 464.513 488.795 466.366C476.2 465.122 463.577 463.718 450.983 462.236C435.255 460.409 419.556 458.555 403.798 456.94C387.133 455.166 370.438 453.657 353.714 452.545C313.744 449.959 273.627 449.774 233.63 451.989C223.554 452.545 213.45 453.048 203.374 453.763C203.608 453.048 203.872 452.36 204.136 451.672L204.399 451.619ZM208.09 545.609C229.295 542.115 252.492 543.333 278.383 550.746C302.429 557.63 326.446 564.778 350.639 571.291C369.97 576.642 389.602 581.06 409.451 584.53C422.309 586.701 435.167 588.236 448.112 589.242C446.296 590.857 444.422 592.446 442.518 593.982C430.539 592.42 418.677 590.354 406.786 587.813C387.191 583.682 367.978 578.387 348.559 573.251C324.835 566.87 301.17 560.674 277.182 555.141C255.784 549.857 233.351 548.952 211.516 552.493C210.316 550.243 209.173 547.939 208.09 545.609ZM200.123 522.787C208.91 521.675 218.255 520.007 227.042 519.637C241.241 519.137 254.903 520.665 269.011 522.204C303.923 525.805 338.015 534.039 372.664 539.043C407.724 544.545 443.105 548.222 478.631 550.057C477.606 552.096 476.493 554.108 475.351 556.094C472.422 555.935 469.2 555.75 466.154 555.538C434.099 552.968 402.237 548.706 370.731 542.776C356.643 540.288 342.584 537.481 328.555 534.834C315.434 532.186 302.195 529.538 289.103 527.208C277.387 525.143 265.672 523.29 253.956 522.204C244.167 521.117 236.855 521.31 227.042 522.204C219.193 523.105 208.675 523.872 200.797 525.196L200.123 522.787ZM196.755 491.545C215.295 489.418 233.983 488.534 252.667 488.897C274.283 489.188 295.898 490.618 317.425 492.26C343.405 494.219 369.208 497.873 394.894 501.712C426.556 506.425 458.481 511.534 490.493 514.262C490.083 516.724 489.615 519.16 489.058 521.569C482.996 521.145 476.962 520.563 470.899 519.901C419.644 514.262 369.647 501.606 318.187 496.496C293.406 493.82 268.484 492.344 243.529 492.074C227.86 491.985 212.202 492.87 196.667 494.722V494.166C196.667 493.292 196.667 492.419 196.667 491.518L196.755 491.545ZM199.449 468.643C205.893 468.096 212.346 467.699 218.809 467.451C249.559 466.551 280.34 467.347 310.982 469.834C342.994 472.217 374.89 475.659 406.786 478.995C431.33 481.643 455.874 484.052 480.477 485.958L491.958 486.806C491.958 488.288 491.958 489.771 492.134 491.254L482.205 490.512C457.543 488.368 433.029 485.72 408.543 483.072C375.886 479.339 343.199 475.394 310.425 472.482C280.033 469.514 249.454 468.409 218.897 469.172C212.258 469.437 205.629 469.94 199.01 470.682C199.127 469.993 199.274 469.305 199.449 468.616V468.643ZM381.685 623.397C367.949 620.537 354.271 617.466 340.681 614.262C324.155 610.067 307.969 604.848 292.237 598.641C273.433 591.625 254.542 584.397 234.713 583.682C233.952 582.915 233.19 582.173 232.458 581.379C255.889 581.008 277.856 588.898 300.321 596.682C317.199 602.883 334.506 608.083 352.133 612.25C365.508 615.18 378.932 617.978 392.405 620.643C388.89 621.729 385.317 622.708 381.685 623.556V623.397Z" fill="#7A615A"/>
</g>
</g>
</g>
<path id="Vector_58" d="M452.509 469.913C451.954 469.398 451.225 469.111 450.468 469.111H377.903H305.349C304.586 469.111 303.851 469.402 303.295 469.925L289.346 483.035C288.743 483.602 288.4 484.393 288.4 485.221V511.677C288.4 512.524 288.758 513.331 289.385 513.9L304.081 527.223C304.633 527.723 305.352 528 306.096 528H377.903H449.722C450.46 528 451.171 527.729 451.721 527.237L466.599 513.945C467.236 513.376 467.6 512.562 467.6 511.708V485.232C467.6 484.398 467.253 483.601 466.642 483.034L452.509 469.913Z" fill="#6E544C"/>
<path id="Vector_59" d="M452.509 467.69C451.954 467.175 451.225 466.889 450.468 466.889H377.903H305.349C304.586 466.889 303.851 467.18 303.295 467.703L289.346 480.813C288.743 481.38 288.4 482.171 288.4 482.999V509.455C288.4 510.301 288.758 511.109 289.385 511.677L304.081 525C304.633 525.5 305.352 525.778 306.096 525.778H377.903H449.722C450.46 525.778 451.171 525.506 451.721 525.015L466.599 511.722C467.236 511.153 467.6 510.339 467.6 509.485V483.01C467.6 482.175 467.253 481.379 466.642 480.811L452.509 467.69Z" fill="#B4A26C"/>
<path id="Vector_60" d="M452.684 463.236C452.13 462.727 451.405 462.444 450.653 462.444H378H305.348C304.595 462.444 303.87 462.727 303.317 463.236L289.369 476.065C288.752 476.633 288.4 477.433 288.4 478.273V506.407C288.4 507.265 288.768 508.082 289.409 508.651L304.105 521.688C304.654 522.175 305.362 522.444 306.096 522.444H378H449.903C450.638 522.444 451.347 522.175 451.896 521.687L466.593 508.624C467.234 508.055 467.6 507.239 467.6 506.382V478.273C467.6 477.433 467.249 476.633 466.631 476.065L452.684 463.236Z" fill="#FDE294"/>
<g id="Union_3" style="mix-blend-mode:soft-light">
<path d="M450.513 462.444C451.355 462.444 452.167 462.76 452.785 463.33L466.524 475.966C467.21 476.597 467.6 477.485 467.6 478.414V509.341C467.6 510.287 467.196 511.189 466.488 511.821L451.822 524.925C451.207 525.474 450.411 525.778 449.585 525.778H306.235C305.401 525.778 304.597 525.468 303.98 524.909L289.494 511.776C288.798 511.144 288.4 510.25 288.4 509.312V478.414C288.4 477.485 288.79 476.597 289.476 475.966L303.215 463.33C303.834 462.76 304.646 462.444 305.488 462.444H450.513Z" fill="#FDE294"/>
</g>
</g>
<g id="Icon/Play_2">
<g id="Play_4" filter="url(#filter3_i_690_13120)">
<path d="M395.171 487.161C398.943 489.323 398.943 494.677 395.171 496.839L366.575 513.228C362.774 515.407 358 512.713 358 508.39L358 475.61C358 471.287 362.774 468.593 366.575 470.772L395.171 487.161Z" fill="#A4925F"/>
</g>
</g>
</g>
</g>
<g id="Group 7">
<g id="Buttons/Rect/PlayText/Default_2">
<g id="Button/Rect/Fill/Default_4">
<path id="Vector_61" d="M65.3764 667.966L66.0473 667.225L65.3764 667.966C66.1119 668.632 67.0683 669 68.0601 669H146H223.146C224.105 669 225.032 668.656 225.758 668.029L241.612 654.361C242.493 653.601 243 652.495 243 651.331V604.399C243 603.216 242.477 602.095 241.572 601.335L225.609 587.936C224.889 587.331 223.978 587 223.037 587H146H68.1343C67.1597 587 66.2186 587.356 65.4878 588.001L65.4878 588.001L50.3535 601.354C49.493 602.114 49 603.206 49 604.354V651.375C49 652.505 49.4782 653.582 50.3164 654.341L65.3764 667.966Z" fill="#725952" stroke="#725952" stroke-width="2"/>
<path id="Vector_62" d="M225.096 592.225C224.556 591.776 223.876 591.529 223.174 591.529L146 591.529H68.0318C67.305 591.529 66.6029 591.793 66.056 592.272L51.0241 605.429C50.3733 605.999 50 606.822 50 607.686V651.374C50 652.222 50.3587 653.03 50.9873 653.599L66.0473 667.225C66.5989 667.724 67.3162 668 68.0601 668H146H223.146C223.865 668 224.56 667.742 225.105 667.272L240.959 653.603C241.62 653.033 242 652.204 242 651.331V607.73C242 606.84 241.605 605.996 240.922 605.426L225.096 592.225Z" fill="#5F443C"/>
<path id="Vector_63" d="M225.096 588.696C224.556 588.246 223.876 588 223.174 588L146 588H68.0318C67.305 588 66.6029 588.264 66.056 588.743L51.0241 601.9C50.3733 602.469 50 603.292 50 604.157V647.845C50 648.693 50.3587 649.501 50.9873 650.07L66.0473 663.695C66.5989 664.194 67.3162 664.471 68.0601 664.471H146H223.146C223.865 664.471 224.56 664.212 225.105 663.743L240.959 650.074C241.62 649.504 242 648.675 242 647.802V604.2C242 603.311 241.605 602.467 240.922 601.897L225.096 588.696Z" fill="#96786F"/>
<g id="MaskGroup_7">
<mask id="mask6_690_13120" style="mask-type:alpha" maskUnits="userSpaceOnUse" x="50" y="588" width="192" height="77">
<path id="Vector_64" d="M225.096 588.696C224.556 588.246 223.876 588 223.174 588L146 588H68.0318C67.305 588 66.6029 588.264 66.056 588.743L51.0241 601.9C50.3733 602.469 50 603.292 50 604.157V647.845C50 648.693 50.3587 649.501 50.9873 650.07L66.0473 663.695C66.5989 664.194 67.3162 664.471 68.0601 664.471H146H223.146C223.865 664.471 224.56 664.212 225.105 663.743L240.959 650.074C241.62 649.504 242 648.675 242 647.802V604.2C242 603.311 241.605 602.467 240.922 601.897L225.096 588.696Z" fill="#96786F"/>
</mask>
<g mask="url(#mask6_690_13120)">
<g id="Group_7">
<path id="Vector_65" fill-rule="evenodd" clip-rule="evenodd" d="M141.196 670.597C176.377 676.511 211.881 680.467 247.531 682.444C249.296 678.808 250.884 675.086 252.295 671.279C253.119 669.092 253.883 666.904 254.589 664.66C255.912 660.484 257.059 656.137 258 651.875C251.943 651.421 245.914 650.796 239.856 650.086C188.394 644.034 138.197 630.454 86.529 624.971C61.6484 622.1 36.6266 620.516 11.5709 620.227C-4.11224 620.148 -19.7829 621.097 -35.333 623.068C-35.333 627.272 -35.1272 631.42 -34.7449 635.54C-34.7449 636.477 -34.539 637.386 -34.4508 638.381C-33.8792 643.354 -33.0154 649.557 -31.9022 654.444C-23.0802 653.28 -14.1356 651.731 -5.31352 651.333C8.94289 650.797 23.4071 652.015 37.5715 653.667C72.6244 657.53 106.526 665.285 141.314 670.654L141.196 670.597Z" fill="#89716A"/>
<path id="Vector_66" fill-rule="evenodd" clip-rule="evenodd" d="M78.3503 600.316C110.586 602.735 142.001 606.576 174.119 609.962C198.834 612.649 223.831 615.261 248.606 617.196L260.133 617.999C259.868 613.727 259.396 608.677 258.718 604.539C258.482 603.007 258.216 601.502 257.892 599.997C257.568 598.493 257.391 597.579 257.125 596.37C244.443 595.107 231.791 593.682 219.109 592.178C203.271 590.323 187.462 588.442 171.595 586.803C154.814 585.003 138.003 583.471 121.162 582.342C91.9343 580.408 62.8836 579.816 33.715 580.488C22.6256 580.757 11.5067 581.187 0.358284 581.778L-2.35508 581.966C-11.5864 582.45 -20.8178 582.96 -30.0196 583.578C-31.7668 588.549 -33.185 594.388 -34.2666 599.512C-27.7781 598.948 -21.4048 598.513 -14.9164 598.271C16.0477 597.366 47.4954 597.782 78.3503 600.316Z" fill="#88716A"/>
<path id="Vector_67" fill-rule="evenodd" clip-rule="evenodd" d="M59.2117 499.568C93.7565 498.2 128.366 499.903 162.543 504.652L185.271 507.961C188.698 509.709 192.008 511.588 195.229 513.574C184.92 511.747 174.727 509.867 164.3 508.12C148.684 505.395 132.926 503.381 117.087 502.083C99.2399 500.773 81.3051 500.773 63.4585 502.083C59.1238 502.375 54.8183 502.692 50.4835 503.063C53.4124 501.845 56.3413 500.733 59.2702 499.701L59.2117 499.568ZM222.292 534.914C210.128 534.067 197.953 533.043 185.769 531.843C169.894 530.148 154.576 525.462 138.702 523.688C124.126 522.096 109.448 521.406 94.7684 521.623C81.0026 521.808 67.2954 522.735 53.5882 524.032C38.563 525.462 23.5963 527.315 8.60038 529.036C10.182 527.633 11.7929 526.23 13.433 524.906C26.6131 523.662 39.7931 522.497 52.9438 521.649C66.7682 520.776 80.6218 520.299 94.5048 520.458C109.347 520.578 124.171 521.444 138.907 523.053C154.547 524.774 170.012 527.686 185.769 528.613C196.342 529.248 206.886 529.804 217.46 530.307C219.071 531.763 220.652 533.272 222.175 534.835L222.292 534.914ZM-3.75955 541.586C0.575214 541.586 5.02713 541.295 9.24474 541.057C23.6256 540.368 37.8307 538.674 52.0944 537.085C65.5005 535.392 79.0081 534.437 92.5424 534.226C123.149 534.226 153.346 538.7 183.748 541.162C199.369 542.433 215.107 543.492 230.962 544.34C231.635 545.16 232.309 545.981 232.954 546.828L228.033 546.378C213.242 545.081 198.451 543.731 183.631 542.433C153.376 539.918 123.237 535.47 92.8353 535.391C79.2401 535.584 65.6677 536.468 52.1823 538.038C38.0943 539.468 24.0356 541.03 9.88909 541.718C5.115 541.957 0.37019 542.195 -4.40391 542.486L-3.75955 541.586ZM-0.0691452 554.824C16.8013 553.474 33.4667 550.932 50.4835 550.085C70.747 549.22 91.0488 549.414 111.287 550.667C128.861 551.647 146.2 553.024 163.685 554.162C181.171 555.301 199.066 556.36 216.786 557.286C224.87 557.71 232.983 558.107 241.067 558.478C241.74 559.537 242.355 560.57 243 561.629C226.041 560.437 209.2 559.166 192.154 558.028C182.704 557.375 173.243 556.766 163.773 556.201C143.271 554.983 122.769 553.553 102.413 552.733C85.1637 551.753 67.8707 551.568 50.6007 552.177C33.701 553.024 16.8013 553.845 -0.0691452 554.824ZM251.581 579.235C232.046 577.912 212.568 576.191 193.091 574.443C173.614 572.696 154.694 570.922 135.48 569.492C117.907 568.168 100.333 566.553 82.7599 565.123C67.0318 563.826 51.2743 562.741 35.5169 562.476C17.0491 561.995 -1.43297 562.738 -19.7806 564.7L-19.2534 563.429C-5.39973 562.185 8.48322 561.523 22.4833 561.417C40.5839 561.258 58.6844 561.973 76.7264 563.058C96.35 564.223 115.944 565.706 135.539 567.268C162.338 569.28 189.02 571.425 215.761 573.199C227.125 573.975 238.518 574.655 249.941 575.237C250.527 576.561 251.054 577.885 251.581 579.235ZM-27.6007 581.618C-17.8182 580.797 -7.97716 580.215 1.68819 579.738C53.9679 577.642 106.335 578.102 158.56 581.115C191.012 582.757 223.142 587.125 255.36 590.805C255.887 592.632 256.355 594.512 256.795 596.366C244.2 595.121 231.577 593.718 218.983 592.235C203.255 590.408 187.556 588.555 171.798 586.94C155.133 585.166 138.438 583.657 121.714 582.545C81.7437 579.959 41.6274 579.773 1.62962 581.989C-8.44578 582.545 -18.5505 583.048 -28.6258 583.763C-28.3915 583.048 -28.1279 582.36 -27.8643 581.671L-27.6007 581.618ZM-23.9103 675.609C-2.70515 672.114 20.4917 673.332 46.3831 680.745C70.4293 687.629 94.4462 694.778 118.639 701.291C137.97 706.641 157.602 711.06 177.451 714.529C190.309 716.7 203.167 718.236 216.112 719.242C214.296 720.857 212.422 722.446 210.518 723.981C198.539 722.419 186.677 720.354 174.786 717.812C155.191 713.682 135.978 708.387 116.559 703.25C92.8353 696.87 69.1699 690.674 45.1822 685.141C23.7836 679.856 1.35062 678.952 -20.4835 682.493C-21.6844 680.242 -22.8266 677.939 -23.9103 675.609ZM-31.8769 652.786C-23.0902 651.674 -13.7446 650.007 -4.95793 649.636C9.2413 649.137 22.903 650.665 37.0106 652.204C71.923 655.805 106.015 664.039 140.664 669.043C175.724 674.544 211.105 678.222 246.631 680.057C245.606 682.096 244.493 684.108 243.351 686.094C240.422 685.935 237.2 685.749 234.154 685.538C202.099 682.967 170.237 678.706 138.731 672.776C124.643 670.287 110.584 667.481 96.555 664.833C83.4336 662.186 70.195 659.538 57.1028 657.208C45.3873 655.143 33.6717 653.29 21.9561 652.204C12.1673 651.116 4.8548 651.31 -4.95793 652.204C-12.8074 653.104 -23.3245 653.872 -31.2033 655.196L-31.8769 652.786ZM-35.2451 621.544C-16.7052 619.418 1.98319 618.533 20.6674 618.897C42.2826 619.188 63.8979 620.618 85.4252 622.259C111.405 624.219 137.208 627.872 162.894 631.711C194.556 636.424 226.481 641.534 258.493 644.261C258.083 646.723 257.615 649.159 257.058 651.569C250.996 651.145 244.962 650.562 238.899 649.901C187.644 644.261 137.647 631.605 86.1867 626.496C61.4059 623.82 36.4845 622.344 11.5293 622.074C-4.14015 621.985 -19.7978 622.869 -35.333 624.722V624.166C-35.333 623.292 -35.333 622.418 -35.333 621.518L-35.2451 621.544ZM-32.5506 598.642C-26.107 598.095 -19.6537 597.698 -13.1906 597.451C17.5585 596.55 48.3398 597.346 78.9817 599.834C110.994 602.217 142.89 605.659 174.786 608.995C199.33 611.642 223.874 614.052 248.477 615.958L259.958 616.805C259.958 618.288 259.958 619.771 260.134 621.253L250.205 620.512C225.543 618.367 201.029 615.72 176.543 613.072C143.886 609.339 111.199 605.394 78.4252 602.482C48.0333 599.514 17.4542 598.408 -13.1027 599.172C-19.7415 599.437 -26.3706 599.94 -32.9899 600.681C-32.8727 599.993 -32.7263 599.304 -32.5506 598.616V598.642ZM149.685 753.396C135.949 750.537 122.271 747.466 108.681 744.262C92.155 740.067 75.9687 734.848 60.2368 728.641C41.4333 721.625 22.5419 714.397 2.71331 713.682C1.95179 712.914 1.19028 712.173 0.458057 711.379C23.8892 711.008 45.8559 718.898 68.3205 726.682C85.1989 732.883 102.506 738.083 120.133 742.25C133.508 745.18 146.932 747.978 160.405 750.643C156.89 751.728 153.317 752.708 149.685 753.555V753.396Z" fill="#7A615A"/>
</g>
</g>
</g>
<path id="Vector_68" d="M220.509 599.913C219.954 599.398 219.225 599.111 218.468 599.111H145.903H73.3492C72.5857 599.111 71.8509 599.402 71.2946 599.925L57.3458 613.035C56.7425 613.602 56.4004 614.393 56.4004 615.221V641.677C56.4004 642.524 56.7582 643.331 57.3855 643.9L72.0814 657.223C72.6333 657.723 73.3515 658 74.0964 658H145.903H217.722C218.46 658 219.171 657.729 219.721 657.237L234.599 643.945C235.236 643.376 235.6 642.562 235.6 641.708V615.232C235.6 614.398 235.253 613.601 234.642 613.034L220.509 599.913Z" fill="#6E544C"/>
<path id="Vector_69" d="M220.509 597.69C219.954 597.175 219.225 596.889 218.468 596.889H145.903H73.3492C72.5857 596.889 71.8509 597.18 71.2946 597.703L57.3458 610.813C56.7425 611.38 56.4004 612.171 56.4004 612.999V639.455C56.4004 640.301 56.7582 641.109 57.3855 641.677L72.0814 655C72.6333 655.5 73.3515 655.778 74.0964 655.778H145.903H217.722C218.46 655.778 219.171 655.506 219.721 655.015L234.599 641.722C235.236 641.153 235.6 640.339 235.6 639.485V613.01C235.6 612.175 235.253 611.379 234.642 610.811L220.509 597.69Z" fill="#B4A26C"/>
<path id="Vector_70" d="M220.684 593.236C220.13 592.727 219.405 592.444 218.653 592.444H146H73.3476C72.5953 592.444 71.8705 592.727 71.3167 593.236L57.3695 606.065C56.7519 606.633 56.4004 607.433 56.4004 608.273V636.407C56.4004 637.265 56.7677 638.082 57.4094 638.651L72.1049 651.688C72.6538 652.175 73.3621 652.444 74.0959 652.444H146H217.903C218.638 652.444 219.347 652.175 219.896 651.687L234.593 638.624C235.234 638.055 235.6 637.239 235.6 636.382V608.273C235.6 607.433 235.249 606.633 234.631 606.065L220.684 593.236Z" fill="#FDE294"/>
</g>
<g id="Play_5" filter="url(#filter4_i_690_13120)">
<text fill="#A4925F" xml:space="preserve" style="white-space: pre" font-family="Bungee" font-size="40" letter-spacing="0em"><tspan x="116.332" y="638.4">OK</tspan></text>
</g>
</g>
<g id="Buttons/Rect/PlayText/Hover_2">
<g id="Button/Rect/Fill/Hover_4">
<path id="Vector_71" d="M297.376 667.966L298.047 667.225L297.376 667.966C298.112 668.632 299.068 669 300.06 669H378H455.146C456.105 669 457.032 668.656 457.758 668.029L473.612 654.361C474.493 653.601 475 652.495 475 651.331V604.399C475 603.216 474.477 602.095 473.572 601.335L457.609 587.936C456.889 587.331 455.978 587 455.037 587H378H300.134C299.16 587 298.219 587.356 297.488 588.001L297.488 588.001L282.354 601.354C281.493 602.114 281 603.206 281 604.354V651.375C281 652.505 281.478 653.582 282.316 654.341L297.376 667.966Z" fill="#725952" stroke="#725952" stroke-width="2"/>
<path id="Vector_72" d="M457.096 592.225C456.556 591.776 455.876 591.529 455.174 591.529L378 591.529H300.032C299.305 591.529 298.603 591.793 298.056 592.272L283.024 605.429C282.373 605.999 282 606.821 282 607.686V651.374C282 652.222 282.359 653.03 282.987 653.599L298.047 667.224C298.599 667.724 299.316 668 300.06 668H378H455.146C455.865 668 456.56 667.742 457.105 667.272L472.959 653.603C473.62 653.033 474 652.204 474 651.331V607.73C474 606.84 473.605 605.996 472.922 605.426L457.096 592.225Z" fill="#5F443C"/>
<path id="Vector_73" d="M457.096 588.696C456.556 588.246 455.876 588 455.174 588L378 588H300.032C299.305 588 298.603 588.264 298.056 588.743L283.024 601.9C282.373 602.469 282 603.292 282 604.157V647.845C282 648.693 282.359 649.501 282.987 650.07L298.047 663.695C298.599 664.194 299.316 664.471 300.06 664.471H378H455.146C455.865 664.471 456.56 664.212 457.105 663.743L472.959 650.074C473.62 649.504 474 648.675 474 647.802V604.2C474 603.311 473.605 602.467 472.922 601.897L457.096 588.696Z" fill="#96786F"/>
<g id="MaskGroup_8">
<mask id="mask7_690_13120" style="mask-type:alpha" maskUnits="userSpaceOnUse" x="282" y="588" width="192" height="77">
<path id="Vector_74" d="M457.096 588.696C456.556 588.246 455.876 588 455.174 588L378 588H300.032C299.305 588 298.603 588.264 298.056 588.743L283.024 601.9C282.373 602.469 282 603.292 282 604.157V647.845C282 648.693 282.359 649.501 282.987 650.07L298.047 663.695C298.599 664.194 299.316 664.471 300.06 664.471H378H455.146C455.865 664.471 456.56 664.212 457.105 663.743L472.959 650.074C473.62 649.504 474 648.675 474 647.802V604.2C474 603.311 473.605 602.467 472.922 601.897L457.096 588.696Z" fill="#96786F"/>
</mask>
<g mask="url(#mask7_690_13120)">
<g id="Group_8">
<path id="Vector_75" fill-rule="evenodd" clip-rule="evenodd" d="M373.196 670.597C408.377 676.511 443.881 680.467 479.531 682.444C481.296 678.808 482.884 675.086 484.295 671.279C485.119 669.092 485.883 666.904 486.589 664.66C487.912 660.484 489.059 656.137 490 651.875C483.943 651.421 477.914 650.796 471.856 650.086C420.394 644.034 370.197 630.454 318.529 624.971C293.648 622.1 268.627 620.516 243.571 620.227C227.888 620.148 212.217 621.097 196.667 623.068C196.667 627.272 196.873 631.42 197.255 635.54C197.255 636.477 197.461 637.386 197.549 638.381C198.121 643.354 198.985 649.557 200.098 654.444C208.92 653.28 217.864 651.731 226.686 651.333C240.943 650.797 255.407 652.015 269.571 653.667C304.624 657.53 338.526 665.285 373.314 670.654L373.196 670.597Z" fill="#89716A"/>
<path id="Vector_76" fill-rule="evenodd" clip-rule="evenodd" d="M310.35 600.317C342.586 602.736 374.001 606.577 406.119 609.963C430.834 612.65 455.831 615.262 480.606 617.197L492.133 618C491.868 613.728 491.396 608.678 490.718 604.54C490.482 603.008 490.216 601.503 489.892 599.998C489.568 598.494 489.391 597.58 489.125 596.371C476.443 595.108 463.791 593.683 451.109 592.179C435.271 590.324 419.462 588.443 403.595 586.804C386.814 585.004 370.003 583.472 353.162 582.343C323.934 580.409 294.884 579.817 265.715 580.489C254.626 580.758 243.507 581.188 232.358 581.779L229.645 581.967C220.414 582.451 211.182 582.961 201.98 583.579C200.233 588.549 198.815 594.389 197.733 599.513C204.222 598.949 210.595 598.514 217.084 598.272C248.048 597.367 279.495 597.783 310.35 600.317Z" fill="#88716A"/>
<path id="Vector_77" fill-rule="evenodd" clip-rule="evenodd" d="M291.212 499.569C325.756 498.201 360.366 499.903 394.543 504.652L417.271 507.962C420.698 509.709 424.008 511.589 427.229 513.575C416.92 511.748 406.727 509.868 396.3 508.12C380.684 505.396 364.926 503.381 349.087 502.084C331.24 500.773 313.305 500.773 295.459 502.084C291.124 502.375 286.818 502.693 282.484 503.064C285.412 501.846 288.341 500.734 291.27 499.701L291.212 499.569ZM454.292 534.914C442.128 534.067 429.953 533.043 417.769 531.843C401.894 530.149 386.576 525.462 370.702 523.689C356.126 522.097 341.448 521.407 326.768 521.623C313.003 521.809 299.295 522.735 285.588 524.033C270.563 525.462 255.596 527.316 240.6 529.037C242.182 527.634 243.793 526.23 245.433 524.906C258.613 523.662 271.793 522.497 284.944 521.65C298.768 520.776 312.622 520.3 326.505 520.458C341.347 520.578 356.171 521.444 370.907 523.053C386.547 524.774 402.012 527.686 417.769 528.613C428.342 529.249 438.886 529.805 449.46 530.308C451.071 531.764 452.652 533.273 454.175 534.835L454.292 534.914ZM228.24 541.587C232.575 541.587 237.027 541.295 241.245 541.057C255.626 540.369 269.831 538.674 284.094 537.086C297.501 535.392 311.008 534.437 324.542 534.226C355.149 534.226 385.346 538.701 415.748 541.163C431.369 542.434 447.107 543.493 462.962 544.34C463.635 545.161 464.309 545.982 464.954 546.829L460.033 546.379C445.242 545.081 430.451 543.731 415.631 542.434C385.376 539.919 355.237 535.47 324.835 535.391C311.24 535.584 297.668 536.468 284.182 538.039C270.094 539.468 256.036 541.031 241.889 541.719C237.115 541.957 232.37 542.195 227.596 542.487L228.24 541.587ZM231.931 554.825C248.801 553.474 265.467 550.933 282.484 550.085C302.747 549.22 323.049 549.415 343.287 550.668C360.861 551.647 378.2 553.024 395.685 554.163C413.171 555.301 431.066 556.36 448.786 557.287C456.87 557.711 464.983 558.108 473.067 558.478C473.74 559.537 474.355 560.57 475 561.629C458.041 560.438 441.2 559.167 424.154 558.028C414.704 557.375 405.243 556.766 395.773 556.201C375.271 554.983 354.769 553.554 334.413 552.733C317.164 551.754 299.871 551.568 282.601 552.177C265.701 553.024 248.801 553.845 231.931 554.825ZM483.581 579.236C464.046 577.912 444.568 576.191 425.091 574.444C405.614 572.696 386.694 570.922 367.48 569.493C349.907 568.169 332.333 566.554 314.76 565.124C299.032 563.827 283.274 562.741 267.517 562.476C249.049 561.995 230.567 562.739 212.219 564.7L212.747 563.429C226.6 562.185 240.483 561.523 254.483 561.417C272.584 561.258 290.684 561.973 308.726 563.059C328.35 564.224 347.944 565.706 367.539 567.268C394.338 569.281 421.02 571.425 447.761 573.199C459.125 573.976 470.518 574.655 481.941 575.238C482.527 576.562 483.054 577.885 483.581 579.236ZM204.399 581.619C214.182 580.798 224.023 580.215 233.688 579.739C285.968 577.642 338.335 578.102 390.56 581.116C423.012 582.757 455.142 587.126 487.36 590.806C487.887 592.633 488.355 594.513 488.795 596.366C476.2 595.122 463.577 593.718 450.983 592.236C435.255 590.409 419.556 588.555 403.798 586.94C387.133 585.166 370.438 583.657 353.714 582.545C313.744 579.959 273.627 579.774 233.63 581.989C223.554 582.545 213.45 583.048 203.374 583.763C203.608 583.048 203.872 582.36 204.136 581.672L204.399 581.619ZM208.09 675.609C229.295 672.115 252.492 673.333 278.383 680.746C302.429 687.63 326.446 694.778 350.639 701.291C369.97 706.642 389.602 711.06 409.451 714.53C422.309 716.701 435.167 718.236 448.112 719.242C446.296 720.857 444.422 722.446 442.518 723.982C430.539 722.42 418.677 720.354 406.786 717.813C387.191 713.682 367.978 708.387 348.559 703.251C324.835 696.87 301.17 690.674 277.182 685.141C255.784 679.857 233.351 678.952 211.516 682.493C210.316 680.243 209.173 677.939 208.09 675.609ZM200.123 652.787C208.91 651.675 218.255 650.007 227.042 649.637C241.241 649.137 254.903 650.665 269.011 652.204C303.923 655.805 338.015 664.039 372.664 669.043C407.724 674.545 443.105 678.222 478.631 680.057C477.606 682.096 476.493 684.108 475.351 686.094C472.422 685.935 469.2 685.75 466.154 685.538C434.099 682.968 402.237 678.706 370.731 672.776C356.643 670.288 342.584 667.481 328.555 664.834C315.434 662.186 302.195 659.538 289.103 657.208C277.387 655.143 265.672 653.29 253.956 652.204C244.167 651.117 236.855 651.31 227.042 652.204C219.193 653.105 208.675 653.872 200.797 655.196L200.123 652.787ZM196.755 621.545C215.295 619.418 233.983 618.534 252.667 618.897C274.283 619.188 295.898 620.618 317.425 622.26C343.405 624.219 369.208 627.873 394.894 631.712C426.556 636.425 458.481 641.534 490.493 644.262C490.083 646.724 489.615 649.16 489.058 651.569C482.996 651.145 476.962 650.563 470.899 649.901C419.644 644.262 369.647 631.606 318.187 626.496C293.406 623.82 268.484 622.344 243.529 622.074C227.86 621.985 212.202 622.87 196.667 624.722V624.166C196.667 623.292 196.667 622.419 196.667 621.518L196.755 621.545ZM199.449 598.643C205.893 598.096 212.346 597.699 218.809 597.451C249.559 596.551 280.34 597.347 310.982 599.834C342.994 602.217 374.89 605.659 406.786 608.995C431.33 611.643 455.874 614.052 480.477 615.958L491.958 616.806C491.958 618.288 491.958 619.771 492.134 621.254L482.205 620.512C457.543 618.368 433.029 615.72 408.543 613.072C375.886 609.339 343.199 605.394 310.425 602.482C280.033 599.514 249.454 598.409 218.897 599.172C212.258 599.437 205.629 599.94 199.01 600.682C199.127 599.993 199.274 599.305 199.449 598.616V598.643ZM381.685 753.397C367.949 750.537 354.271 747.466 340.681 744.262C324.155 740.067 307.969 734.848 292.237 728.641C273.433 721.625 254.542 714.397 234.713 713.682C233.952 712.915 233.19 712.173 232.458 711.379C255.889 711.008 277.856 718.898 300.321 726.682C317.199 732.883 334.506 738.083 352.133 742.25C365.508 745.18 378.932 747.978 392.405 750.643C388.89 751.729 385.317 752.708 381.685 753.556V753.397Z" fill="#7A615A"/>
</g>
</g>
</g>
<path id="Vector_78" d="M452.509 599.913C451.954 599.398 451.225 599.111 450.468 599.111H377.903H305.349C304.586 599.111 303.851 599.402 303.295 599.925L289.346 613.035C288.743 613.602 288.4 614.393 288.4 615.221V641.677C288.4 642.524 288.758 643.331 289.385 643.9L304.081 657.223C304.633 657.723 305.352 658 306.096 658H377.903H449.722C450.46 658 451.171 657.729 451.721 657.237L466.599 643.945C467.236 643.376 467.6 642.562 467.6 641.708V615.232C467.6 614.398 467.253 613.601 466.642 613.034L452.509 599.913Z" fill="#6E544C"/>
<path id="Vector_79" d="M452.509 597.69C451.954 597.175 451.225 596.889 450.468 596.889H377.903H305.349C304.586 596.889 303.851 597.18 303.295 597.703L289.346 610.813C288.743 611.38 288.4 612.171 288.4 612.999V639.455C288.4 640.301 288.758 641.109 289.385 641.677L304.081 655C304.633 655.5 305.352 655.778 306.096 655.778H377.903H449.722C450.46 655.778 451.171 655.506 451.721 655.015L466.599 641.722C467.236 641.153 467.6 640.339 467.6 639.485V613.01C467.6 612.175 467.253 611.379 466.642 610.811L452.509 597.69Z" fill="#B4A26C"/>
<path id="Vector_80" d="M452.684 593.236C452.13 592.727 451.405 592.444 450.653 592.444H378H305.348C304.595 592.444 303.87 592.727 303.317 593.236L289.369 606.065C288.752 606.633 288.4 607.433 288.4 608.273V636.407C288.4 637.265 288.768 638.082 289.409 638.651L304.105 651.688C304.654 652.175 305.362 652.444 306.096 652.444H378H449.903C450.638 652.444 451.347 652.175 451.896 651.687L466.593 638.624C467.234 638.055 467.6 637.239 467.6 636.382V608.273C467.6 607.433 467.249 606.633 466.631 606.065L452.684 593.236Z" fill="#FDE294"/>
<g id="Union_4" style="mix-blend-mode:soft-light">
<path d="M450.513 592.444C451.355 592.444 452.167 592.76 452.785 593.33L466.524 605.966C467.21 606.597 467.6 607.485 467.6 608.414V639.341C467.6 640.287 467.196 641.189 466.488 641.821L451.822 654.925C451.207 655.474 450.411 655.778 449.585 655.778H306.235C305.401 655.778 304.597 655.468 303.98 654.909L289.494 641.776C288.798 641.144 288.4 640.25 288.4 639.312V608.414C288.4 607.485 288.79 606.597 289.476 605.966L303.215 593.33C303.834 592.76 304.646 592.444 305.488 592.444H450.513Z" fill="#FDE294"/>
</g>
</g>
<g id="Play_6" filter="url(#filter5_i_690_13120)">
<text fill="#A4925F" xml:space="preserve" style="white-space: pre" font-family="Bungee" font-size="40" letter-spacing="0em"><tspan x="348.332" y="638.4">OK</tspan></text>
</g>
</g>
</g>
<rect x="0.5" y="0.5" width="523" height="717" stroke="#00FF19"/>
</g>
<defs>
<filter id="filter0_i_690_13120" x="93.0176" y="349.2" width="106.922" height="28.7998" filterUnits="userSpaceOnUse" color-interpolation-filters="sRGB">
<feFlood flood-opacity="0" result="BackgroundImageFix"/>
<feBlend mode="normal" in="SourceGraphic" in2="BackgroundImageFix" result="shape"/>
<feColorMatrix in="SourceAlpha" type="matrix" values="0 0 0 0 0 0 0 0 0 0 0 0 0 0 0 0 0 0 127 0" result="hardAlpha"/>
<feOffset dy="-2"/>
<feComposite in2="hardAlpha" operator="arithmetic" k2="-1" k3="1"/>
<feColorMatrix type="matrix" values="0 0 0 0 0.425833 0 0 0 0 0.392122 0 0 0 0 0.298083 0 0 0 1 0"/>
<feBlend mode="normal" in2="shape" result="effect1_innerShadow_690_13120"/>
</filter>
<filter id="filter1_i_690_13120" x="325.018" y="349.2" width="106.922" height="28.7998" filterUnits="userSpaceOnUse" color-interpolation-filters="sRGB">
<feFlood flood-opacity="0" result="BackgroundImageFix"/>
<feBlend mode="normal" in="SourceGraphic" in2="BackgroundImageFix" result="shape"/>
<feColorMatrix in="SourceAlpha" type="matrix" values="0 0 0 0 0 0 0 0 0 0 0 0 0 0 0 0 0 0 127 0" result="hardAlpha"/>
<feOffset dy="-2"/>
<feComposite in2="hardAlpha" operator="arithmetic" k2="-1" k3="1"/>
<feColorMatrix type="matrix" values="0 0 0 0 0.425833 0 0 0 0 0.392122 0 0 0 0 0.298083 0 0 0 1 0"/>
<feBlend mode="normal" in2="shape" result="effect1_innerShadow_690_13120"/>
</filter>
<filter id="filter2_i_690_13120" x="126" y="470" width="40" height="44" filterUnits="userSpaceOnUse" color-interpolation-filters="sRGB">
<feFlood flood-opacity="0" result="BackgroundImageFix"/>
<feBlend mode="normal" in="SourceGraphic" in2="BackgroundImageFix" result="shape"/>
<feColorMatrix in="SourceAlpha" type="matrix" values="0 0 0 0 0 0 0 0 0 0 0 0 0 0 0 0 0 0 127 0" result="hardAlpha"/>
<feOffset dy="2"/>
<feComposite in2="hardAlpha" operator="arithmetic" k2="-1" k3="1"/>
<feColorMatrix type="matrix" values="0 0 0 0 0.425833 0 0 0 0 0.392122 0 0 0 0 0.298083 0 0 0 1 0"/>
<feBlend mode="normal" in2="shape" result="effect1_innerShadow_690_13120"/>
</filter>
<filter id="filter3_i_690_13120" x="358" y="470" width="40" height="44" filterUnits="userSpaceOnUse" color-interpolation-filters="sRGB">
<feFlood flood-opacity="0" result="BackgroundImageFix"/>
<feBlend mode="normal" in="SourceGraphic" in2="BackgroundImageFix" result="shape"/>
<feColorMatrix in="SourceAlpha" type="matrix" values="0 0 0 0 0 0 0 0 0 0 0 0 0 0 0 0 0 0 127 0" result="hardAlpha"/>
<feOffset dy="2"/>
<feComposite in2="hardAlpha" operator="arithmetic" k2="-1" k3="1"/>
<feColorMatrix type="matrix" values="0 0 0 0 0.425833 0 0 0 0 0.392122 0 0 0 0 0.298083 0 0 0 1 0"/>
<feBlend mode="normal" in2="shape" result="effect1_innerShadow_690_13120"/>
</filter>
<filter id="filter4_i_690_13120" x="118.652" y="608.6" width="54.6123" height="30" filterUnits="userSpaceOnUse" color-interpolation-filters="sRGB">
<feFlood flood-opacity="0" result="BackgroundImageFix"/>
<feBlend mode="normal" in="SourceGraphic" in2="BackgroundImageFix" result="shape"/>
<feColorMatrix in="SourceAlpha" type="matrix" values="0 0 0 0 0 0 0 0 0 0 0 0 0 0 0 0 0 0 127 0" result="hardAlpha"/>
<feOffset dy="-2"/>
<feComposite in2="hardAlpha" operator="arithmetic" k2="-1" k3="1"/>
<feColorMatrix type="matrix" values="0 0 0 0 0.425833 0 0 0 0 0.392122 0 0 0 0 0.298083 0 0 0 1 0"/>
<feBlend mode="normal" in2="shape" result="effect1_innerShadow_690_13120"/>
</filter>
<filter id="filter5_i_690_13120" x="350.652" y="608.6" width="54.6123" height="30" filterUnits="userSpaceOnUse" color-interpolation-filters="sRGB">
<feFlood flood-opacity="0" result="BackgroundImageFix"/>
<feBlend mode="normal" in="SourceGraphic" in2="BackgroundImageFix" result="shape"/>
<feColorMatrix in="SourceAlpha" type="matrix" values="0 0 0 0 0 0 0 0 0 0 0 0 0 0 0 0 0 0 127 0" result="hardAlpha"/>
<feOffset dy="-2"/>
<feComposite in2="hardAlpha" operator="arithmetic" k2="-1" k3="1"/>
<feColorMatrix type="matrix" values="0 0 0 0 0.425833 0 0 0 0 0.392122 0 0 0 0 0.298083 0 0 0 1 0"/>
<feBlend mode="normal" in2="shape" result="effect1_innerShadow_690_13120"/>
</filter>
</defs>
</svg>
