<svg width="270" height="544" viewBox="0 0 270 544" fill="none" xmlns="http://www.w3.org/2000/svg">
<g id="@Counter">
<rect x="0.5" y="0.5" width="269" height="543" fill="white"/>
<g id="Hint">
<rect x="50" y="50" width="66" height="24" rx="4" fill="#FED70A"/>
<text id="Text" fill="#212121" xml:space="preserve" style="white-space: pre" font-family="Arial" font-size="14" letter-spacing="0em"><tspan x="58" y="66.8535">Counter</tspan></text>
</g>
<g id="Frame">
<g id="Counter/Icon/Dummy">
<g id="Circle" filter="url(#filter0_i_673_16608)">
<path d="M90 144C90 155.046 81.0457 164 70 164C58.9543 164 50 155.046 50 144C50 132.954 58.9543 124 70 124C81.0457 124 90 132.954 90 144Z" fill="#FDE294"/>
</g>
</g>
<g id="Counter/Icon/Money">
<g id="Counter/Icon/Dummy_2">
<g id="Circle_2" filter="url(#filter1_i_673_16608)">
<path d="M155 144C155 155.046 146.046 164 135 164C123.954 164 115 155.046 115 144C115 132.954 123.954 124 135 124C146.046 124 155 132.954 155 144Z" fill="#FDE294"/>
</g>
</g>
<text id="$" fill="#5F443C" xml:space="preserve" style="white-space: pre" font-family="Bungee" font-size="24" letter-spacing="0em"><tspan x="127" y="152.14">$</tspan></text>
</g>
<g id="Counter/Icon/Time">
<g id="Circle_3" filter="url(#filter2_i_673_16608)">
<path d="M220 144C220 132.954 211.046 124 200 124C188.954 124 180 132.954 180 144C180 155.046 188.954 164 200 164C211.046 164 220 155.046 220 144Z" fill="#FDE294"/>
</g>
<g id="ClockIcon">
<path id="Rectangle" d="M196.937 134.907C196.324 133.988 195.082 133.741 194.163 134.354C193.245 134.968 192.997 136.209 193.611 137.128L199.164 145.444C199.778 146.363 201.02 146.61 201.938 145.997C202.857 145.383 203.104 144.141 202.491 143.223L196.937 134.907Z" fill="#5F443C"/>
<path id="Rectangle_2" d="M205.307 143.747C206.221 143.137 206.464 141.897 205.851 140.979C205.238 140.06 203.999 139.81 203.085 140.421L199.742 142.653C198.828 143.263 198.585 144.503 199.198 145.421C199.811 146.34 201.05 146.59 201.964 145.98L205.307 143.747Z" fill="#5F443C"/>
</g>
</g>
</g>
<g id="Counter/Dummy">
<path id="Vector" d="M188.217 219.012C187.648 218.369 186.83 218 185.97 218H122H58.0293C57.1701 218 56.3522 218.368 55.7828 219.012L50.7536 224.694C50.268 225.242 50 225.949 50 226.682V264.709C50 265.588 50.3853 266.422 51.0541 266.992L58.436 273.283C58.9788 273.746 59.6687 274 60.3819 274H122H183.616C184.33 274 185.022 273.745 185.565 273.281L192.949 266.971C193.616 266.402 194 265.568 194 264.691V226.685C194 225.953 193.732 225.246 193.247 224.697L188.217 219.012Z" fill="#55413B"/>
<path id="Vector_2" d="M188.217 215.012C187.648 214.369 186.83 214 185.97 214H122H58.0293C57.1701 214 56.3522 214.368 55.7828 215.012L50.7536 220.694C50.268 221.242 50 221.949 50 222.682V260.709C50 261.588 50.3853 262.422 51.0541 262.992L58.436 269.283C58.9788 269.746 59.6687 270 60.3819 270H122H183.616C184.33 270 185.022 269.745 185.565 269.281L192.949 262.971C193.616 262.402 194 261.568 194 260.691V222.685C194 221.953 193.732 221.246 193.247 220.697L188.217 215.012Z" fill="#96786F"/>
<g id="MaskGroup">
<mask id="mask0_673_16608" style="mask-type:alpha" maskUnits="userSpaceOnUse" x="50" y="214" width="144" height="56">
<path id="Vector_3" d="M188.217 215.012C187.648 214.369 186.83 214 185.97 214H122H58.0293C57.1701 214 56.3522 214.368 55.7828 215.012L50.7536 220.694C50.268 221.242 50 221.949 50 222.682V260.709C50 261.588 50.3853 262.422 51.0541 262.992L58.436 269.283C58.9788 269.746 59.6687 270 60.3819 270H122H183.616C184.33 270 185.022 269.745 185.565 269.281L192.949 262.971C193.616 262.402 194 261.568 194 260.691V222.685C194 221.953 193.732 221.246 193.247 220.697L188.217 215.012Z" fill="#96786F"/>
</mask>
<g mask="url(#mask0_673_16608)">
<path id="Vector_4" opacity="0.4" fill-rule="evenodd" clip-rule="evenodd" d="M88.5867 208.237C66.9791 211.775 45.5461 216.467 24.3938 222.287C24.0388 224.653 23.8026 227.033 23.685 229.425C23.6103 230.802 23.5698 232.168 23.5742 233.554C23.5765 236.135 23.7132 238.777 23.9542 241.331C27.5704 240.408 31.201 239.585 34.8645 238.804C65.9903 232.181 97.7737 229.994 128.914 223.015C143.953 219.782 158.835 215.806 173.497 211.103C182.656 208.102 191.616 204.532 200.317 200.416C199.538 198.077 198.65 195.808 197.664 193.59C197.49 193.068 197.201 192.602 196.966 192.066C195.711 189.409 194.058 186.125 192.503 183.622C187.576 185.983 182.647 188.581 177.578 190.515C169.365 193.581 160.706 195.711 152.141 197.542C130.988 202.196 109.786 204.462 88.5076 208.228L88.5867 208.237Z" fill="#D4AC7B" fill-opacity="0.5"/>
<path id="Vector_5" opacity="0.4" fill-rule="evenodd" clip-rule="evenodd" d="M138.081 235.492C118.814 240.399 99.7602 244.349 80.3813 248.691C65.4537 251.986 50.3755 255.378 35.554 259.107L28.6755 260.896C29.6288 263.242 30.8477 265.984 32.0168 268.175C32.4408 268.988 32.8769 269.781 33.3474 270.563C33.8179 271.344 34.0919 271.822 34.4728 272.449C42.1109 270.694 49.7619 269.034 57.4452 267.414C67.0357 265.376 76.614 263.36 86.1815 261.196C96.3128 258.945 106.411 256.537 116.451 253.898C133.872 249.304 150.939 243.99 167.838 237.944C174.26 235.638 180.67 233.236 187.066 230.737L188.615 230.105C193.912 228.039 199.205 225.959 204.46 223.823C204.552 220.695 204.288 217.143 203.962 214.056C200.28 215.634 196.642 217.117 192.9 218.514C174.996 225.039 156.563 230.917 138.081 235.492Z" fill="#D4AC7B" fill-opacity="0.5"/>
<path id="Vector_6" opacity="0.5" fill-rule="evenodd" clip-rule="evenodd" d="M168.104 287.976C148.176 295.464 127.635 301.242 106.779 305.227L92.8811 307.792C90.5525 307.478 88.2675 307.068 86.0141 306.58C92.3792 305.6 98.6858 304.671 105.105 303.623C114.738 302.113 124.321 300.178 133.819 297.824C144.491 295.087 154.97 291.598 165.153 287.391C167.632 286.384 170.088 285.368 172.551 284.317C171.068 285.57 169.564 286.764 168.046 287.913L168.104 287.976ZM66.2153 299.874C73.4813 297.982 80.7859 296.188 88.1293 294.491C97.7212 292.353 107.547 292.002 117.154 289.909C125.967 287.966 134.673 285.498 143.209 282.521C151.218 279.738 159.054 276.552 166.821 273.157C175.333 269.432 183.731 265.481 192.172 261.598C191.51 262.693 190.831 263.793 190.12 264.855C182.651 268.117 175.168 271.335 167.642 274.369C159.728 277.548 151.722 280.511 143.581 283.123C134.886 285.943 126.063 288.341 117.152 290.306C107.693 292.383 98.1127 293.758 88.7326 296.303C82.436 298.004 76.1714 299.743 69.8995 301.518C68.6863 301.015 67.4803 300.476 66.2986 299.896L66.2153 299.874ZM197.049 252.153C194.517 252.996 191.97 254.026 189.55 254.98C181.276 258.164 173.293 261.878 165.255 265.544C157.738 269.102 150.024 272.266 142.156 275.017C124.272 280.972 105.793 284.336 87.5692 288.87C78.2047 291.196 68.8114 293.663 59.3891 296.273C58.8422 295.943 58.2953 295.614 57.7605 295.264L60.7196 294.559C69.6042 292.409 78.4986 290.289 87.4003 288.134C105.548 283.659 123.989 280.291 141.767 274.421C149.675 271.668 157.44 268.531 165.026 265.026C172.99 261.484 180.913 257.872 189.05 254.734C191.795 253.671 194.523 252.615 197.258 251.522L197.049 252.153ZM192.42 245.444C182.815 249.484 173.553 254.152 163.768 257.938C152.09 262.365 140.191 266.206 128.132 269.44C117.681 272.31 107.293 274.91 96.8635 277.673C86.4342 280.437 75.7802 283.324 65.2536 286.251C60.4512 287.587 55.6366 288.942 50.8441 290.307C50.2526 289.844 49.7004 289.384 49.1261 288.915C59.2572 286.285 69.3348 283.721 79.5073 281.043C85.1512 279.571 90.7926 278.072 96.4314 276.547C108.638 273.241 120.885 270.055 132.932 266.555C143.193 263.749 153.332 260.489 163.309 256.787C173.025 253.024 182.746 249.276 192.42 245.444ZM40.823 280.707C52.4849 277.649 64.1867 274.826 75.8934 272.017C87.6002 269.208 98.9867 266.522 110.48 263.586C120.995 260.91 131.565 258.397 142.1 255.78C151.532 253.448 160.942 250.992 170.198 248.075C181.079 244.752 191.739 240.739 202.093 236.069L202.022 236.884C194.16 240.278 186.172 243.35 178.012 246.133C167.465 249.744 156.756 252.864 146.011 255.765C134.328 258.929 122.602 261.91 110.861 264.845C94.8268 268.93 78.836 272.918 62.8802 277.125C56.0952 278.9 49.3112 280.736 42.5282 282.631C41.9386 282.003 41.3833 281.362 40.823 280.707ZM203.502 225.056C197.939 227.42 192.298 229.661 186.74 231.809C156.585 243.156 125.901 253.086 94.8237 261.556C75.5556 266.948 55.9663 270.748 36.4542 274.952C35.8049 274.029 35.18 273.066 34.5771 272.112C42.1682 270.36 49.8062 268.691 57.4419 267.072C66.9729 265.037 76.4918 263.023 86.0005 260.864C96.0693 258.616 106.106 256.215 116.085 253.585C139.923 247.26 163.397 239.56 186.354 230.535C192.137 228.263 197.947 226.015 203.7 223.654C203.697 224.1 203.671 224.538 203.646 224.975L203.502 225.056ZM183.789 173.045C172.051 179.131 158.27 182.961 141.757 183.839C126.421 184.655 111.053 185.317 95.701 186.37C83.4066 187.13 71.1105 188.47 58.8647 190.385C50.9464 191.669 43.1468 193.309 35.3948 195.263C36.1542 194.004 36.9527 192.748 37.7782 191.516C45.0693 190.062 52.386 188.912 59.8087 188.025C72.0291 186.53 84.2445 185.763 96.5501 184.866C111.604 183.831 126.589 182.702 141.638 181.14C155.128 179.941 168.404 176.084 180.501 169.85C181.623 170.879 182.72 171.949 183.789 173.045ZM192.707 184.299C187.78 186.632 182.631 189.386 177.566 191.303C169.363 194.346 161.095 196.146 152.565 198.027C131.493 202.8 110.035 204.813 88.8556 208.746C67.3425 212.481 45.983 217.301 24.8823 223.183C25.1004 221.84 25.3749 220.495 25.6714 219.158C27.4124 218.678 29.3295 218.155 31.1488 217.681C50.3588 212.887 69.7715 209.079 89.2877 206.276C97.9841 204.931 106.723 203.771 115.415 202.527C123.576 201.459 131.806 200.369 139.89 199.129C147.122 198.008 154.313 196.769 161.361 195.099C167.284 193.804 171.52 192.273 177.087 189.862C181.505 187.83 187.507 185.354 191.863 183.078L192.707 184.299ZM200.51 201.17C190.075 205.97 179.321 210.102 168.336 213.533C155.652 217.575 142.755 220.978 129.87 224.245C114.325 228.201 98.5654 231.171 82.8399 234.014C63.4601 237.53 43.8521 240.874 24.6379 245.573C24.4175 244.111 24.2363 242.654 24.1114 241.194C27.733 240.252 31.3672 239.405 35.0332 238.597C66.0349 231.789 97.6113 229.162 128.634 222.017C143.613 218.697 158.45 214.677 173.082 209.973C182.254 206.975 191.237 203.432 199.968 199.371L200.072 199.683C200.235 200.173 200.399 200.663 200.567 201.168L200.51 201.17ZM203.214 214.543C199.551 216.103 195.855 217.581 192.125 218.977C174.326 225.465 156.192 231.007 137.824 235.573C118.674 240.464 99.3947 244.738 80.1352 249.072C65.2997 252.362 50.5087 255.785 35.7775 259.502L28.9108 261.26C28.6338 260.429 28.3569 259.597 27.9773 258.799L33.9172 257.283C48.7271 253.689 63.5455 250.405 78.3468 247.126C98.1255 242.867 117.961 238.721 137.655 233.979C155.967 229.731 174.04 224.402 191.752 218.029C195.581 216.589 199.361 215.017 203.09 213.313C203.15 213.722 203.193 214.137 203.219 214.557L203.214 214.543ZM67.8279 163.179C76.3882 162.111 84.9538 161.172 93.4928 160.326C103.932 159.464 114.365 159.243 124.716 159.665C137.013 159.943 149.402 160.322 161.121 156.866C161.709 157.148 162.293 157.416 162.869 157.719C149.247 162.485 134.939 162.333 120.359 162.336C109.339 162.141 98.2546 162.591 87.1773 163.683C78.815 164.641 70.4488 165.683 62.0788 166.809C63.9297 165.516 65.8345 164.272 67.7983 163.09L67.8279 163.179Z" fill="#886759" fill-opacity="0.3"/>
</g>
</g>
</g>
<g id="Counter/Default">
<g id="Counter/Dummy_2">
<path id="Vector_7" d="M188.217 329.012C187.648 328.369 186.83 328 185.97 328H122H58.0293C57.1701 328 56.3522 328.368 55.7828 329.012L50.7536 334.694C50.268 335.242 50 335.949 50 336.682V374.709C50 375.588 50.3853 376.422 51.0541 376.992L58.436 383.283C58.9788 383.746 59.6687 384 60.3819 384H122H183.616C184.33 384 185.022 383.745 185.565 383.281L192.949 376.971C193.616 376.402 194 375.568 194 374.691V336.685C194 335.953 193.732 335.246 193.247 334.697L188.217 329.012Z" fill="#55413B"/>
<path id="Vector_8" d="M188.217 325.012C187.648 324.369 186.83 324 185.97 324H122H58.0293C57.1701 324 56.3522 324.368 55.7828 325.012L50.7536 330.694C50.268 331.242 50 331.949 50 332.682V370.709C50 371.588 50.3853 372.422 51.0541 372.992L58.436 379.283C58.9788 379.746 59.6687 380 60.3819 380H122H183.616C184.33 380 185.022 379.745 185.565 379.281L192.949 372.971C193.616 372.402 194 371.568 194 370.691V332.685C194 331.953 193.732 331.246 193.247 330.697L188.217 325.012Z" fill="#96786F"/>
<g id="MaskGroup_2">
<mask id="mask1_673_16608" style="mask-type:alpha" maskUnits="userSpaceOnUse" x="50" y="324" width="144" height="56">
<path id="Vector_9" d="M188.217 325.012C187.648 324.369 186.83 324 185.97 324H122H58.0293C57.1701 324 56.3522 324.368 55.7828 325.012L50.7536 330.694C50.268 331.242 50 331.949 50 332.682V370.709C50 371.588 50.3853 372.422 51.0541 372.992L58.436 379.283C58.9788 379.746 59.6687 380 60.3819 380H122H183.616C184.33 380 185.022 379.745 185.565 379.281L192.949 372.971C193.616 372.402 194 371.568 194 370.691V332.685C194 331.953 193.732 331.246 193.247 330.697L188.217 325.012Z" fill="#96786F"/>
</mask>
<g mask="url(#mask1_673_16608)">
<path id="Vector_10" opacity="0.4" fill-rule="evenodd" clip-rule="evenodd" d="M88.5867 318.237C66.9791 321.775 45.5461 326.467 24.3938 332.287C24.0388 334.653 23.8026 337.033 23.685 339.425C23.6103 340.802 23.5698 342.168 23.5742 343.554C23.5765 346.135 23.7132 348.777 23.9542 351.331C27.5704 350.408 31.201 349.585 34.8645 348.804C65.9903 342.181 97.7737 339.994 128.914 333.015C143.953 329.782 158.835 325.806 173.497 321.103C182.656 318.102 191.616 314.532 200.317 310.416C199.538 308.077 198.65 305.808 197.664 303.59C197.49 303.068 197.201 302.602 196.966 302.066C195.711 299.409 194.058 296.125 192.503 293.622C187.576 295.983 182.647 298.581 177.578 300.515C169.365 303.581 160.706 305.711 152.141 307.542C130.988 312.196 109.786 314.462 88.5076 318.228L88.5867 318.237Z" fill="#D4AC7B" fill-opacity="0.5"/>
<path id="Vector_11" opacity="0.4" fill-rule="evenodd" clip-rule="evenodd" d="M138.081 345.492C118.814 350.399 99.7602 354.349 80.3813 358.691C65.4537 361.986 50.3755 365.378 35.554 369.107L28.6755 370.896C29.6288 373.242 30.8477 375.984 32.0168 378.175C32.4408 378.988 32.8769 379.781 33.3474 380.563C33.8179 381.344 34.0919 381.822 34.4728 382.449C42.1109 380.694 49.7619 379.034 57.4452 377.414C67.0357 375.376 76.614 373.36 86.1815 371.196C96.3128 368.945 106.411 366.537 116.451 363.898C133.872 359.304 150.939 353.99 167.838 347.944C174.26 345.638 180.67 343.236 187.066 340.737L188.615 340.105C193.912 338.039 199.205 335.959 204.46 333.823C204.552 330.695 204.288 327.143 203.962 324.056C200.28 325.634 196.642 327.117 192.9 328.514C174.996 335.039 156.563 340.917 138.081 345.492Z" fill="#D4AC7B" fill-opacity="0.5"/>
<path id="Vector_12" opacity="0.5" fill-rule="evenodd" clip-rule="evenodd" d="M168.104 397.976C148.176 405.464 127.635 411.242 106.779 415.227L92.8811 417.792C90.5525 417.478 88.2675 417.068 86.0141 416.58C92.3792 415.6 98.6858 414.671 105.105 413.623C114.738 412.113 124.321 410.178 133.819 407.824C144.491 405.087 154.97 401.598 165.153 397.391C167.632 396.384 170.088 395.368 172.551 394.317C171.068 395.57 169.564 396.764 168.046 397.913L168.104 397.976ZM66.2153 409.874C73.4813 407.982 80.7859 406.188 88.1293 404.491C97.7212 402.353 107.547 402.002 117.154 399.909C125.967 397.966 134.673 395.498 143.209 392.521C151.218 389.738 159.054 386.552 166.821 383.157C175.333 379.432 183.731 375.481 192.172 371.598C191.51 372.693 190.831 373.793 190.12 374.855C182.651 378.117 175.168 381.335 167.642 384.369C159.728 387.548 151.722 390.511 143.581 393.123C134.886 395.943 126.063 398.341 117.152 400.306C107.693 402.383 98.1127 403.758 88.7326 406.303C82.436 408.004 76.1714 409.743 69.8995 411.518C68.6863 411.015 67.4803 410.476 66.2986 409.896L66.2153 409.874ZM197.049 362.153C194.517 362.996 191.97 364.026 189.55 364.98C181.276 368.164 173.293 371.878 165.255 375.544C157.738 379.102 150.024 382.266 142.156 385.017C124.272 390.972 105.793 394.336 87.5692 398.87C78.2047 401.196 68.8114 403.663 59.3891 406.273C58.8422 405.943 58.2953 405.614 57.7605 405.264L60.7196 404.559C69.6042 402.409 78.4986 400.289 87.4003 398.134C105.548 393.659 123.989 390.291 141.767 384.421C149.675 381.668 157.44 378.531 165.026 375.026C172.99 371.484 180.913 367.872 189.05 364.734C191.795 363.671 194.523 362.615 197.258 361.522L197.049 362.153ZM192.42 355.444C182.815 359.484 173.553 364.152 163.768 367.938C152.09 372.365 140.191 376.206 128.132 379.44C117.681 382.31 107.293 384.91 96.8635 387.673C86.4342 390.437 75.7802 393.324 65.2536 396.251C60.4512 397.587 55.6366 398.942 50.8441 400.307C50.2526 399.844 49.7004 399.384 49.1261 398.915C59.2572 396.285 69.3348 393.721 79.5073 391.043C85.1512 389.571 90.7926 388.072 96.4314 386.547C108.638 383.241 120.885 380.055 132.932 376.555C143.193 373.749 153.332 370.489 163.309 366.787C173.025 363.024 182.746 359.276 192.42 355.444ZM40.823 390.707C52.4849 387.649 64.1867 384.826 75.8934 382.017C87.6002 379.208 98.9867 376.522 110.48 373.586C120.995 370.91 131.565 368.397 142.1 365.78C151.532 363.448 160.942 360.992 170.198 358.075C181.079 354.752 191.739 350.739 202.093 346.069L202.022 346.884C194.16 350.278 186.172 353.35 178.012 356.133C167.465 359.744 156.756 362.864 146.011 365.765C134.328 368.929 122.602 371.91 110.861 374.845C94.8268 378.93 78.836 382.918 62.8802 387.125C56.0952 388.9 49.3112 390.736 42.5282 392.631C41.9386 392.003 41.3833 391.362 40.823 390.707ZM203.502 335.056C197.939 337.42 192.298 339.661 186.74 341.809C156.585 353.156 125.901 363.086 94.8237 371.556C75.5556 376.948 55.9663 380.748 36.4542 384.952C35.8049 384.029 35.18 383.066 34.5771 382.112C42.1682 380.36 49.8062 378.691 57.4419 377.072C66.9729 375.037 76.4918 373.023 86.0005 370.864C96.0693 368.616 106.106 366.215 116.085 363.585C139.923 357.26 163.397 349.56 186.354 340.535C192.137 338.263 197.947 336.015 203.7 333.654C203.697 334.1 203.671 334.538 203.646 334.975L203.502 335.056ZM183.789 283.045C172.051 289.131 158.27 292.961 141.757 293.839C126.421 294.655 111.053 295.317 95.701 296.37C83.4066 297.13 71.1105 298.47 58.8647 300.385C50.9464 301.669 43.1468 303.309 35.3948 305.263C36.1542 304.004 36.9527 302.748 37.7782 301.516C45.0693 300.062 52.386 298.912 59.8087 298.025C72.0291 296.53 84.2445 295.763 96.5501 294.866C111.604 293.831 126.589 292.702 141.638 291.14C155.128 289.941 168.404 286.084 180.501 279.85C181.623 280.879 182.72 281.949 183.789 283.045ZM192.707 294.299C187.78 296.632 182.631 299.386 177.566 301.303C169.363 304.346 161.095 306.146 152.565 308.027C131.493 312.8 110.035 314.813 88.8556 318.746C67.3425 322.481 45.983 327.301 24.8823 333.183C25.1004 331.84 25.3749 330.495 25.6714 329.158C27.4124 328.678 29.3295 328.155 31.1488 327.681C50.3588 322.887 69.7715 319.079 89.2877 316.276C97.9841 314.931 106.723 313.771 115.415 312.527C123.576 311.459 131.806 310.369 139.89 309.129C147.122 308.008 154.313 306.769 161.361 305.099C167.284 303.804 171.52 302.273 177.087 299.862C181.505 297.83 187.507 295.354 191.863 293.078L192.707 294.299ZM200.51 311.17C190.075 315.97 179.321 320.102 168.336 323.533C155.652 327.575 142.755 330.978 129.87 334.245C114.325 338.201 98.5654 341.171 82.8399 344.014C63.4601 347.53 43.8521 350.874 24.6379 355.573C24.4175 354.111 24.2363 352.654 24.1114 351.194C27.733 350.252 31.3672 349.405 35.0332 348.597C66.0349 341.789 97.6113 339.162 128.634 332.017C143.613 328.697 158.45 324.677 173.082 319.973C182.254 316.975 191.237 313.432 199.968 309.371L200.072 309.683C200.235 310.173 200.399 310.663 200.567 311.168L200.51 311.17ZM203.214 324.543C199.551 326.103 195.855 327.581 192.125 328.977C174.326 335.465 156.192 341.007 137.824 345.573C118.674 350.464 99.3947 354.738 80.1352 359.072C65.2997 362.362 50.5087 365.785 35.7775 369.502L28.9108 371.26C28.6338 370.429 28.3569 369.597 27.9773 368.799L33.9172 367.283C48.7271 363.689 63.5455 360.405 78.3468 357.126C98.1255 352.867 117.961 348.721 137.655 343.979C155.967 339.731 174.04 334.402 191.752 328.029C195.581 326.589 199.361 325.017 203.09 323.313C203.15 323.722 203.193 324.137 203.219 324.557L203.214 324.543ZM67.8279 273.179C76.3882 272.111 84.9538 271.172 93.4928 270.326C103.932 269.464 114.365 269.243 124.716 269.665C137.013 269.943 149.402 270.322 161.121 266.866C161.709 267.148 162.293 267.416 162.869 267.719C149.247 272.485 134.939 272.333 120.359 272.336C109.339 272.141 98.2546 272.591 87.1773 273.683C78.815 274.641 70.4488 275.683 62.0788 276.809C63.9297 275.516 65.8345 274.272 67.7983 273.09L67.8279 273.179Z" fill="#886759" fill-opacity="0.3"/>
</g>
</g>
</g>
<g id="Counter/Icon/Dummy_3">
<g id="Circle_4" filter="url(#filter3_i_673_16608)">
<path d="M98 352C98 363.046 89.0457 372 78 372C66.9543 372 58 363.046 58 352C58 340.954 66.9543 332 78 332C89.0457 332 98 340.954 98 352Z" fill="#FDE294"/>
</g>
</g>
</g>
<g id="Counter/Example">
<g id="Counter/Dummy_3">
<path id="Vector_13" d="M188.217 439.012C187.648 438.369 186.83 438 185.97 438H122H58.0293C57.1701 438 56.3522 438.368 55.7828 439.012L50.7536 444.694C50.268 445.242 50 445.949 50 446.682V484.709C50 485.588 50.3853 486.422 51.0541 486.992L58.436 493.283C58.9788 493.746 59.6687 494 60.3819 494H122H183.616C184.33 494 185.022 493.745 185.565 493.281L192.949 486.971C193.616 486.402 194 485.568 194 484.691V446.685C194 445.953 193.732 445.246 193.247 444.697L188.217 439.012Z" fill="#55413B"/>
<path id="Vector_14" d="M188.217 435.012C187.648 434.369 186.83 434 185.97 434H122H58.0293C57.1701 434 56.3522 434.368 55.7828 435.012L50.7536 440.694C50.268 441.242 50 441.949 50 442.682V480.709C50 481.588 50.3853 482.422 51.0541 482.992L58.436 489.283C58.9788 489.746 59.6687 490 60.3819 490H122H183.616C184.33 490 185.022 489.745 185.565 489.281L192.949 482.971C193.616 482.402 194 481.568 194 480.691V442.685C194 441.953 193.732 441.246 193.247 440.697L188.217 435.012Z" fill="#96786F"/>
<g id="MaskGroup_3">
<mask id="mask2_673_16608" style="mask-type:alpha" maskUnits="userSpaceOnUse" x="50" y="434" width="144" height="56">
<path id="Vector_15" d="M188.217 435.012C187.648 434.369 186.83 434 185.97 434H122H58.0293C57.1701 434 56.3522 434.368 55.7828 435.012L50.7536 440.694C50.268 441.242 50 441.949 50 442.682V480.709C50 481.588 50.3853 482.422 51.0541 482.992L58.436 489.283C58.9788 489.746 59.6687 490 60.3819 490H122H183.616C184.33 490 185.022 489.745 185.565 489.281L192.949 482.971C193.616 482.402 194 481.568 194 480.691V442.685C194 441.953 193.732 441.246 193.247 440.697L188.217 435.012Z" fill="#96786F"/>
</mask>
<g mask="url(#mask2_673_16608)">
<path id="Vector_16" opacity="0.4" fill-rule="evenodd" clip-rule="evenodd" d="M88.5867 428.237C66.9791 431.775 45.5461 436.467 24.3938 442.287C24.0388 444.653 23.8026 447.033 23.685 449.425C23.6103 450.802 23.5698 452.168 23.5742 453.554C23.5765 456.135 23.7132 458.777 23.9542 461.331C27.5704 460.408 31.201 459.585 34.8645 458.804C65.9903 452.181 97.7737 449.994 128.914 443.015C143.953 439.782 158.835 435.806 173.497 431.103C182.656 428.102 191.616 424.532 200.317 420.416C199.538 418.077 198.65 415.808 197.664 413.59C197.49 413.068 197.201 412.602 196.966 412.066C195.711 409.409 194.058 406.125 192.503 403.622C187.576 405.983 182.647 408.581 177.578 410.515C169.365 413.581 160.706 415.711 152.141 417.542C130.988 422.196 109.786 424.462 88.5076 428.228L88.5867 428.237Z" fill="#D4AC7B" fill-opacity="0.5"/>
<path id="Vector_17" opacity="0.4" fill-rule="evenodd" clip-rule="evenodd" d="M138.081 455.492C118.814 460.399 99.7602 464.349 80.3813 468.691C65.4537 471.986 50.3755 475.378 35.554 479.107L28.6755 480.896C29.6288 483.242 30.8477 485.984 32.0168 488.175C32.4408 488.988 32.8769 489.781 33.3474 490.563C33.8179 491.344 34.0919 491.822 34.4728 492.449C42.1109 490.694 49.7619 489.034 57.4452 487.414C67.0357 485.376 76.614 483.36 86.1815 481.196C96.3128 478.945 106.411 476.537 116.451 473.898C133.872 469.304 150.939 463.99 167.838 457.944C174.26 455.638 180.67 453.236 187.066 450.737L188.615 450.105C193.912 448.039 199.205 445.959 204.46 443.823C204.552 440.695 204.288 437.143 203.962 434.056C200.28 435.634 196.642 437.117 192.9 438.514C174.996 445.039 156.563 450.917 138.081 455.492Z" fill="#D4AC7B" fill-opacity="0.5"/>
<path id="Vector_18" opacity="0.5" fill-rule="evenodd" clip-rule="evenodd" d="M168.104 507.976C148.176 515.464 127.635 521.242 106.779 525.227L92.8811 527.792C90.5525 527.478 88.2675 527.068 86.0141 526.58C92.3792 525.6 98.6858 524.671 105.105 523.623C114.738 522.113 124.321 520.178 133.819 517.824C144.491 515.087 154.97 511.598 165.153 507.391C167.632 506.384 170.088 505.368 172.551 504.317C171.068 505.57 169.564 506.764 168.046 507.913L168.104 507.976ZM66.2153 519.874C73.4813 517.982 80.7859 516.188 88.1293 514.491C97.7212 512.353 107.547 512.002 117.154 509.909C125.967 507.966 134.673 505.498 143.209 502.521C151.218 499.738 159.054 496.552 166.821 493.157C175.333 489.432 183.731 485.481 192.172 481.598C191.51 482.693 190.831 483.793 190.12 484.855C182.651 488.117 175.168 491.335 167.642 494.369C159.728 497.548 151.722 500.511 143.581 503.123C134.886 505.943 126.063 508.341 117.152 510.306C107.693 512.383 98.1127 513.758 88.7326 516.303C82.436 518.004 76.1714 519.743 69.8995 521.518C68.6863 521.015 67.4803 520.476 66.2986 519.896L66.2153 519.874ZM197.049 472.153C194.517 472.996 191.97 474.026 189.55 474.98C181.276 478.164 173.293 481.878 165.255 485.544C157.738 489.102 150.024 492.266 142.156 495.017C124.272 500.972 105.793 504.336 87.5692 508.87C78.2047 511.196 68.8114 513.663 59.3891 516.273C58.8422 515.943 58.2953 515.614 57.7605 515.264L60.7196 514.559C69.6042 512.409 78.4986 510.289 87.4003 508.134C105.548 503.659 123.989 500.291 141.767 494.421C149.675 491.668 157.44 488.531 165.026 485.026C172.99 481.484 180.913 477.872 189.05 474.734C191.795 473.671 194.523 472.615 197.258 471.522L197.049 472.153ZM192.42 465.444C182.815 469.484 173.553 474.152 163.768 477.938C152.09 482.365 140.191 486.206 128.132 489.44C117.681 492.31 107.293 494.91 96.8635 497.673C86.4342 500.437 75.7802 503.324 65.2536 506.251C60.4512 507.587 55.6366 508.942 50.8441 510.307C50.2526 509.844 49.7004 509.384 49.1261 508.915C59.2572 506.285 69.3348 503.721 79.5073 501.043C85.1512 499.571 90.7926 498.072 96.4314 496.547C108.638 493.241 120.885 490.055 132.932 486.555C143.193 483.749 153.332 480.489 163.309 476.787C173.025 473.024 182.746 469.276 192.42 465.444ZM40.823 500.707C52.4849 497.649 64.1867 494.826 75.8934 492.017C87.6002 489.208 98.9867 486.522 110.48 483.586C120.995 480.91 131.565 478.397 142.1 475.78C151.532 473.448 160.942 470.992 170.198 468.075C181.079 464.752 191.739 460.739 202.093 456.069L202.022 456.884C194.16 460.278 186.172 463.35 178.012 466.133C167.465 469.744 156.756 472.864 146.011 475.765C134.328 478.929 122.602 481.91 110.861 484.845C94.8268 488.93 78.836 492.918 62.8802 497.125C56.0952 498.9 49.3112 500.736 42.5282 502.631C41.9386 502.003 41.3833 501.362 40.823 500.707ZM203.502 445.056C197.939 447.42 192.298 449.661 186.74 451.809C156.585 463.156 125.901 473.086 94.8237 481.556C75.5556 486.948 55.9663 490.748 36.4542 494.952C35.8049 494.029 35.18 493.066 34.5771 492.112C42.1682 490.36 49.8062 488.691 57.4419 487.072C66.9729 485.037 76.4918 483.023 86.0005 480.864C96.0693 478.616 106.106 476.215 116.085 473.585C139.923 467.26 163.397 459.56 186.354 450.535C192.137 448.263 197.947 446.015 203.7 443.654C203.697 444.1 203.671 444.538 203.646 444.975L203.502 445.056ZM183.789 393.045C172.051 399.131 158.27 402.961 141.757 403.839C126.421 404.655 111.053 405.317 95.701 406.37C83.4066 407.13 71.1105 408.47 58.8647 410.385C50.9464 411.669 43.1468 413.309 35.3948 415.263C36.1542 414.004 36.9527 412.748 37.7782 411.516C45.0693 410.062 52.386 408.912 59.8087 408.025C72.0291 406.53 84.2445 405.763 96.5501 404.866C111.604 403.831 126.589 402.702 141.638 401.14C155.128 399.941 168.404 396.084 180.501 389.85C181.623 390.879 182.72 391.949 183.789 393.045ZM192.707 404.299C187.78 406.632 182.631 409.386 177.566 411.303C169.363 414.346 161.095 416.146 152.565 418.027C131.493 422.8 110.035 424.813 88.8556 428.746C67.3425 432.481 45.983 437.301 24.8823 443.183C25.1004 441.84 25.3749 440.495 25.6714 439.158C27.4124 438.678 29.3295 438.155 31.1488 437.681C50.3588 432.887 69.7715 429.079 89.2877 426.276C97.9841 424.931 106.723 423.771 115.415 422.527C123.576 421.459 131.806 420.369 139.89 419.129C147.122 418.008 154.313 416.769 161.361 415.099C167.284 413.804 171.52 412.273 177.087 409.862C181.505 407.83 187.507 405.354 191.863 403.078L192.707 404.299ZM200.51 421.17C190.075 425.97 179.321 430.102 168.336 433.533C155.652 437.575 142.755 440.978 129.87 444.245C114.325 448.201 98.5654 451.171 82.8399 454.014C63.4601 457.53 43.8521 460.874 24.6379 465.573C24.4175 464.111 24.2363 462.654 24.1114 461.194C27.733 460.252 31.3672 459.405 35.0332 458.597C66.0349 451.789 97.6113 449.162 128.634 442.017C143.613 438.697 158.45 434.677 173.082 429.973C182.254 426.975 191.237 423.432 199.968 419.371L200.072 419.683C200.235 420.173 200.399 420.663 200.567 421.168L200.51 421.17ZM203.214 434.543C199.551 436.103 195.855 437.581 192.125 438.977C174.326 445.465 156.192 451.007 137.824 455.573C118.674 460.464 99.3947 464.738 80.1352 469.072C65.2997 472.362 50.5087 475.785 35.7775 479.502L28.9108 481.26C28.6338 480.429 28.3569 479.597 27.9773 478.799L33.9172 477.283C48.7271 473.689 63.5455 470.405 78.3468 467.126C98.1255 462.867 117.961 458.721 137.655 453.979C155.967 449.731 174.04 444.402 191.752 438.029C195.581 436.589 199.361 435.017 203.09 433.313C203.15 433.722 203.193 434.137 203.219 434.557L203.214 434.543ZM67.8279 383.179C76.3882 382.111 84.9538 381.172 93.4928 380.326C103.932 379.464 114.365 379.243 124.716 379.665C137.013 379.943 149.402 380.322 161.121 376.866C161.709 377.148 162.293 377.416 162.869 377.719C149.247 382.485 134.939 382.333 120.359 382.336C109.339 382.141 98.2546 382.591 87.1773 383.683C78.815 384.641 70.4488 385.683 62.0788 386.809C63.9297 385.516 65.8345 384.272 67.7983 383.09L67.8279 383.179Z" fill="#886759" fill-opacity="0.3"/>
</g>
</g>
</g>
<g id="59:59" filter="url(#filter4_d_673_16608)">
<text fill="#FDE294" xml:space="preserve" style="white-space: pre" font-family="Bungee" font-size="32" letter-spacing="0em"><tspan x="107" y="473.52">1:29</tspan></text>
</g>
<g id="Counter/Icon/Time_2">
<g id="Circle_5" filter="url(#filter5_i_673_16608)">
<path d="M98 462C98 450.954 89.0457 442 78 442C66.9543 442 58 450.954 58 462C58 473.046 66.9543 482 78 482C89.0457 482 98 473.046 98 462Z" fill="#FDE294"/>
</g>
<g id="ClockIcon_2">
<path id="Rectangle_3" d="M74.9372 452.907C74.3237 451.988 73.0818 451.741 72.1632 452.354C71.2447 452.968 70.9973 454.209 71.6107 455.128L77.1642 463.444C77.7776 464.363 79.0196 464.61 79.9381 463.997C80.8567 463.383 81.1041 462.141 80.4907 461.223L74.9372 452.907Z" fill="#5F443C"/>
<path id="Rectangle_4" d="M83.3068 461.747C84.2207 461.137 84.4644 459.897 83.8509 458.979C83.2375 458.06 81.9993 457.81 81.0854 458.421L77.7421 460.653C76.8282 461.263 76.5846 462.503 77.198 463.421C77.8114 464.34 79.0496 464.59 79.9635 463.98L83.3068 461.747Z" fill="#5F443C"/>
</g>
</g>
</g>
<rect x="0.5" y="0.5" width="269" height="543" stroke="#00FF19"/>
</g>
<defs>
<filter id="filter0_i_673_16608" x="50" y="124" width="40" height="40" filterUnits="userSpaceOnUse" color-interpolation-filters="sRGB">
<feFlood flood-opacity="0" result="BackgroundImageFix"/>
<feBlend mode="normal" in="SourceGraphic" in2="BackgroundImageFix" result="shape"/>
<feColorMatrix in="SourceAlpha" type="matrix" values="0 0 0 0 0 0 0 0 0 0 0 0 0 0 0 0 0 0 127 0" result="hardAlpha"/>
<feOffset dy="-2"/>
<feComposite in2="hardAlpha" operator="arithmetic" k2="-1" k3="1"/>
<feColorMatrix type="matrix" values="0 0 0 0 0 0 0 0 0 0 0 0 0 0 0 0 0 0 0.25 0"/>
<feBlend mode="normal" in2="shape" result="effect1_innerShadow_673_16608"/>
</filter>
<filter id="filter1_i_673_16608" x="115" y="124" width="40" height="40" filterUnits="userSpaceOnUse" color-interpolation-filters="sRGB">
<feFlood flood-opacity="0" result="BackgroundImageFix"/>
<feBlend mode="normal" in="SourceGraphic" in2="BackgroundImageFix" result="shape"/>
<feColorMatrix in="SourceAlpha" type="matrix" values="0 0 0 0 0 0 0 0 0 0 0 0 0 0 0 0 0 0 127 0" result="hardAlpha"/>
<feOffset dy="-2"/>
<feComposite in2="hardAlpha" operator="arithmetic" k2="-1" k3="1"/>
<feColorMatrix type="matrix" values="0 0 0 0 0 0 0 0 0 0 0 0 0 0 0 0 0 0 0.25 0"/>
<feBlend mode="normal" in2="shape" result="effect1_innerShadow_673_16608"/>
</filter>
<filter id="filter2_i_673_16608" x="180" y="124" width="40" height="40" filterUnits="userSpaceOnUse" color-interpolation-filters="sRGB">
<feFlood flood-opacity="0" result="BackgroundImageFix"/>
<feBlend mode="normal" in="SourceGraphic" in2="BackgroundImageFix" result="shape"/>
<feColorMatrix in="SourceAlpha" type="matrix" values="0 0 0 0 0 0 0 0 0 0 0 0 0 0 0 0 0 0 127 0" result="hardAlpha"/>
<feOffset dy="-2"/>
<feComposite in2="hardAlpha" operator="arithmetic" k2="-1" k3="1"/>
<feColorMatrix type="matrix" values="0 0 0 0 0 0 0 0 0 0 0 0 0 0 0 0 0 0 0.25 0"/>
<feBlend mode="normal" in2="shape" result="effect1_innerShadow_673_16608"/>
</filter>
<filter id="filter3_i_673_16608" x="58" y="332" width="40" height="40" filterUnits="userSpaceOnUse" color-interpolation-filters="sRGB">
<feFlood flood-opacity="0" result="BackgroundImageFix"/>
<feBlend mode="normal" in="SourceGraphic" in2="BackgroundImageFix" result="shape"/>
<feColorMatrix in="SourceAlpha" type="matrix" values="0 0 0 0 0 0 0 0 0 0 0 0 0 0 0 0 0 0 127 0" result="hardAlpha"/>
<feOffset dy="-2"/>
<feComposite in2="hardAlpha" operator="arithmetic" k2="-1" k3="1"/>
<feColorMatrix type="matrix" values="0 0 0 0 0 0 0 0 0 0 0 0 0 0 0 0 0 0 0.25 0"/>
<feBlend mode="normal" in2="shape" result="effect1_innerShadow_673_16608"/>
</filter>
<filter id="filter4_d_673_16608" x="108.536" y="450.48" width="70.7212" height="27.52" filterUnits="userSpaceOnUse" color-interpolation-filters="sRGB">
<feFlood flood-opacity="0" result="BackgroundImageFix"/>
<feColorMatrix in="SourceAlpha" type="matrix" values="0 0 0 0 0 0 0 0 0 0 0 0 0 0 0 0 0 0 127 0" result="hardAlpha"/>
<feOffset dy="4"/>
<feComposite in2="hardAlpha" operator="out"/>
<feColorMatrix type="matrix" values="0 0 0 0 0.334167 0 0 0 0 0.254311 0 0 0 0 0.22974 0 0 0 0.5 0"/>
<feBlend mode="normal" in2="BackgroundImageFix" result="effect1_dropShadow_673_16608"/>
<feBlend mode="normal" in="SourceGraphic" in2="effect1_dropShadow_673_16608" result="shape"/>
</filter>
<filter id="filter5_i_673_16608" x="58" y="442" width="40" height="40" filterUnits="userSpaceOnUse" color-interpolation-filters="sRGB">
<feFlood flood-opacity="0" result="BackgroundImageFix"/>
<feBlend mode="normal" in="SourceGraphic" in2="BackgroundImageFix" result="shape"/>
<feColorMatrix in="SourceAlpha" type="matrix" values="0 0 0 0 0 0 0 0 0 0 0 0 0 0 0 0 0 0 127 0" result="hardAlpha"/>
<feOffset dy="-2"/>
<feComposite in2="hardAlpha" operator="arithmetic" k2="-1" k3="1"/>
<feColorMatrix type="matrix" values="0 0 0 0 0 0 0 0 0 0 0 0 0 0 0 0 0 0 0.25 0"/>
<feBlend mode="normal" in2="shape" result="effect1_innerShadow_673_16608"/>
</filter>
</defs>
</svg>
