<svg width="438" height="450" viewBox="0 0 438 450" fill="none" xmlns="http://www.w3.org/2000/svg">
<g id="@Level Button">
<rect x="0.5" y="0.5" width="437" height="449" fill="white"/>
<g id="Level/Button/Dummy">
<path id="Vector" d="M120.937 78.6895C120.435 77.6561 119.387 77 118.239 77H85.0469H51.7614C50.6125 77 49.5646 77.6561 49.0627 78.6895L40.3014 96.7305C40.1031 97.1389 40 97.587 40 98.0411V170.231C40 171.042 40.3286 171.819 40.9109 172.384L47.8873 179.153C48.4471 179.696 49.1964 180 49.9764 180H67.4035H85.0469H102.643H120.024C120.804 180 121.553 179.696 122.113 179.153L129.089 172.384C129.671 171.819 130 171.042 130 170.231V98.0411C130 97.587 129.897 97.1389 129.699 96.7305L120.937 78.6895Z" fill="#5F443C"/>
<g id="Vector_2" filter="url(#filter0_ii_673_16587)">
<path d="M123.292 76.1924C122.54 75.4295 121.514 75 120.443 75H85.0469H49.5573C48.4863 75 47.4599 75.4295 46.7082 76.1924L41.1509 81.8321C40.4134 82.5805 40 83.589 40 84.6397V161.814C40 162.892 40.435 163.924 41.2064 164.677L49.5948 172.863C50.342 173.592 51.3445 174 52.3884 174H85.0469H117.727C118.702 174 119.643 173.644 120.374 172.999L128.647 165.694C129.507 164.935 130 163.843 130 162.696V84.6397C130 83.589 129.587 82.5805 128.849 81.8321L123.292 76.1924Z" fill="#977970"/>
</g>
<g id="MaskGroup">
<mask id="mask0_673_16587" style="mask-type:alpha" maskUnits="userSpaceOnUse" x="40" y="75" width="90" height="99">
<path id="Vector_3" d="M122.998 75.8943C122.434 75.3222 121.664 75 120.861 75H85.0469H49.1388C48.3355 75 47.5658 75.3222 47.0019 75.8943L40.8631 82.1241C40.31 82.6854 40 83.4417 40 84.2297V162.236C40 163.044 40.3262 163.818 40.9048 164.383L49.8862 173.147C50.4465 173.694 51.1984 174 51.9814 174H85.0469H118.105C118.836 174 119.542 173.733 120.091 173.249L128.986 165.396C129.631 164.826 130 164.007 130 163.147V84.2297C130 83.4417 129.69 82.6854 129.137 82.1241L122.998 75.8943Z" fill="#AD938B"/>
</mask>
<g mask="url(#mask0_673_16587)">
<g id="Group">
<path id="Vector_4" opacity="0.4" fill-rule="evenodd" clip-rule="evenodd" d="M107.795 161.286C135.456 165.724 163.371 168.692 191.401 170.177C192.788 167.448 194.037 164.655 195.147 161.798C195.794 160.156 196.395 158.515 196.95 156.83C197.991 153.696 198.892 150.434 199.632 147.236C194.869 146.895 190.129 146.426 185.366 145.893C144.905 141.352 105.437 131.161 64.8135 127.046C45.2512 124.892 25.578 123.703 5.87802 123.486C-6.4528 123.427 -18.7738 124.139 -31 125.618C-31 128.773 -30.8382 131.886 -30.5376 134.977C-30.5376 135.681 -30.3757 136.363 -30.3064 137.109C-29.8569 140.842 -29.1778 145.497 -28.3025 149.164C-21.3662 148.29 -14.3336 147.128 -7.3973 146.829C3.81173 146.427 15.1841 147.341 26.3208 148.581C53.8811 151.48 80.5358 157.299 107.888 161.329L107.795 161.286Z" fill="#D4AC7B" fill-opacity="0.5"/>
<path id="Vector_5" opacity="0.4" fill-rule="evenodd" clip-rule="evenodd" d="M58.7287 108.195C84.1014 110.025 108.828 112.932 134.108 115.494C153.561 117.527 173.236 119.504 192.735 120.968L201.809 121.577C201.6 118.343 201.229 114.522 200.695 111.39C200.509 110.231 200.3 109.092 200.045 107.954C199.789 106.815 199.65 106.123 199.441 105.208C189.459 104.252 179.5 103.175 169.518 102.036C157.053 100.633 144.61 99.2093 132.121 97.9688C118.912 96.6063 105.681 95.4472 92.4255 94.5931C69.4207 93.129 46.5551 92.6816 23.5966 93.19C14.8683 93.3933 6.11666 93.7187 -2.65815 94.1661L-4.79382 94.3084C-12.0597 94.6745 -19.3256 95.0608 -26.5683 95.5285C-27.9436 99.2896 -29.0598 103.708 -29.9111 107.587C-24.8041 107.159 -19.7877 106.83 -14.6807 106.647C9.69085 105.962 34.4431 106.277 58.7287 108.195Z" fill="#D4AC7B" fill-opacity="0.5"/>
<path id="Vector_6" opacity="0.5" fill-rule="evenodd" clip-rule="evenodd" d="M43.4948 32.346C70.7138 31.3111 97.9841 32.5992 124.913 36.1917L142.821 38.6955C145.521 40.0175 148.129 41.4396 150.668 42.9419C142.544 41.5598 134.513 40.1377 126.298 38.8157C113.993 36.7544 101.577 35.2302 89.0964 34.2488C75.0344 33.2574 60.903 33.2574 46.8411 34.2488C43.4256 34.4692 40.0332 34.7095 36.6177 34.9899C38.9254 34.0686 41.2332 33.2273 43.541 32.4461L43.4948 32.346ZM171.991 59.0861C162.407 58.4451 152.814 57.6706 143.214 56.7626C130.705 55.4807 118.636 51.9353 106.128 50.5933C94.6433 49.3892 83.0775 48.8672 71.5112 49.031C60.6646 49.1712 49.8643 49.8723 39.0639 50.8537C27.225 51.9353 15.4323 53.3374 3.61655 54.6394C4.86275 53.5778 6.13202 52.5162 7.42437 51.5147C17.8093 50.5733 28.1943 49.692 38.5562 49.051C49.4489 48.39 60.3646 48.0295 71.3035 48.1497C82.9983 48.2403 94.6783 48.8957 106.289 50.1126C118.613 51.4146 130.798 53.6179 143.214 54.3189C151.545 54.7996 159.853 55.2203 168.184 55.6008C169.453 56.7025 170.699 57.8442 171.899 59.026L171.991 59.0861ZM-6.12224 64.1336C-2.70674 64.1336 0.801073 63.9133 4.12426 63.733C15.4554 63.2123 26.6481 61.9303 37.8869 60.7285C48.45 59.4474 59.0931 58.725 69.7572 58.5653C93.8734 58.5653 117.667 61.9504 141.621 63.8132C153.929 64.7746 166.33 65.5758 178.822 66.2168C179.353 66.8377 179.884 67.4586 180.392 68.0996L176.515 67.7591C164.86 66.7776 153.206 65.7561 141.529 64.7746C117.69 62.8717 93.9427 59.5067 69.988 59.4466C59.2759 59.5926 48.5818 60.2613 37.9562 61.4496C26.8558 62.5312 15.7785 63.713 4.63197 64.2338C0.870306 64.4141 -2.86828 64.5943 -6.62995 64.8147L-6.12224 64.1336ZM-3.21445 74.1487C10.0783 73.1271 23.2095 71.2042 36.6177 70.5633C52.5839 69.9087 68.5803 70.0559 84.527 71.0039C98.3736 71.745 112.036 72.7866 125.813 73.6479C139.59 74.5092 153.691 75.3104 167.653 76.0114C174.022 76.3319 180.415 76.6324 186.784 76.9128C187.315 77.714 187.8 78.4952 188.307 79.2964C174.945 78.395 161.676 77.4336 148.245 76.5723C140.798 76.0782 133.344 75.6175 125.882 75.1902C109.728 74.2688 93.5734 73.1872 77.5344 72.5663C63.9433 71.8253 50.3175 71.6849 36.71 72.1457C23.3941 72.7866 10.0783 73.4075 -3.21445 74.1487ZM195.069 92.6163C179.676 91.6148 164.33 90.3129 148.983 88.9909C133.636 87.6689 118.728 86.3269 103.589 85.2453C89.7425 84.2438 75.8959 83.022 62.0493 81.9403C49.6566 80.9589 37.2408 80.1376 24.825 79.9373C10.2735 79.5734 -4.28905 80.1357 -18.7457 81.6199L-18.3303 80.6584C-7.41459 79.717 3.52424 79.2163 14.5554 79.1361C28.8174 79.0159 43.0794 79.5568 57.2953 80.378C72.7573 81.2593 88.1963 82.381 103.635 83.5628C124.751 85.085 145.775 86.7075 166.845 88.0495C175.799 88.637 184.777 89.1512 193.777 89.5918C194.238 90.5933 194.654 91.5948 195.069 92.6163ZM-24.9075 94.4191C-17.1995 93.7981 -9.44543 93.3575 -1.82979 92.9969C39.3631 91.411 80.6247 91.7587 121.774 94.0385C147.344 95.2803 172.661 98.5853 198.046 101.369C198.462 102.752 198.831 104.174 199.177 105.576C189.254 104.634 179.307 103.573 169.384 102.451C156.991 101.069 144.621 99.6669 132.206 98.4451C119.074 97.1031 105.92 95.9614 92.7426 95.1201C61.2485 93.1638 29.6396 93.0233 -1.87594 94.6995C-9.81467 95.1201 -17.7765 95.5007 -25.7152 96.0415C-25.5306 95.5007 -25.3229 94.9799 -25.1152 94.4591L-24.9075 94.4191ZM-21.9997 165.526C-5.29144 162.882 12.9861 163.803 33.3868 169.412C52.3336 174.619 71.2573 180.027 90.3195 184.955C105.551 189.002 121.02 192.345 136.66 194.97C146.791 196.612 156.922 197.774 167.122 198.535C165.691 199.757 164.214 200.959 162.714 202.121C153.275 200.939 143.929 199.376 134.559 197.454C119.12 194.329 103.981 190.323 88.681 186.437C69.988 181.61 51.3412 176.923 32.4406 172.736C15.5799 168.739 -2.09577 168.054 -19.2996 170.733C-20.2458 169.031 -21.1458 167.288 -21.9997 165.526ZM-28.2768 148.26C-21.3535 147.419 -13.9898 146.157 -7.06648 145.876C4.12156 145.499 14.8861 146.655 26.0019 147.819C53.5105 150.543 80.373 156.773 107.674 160.558C135.299 164.72 163.177 167.502 191.169 168.891C190.361 170.433 189.484 171.955 188.584 173.458C186.277 173.337 183.738 173.197 181.338 173.037C156.08 171.092 130.975 167.869 106.151 163.382C95.0504 161.5 83.9731 159.376 72.9189 157.373C62.5801 155.37 52.149 153.367 41.8332 151.605C32.6021 150.042 23.3711 148.64 14.14 147.819C6.42708 146.996 0.665293 147.143 -7.06648 147.819C-13.2513 148.5 -21.5381 149.081 -27.746 150.083L-28.2768 148.26ZM-30.9308 124.624C-16.3226 123.016 -1.59734 122.346 13.1246 122.621C30.1559 122.842 47.1873 123.923 64.1494 125.165C84.6193 126.647 104.951 129.412 125.19 132.316C150.137 135.881 175.292 139.747 200.516 141.81C200.192 143.673 199.823 145.516 199.385 147.338C194.608 147.018 189.854 146.577 185.077 146.077C144.691 141.81 105.297 132.236 64.7494 128.37C45.2238 126.346 25.5874 125.229 5.92432 125.025C-6.42213 124.957 -18.7593 125.627 -31 127.028V126.607C-31 125.946 -31 125.285 -31 124.604L-30.9308 124.624ZM-28.8076 107.298C-23.7305 106.884 -18.6457 106.584 -13.5533 106.397C10.675 105.716 34.9285 106.318 59.0723 108.2C84.2962 110.002 109.428 112.606 134.559 115.13C153.899 117.133 173.238 118.956 192.623 120.398L201.669 121.039C201.669 122.161 201.669 123.282 201.808 124.404L193.985 123.843C174.553 122.221 155.237 120.218 135.944 118.215C110.212 115.39 84.4577 112.406 58.6338 110.203C34.6871 107.958 10.5928 107.121 -13.484 107.699C-18.715 107.899 -23.9382 108.28 -29.1538 108.841C-29.0615 108.32 -28.9461 107.799 -28.8076 107.278V107.298ZM114.782 224.374C103.958 222.211 93.1811 219.887 82.4731 217.464C69.452 214.29 56.6983 210.341 44.3025 205.646C29.4867 200.338 14.6015 194.87 -1.02207 194.329C-1.62209 193.748 -2.22211 193.187 -2.79905 192.586C15.6631 192.306 32.9714 198.275 50.672 204.164C63.9711 208.855 77.6081 212.789 91.4964 215.941C102.035 218.158 112.613 220.274 123.228 222.291C120.459 223.112 117.643 223.853 114.782 224.494V224.374Z" fill="#886759" fill-opacity="0.3"/>
</g>
</g>
</g>
<g id="Fill" filter="url(#filter1_ii_673_16587)">
<rect x="48" y="80" width="74" height="66" rx="9" fill="#614B45" fill-opacity="0.7"/>
</g>
</g>
<g id="Frame">
<g id="Level/Star/Active">
<g id="Icon" filter="url(#filter2_i_673_16587)">
<path d="M340.065 91.0363C340.517 89.6546 342.483 89.6546 342.935 91.0363L344.379 95.4548C344.581 96.0727 345.161 96.4911 345.814 96.4911H350.488C351.95 96.4911 352.558 98.3501 351.375 99.204L347.594 101.935C347.065 102.317 346.844 102.994 347.046 103.612L348.49 108.03C348.942 109.412 347.351 110.561 346.168 109.707L342.387 106.976C341.858 106.594 341.142 106.594 340.613 106.976L336.832 109.707C335.649 110.561 334.058 109.412 334.51 108.03L335.954 103.612C336.156 102.994 335.935 102.317 335.406 101.935L331.625 99.204C330.442 98.3501 331.05 96.4911 332.512 96.4911H337.186C337.839 96.4911 338.419 96.0727 338.621 95.4548L340.065 91.0363Z" fill="#FDE294"/>
</g>
</g>
<g id="Level/Star/Unactive">
<g id="Icon_2" filter="url(#filter3_i_673_16587)">
<path d="M340.065 151.036C340.517 149.655 342.483 149.655 342.935 151.036L344.379 155.455C344.581 156.073 345.161 156.491 345.814 156.491H350.488C351.95 156.491 352.558 158.35 351.375 159.204L347.594 161.935C347.065 162.317 346.844 162.994 347.046 163.612L348.49 168.03C348.942 169.412 347.351 170.561 346.168 169.707L342.387 166.976C341.858 166.594 341.142 166.594 340.613 166.976L336.832 169.707C335.649 170.561 334.058 169.412 334.51 168.03L335.954 163.612C336.156 162.994 335.935 162.317 335.406 161.935L331.625 159.204C330.442 158.35 331.05 156.491 332.512 156.491H337.186C337.839 156.491 338.419 156.073 338.621 155.455L340.065 151.036Z" fill="#655550"/>
</g>
</g>
<g id="Level/Star/Group/0-3">
<g id="Level/Star/Unactive_2">
<g id="Icon_3" filter="url(#filter4_i_673_16587)">
<path d="M340.065 211.036C340.517 209.655 342.483 209.655 342.935 211.036L344.379 215.455C344.581 216.073 345.161 216.491 345.814 216.491H350.488C351.95 216.491 352.558 218.35 351.375 219.204L347.594 221.935C347.065 222.317 346.844 222.994 347.046 223.612L348.49 228.03C348.942 229.412 347.351 230.561 346.168 229.707L342.387 226.976C341.858 226.594 341.142 226.594 340.613 226.976L336.832 229.707C335.649 230.561 334.058 229.412 334.51 228.03L335.954 223.612C336.156 222.994 335.935 222.317 335.406 221.935L331.625 219.204C330.442 218.35 331.05 216.491 332.512 216.491H337.186C337.839 216.491 338.419 216.073 338.621 215.455L340.065 211.036Z" fill="#655550"/>
</g>
</g>
<g id="Level/Star/Unactive_3">
<g id="Icon_4" filter="url(#filter5_i_673_16587)">
<path d="M363.065 211.036C363.517 209.655 365.483 209.655 365.935 211.036L367.379 215.455C367.581 216.073 368.161 216.491 368.814 216.491H373.488C374.95 216.491 375.558 218.35 374.375 219.204L370.594 221.935C370.065 222.317 369.844 222.994 370.046 223.612L371.49 228.03C371.942 229.412 370.351 230.561 369.168 229.707L365.387 226.976C364.858 226.594 364.142 226.594 363.613 226.976L359.832 229.707C358.649 230.561 357.058 229.412 357.51 228.03L358.954 223.612C359.156 222.994 358.935 222.317 358.406 221.935L354.625 219.204C353.442 218.35 354.05 216.491 355.512 216.491H360.186C360.839 216.491 361.419 216.073 361.621 215.455L363.065 211.036Z" fill="#655550"/>
</g>
</g>
<g id="Level/Star/Unactive_4">
<g id="Icon_5" filter="url(#filter6_i_673_16587)">
<path d="M386.065 211.036C386.517 209.655 388.483 209.655 388.935 211.036L390.379 215.455C390.581 216.073 391.161 216.491 391.814 216.491H396.488C397.95 216.491 398.558 218.35 397.375 219.204L393.594 221.935C393.065 222.317 392.844 222.994 393.046 223.612L394.49 228.03C394.942 229.412 393.351 230.561 392.168 229.707L388.387 226.976C387.858 226.594 387.142 226.594 386.613 226.976L382.832 229.707C381.649 230.561 380.058 229.412 380.51 228.03L381.954 223.612C382.156 222.994 381.935 222.317 381.406 221.935L377.625 219.204C376.442 218.35 377.05 216.491 378.512 216.491H383.186C383.839 216.491 384.419 216.073 384.621 215.455L386.065 211.036Z" fill="#655550"/>
</g>
</g>
</g>
<g id="Level/Star/Group/3-3">
<g id="Level/Star/Active_2">
<g id="Icon_6" filter="url(#filter7_i_673_16587)">
<path d="M340.065 271.036C340.517 269.655 342.483 269.655 342.935 271.036L344.379 275.455C344.581 276.073 345.161 276.491 345.814 276.491H350.488C351.95 276.491 352.558 278.35 351.375 279.204L347.594 281.935C347.065 282.317 346.844 282.994 347.046 283.612L348.49 288.03C348.942 289.412 347.351 290.561 346.168 289.707L342.387 286.976C341.858 286.594 341.142 286.594 340.613 286.976L336.832 289.707C335.649 290.561 334.058 289.412 334.51 288.03L335.954 283.612C336.156 282.994 335.935 282.317 335.406 281.935L331.625 279.204C330.442 278.35 331.05 276.491 332.512 276.491H337.186C337.839 276.491 338.419 276.073 338.621 275.455L340.065 271.036Z" fill="#FDE294"/>
</g>
</g>
<g id="Level/Star/Active_3">
<g id="Icon_7" filter="url(#filter8_i_673_16587)">
<path d="M363.065 271.036C363.517 269.655 365.483 269.655 365.935 271.036L367.379 275.455C367.581 276.073 368.161 276.491 368.814 276.491H373.488C374.95 276.491 375.558 278.35 374.375 279.204L370.594 281.935C370.065 282.317 369.844 282.994 370.046 283.612L371.49 288.03C371.942 289.412 370.351 290.561 369.168 289.707L365.387 286.976C364.858 286.594 364.142 286.594 363.613 286.976L359.832 289.707C358.649 290.561 357.058 289.412 357.51 288.03L358.954 283.612C359.156 282.994 358.935 282.317 358.406 281.935L354.625 279.204C353.442 278.35 354.05 276.491 355.512 276.491H360.186C360.839 276.491 361.419 276.073 361.621 275.455L363.065 271.036Z" fill="#FDE294"/>
</g>
</g>
<g id="Level/Star/Active_4">
<g id="Icon_8" filter="url(#filter9_i_673_16587)">
<path d="M386.065 271.036C386.517 269.655 388.483 269.655 388.935 271.036L390.379 275.455C390.581 276.073 391.161 276.491 391.814 276.491H396.488C397.95 276.491 398.558 278.35 397.375 279.204L393.594 281.935C393.065 282.317 392.844 282.994 393.046 283.612L394.49 288.03C394.942 289.412 393.351 290.561 392.168 289.707L388.387 286.976C387.858 286.594 387.142 286.594 386.613 286.976L382.832 289.707C381.649 290.561 380.058 289.412 380.51 288.03L381.954 283.612C382.156 282.994 381.935 282.317 381.406 281.935L377.625 279.204C376.442 278.35 377.05 276.491 378.512 276.491H383.186C383.839 276.491 384.419 276.073 384.621 275.455L386.065 271.036Z" fill="#FDE294"/>
</g>
</g>
</g>
<g id="Level/Star/Group/2-3">
<g id="Level/Star/Group/0-3_2">
<g id="Level/Star/Unactive_5">
<g id="Icon_9" filter="url(#filter10_i_673_16587)">
<path d="M340.065 331.036C340.517 329.655 342.483 329.655 342.935 331.036L344.379 335.455C344.581 336.073 345.161 336.491 345.814 336.491H350.488C351.95 336.491 352.558 338.35 351.375 339.204L347.594 341.935C347.065 342.317 346.844 342.994 347.046 343.612L348.49 348.03C348.942 349.412 347.351 350.561 346.168 349.707L342.387 346.976C341.858 346.594 341.142 346.594 340.613 346.976L336.832 349.707C335.649 350.561 334.058 349.412 334.51 348.03L335.954 343.612C336.156 342.994 335.935 342.317 335.406 341.935L331.625 339.204C330.442 338.35 331.05 336.491 332.512 336.491H337.186C337.839 336.491 338.419 336.073 338.621 335.455L340.065 331.036Z" fill="#655550"/>
</g>
</g>
<g id="Level/Star/Unactive_6">
<g id="Icon_10" filter="url(#filter11_i_673_16587)">
<path d="M363.065 331.036C363.517 329.655 365.483 329.655 365.935 331.036L367.379 335.455C367.581 336.073 368.161 336.491 368.814 336.491H373.488C374.95 336.491 375.558 338.35 374.375 339.204L370.594 341.935C370.065 342.317 369.844 342.994 370.046 343.612L371.49 348.03C371.942 349.412 370.351 350.561 369.168 349.707L365.387 346.976C364.858 346.594 364.142 346.594 363.613 346.976L359.832 349.707C358.649 350.561 357.058 349.412 357.51 348.03L358.954 343.612C359.156 342.994 358.935 342.317 358.406 341.935L354.625 339.204C353.442 338.35 354.05 336.491 355.512 336.491H360.186C360.839 336.491 361.419 336.073 361.621 335.455L363.065 331.036Z" fill="#655550"/>
</g>
</g>
<g id="Level/Star/Unactive_7">
<g id="Icon_11" filter="url(#filter12_i_673_16587)">
<path d="M386.065 331.036C386.517 329.655 388.483 329.655 388.935 331.036L390.379 335.455C390.581 336.073 391.161 336.491 391.814 336.491H396.488C397.95 336.491 398.558 338.35 397.375 339.204L393.594 341.935C393.065 342.317 392.844 342.994 393.046 343.612L394.49 348.03C394.942 349.412 393.351 350.561 392.168 349.707L388.387 346.976C387.858 346.594 387.142 346.594 386.613 346.976L382.832 349.707C381.649 350.561 380.058 349.412 380.51 348.03L381.954 343.612C382.156 342.994 381.935 342.317 381.406 341.935L377.625 339.204C376.442 338.35 377.05 336.491 378.512 336.491H383.186C383.839 336.491 384.419 336.073 384.621 335.455L386.065 331.036Z" fill="#655550"/>
</g>
</g>
</g>
<g id="Level/Star/Active_5">
<g id="Icon_12" filter="url(#filter13_i_673_16587)">
<path d="M340.065 331.036C340.517 329.655 342.483 329.655 342.935 331.036L344.379 335.455C344.581 336.073 345.161 336.491 345.814 336.491H350.488C351.95 336.491 352.558 338.35 351.375 339.204L347.594 341.935C347.065 342.317 346.844 342.994 347.046 343.612L348.49 348.03C348.942 349.412 347.351 350.561 346.168 349.707L342.387 346.976C341.858 346.594 341.142 346.594 340.613 346.976L336.832 349.707C335.649 350.561 334.058 349.412 334.51 348.03L335.954 343.612C336.156 342.994 335.935 342.317 335.406 341.935L331.625 339.204C330.442 338.35 331.05 336.491 332.512 336.491H337.186C337.839 336.491 338.419 336.073 338.621 335.455L340.065 331.036Z" fill="#FDE294"/>
</g>
</g>
<g id="Level/Star/Active_6">
<g id="Icon_13" filter="url(#filter14_i_673_16587)">
<path d="M363.065 331.036C363.517 329.655 365.483 329.655 365.935 331.036L367.379 335.455C367.581 336.073 368.161 336.491 368.814 336.491H373.488C374.95 336.491 375.558 338.35 374.375 339.204L370.594 341.935C370.065 342.317 369.844 342.994 370.046 343.612L371.49 348.03C371.942 349.412 370.351 350.561 369.168 349.707L365.387 346.976C364.858 346.594 364.142 346.594 363.613 346.976L359.832 349.707C358.649 350.561 357.058 349.412 357.51 348.03L358.954 343.612C359.156 342.994 358.935 342.317 358.406 341.935L354.625 339.204C353.442 338.35 354.05 336.491 355.512 336.491H360.186C360.839 336.491 361.419 336.073 361.621 335.455L363.065 331.036Z" fill="#FDE294"/>
</g>
</g>
</g>
<g id="Level/Star/Group/1-3">
<g id="Level/Star/Group/0-3_3">
<g id="Level/Star/Unactive_8">
<g id="Icon_14" filter="url(#filter15_i_673_16587)">
<path d="M340.065 391.036C340.517 389.655 342.483 389.655 342.935 391.036L344.379 395.455C344.581 396.073 345.161 396.491 345.814 396.491H350.488C351.95 396.491 352.558 398.35 351.375 399.204L347.594 401.935C347.065 402.317 346.844 402.994 347.046 403.612L348.49 408.03C348.942 409.412 347.351 410.561 346.168 409.707L342.387 406.976C341.858 406.594 341.142 406.594 340.613 406.976L336.832 409.707C335.649 410.561 334.058 409.412 334.51 408.03L335.954 403.612C336.156 402.994 335.935 402.317 335.406 401.935L331.625 399.204C330.442 398.35 331.05 396.491 332.512 396.491H337.186C337.839 396.491 338.419 396.073 338.621 395.455L340.065 391.036Z" fill="#655550"/>
</g>
</g>
<g id="Level/Star/Unactive_9">
<g id="Icon_15" filter="url(#filter16_i_673_16587)">
<path d="M363.065 391.036C363.517 389.655 365.483 389.655 365.935 391.036L367.379 395.455C367.581 396.073 368.161 396.491 368.814 396.491H373.488C374.95 396.491 375.558 398.35 374.375 399.204L370.594 401.935C370.065 402.317 369.844 402.994 370.046 403.612L371.49 408.03C371.942 409.412 370.351 410.561 369.168 409.707L365.387 406.976C364.858 406.594 364.142 406.594 363.613 406.976L359.832 409.707C358.649 410.561 357.058 409.412 357.51 408.03L358.954 403.612C359.156 402.994 358.935 402.317 358.406 401.935L354.625 399.204C353.442 398.35 354.05 396.491 355.512 396.491H360.186C360.839 396.491 361.419 396.073 361.621 395.455L363.065 391.036Z" fill="#655550"/>
</g>
</g>
<g id="Level/Star/Unactive_10">
<g id="Icon_16" filter="url(#filter17_i_673_16587)">
<path d="M386.065 391.036C386.517 389.655 388.483 389.655 388.935 391.036L390.379 395.455C390.581 396.073 391.161 396.491 391.814 396.491H396.488C397.95 396.491 398.558 398.35 397.375 399.204L393.594 401.935C393.065 402.317 392.844 402.994 393.046 403.612L394.49 408.03C394.942 409.412 393.351 410.561 392.168 409.707L388.387 406.976C387.858 406.594 387.142 406.594 386.613 406.976L382.832 409.707C381.649 410.561 380.058 409.412 380.51 408.03L381.954 403.612C382.156 402.994 381.935 402.317 381.406 401.935L377.625 399.204C376.442 398.35 377.05 396.491 378.512 396.491H383.186C383.839 396.491 384.419 396.073 384.621 395.455L386.065 391.036Z" fill="#655550"/>
</g>
</g>
</g>
<g id="Level/Star/Active_7">
<g id="Icon_17" filter="url(#filter18_i_673_16587)">
<path d="M340.065 391.036C340.517 389.655 342.483 389.655 342.935 391.036L344.379 395.455C344.581 396.073 345.161 396.491 345.814 396.491H350.488C351.95 396.491 352.558 398.35 351.375 399.204L347.594 401.935C347.065 402.317 346.844 402.994 347.046 403.612L348.49 408.03C348.942 409.412 347.351 410.561 346.168 409.707L342.387 406.976C341.858 406.594 341.142 406.594 340.613 406.976L336.832 409.707C335.649 410.561 334.058 409.412 334.51 408.03L335.954 403.612C336.156 402.994 335.935 402.317 335.406 401.935L331.625 399.204C330.442 398.35 331.05 396.491 332.512 396.491H337.186C337.839 396.491 338.419 396.073 338.621 395.455L340.065 391.036Z" fill="#FDE294"/>
</g>
</g>
</g>
</g>
<g id="Level/Button/WithStars">
<g id="Level/Button/Dummy_2">
<path id="Vector_7" d="M120.937 213.689C120.435 212.656 119.387 212 118.239 212H85.0469H51.7614C50.6125 212 49.5646 212.656 49.0627 213.689L40.3014 231.731C40.1031 232.139 40 232.587 40 233.041V305.231C40 306.042 40.3286 306.819 40.9109 307.384L47.8873 314.153C48.4471 314.696 49.1964 315 49.9764 315H67.4035H85.0469H102.643H120.024C120.804 315 121.553 314.696 122.113 314.153L129.089 307.384C129.671 306.819 130 306.042 130 305.231V233.041C130 232.587 129.897 232.139 129.699 231.731L120.937 213.689Z" fill="#5F443C"/>
<g id="Vector_8" filter="url(#filter19_ii_673_16587)">
<path d="M123.292 211.192C122.54 210.43 121.514 210 120.443 210H85.0469H49.5573C48.4863 210 47.4599 210.43 46.7082 211.192L41.1509 216.832C40.4134 217.58 40 218.589 40 219.64V296.814C40 297.892 40.435 298.924 41.2064 299.677L49.5948 307.863C50.342 308.592 51.3445 309 52.3884 309H85.0469H117.727C118.702 309 119.643 308.644 120.374 307.999L128.647 300.694C129.507 299.935 130 298.843 130 297.696V219.64C130 218.589 129.587 217.58 128.849 216.832L123.292 211.192Z" fill="#977970"/>
</g>
<g id="MaskGroup_2">
<mask id="mask1_673_16587" style="mask-type:alpha" maskUnits="userSpaceOnUse" x="40" y="210" width="90" height="99">
<path id="Vector_9" d="M122.998 210.894C122.434 210.322 121.664 210 120.861 210H85.0469H49.1388C48.3355 210 47.5658 210.322 47.0019 210.894L40.8631 217.124C40.31 217.685 40 218.442 40 219.23V297.236C40 298.044 40.3262 298.818 40.9048 299.383L49.8862 308.147C50.4465 308.694 51.1984 309 51.9814 309H85.0469H118.105C118.836 309 119.542 308.733 120.091 308.249L128.986 300.396C129.631 299.826 130 299.007 130 298.147V219.23C130 218.442 129.69 217.685 129.137 217.124L122.998 210.894Z" fill="#AD938B"/>
</mask>
<g mask="url(#mask1_673_16587)">
<g id="Group_2">
<path id="Vector_10" opacity="0.4" fill-rule="evenodd" clip-rule="evenodd" d="M107.795 296.286C135.456 300.724 163.371 303.692 191.401 305.177C192.788 302.448 194.037 299.655 195.147 296.798C195.794 295.156 196.395 293.515 196.95 291.83C197.991 288.696 198.892 285.434 199.632 282.236C194.869 281.895 190.129 281.426 185.366 280.893C144.905 276.352 105.437 266.161 64.8135 262.046C45.2512 259.892 25.578 258.703 5.87802 258.486C-6.4528 258.427 -18.7738 259.139 -31 260.618C-31 263.773 -30.8382 266.886 -30.5376 269.977C-30.5376 270.681 -30.3757 271.363 -30.3064 272.109C-29.8569 275.842 -29.1778 280.497 -28.3025 284.164C-21.3662 283.29 -14.3336 282.128 -7.3973 281.829C3.81173 281.427 15.1841 282.341 26.3208 283.581C53.8811 286.48 80.5358 292.299 107.888 296.329L107.795 296.286Z" fill="#D4AC7B" fill-opacity="0.5"/>
<path id="Vector_11" opacity="0.4" fill-rule="evenodd" clip-rule="evenodd" d="M58.7287 243.195C84.1014 245.025 108.828 247.932 134.108 250.494C153.561 252.527 173.236 254.504 192.735 255.968L201.809 256.577C201.6 253.343 201.229 249.522 200.695 246.39C200.509 245.231 200.3 244.092 200.045 242.954C199.789 241.815 199.65 241.123 199.441 240.208C189.459 239.252 179.5 238.175 169.518 237.036C157.053 235.633 144.61 234.209 132.121 232.969C118.912 231.606 105.681 230.447 92.4255 229.593C69.4207 228.129 46.5551 227.682 23.5966 228.19C14.8683 228.393 6.11666 228.719 -2.65815 229.166L-4.79382 229.308C-12.0597 229.674 -19.3256 230.061 -26.5683 230.529C-27.9436 234.29 -29.0598 238.708 -29.9111 242.587C-24.8041 242.159 -19.7877 241.83 -14.6807 241.647C9.69085 240.962 34.4431 241.277 58.7287 243.195Z" fill="#D4AC7B" fill-opacity="0.5"/>
<path id="Vector_12" opacity="0.5" fill-rule="evenodd" clip-rule="evenodd" d="M43.4948 167.346C70.7138 166.311 97.9841 167.599 124.913 171.192L142.821 173.695C145.521 175.017 148.129 176.44 150.668 177.942C142.544 176.56 134.513 175.138 126.298 173.816C113.993 171.754 101.577 170.23 89.0964 169.249C75.0344 168.257 60.903 168.257 46.8411 169.249C43.4256 169.469 40.0332 169.71 36.6177 169.99C38.9254 169.069 41.2332 168.227 43.541 167.446L43.4948 167.346ZM171.991 194.086C162.407 193.445 152.814 192.671 143.214 191.763C130.705 190.481 118.636 186.935 106.128 185.593C94.6433 184.389 83.0775 183.867 71.5112 184.031C60.6646 184.171 49.8643 184.872 39.0639 185.854C27.225 186.935 15.4323 188.337 3.61655 189.639C4.86275 188.578 6.13202 187.516 7.42437 186.515C17.8093 185.573 28.1943 184.692 38.5562 184.051C49.4489 183.39 60.3646 183.029 71.3035 183.15C82.9983 183.24 94.6783 183.896 106.289 185.113C118.613 186.415 130.798 188.618 143.214 189.319C151.545 189.8 159.853 190.22 168.184 190.601C169.453 191.702 170.699 192.844 171.899 194.026L171.991 194.086ZM-6.12224 199.134C-2.70674 199.134 0.801073 198.913 4.12426 198.733C15.4554 198.212 26.6481 196.93 37.8869 195.729C48.45 194.447 59.0931 193.725 69.7572 193.565C93.8734 193.565 117.667 196.95 141.621 198.813C153.929 199.775 166.33 200.576 178.822 201.217C179.353 201.838 179.884 202.459 180.392 203.1L176.515 202.759C164.86 201.778 153.206 200.756 141.529 199.775C117.69 197.872 93.9427 194.507 69.988 194.447C59.2759 194.593 48.5818 195.261 37.9562 196.45C26.8558 197.531 15.7785 198.713 4.63197 199.234C0.870306 199.414 -2.86828 199.594 -6.62995 199.815L-6.12224 199.134ZM-3.21445 209.149C10.0783 208.127 23.2095 206.204 36.6177 205.563C52.5839 204.909 68.5803 205.056 84.527 206.004C98.3736 206.745 112.036 207.787 125.813 208.648C139.59 209.509 153.691 210.31 167.653 211.011C174.022 211.332 180.415 211.632 186.784 211.913C187.315 212.714 187.8 213.495 188.307 214.296C174.945 213.395 161.676 212.434 148.245 211.572C140.798 211.078 133.344 210.618 125.882 210.19C109.728 209.269 93.5734 208.187 77.5344 207.566C63.9433 206.825 50.3175 206.685 36.71 207.146C23.3941 207.787 10.0783 208.408 -3.21445 209.149ZM195.069 227.616C179.676 226.615 164.33 225.313 148.983 223.991C133.636 222.669 118.728 221.327 103.589 220.245C89.7425 219.244 75.8959 218.022 62.0493 216.94C49.6566 215.959 37.2408 215.138 24.825 214.937C10.2735 214.573 -4.28905 215.136 -18.7457 216.62L-18.3303 215.658C-7.41459 214.717 3.52424 214.216 14.5554 214.136C28.8174 214.016 43.0794 214.557 57.2953 215.378C72.7573 216.259 88.1963 217.381 103.635 218.563C124.751 220.085 145.775 221.707 166.845 223.049C175.799 223.637 184.777 224.151 193.777 224.592C194.238 225.593 194.654 226.595 195.069 227.616ZM-24.9075 229.419C-17.1995 228.798 -9.44543 228.357 -1.82979 227.997C39.3631 226.411 80.6247 226.759 121.774 229.038C147.344 230.28 172.661 233.585 198.046 236.369C198.462 237.752 198.831 239.174 199.177 240.576C189.254 239.634 179.307 238.573 169.384 237.451C156.991 236.069 144.621 234.667 132.206 233.445C119.074 232.103 105.92 230.961 92.7426 230.12C61.2485 228.164 29.6396 228.023 -1.87594 229.699C-9.81467 230.12 -17.7765 230.501 -25.7152 231.041C-25.5306 230.501 -25.3229 229.98 -25.1152 229.459L-24.9075 229.419ZM-21.9997 300.526C-5.29144 297.882 12.9861 298.803 33.3868 304.412C52.3336 309.619 71.2573 315.027 90.3195 319.955C105.551 324.002 121.02 327.345 136.66 329.97C146.791 331.612 156.922 332.774 167.122 333.535C165.691 334.757 164.214 335.959 162.714 337.121C153.275 335.939 143.929 334.376 134.559 332.454C119.12 329.329 103.981 325.323 88.681 321.437C69.988 316.61 51.3412 311.923 32.4406 307.736C15.5799 303.739 -2.09577 303.054 -19.2996 305.733C-20.2458 304.031 -21.1458 302.288 -21.9997 300.526ZM-28.2768 283.26C-21.3535 282.419 -13.9898 281.157 -7.06648 280.876C4.12156 280.499 14.8861 281.655 26.0019 282.819C53.5105 285.543 80.373 291.773 107.674 295.558C135.299 299.72 163.177 302.502 191.169 303.891C190.361 305.433 189.484 306.955 188.584 308.458C186.277 308.337 183.738 308.197 181.338 308.037C156.08 306.092 130.975 302.869 106.151 298.382C95.0504 296.5 83.9731 294.376 72.9189 292.373C62.5801 290.37 52.149 288.367 41.8332 286.605C32.6021 285.042 23.3711 283.64 14.14 282.819C6.42708 281.996 0.665293 282.143 -7.06648 282.819C-13.2513 283.5 -21.5381 284.081 -27.746 285.083L-28.2768 283.26ZM-30.9308 259.624C-16.3226 258.016 -1.59734 257.346 13.1246 257.621C30.1559 257.842 47.1873 258.923 64.1494 260.165C84.6193 261.647 104.951 264.412 125.19 267.316C150.137 270.881 175.292 274.747 200.516 276.81C200.192 278.673 199.823 280.516 199.385 282.338C194.608 282.018 189.854 281.577 185.077 281.077C144.691 276.81 105.297 267.236 64.7494 263.37C45.2238 261.346 25.5874 260.229 5.92432 260.025C-6.42213 259.957 -18.7593 260.627 -31 262.028V261.607C-31 260.946 -31 260.285 -31 259.604L-30.9308 259.624ZM-28.8076 242.298C-23.7305 241.884 -18.6457 241.584 -13.5533 241.397C10.675 240.716 34.9285 241.318 59.0723 243.2C84.2962 245.002 109.428 247.606 134.559 250.13C153.899 252.133 173.238 253.956 192.623 255.398L201.669 256.039C201.669 257.161 201.669 258.282 201.808 259.404L193.985 258.843C174.553 257.221 155.237 255.218 135.944 253.215C110.212 250.39 84.4577 247.406 58.6338 245.203C34.6871 242.958 10.5928 242.121 -13.484 242.699C-18.715 242.899 -23.9382 243.28 -29.1538 243.841C-29.0615 243.32 -28.9461 242.799 -28.8076 242.278V242.298ZM114.782 359.374C103.958 357.211 93.1811 354.887 82.4731 352.464C69.452 349.29 56.6983 345.341 44.3025 340.646C29.4867 335.338 14.6015 329.87 -1.02207 329.329C-1.62209 328.748 -2.22211 328.187 -2.79905 327.586C15.6631 327.306 32.9714 333.275 50.672 339.164C63.9711 343.855 77.6081 347.789 91.4964 350.941C102.035 353.158 112.613 355.274 123.228 357.291C120.459 358.112 117.643 358.853 114.782 359.494V359.374Z" fill="#886759" fill-opacity="0.3"/>
</g>
</g>
</g>
<g id="Fill_2" filter="url(#filter20_ii_673_16587)">
<rect x="48" y="215" width="74" height="66" rx="9" fill="#614B45" fill-opacity="0.7"/>
</g>
</g>
<g id="Level/Star/Group/0-3_4">
<g id="Level/Star/Unactive_11">
<g id="Icon_18" filter="url(#filter21_i_673_16587)">
<path d="M61.0651 285.036C61.5167 283.655 63.4833 283.655 63.9349 285.036L65.3793 289.455C65.5813 290.073 66.1606 290.491 66.8142 290.491H71.4883C72.9499 290.491 73.5576 292.35 72.3752 293.204L68.5938 295.935C68.0649 296.317 67.8437 296.994 68.0457 297.612L69.49 302.03C69.9417 303.412 68.3507 304.561 67.1683 303.707L63.3868 300.976C62.858 300.594 62.142 300.594 61.6132 300.976L57.8317 303.707C56.6493 304.561 55.0583 303.412 55.51 302.03L56.9543 297.612C57.1563 296.994 56.9351 296.317 56.4063 295.935L52.6248 293.204C51.4424 292.35 52.0501 290.491 53.5117 290.491H58.1858C58.8394 290.491 59.4187 290.073 59.6207 289.455L61.0651 285.036Z" fill="#655550"/>
</g>
</g>
<g id="Level/Star/Unactive_12">
<g id="Icon_19" filter="url(#filter22_i_673_16587)">
<path d="M84.0651 285.036C84.5167 283.655 86.4833 283.655 86.9349 285.036L88.3793 289.455C88.5813 290.073 89.1606 290.491 89.8142 290.491H94.4883C95.9499 290.491 96.5576 292.35 95.3752 293.204L91.5938 295.935C91.0649 296.317 90.8437 296.994 91.0457 297.612L92.49 302.03C92.9417 303.412 91.3507 304.561 90.1683 303.707L86.3868 300.976C85.858 300.594 85.142 300.594 84.6132 300.976L80.8317 303.707C79.6493 304.561 78.0583 303.412 78.51 302.03L79.9543 297.612C80.1563 296.994 79.9351 296.317 79.4063 295.935L75.6248 293.204C74.4424 292.35 75.0501 290.491 76.5117 290.491H81.1858C81.8394 290.491 82.4187 290.073 82.6207 289.455L84.0651 285.036Z" fill="#655550"/>
</g>
</g>
<g id="Level/Star/Unactive_13">
<g id="Icon_20" filter="url(#filter23_i_673_16587)">
<path d="M107.065 285.036C107.517 283.655 109.483 283.655 109.935 285.036L111.379 289.455C111.581 290.073 112.161 290.491 112.814 290.491H117.488C118.95 290.491 119.558 292.35 118.375 293.204L114.594 295.935C114.065 296.317 113.844 296.994 114.046 297.612L115.49 302.03C115.942 303.412 114.351 304.561 113.168 303.707L109.387 300.976C108.858 300.594 108.142 300.594 107.613 300.976L103.832 303.707C102.649 304.561 101.058 303.412 101.51 302.03L102.954 297.612C103.156 296.994 102.935 296.317 102.406 295.935L98.6248 293.204C97.4424 292.35 98.0501 290.491 99.5117 290.491H104.186C104.839 290.491 105.419 290.073 105.621 289.455L107.065 285.036Z" fill="#655550"/>
</g>
</g>
</g>
</g>
<g id="Level/Button/Locked">
<g id="Level/Button/Dummy_3">
<path id="Vector_13" d="M260.937 80.6895C260.435 79.6561 259.387 79 258.239 79H225.047H191.761C190.613 79 189.565 79.6561 189.063 80.6895L180.301 98.7305C180.103 99.1389 180 99.587 180 100.041V172.231C180 173.042 180.329 173.819 180.911 174.384L187.887 181.153C188.447 181.696 189.196 182 189.976 182H207.404H225.047H242.643H260.024C260.804 182 261.553 181.696 262.113 181.153L269.089 174.384C269.671 173.819 270 173.042 270 172.231V100.041C270 99.587 269.897 99.1389 269.699 98.7305L260.937 80.6895Z" fill="#5F443C"/>
<g id="Vector_14" filter="url(#filter24_ii_673_16587)">
<path d="M263.292 78.1924C262.54 77.4295 261.514 77 260.443 77H225.047H189.557C188.486 77 187.46 77.4295 186.708 78.1924L181.151 83.8321C180.413 84.5805 180 85.589 180 86.6397V163.814C180 164.892 180.435 165.924 181.206 166.677L189.595 174.863C190.342 175.592 191.345 176 192.388 176H225.047H257.727C258.702 176 259.643 175.644 260.374 174.999L268.647 167.694C269.507 166.935 270 165.843 270 164.696V86.6397C270 85.589 269.587 84.5805 268.849 83.8321L263.292 78.1924Z" fill="#977970"/>
</g>
<g id="MaskGroup_3">
<mask id="mask2_673_16587" style="mask-type:alpha" maskUnits="userSpaceOnUse" x="180" y="77" width="90" height="99">
<path id="Vector_15" d="M262.998 77.8943C262.434 77.3222 261.664 77 260.861 77H225.047H189.139C188.335 77 187.566 77.3222 187.002 77.8943L180.863 84.1241C180.31 84.6854 180 85.4417 180 86.2297V164.236C180 165.044 180.326 165.818 180.905 166.383L189.886 175.147C190.447 175.694 191.198 176 191.981 176H225.047H258.105C258.836 176 259.542 175.733 260.091 175.249L268.986 167.396C269.631 166.826 270 166.007 270 165.147V86.2297C270 85.4417 269.69 84.6854 269.137 84.1241L262.998 77.8943Z" fill="#AD938B"/>
</mask>
<g mask="url(#mask2_673_16587)">
<g id="Group_3">
<path id="Vector_16" opacity="0.4" fill-rule="evenodd" clip-rule="evenodd" d="M247.795 163.286C275.456 167.724 303.371 170.692 331.401 172.177C332.788 169.448 334.037 166.655 335.147 163.798C335.794 162.156 336.395 160.515 336.95 158.83C337.991 155.696 338.892 152.434 339.632 149.236C334.869 148.895 330.129 148.426 325.366 147.893C284.905 143.352 245.437 133.161 204.813 129.046C185.251 126.892 165.578 125.703 145.878 125.486C133.547 125.427 121.226 126.139 109 127.618C109 130.773 109.162 133.886 109.462 136.977C109.462 137.681 109.624 138.363 109.694 139.109C110.143 142.842 110.822 147.497 111.697 151.164C118.634 150.29 125.666 149.128 132.603 148.829C143.812 148.427 155.184 149.341 166.321 150.581C193.881 153.48 220.536 159.299 247.888 163.329L247.795 163.286Z" fill="#D4AC7B" fill-opacity="0.5"/>
<path id="Vector_17" opacity="0.4" fill-rule="evenodd" clip-rule="evenodd" d="M198.729 110.195C224.101 112.025 248.828 114.932 274.108 117.494C293.561 119.527 313.236 121.504 332.735 122.968L341.809 123.577C341.6 120.343 341.229 116.522 340.695 113.39C340.509 112.231 340.3 111.092 340.045 109.954C339.789 108.815 339.65 108.123 339.441 107.208C329.459 106.252 319.5 105.175 309.518 104.036C297.053 102.633 284.61 101.209 272.121 99.9688C258.912 98.6063 245.681 97.4472 232.426 96.5931C209.421 95.129 186.555 94.6816 163.597 95.19C154.868 95.3933 146.117 95.7187 137.342 96.1661L135.206 96.3084C127.94 96.6745 120.674 97.0608 113.432 97.5285C112.056 101.29 110.94 105.708 110.089 109.587C115.196 109.159 120.212 108.83 125.319 108.647C149.691 107.962 174.443 108.277 198.729 110.195Z" fill="#D4AC7B" fill-opacity="0.5"/>
<path id="Vector_18" opacity="0.5" fill-rule="evenodd" clip-rule="evenodd" d="M183.495 34.346C210.714 33.3111 237.984 34.5992 264.913 38.1917L282.821 40.6955C285.521 42.0175 288.129 43.4396 290.668 44.9419C282.544 43.5598 274.513 42.1377 266.298 40.8157C253.993 38.7544 241.577 37.2302 229.096 36.2488C215.034 35.2574 200.903 35.2574 186.841 36.2488C183.426 36.4692 180.033 36.7095 176.618 36.9899C178.925 36.0686 181.233 35.2273 183.541 34.4461L183.495 34.346ZM311.991 61.0861C302.407 60.4451 292.814 59.6706 283.214 58.7626C270.705 57.4807 258.636 53.9353 246.128 52.5933C234.643 51.3892 223.078 50.8672 211.511 51.031C200.665 51.1712 189.864 51.8723 179.064 52.8537C167.225 53.9353 155.432 55.3374 143.617 56.6394C144.863 55.5778 146.132 54.5162 147.424 53.5147C157.809 52.5733 168.194 51.692 178.556 51.051C189.449 50.39 200.365 50.0295 211.303 50.1497C222.998 50.2403 234.678 50.8957 246.289 52.1126C258.613 53.4146 270.798 55.6179 283.214 56.3189C291.545 56.7996 299.853 57.2203 308.184 57.6008C309.453 58.7025 310.699 59.8442 311.899 61.026L311.991 61.0861ZM133.878 66.1336C137.293 66.1336 140.801 65.9133 144.124 65.733C155.455 65.2123 166.648 63.9303 177.887 62.7285C188.45 61.4474 199.093 60.725 209.757 60.5653C233.873 60.5653 257.667 63.9504 281.621 65.8132C293.929 66.7746 306.33 67.5758 318.822 68.2168C319.353 68.8377 319.884 69.4586 320.392 70.0996L316.515 69.7591C304.86 68.7776 293.206 67.7561 281.529 66.7746C257.69 64.8717 233.943 61.5067 209.988 61.4466C199.276 61.5926 188.582 62.2613 177.956 63.4496C166.856 64.5312 155.779 65.713 144.632 66.2338C140.87 66.4141 137.132 66.5943 133.37 66.8147L133.878 66.1336ZM136.786 76.1487C150.078 75.1271 163.21 73.2042 176.618 72.5633C192.584 71.9087 208.58 72.0559 224.527 73.0039C238.374 73.745 252.036 74.7866 265.813 75.6479C279.59 76.5092 293.691 77.3104 307.653 78.0114C314.022 78.3319 320.415 78.6324 326.784 78.9128C327.315 79.714 327.8 80.4952 328.307 81.2964C314.945 80.395 301.676 79.4336 288.245 78.5723C280.798 78.0782 273.344 77.6175 265.882 77.1902C249.728 76.2688 233.573 75.1872 217.534 74.5663C203.943 73.8253 190.318 73.6849 176.71 74.1457C163.394 74.7866 150.078 75.4075 136.786 76.1487ZM335.069 94.6163C319.676 93.6148 304.33 92.3129 288.983 90.9909C273.636 89.6689 258.728 88.3269 243.589 87.2453C229.743 86.2438 215.896 85.022 202.049 83.9403C189.657 82.9589 177.241 82.1376 164.825 81.9373C150.274 81.5734 135.711 82.1357 121.254 83.6199L121.67 82.6584C132.585 81.717 143.524 81.2163 154.555 81.1361C168.817 81.0159 183.079 81.5568 197.295 82.378C212.757 83.2593 228.196 84.381 243.635 85.5628C264.751 87.085 285.775 88.7075 306.845 90.0495C315.799 90.637 324.777 91.1512 333.777 91.5918C334.238 92.5933 334.654 93.5948 335.069 94.6163ZM115.093 96.4191C122.8 95.7981 130.555 95.3575 138.17 94.9969C179.363 93.411 220.625 93.7587 261.774 96.0385C287.344 97.2803 312.661 100.585 338.046 103.369C338.462 104.752 338.831 106.174 339.177 107.576C329.254 106.634 319.307 105.573 309.384 104.451C296.991 103.069 284.621 101.667 272.206 100.445C259.074 99.1031 245.92 97.9614 232.743 97.1201C201.249 95.1638 169.64 95.0233 138.124 96.6995C130.185 97.1201 122.224 97.5007 114.285 98.0415C114.469 97.5007 114.677 96.9799 114.885 96.4591L115.093 96.4191ZM118 167.526C134.709 164.882 152.986 165.803 173.387 171.412C192.334 176.619 211.257 182.027 230.319 186.955C245.551 191.002 261.02 194.345 276.66 196.97C286.791 198.612 296.922 199.774 307.122 200.535C305.691 201.757 304.214 202.959 302.714 204.121C293.275 202.939 283.929 201.376 274.559 199.454C259.12 196.329 243.981 192.323 228.681 188.437C209.988 183.61 191.341 178.923 172.441 174.736C155.58 170.739 137.904 170.054 120.7 172.733C119.754 171.031 118.854 169.288 118 167.526ZM111.723 150.26C118.646 149.419 126.01 148.157 132.934 147.876C144.122 147.499 154.886 148.655 166.002 149.819C193.511 152.543 220.373 158.773 247.674 162.558C275.299 166.72 303.177 169.502 331.169 170.891C330.361 172.433 329.484 173.955 328.584 175.458C326.277 175.337 323.738 175.197 321.338 175.037C296.08 173.092 270.975 169.869 246.151 165.382C235.05 163.5 223.973 161.376 212.919 159.373C202.58 157.37 192.149 155.367 181.833 153.605C172.602 152.042 163.371 150.64 154.14 149.819C146.427 148.996 140.665 149.143 132.934 149.819C126.749 150.5 118.462 151.081 112.254 152.083L111.723 150.26ZM109.069 126.624C123.677 125.016 138.403 124.346 153.125 124.621C170.156 124.842 187.187 125.923 204.149 127.165C224.619 128.647 244.951 131.412 265.19 134.316C290.137 137.881 315.292 141.747 340.516 143.81C340.192 145.673 339.823 147.516 339.385 149.338C334.608 149.018 329.854 148.577 325.077 148.077C284.691 143.81 245.297 134.236 204.749 130.37C185.224 128.346 165.587 127.229 145.924 127.025C133.578 126.957 121.241 127.627 109 129.028V128.607C109 127.946 109 127.285 109 126.604L109.069 126.624ZM111.192 109.298C116.269 108.884 121.354 108.584 126.447 108.397C150.675 107.716 174.929 108.318 199.072 110.2C224.296 112.002 249.428 114.606 274.559 117.13C293.899 119.133 313.238 120.956 332.623 122.398L341.669 123.039C341.669 124.161 341.669 125.282 341.808 126.404L333.985 125.843C314.553 124.221 295.237 122.218 275.944 120.215C250.212 117.39 224.458 114.406 198.634 112.203C174.687 109.958 150.593 109.121 126.516 109.699C121.285 109.899 116.062 110.28 110.846 110.841C110.939 110.32 111.054 109.799 111.192 109.278V109.298ZM254.782 226.374C243.958 224.211 233.181 221.887 222.473 219.464C209.452 216.29 196.698 212.341 184.303 207.646C169.487 202.338 154.602 196.87 138.978 196.329C138.378 195.748 137.778 195.187 137.201 194.586C155.663 194.306 172.971 200.275 190.672 206.164C203.971 210.855 217.608 214.789 231.496 217.941C242.035 220.158 252.613 222.274 263.228 224.291C260.459 225.112 257.643 225.853 254.782 226.494V226.374Z" fill="#886759" fill-opacity="0.3"/>
</g>
</g>
</g>
<g id="Fill_3" filter="url(#filter25_ii_673_16587)">
<rect x="188" y="82" width="74" height="66" rx="9" fill="#614B45" fill-opacity="0.7"/>
</g>
</g>
<g id="Icon_21" filter="url(#filter26_d_673_16587)">
<path fill-rule="evenodd" clip-rule="evenodd" d="M230.768 105.667H220.231V101.762C220.231 98.4429 222.206 96.4417 225.5 96.4417C228.792 96.4417 230.768 98.4429 230.768 101.762V105.667ZM225.5 123.238C223.367 123.238 221.625 121.481 221.625 119.333C221.625 117.186 223.367 115.429 225.5 115.429C227.631 115.429 229.375 117.186 229.375 119.333C229.375 121.481 227.631 123.238 225.5 123.238ZM237.125 105.667H235.188V101.762C235.188 96.2952 230.925 92 225.5 92C220.074 92 215.812 96.2952 215.812 101.762V105.667H213.875C211.742 105.667 210 107.424 210 109.571V129.095C210 131.243 211.742 133 213.875 133H237.125C239.256 133 241 131.243 241 129.095V109.571C241 107.424 239.256 105.667 237.125 105.667Z" fill="#FDE294"/>
</g>
<g id="Level/Star/Group/0-3_5">
<g id="Level/Star/Unactive_14">
<g id="Icon_22" filter="url(#filter27_i_673_16587)">
<path d="M201.065 152.036C201.517 150.655 203.483 150.655 203.935 152.036L205.379 156.455C205.581 157.073 206.161 157.491 206.814 157.491H211.488C212.95 157.491 213.558 159.35 212.375 160.204L208.594 162.935C208.065 163.317 207.844 163.994 208.046 164.612L209.49 169.03C209.942 170.412 208.351 171.561 207.168 170.707L203.387 167.976C202.858 167.594 202.142 167.594 201.613 167.976L197.832 170.707C196.649 171.561 195.058 170.412 195.51 169.03L196.954 164.612C197.156 163.994 196.935 163.317 196.406 162.935L192.625 160.204C191.442 159.35 192.05 157.491 193.512 157.491H198.186C198.839 157.491 199.419 157.073 199.621 156.455L201.065 152.036Z" fill="#655550"/>
</g>
</g>
<g id="Level/Star/Unactive_15">
<g id="Icon_23" filter="url(#filter28_i_673_16587)">
<path d="M224.065 152.036C224.517 150.655 226.483 150.655 226.935 152.036L228.379 156.455C228.581 157.073 229.161 157.491 229.814 157.491H234.488C235.95 157.491 236.558 159.35 235.375 160.204L231.594 162.935C231.065 163.317 230.844 163.994 231.046 164.612L232.49 169.03C232.942 170.412 231.351 171.561 230.168 170.707L226.387 167.976C225.858 167.594 225.142 167.594 224.613 167.976L220.832 170.707C219.649 171.561 218.058 170.412 218.51 169.03L219.954 164.612C220.156 163.994 219.935 163.317 219.406 162.935L215.625 160.204C214.442 159.35 215.05 157.491 216.512 157.491H221.186C221.839 157.491 222.419 157.073 222.621 156.455L224.065 152.036Z" fill="#655550"/>
</g>
</g>
<g id="Level/Star/Unactive_16">
<g id="Icon_24" filter="url(#filter29_i_673_16587)">
<path d="M247.065 152.036C247.517 150.655 249.483 150.655 249.935 152.036L251.379 156.455C251.581 157.073 252.161 157.491 252.814 157.491H257.488C258.95 157.491 259.558 159.35 258.375 160.204L254.594 162.935C254.065 163.317 253.844 163.994 254.046 164.612L255.49 169.03C255.942 170.412 254.351 171.561 253.168 170.707L249.387 167.976C248.858 167.594 248.142 167.594 247.613 167.976L243.832 170.707C242.649 171.561 241.058 170.412 241.51 169.03L242.954 164.612C243.156 163.994 242.935 163.317 242.406 162.935L238.625 160.204C237.442 159.35 238.05 157.491 239.512 157.491H244.186C244.839 157.491 245.419 157.073 245.621 156.455L247.065 152.036Z" fill="#655550"/>
</g>
</g>
</g>
</g>
<g id="Hint">
<rect x="40" y="22" width="94" height="24" rx="4" fill="#FED70A"/>
<text id="Text" fill="#212121" xml:space="preserve" style="white-space: pre" font-family="Arial" font-size="14" letter-spacing="0em"><tspan x="48" y="38.8535">Level/Button</tspan></text>
</g>
<g id="Hint_2">
<rect x="331" y="22" width="80" height="24" rx="4" fill="#FED70A"/>
<text id="Text_2" fill="#212121" xml:space="preserve" style="white-space: pre" font-family="Arial" font-size="14" letter-spacing="0em"><tspan x="339" y="38.8535">Level/Star</tspan></text>
</g>
<rect x="0.5" y="0.5" width="437" height="449" stroke="#00FF19"/>
</g>
<defs>
<filter id="filter0_ii_673_16587" x="40" y="75" width="90" height="99" filterUnits="userSpaceOnUse" color-interpolation-filters="sRGB">
<feFlood flood-opacity="0" result="BackgroundImageFix"/>
<feBlend mode="normal" in="SourceGraphic" in2="BackgroundImageFix" result="shape"/>
<feColorMatrix in="SourceAlpha" type="matrix" values="0 0 0 0 0 0 0 0 0 0 0 0 0 0 0 0 0 0 127 0" result="hardAlpha"/>
<feOffset dx="3"/>
<feComposite in2="hardAlpha" operator="arithmetic" k2="-1" k3="1"/>
<feColorMatrix type="matrix" values="0 0 0 0 0.678431 0 0 0 0 0.576471 0 0 0 0 0.545098 0 0 0 1 0"/>
<feBlend mode="normal" in2="shape" result="effect1_innerShadow_673_16587"/>
<feColorMatrix in="SourceAlpha" type="matrix" values="0 0 0 0 0 0 0 0 0 0 0 0 0 0 0 0 0 0 127 0" result="hardAlpha"/>
<feOffset dx="-3"/>
<feComposite in2="hardAlpha" operator="arithmetic" k2="-1" k3="1"/>
<feColorMatrix type="matrix" values="0 0 0 0 0.678431 0 0 0 0 0.576471 0 0 0 0 0.545098 0 0 0 1 0"/>
<feBlend mode="normal" in2="effect1_innerShadow_673_16587" result="effect2_innerShadow_673_16587"/>
</filter>
<filter id="filter1_ii_673_16587" x="48" y="80" width="74" height="66" filterUnits="userSpaceOnUse" color-interpolation-filters="sRGB">
<feFlood flood-opacity="0" result="BackgroundImageFix"/>
<feBlend mode="normal" in="SourceGraphic" in2="BackgroundImageFix" result="shape"/>
<feColorMatrix in="SourceAlpha" type="matrix" values="0 0 0 0 0 0 0 0 0 0 0 0 0 0 0 0 0 0 127 0" result="hardAlpha"/>
<feOffset dy="5"/>
<feComposite in2="hardAlpha" operator="arithmetic" k2="-1" k3="1"/>
<feColorMatrix type="matrix" values="0 0 0 0 0.368627 0 0 0 0 0.27451 0 0 0 0 0.243137 0 0 0 1 0"/>
<feBlend mode="normal" in2="shape" result="effect1_innerShadow_673_16587"/>
<feColorMatrix in="SourceAlpha" type="matrix" values="0 0 0 0 0 0 0 0 0 0 0 0 0 0 0 0 0 0 127 0" result="hardAlpha"/>
<feOffset dy="-5"/>
<feComposite in2="hardAlpha" operator="arithmetic" k2="-1" k3="1"/>
<feColorMatrix type="matrix" values="0 0 0 0 0.364706 0 0 0 0 0.286275 0 0 0 0 0.258824 0 0 0 0.8 0"/>
<feBlend mode="normal" in2="effect1_innerShadow_673_16587" result="effect2_innerShadow_673_16587"/>
</filter>
<filter id="filter2_i_673_16587" x="331" y="90" width="21" height="21" filterUnits="userSpaceOnUse" color-interpolation-filters="sRGB">
<feFlood flood-opacity="0" result="BackgroundImageFix"/>
<feBlend mode="normal" in="SourceGraphic" in2="BackgroundImageFix" result="shape"/>
<feColorMatrix in="SourceAlpha" type="matrix" values="0 0 0 0 0 0 0 0 0 0 0 0 0 0 0 0 0 0 127 0" result="hardAlpha"/>
<feOffset dy="1"/>
<feGaussianBlur stdDeviation="0.5"/>
<feComposite in2="hardAlpha" operator="arithmetic" k2="-1" k3="1"/>
<feColorMatrix type="matrix" values="0 0 0 0 1 0 0 0 0 0.956863 0 0 0 0 0.827451 0 0 0 1 0"/>
<feBlend mode="normal" in2="shape" result="effect1_innerShadow_673_16587"/>
</filter>
<filter id="filter3_i_673_16587" x="331" y="150" width="21" height="21" filterUnits="userSpaceOnUse" color-interpolation-filters="sRGB">
<feFlood flood-opacity="0" result="BackgroundImageFix"/>
<feBlend mode="normal" in="SourceGraphic" in2="BackgroundImageFix" result="shape"/>
<feColorMatrix in="SourceAlpha" type="matrix" values="0 0 0 0 0 0 0 0 0 0 0 0 0 0 0 0 0 0 127 0" result="hardAlpha"/>
<feOffset dy="1"/>
<feGaussianBlur stdDeviation="1"/>
<feComposite in2="hardAlpha" operator="arithmetic" k2="-1" k3="1"/>
<feColorMatrix type="matrix" values="0 0 0 0 0 0 0 0 0 0 0 0 0 0 0 0 0 0 0.25 0"/>
<feBlend mode="normal" in2="shape" result="effect1_innerShadow_673_16587"/>
</filter>
<filter id="filter4_i_673_16587" x="331" y="210" width="21" height="21" filterUnits="userSpaceOnUse" color-interpolation-filters="sRGB">
<feFlood flood-opacity="0" result="BackgroundImageFix"/>
<feBlend mode="normal" in="SourceGraphic" in2="BackgroundImageFix" result="shape"/>
<feColorMatrix in="SourceAlpha" type="matrix" values="0 0 0 0 0 0 0 0 0 0 0 0 0 0 0 0 0 0 127 0" result="hardAlpha"/>
<feOffset dy="1"/>
<feGaussianBlur stdDeviation="1"/>
<feComposite in2="hardAlpha" operator="arithmetic" k2="-1" k3="1"/>
<feColorMatrix type="matrix" values="0 0 0 0 0 0 0 0 0 0 0 0 0 0 0 0 0 0 0.25 0"/>
<feBlend mode="normal" in2="shape" result="effect1_innerShadow_673_16587"/>
</filter>
<filter id="filter5_i_673_16587" x="354" y="210" width="21" height="21" filterUnits="userSpaceOnUse" color-interpolation-filters="sRGB">
<feFlood flood-opacity="0" result="BackgroundImageFix"/>
<feBlend mode="normal" in="SourceGraphic" in2="BackgroundImageFix" result="shape"/>
<feColorMatrix in="SourceAlpha" type="matrix" values="0 0 0 0 0 0 0 0 0 0 0 0 0 0 0 0 0 0 127 0" result="hardAlpha"/>
<feOffset dy="1"/>
<feGaussianBlur stdDeviation="1"/>
<feComposite in2="hardAlpha" operator="arithmetic" k2="-1" k3="1"/>
<feColorMatrix type="matrix" values="0 0 0 0 0 0 0 0 0 0 0 0 0 0 0 0 0 0 0.25 0"/>
<feBlend mode="normal" in2="shape" result="effect1_innerShadow_673_16587"/>
</filter>
<filter id="filter6_i_673_16587" x="377" y="210" width="21" height="21" filterUnits="userSpaceOnUse" color-interpolation-filters="sRGB">
<feFlood flood-opacity="0" result="BackgroundImageFix"/>
<feBlend mode="normal" in="SourceGraphic" in2="BackgroundImageFix" result="shape"/>
<feColorMatrix in="SourceAlpha" type="matrix" values="0 0 0 0 0 0 0 0 0 0 0 0 0 0 0 0 0 0 127 0" result="hardAlpha"/>
<feOffset dy="1"/>
<feGaussianBlur stdDeviation="1"/>
<feComposite in2="hardAlpha" operator="arithmetic" k2="-1" k3="1"/>
<feColorMatrix type="matrix" values="0 0 0 0 0 0 0 0 0 0 0 0 0 0 0 0 0 0 0.25 0"/>
<feBlend mode="normal" in2="shape" result="effect1_innerShadow_673_16587"/>
</filter>
<filter id="filter7_i_673_16587" x="331" y="270" width="21" height="21" filterUnits="userSpaceOnUse" color-interpolation-filters="sRGB">
<feFlood flood-opacity="0" result="BackgroundImageFix"/>
<feBlend mode="normal" in="SourceGraphic" in2="BackgroundImageFix" result="shape"/>
<feColorMatrix in="SourceAlpha" type="matrix" values="0 0 0 0 0 0 0 0 0 0 0 0 0 0 0 0 0 0 127 0" result="hardAlpha"/>
<feOffset dy="1"/>
<feGaussianBlur stdDeviation="0.5"/>
<feComposite in2="hardAlpha" operator="arithmetic" k2="-1" k3="1"/>
<feColorMatrix type="matrix" values="0 0 0 0 1 0 0 0 0 0.956863 0 0 0 0 0.827451 0 0 0 1 0"/>
<feBlend mode="normal" in2="shape" result="effect1_innerShadow_673_16587"/>
</filter>
<filter id="filter8_i_673_16587" x="354" y="270" width="21" height="21" filterUnits="userSpaceOnUse" color-interpolation-filters="sRGB">
<feFlood flood-opacity="0" result="BackgroundImageFix"/>
<feBlend mode="normal" in="SourceGraphic" in2="BackgroundImageFix" result="shape"/>
<feColorMatrix in="SourceAlpha" type="matrix" values="0 0 0 0 0 0 0 0 0 0 0 0 0 0 0 0 0 0 127 0" result="hardAlpha"/>
<feOffset dy="1"/>
<feGaussianBlur stdDeviation="0.5"/>
<feComposite in2="hardAlpha" operator="arithmetic" k2="-1" k3="1"/>
<feColorMatrix type="matrix" values="0 0 0 0 1 0 0 0 0 0.956863 0 0 0 0 0.827451 0 0 0 1 0"/>
<feBlend mode="normal" in2="shape" result="effect1_innerShadow_673_16587"/>
</filter>
<filter id="filter9_i_673_16587" x="377" y="270" width="21" height="21" filterUnits="userSpaceOnUse" color-interpolation-filters="sRGB">
<feFlood flood-opacity="0" result="BackgroundImageFix"/>
<feBlend mode="normal" in="SourceGraphic" in2="BackgroundImageFix" result="shape"/>
<feColorMatrix in="SourceAlpha" type="matrix" values="0 0 0 0 0 0 0 0 0 0 0 0 0 0 0 0 0 0 127 0" result="hardAlpha"/>
<feOffset dy="1"/>
<feGaussianBlur stdDeviation="0.5"/>
<feComposite in2="hardAlpha" operator="arithmetic" k2="-1" k3="1"/>
<feColorMatrix type="matrix" values="0 0 0 0 1 0 0 0 0 0.956863 0 0 0 0 0.827451 0 0 0 1 0"/>
<feBlend mode="normal" in2="shape" result="effect1_innerShadow_673_16587"/>
</filter>
<filter id="filter10_i_673_16587" x="331" y="330" width="21" height="21" filterUnits="userSpaceOnUse" color-interpolation-filters="sRGB">
<feFlood flood-opacity="0" result="BackgroundImageFix"/>
<feBlend mode="normal" in="SourceGraphic" in2="BackgroundImageFix" result="shape"/>
<feColorMatrix in="SourceAlpha" type="matrix" values="0 0 0 0 0 0 0 0 0 0 0 0 0 0 0 0 0 0 127 0" result="hardAlpha"/>
<feOffset dy="1"/>
<feGaussianBlur stdDeviation="1"/>
<feComposite in2="hardAlpha" operator="arithmetic" k2="-1" k3="1"/>
<feColorMatrix type="matrix" values="0 0 0 0 0 0 0 0 0 0 0 0 0 0 0 0 0 0 0.25 0"/>
<feBlend mode="normal" in2="shape" result="effect1_innerShadow_673_16587"/>
</filter>
<filter id="filter11_i_673_16587" x="354" y="330" width="21" height="21" filterUnits="userSpaceOnUse" color-interpolation-filters="sRGB">
<feFlood flood-opacity="0" result="BackgroundImageFix"/>
<feBlend mode="normal" in="SourceGraphic" in2="BackgroundImageFix" result="shape"/>
<feColorMatrix in="SourceAlpha" type="matrix" values="0 0 0 0 0 0 0 0 0 0 0 0 0 0 0 0 0 0 127 0" result="hardAlpha"/>
<feOffset dy="1"/>
<feGaussianBlur stdDeviation="1"/>
<feComposite in2="hardAlpha" operator="arithmetic" k2="-1" k3="1"/>
<feColorMatrix type="matrix" values="0 0 0 0 0 0 0 0 0 0 0 0 0 0 0 0 0 0 0.25 0"/>
<feBlend mode="normal" in2="shape" result="effect1_innerShadow_673_16587"/>
</filter>
<filter id="filter12_i_673_16587" x="377" y="330" width="21" height="21" filterUnits="userSpaceOnUse" color-interpolation-filters="sRGB">
<feFlood flood-opacity="0" result="BackgroundImageFix"/>
<feBlend mode="normal" in="SourceGraphic" in2="BackgroundImageFix" result="shape"/>
<feColorMatrix in="SourceAlpha" type="matrix" values="0 0 0 0 0 0 0 0 0 0 0 0 0 0 0 0 0 0 127 0" result="hardAlpha"/>
<feOffset dy="1"/>
<feGaussianBlur stdDeviation="1"/>
<feComposite in2="hardAlpha" operator="arithmetic" k2="-1" k3="1"/>
<feColorMatrix type="matrix" values="0 0 0 0 0 0 0 0 0 0 0 0 0 0 0 0 0 0 0.25 0"/>
<feBlend mode="normal" in2="shape" result="effect1_innerShadow_673_16587"/>
</filter>
<filter id="filter13_i_673_16587" x="331" y="330" width="21" height="21" filterUnits="userSpaceOnUse" color-interpolation-filters="sRGB">
<feFlood flood-opacity="0" result="BackgroundImageFix"/>
<feBlend mode="normal" in="SourceGraphic" in2="BackgroundImageFix" result="shape"/>
<feColorMatrix in="SourceAlpha" type="matrix" values="0 0 0 0 0 0 0 0 0 0 0 0 0 0 0 0 0 0 127 0" result="hardAlpha"/>
<feOffset dy="1"/>
<feGaussianBlur stdDeviation="0.5"/>
<feComposite in2="hardAlpha" operator="arithmetic" k2="-1" k3="1"/>
<feColorMatrix type="matrix" values="0 0 0 0 1 0 0 0 0 0.956863 0 0 0 0 0.827451 0 0 0 1 0"/>
<feBlend mode="normal" in2="shape" result="effect1_innerShadow_673_16587"/>
</filter>
<filter id="filter14_i_673_16587" x="354" y="330" width="21" height="21" filterUnits="userSpaceOnUse" color-interpolation-filters="sRGB">
<feFlood flood-opacity="0" result="BackgroundImageFix"/>
<feBlend mode="normal" in="SourceGraphic" in2="BackgroundImageFix" result="shape"/>
<feColorMatrix in="SourceAlpha" type="matrix" values="0 0 0 0 0 0 0 0 0 0 0 0 0 0 0 0 0 0 127 0" result="hardAlpha"/>
<feOffset dy="1"/>
<feGaussianBlur stdDeviation="0.5"/>
<feComposite in2="hardAlpha" operator="arithmetic" k2="-1" k3="1"/>
<feColorMatrix type="matrix" values="0 0 0 0 1 0 0 0 0 0.956863 0 0 0 0 0.827451 0 0 0 1 0"/>
<feBlend mode="normal" in2="shape" result="effect1_innerShadow_673_16587"/>
</filter>
<filter id="filter15_i_673_16587" x="331" y="390" width="21" height="21" filterUnits="userSpaceOnUse" color-interpolation-filters="sRGB">
<feFlood flood-opacity="0" result="BackgroundImageFix"/>
<feBlend mode="normal" in="SourceGraphic" in2="BackgroundImageFix" result="shape"/>
<feColorMatrix in="SourceAlpha" type="matrix" values="0 0 0 0 0 0 0 0 0 0 0 0 0 0 0 0 0 0 127 0" result="hardAlpha"/>
<feOffset dy="1"/>
<feGaussianBlur stdDeviation="1"/>
<feComposite in2="hardAlpha" operator="arithmetic" k2="-1" k3="1"/>
<feColorMatrix type="matrix" values="0 0 0 0 0 0 0 0 0 0 0 0 0 0 0 0 0 0 0.25 0"/>
<feBlend mode="normal" in2="shape" result="effect1_innerShadow_673_16587"/>
</filter>
<filter id="filter16_i_673_16587" x="354" y="390" width="21" height="21" filterUnits="userSpaceOnUse" color-interpolation-filters="sRGB">
<feFlood flood-opacity="0" result="BackgroundImageFix"/>
<feBlend mode="normal" in="SourceGraphic" in2="BackgroundImageFix" result="shape"/>
<feColorMatrix in="SourceAlpha" type="matrix" values="0 0 0 0 0 0 0 0 0 0 0 0 0 0 0 0 0 0 127 0" result="hardAlpha"/>
<feOffset dy="1"/>
<feGaussianBlur stdDeviation="1"/>
<feComposite in2="hardAlpha" operator="arithmetic" k2="-1" k3="1"/>
<feColorMatrix type="matrix" values="0 0 0 0 0 0 0 0 0 0 0 0 0 0 0 0 0 0 0.25 0"/>
<feBlend mode="normal" in2="shape" result="effect1_innerShadow_673_16587"/>
</filter>
<filter id="filter17_i_673_16587" x="377" y="390" width="21" height="21" filterUnits="userSpaceOnUse" color-interpolation-filters="sRGB">
<feFlood flood-opacity="0" result="BackgroundImageFix"/>
<feBlend mode="normal" in="SourceGraphic" in2="BackgroundImageFix" result="shape"/>
<feColorMatrix in="SourceAlpha" type="matrix" values="0 0 0 0 0 0 0 0 0 0 0 0 0 0 0 0 0 0 127 0" result="hardAlpha"/>
<feOffset dy="1"/>
<feGaussianBlur stdDeviation="1"/>
<feComposite in2="hardAlpha" operator="arithmetic" k2="-1" k3="1"/>
<feColorMatrix type="matrix" values="0 0 0 0 0 0 0 0 0 0 0 0 0 0 0 0 0 0 0.25 0"/>
<feBlend mode="normal" in2="shape" result="effect1_innerShadow_673_16587"/>
</filter>
<filter id="filter18_i_673_16587" x="331" y="390" width="21" height="21" filterUnits="userSpaceOnUse" color-interpolation-filters="sRGB">
<feFlood flood-opacity="0" result="BackgroundImageFix"/>
<feBlend mode="normal" in="SourceGraphic" in2="BackgroundImageFix" result="shape"/>
<feColorMatrix in="SourceAlpha" type="matrix" values="0 0 0 0 0 0 0 0 0 0 0 0 0 0 0 0 0 0 127 0" result="hardAlpha"/>
<feOffset dy="1"/>
<feGaussianBlur stdDeviation="0.5"/>
<feComposite in2="hardAlpha" operator="arithmetic" k2="-1" k3="1"/>
<feColorMatrix type="matrix" values="0 0 0 0 1 0 0 0 0 0.956863 0 0 0 0 0.827451 0 0 0 1 0"/>
<feBlend mode="normal" in2="shape" result="effect1_innerShadow_673_16587"/>
</filter>
<filter id="filter19_ii_673_16587" x="40" y="210" width="90" height="99" filterUnits="userSpaceOnUse" color-interpolation-filters="sRGB">
<feFlood flood-opacity="0" result="BackgroundImageFix"/>
<feBlend mode="normal" in="SourceGraphic" in2="BackgroundImageFix" result="shape"/>
<feColorMatrix in="SourceAlpha" type="matrix" values="0 0 0 0 0 0 0 0 0 0 0 0 0 0 0 0 0 0 127 0" result="hardAlpha"/>
<feOffset dx="3"/>
<feComposite in2="hardAlpha" operator="arithmetic" k2="-1" k3="1"/>
<feColorMatrix type="matrix" values="0 0 0 0 0.678431 0 0 0 0 0.576471 0 0 0 0 0.545098 0 0 0 1 0"/>
<feBlend mode="normal" in2="shape" result="effect1_innerShadow_673_16587"/>
<feColorMatrix in="SourceAlpha" type="matrix" values="0 0 0 0 0 0 0 0 0 0 0 0 0 0 0 0 0 0 127 0" result="hardAlpha"/>
<feOffset dx="-3"/>
<feComposite in2="hardAlpha" operator="arithmetic" k2="-1" k3="1"/>
<feColorMatrix type="matrix" values="0 0 0 0 0.678431 0 0 0 0 0.576471 0 0 0 0 0.545098 0 0 0 1 0"/>
<feBlend mode="normal" in2="effect1_innerShadow_673_16587" result="effect2_innerShadow_673_16587"/>
</filter>
<filter id="filter20_ii_673_16587" x="48" y="215" width="74" height="66" filterUnits="userSpaceOnUse" color-interpolation-filters="sRGB">
<feFlood flood-opacity="0" result="BackgroundImageFix"/>
<feBlend mode="normal" in="SourceGraphic" in2="BackgroundImageFix" result="shape"/>
<feColorMatrix in="SourceAlpha" type="matrix" values="0 0 0 0 0 0 0 0 0 0 0 0 0 0 0 0 0 0 127 0" result="hardAlpha"/>
<feOffset dy="5"/>
<feComposite in2="hardAlpha" operator="arithmetic" k2="-1" k3="1"/>
<feColorMatrix type="matrix" values="0 0 0 0 0.368627 0 0 0 0 0.27451 0 0 0 0 0.243137 0 0 0 1 0"/>
<feBlend mode="normal" in2="shape" result="effect1_innerShadow_673_16587"/>
<feColorMatrix in="SourceAlpha" type="matrix" values="0 0 0 0 0 0 0 0 0 0 0 0 0 0 0 0 0 0 127 0" result="hardAlpha"/>
<feOffset dy="-5"/>
<feComposite in2="hardAlpha" operator="arithmetic" k2="-1" k3="1"/>
<feColorMatrix type="matrix" values="0 0 0 0 0.364706 0 0 0 0 0.286275 0 0 0 0 0.258824 0 0 0 0.8 0"/>
<feBlend mode="normal" in2="effect1_innerShadow_673_16587" result="effect2_innerShadow_673_16587"/>
</filter>
<filter id="filter21_i_673_16587" x="52" y="284" width="21" height="21" filterUnits="userSpaceOnUse" color-interpolation-filters="sRGB">
<feFlood flood-opacity="0" result="BackgroundImageFix"/>
<feBlend mode="normal" in="SourceGraphic" in2="BackgroundImageFix" result="shape"/>
<feColorMatrix in="SourceAlpha" type="matrix" values="0 0 0 0 0 0 0 0 0 0 0 0 0 0 0 0 0 0 127 0" result="hardAlpha"/>
<feOffset dy="1"/>
<feGaussianBlur stdDeviation="1"/>
<feComposite in2="hardAlpha" operator="arithmetic" k2="-1" k3="1"/>
<feColorMatrix type="matrix" values="0 0 0 0 0 0 0 0 0 0 0 0 0 0 0 0 0 0 0.25 0"/>
<feBlend mode="normal" in2="shape" result="effect1_innerShadow_673_16587"/>
</filter>
<filter id="filter22_i_673_16587" x="75" y="284" width="21" height="21" filterUnits="userSpaceOnUse" color-interpolation-filters="sRGB">
<feFlood flood-opacity="0" result="BackgroundImageFix"/>
<feBlend mode="normal" in="SourceGraphic" in2="BackgroundImageFix" result="shape"/>
<feColorMatrix in="SourceAlpha" type="matrix" values="0 0 0 0 0 0 0 0 0 0 0 0 0 0 0 0 0 0 127 0" result="hardAlpha"/>
<feOffset dy="1"/>
<feGaussianBlur stdDeviation="1"/>
<feComposite in2="hardAlpha" operator="arithmetic" k2="-1" k3="1"/>
<feColorMatrix type="matrix" values="0 0 0 0 0 0 0 0 0 0 0 0 0 0 0 0 0 0 0.25 0"/>
<feBlend mode="normal" in2="shape" result="effect1_innerShadow_673_16587"/>
</filter>
<filter id="filter23_i_673_16587" x="98" y="284" width="21" height="21" filterUnits="userSpaceOnUse" color-interpolation-filters="sRGB">
<feFlood flood-opacity="0" result="BackgroundImageFix"/>
<feBlend mode="normal" in="SourceGraphic" in2="BackgroundImageFix" result="shape"/>
<feColorMatrix in="SourceAlpha" type="matrix" values="0 0 0 0 0 0 0 0 0 0 0 0 0 0 0 0 0 0 127 0" result="hardAlpha"/>
<feOffset dy="1"/>
<feGaussianBlur stdDeviation="1"/>
<feComposite in2="hardAlpha" operator="arithmetic" k2="-1" k3="1"/>
<feColorMatrix type="matrix" values="0 0 0 0 0 0 0 0 0 0 0 0 0 0 0 0 0 0 0.25 0"/>
<feBlend mode="normal" in2="shape" result="effect1_innerShadow_673_16587"/>
</filter>
<filter id="filter24_ii_673_16587" x="180" y="77" width="90" height="99" filterUnits="userSpaceOnUse" color-interpolation-filters="sRGB">
<feFlood flood-opacity="0" result="BackgroundImageFix"/>
<feBlend mode="normal" in="SourceGraphic" in2="BackgroundImageFix" result="shape"/>
<feColorMatrix in="SourceAlpha" type="matrix" values="0 0 0 0 0 0 0 0 0 0 0 0 0 0 0 0 0 0 127 0" result="hardAlpha"/>
<feOffset dx="3"/>
<feComposite in2="hardAlpha" operator="arithmetic" k2="-1" k3="1"/>
<feColorMatrix type="matrix" values="0 0 0 0 0.678431 0 0 0 0 0.576471 0 0 0 0 0.545098 0 0 0 1 0"/>
<feBlend mode="normal" in2="shape" result="effect1_innerShadow_673_16587"/>
<feColorMatrix in="SourceAlpha" type="matrix" values="0 0 0 0 0 0 0 0 0 0 0 0 0 0 0 0 0 0 127 0" result="hardAlpha"/>
<feOffset dx="-3"/>
<feComposite in2="hardAlpha" operator="arithmetic" k2="-1" k3="1"/>
<feColorMatrix type="matrix" values="0 0 0 0 0.678431 0 0 0 0 0.576471 0 0 0 0 0.545098 0 0 0 1 0"/>
<feBlend mode="normal" in2="effect1_innerShadow_673_16587" result="effect2_innerShadow_673_16587"/>
</filter>
<filter id="filter25_ii_673_16587" x="188" y="82" width="74" height="66" filterUnits="userSpaceOnUse" color-interpolation-filters="sRGB">
<feFlood flood-opacity="0" result="BackgroundImageFix"/>
<feBlend mode="normal" in="SourceGraphic" in2="BackgroundImageFix" result="shape"/>
<feColorMatrix in="SourceAlpha" type="matrix" values="0 0 0 0 0 0 0 0 0 0 0 0 0 0 0 0 0 0 127 0" result="hardAlpha"/>
<feOffset dy="5"/>
<feComposite in2="hardAlpha" operator="arithmetic" k2="-1" k3="1"/>
<feColorMatrix type="matrix" values="0 0 0 0 0.368627 0 0 0 0 0.27451 0 0 0 0 0.243137 0 0 0 1 0"/>
<feBlend mode="normal" in2="shape" result="effect1_innerShadow_673_16587"/>
<feColorMatrix in="SourceAlpha" type="matrix" values="0 0 0 0 0 0 0 0 0 0 0 0 0 0 0 0 0 0 127 0" result="hardAlpha"/>
<feOffset dy="-5"/>
<feComposite in2="hardAlpha" operator="arithmetic" k2="-1" k3="1"/>
<feColorMatrix type="matrix" values="0 0 0 0 0.364706 0 0 0 0 0.286275 0 0 0 0 0.258824 0 0 0 0.8 0"/>
<feBlend mode="normal" in2="effect1_innerShadow_673_16587" result="effect2_innerShadow_673_16587"/>
</filter>
<filter id="filter26_d_673_16587" x="210" y="92" width="31" height="44" filterUnits="userSpaceOnUse" color-interpolation-filters="sRGB">
<feFlood flood-opacity="0" result="BackgroundImageFix"/>
<feColorMatrix in="SourceAlpha" type="matrix" values="0 0 0 0 0 0 0 0 0 0 0 0 0 0 0 0 0 0 127 0" result="hardAlpha"/>
<feOffset dy="3"/>
<feComposite in2="hardAlpha" operator="out"/>
<feColorMatrix type="matrix" values="0 0 0 0 0.334167 0 0 0 0 0.254311 0 0 0 0 0.22974 0 0 0 0.5 0"/>
<feBlend mode="normal" in2="BackgroundImageFix" result="effect1_dropShadow_673_16587"/>
<feBlend mode="normal" in="SourceGraphic" in2="effect1_dropShadow_673_16587" result="shape"/>
</filter>
<filter id="filter27_i_673_16587" x="192" y="151" width="21" height="21" filterUnits="userSpaceOnUse" color-interpolation-filters="sRGB">
<feFlood flood-opacity="0" result="BackgroundImageFix"/>
<feBlend mode="normal" in="SourceGraphic" in2="BackgroundImageFix" result="shape"/>
<feColorMatrix in="SourceAlpha" type="matrix" values="0 0 0 0 0 0 0 0 0 0 0 0 0 0 0 0 0 0 127 0" result="hardAlpha"/>
<feOffset dy="1"/>
<feGaussianBlur stdDeviation="1"/>
<feComposite in2="hardAlpha" operator="arithmetic" k2="-1" k3="1"/>
<feColorMatrix type="matrix" values="0 0 0 0 0 0 0 0 0 0 0 0 0 0 0 0 0 0 0.25 0"/>
<feBlend mode="normal" in2="shape" result="effect1_innerShadow_673_16587"/>
</filter>
<filter id="filter28_i_673_16587" x="215" y="151" width="21" height="21" filterUnits="userSpaceOnUse" color-interpolation-filters="sRGB">
<feFlood flood-opacity="0" result="BackgroundImageFix"/>
<feBlend mode="normal" in="SourceGraphic" in2="BackgroundImageFix" result="shape"/>
<feColorMatrix in="SourceAlpha" type="matrix" values="0 0 0 0 0 0 0 0 0 0 0 0 0 0 0 0 0 0 127 0" result="hardAlpha"/>
<feOffset dy="1"/>
<feGaussianBlur stdDeviation="1"/>
<feComposite in2="hardAlpha" operator="arithmetic" k2="-1" k3="1"/>
<feColorMatrix type="matrix" values="0 0 0 0 0 0 0 0 0 0 0 0 0 0 0 0 0 0 0.25 0"/>
<feBlend mode="normal" in2="shape" result="effect1_innerShadow_673_16587"/>
</filter>
<filter id="filter29_i_673_16587" x="238" y="151" width="21" height="21" filterUnits="userSpaceOnUse" color-interpolation-filters="sRGB">
<feFlood flood-opacity="0" result="BackgroundImageFix"/>
<feBlend mode="normal" in="SourceGraphic" in2="BackgroundImageFix" result="shape"/>
<feColorMatrix in="SourceAlpha" type="matrix" values="0 0 0 0 0 0 0 0 0 0 0 0 0 0 0 0 0 0 127 0" result="hardAlpha"/>
<feOffset dy="1"/>
<feGaussianBlur stdDeviation="1"/>
<feComposite in2="hardAlpha" operator="arithmetic" k2="-1" k3="1"/>
<feColorMatrix type="matrix" values="0 0 0 0 0 0 0 0 0 0 0 0 0 0 0 0 0 0 0.25 0"/>
<feBlend mode="normal" in2="shape" result="effect1_innerShadow_673_16587"/>
</filter>
</defs>
</svg>
