<svg width="172" height="358" viewBox="0 0 172 358" fill="none" xmlns="http://www.w3.org/2000/svg">
<g id="@Stars">
<rect x="0.5" y="0.5" width="171" height="357" fill="white"/>
<g id="Hint">
<rect x="40" y="40" width="42" height="24" rx="4" fill="#FED70A"/>
<text id="Text" fill="#212121" xml:space="preserve" style="white-space: pre" font-family="Arial" font-size="14" letter-spacing="0em"><tspan x="48" y="56.8535">Star</tspan></text>
</g>
<g id="Star/Unactive">
<path id="Stroke" fill-rule="evenodd" clip-rule="evenodd" d="M130.836 138.096C130.941 138.903 130.713 139.718 130.205 140.354L114.289 160.283C113.986 160.663 113.782 161.107 113.69 161.577L114.354 184.611C114.356 184.682 114.354 184.752 114.349 184.82L114.408 186.665C114.474 188.76 112.424 190.276 110.44 189.598L86.9505 181.578C86.3336 181.368 85.6649 181.364 85.0456 181.567L61.5267 189.286C59.5482 189.936 57.526 188.421 57.5927 186.34L57.6455 184.693C57.6452 184.666 57.6454 184.639 57.6462 184.611L58.3103 161.579C58.2182 161.108 58.0138 160.663 57.7103 160.282L41.7945 140.354C41.2867 139.718 41.059 138.903 41.1636 138.096L41.2424 137.488C41.2798 137.199 41.3579 136.923 41.4712 136.666C41.5605 135.899 42.0886 135.196 42.9244 134.965L68.2592 127.937C68.4031 127.897 68.5412 127.841 68.671 127.772C68.7588 127.687 68.8417 127.596 68.919 127.501L70.6806 125.323L84.3757 106.261C85.1737 105.15 86.8262 105.15 87.6242 106.261L102.651 127.177C102.917 127.547 103.301 127.815 103.741 127.937L129.076 134.965C129.915 135.198 130.444 135.906 130.53 136.677C130.643 136.935 130.722 137.211 130.759 137.5L130.836 138.096ZM131.502 136.411C131.623 136.715 131.707 137.037 131.751 137.371L131.828 137.968C131.967 139.044 131.664 140.13 130.987 140.978L115.071 160.907C114.89 161.133 114.762 161.395 114.693 161.672L115.353 184.582C115.356 184.667 115.355 184.752 115.35 184.836L115.407 186.633C115.495 189.428 112.763 191.448 110.117 190.545L86.6274 182.525C86.2161 182.384 85.7703 182.382 85.3574 182.517L61.8386 190.236C59.2005 191.102 56.5043 189.083 56.5932 186.308L56.6454 184.68C56.6453 184.648 56.6457 184.615 56.6466 184.582L57.3072 161.673C57.2382 161.395 57.11 161.133 56.9289 160.907L41.0131 140.978C40.3361 140.13 40.0324 139.044 40.1719 137.968L40.2507 137.359C40.294 137.025 40.3786 136.702 40.4997 136.397C40.6825 135.316 41.4571 134.334 42.6571 134.001L67.9919 126.973C68.0218 126.965 68.0512 126.955 68.0799 126.944C68.101 126.921 68.1215 126.897 68.1416 126.872L69.8852 124.716L83.5635 105.677C84.7606 104.011 87.2393 104.011 88.4363 105.677L103.463 126.593C103.596 126.778 103.788 126.912 104.008 126.973L129.343 134.001C130.548 134.335 131.324 135.324 131.502 136.411Z" fill="#725952"/>
<g id="Group">
<path id="Vector" d="M83.6278 109.317C84.8413 107.817 87.1349 107.836 88.3235 109.356L102.481 127.462C102.884 127.978 103.445 128.347 104.078 128.514L128.551 134.985C129.73 135.296 130.602 136.29 130.759 137.5L130.836 138.096C130.941 138.903 130.713 139.718 130.205 140.354L114.289 160.283C113.844 160.84 113.612 161.537 113.635 162.25L114.408 186.665C114.474 188.761 112.424 190.276 110.44 189.598L86.9506 181.578C86.3337 181.368 85.665 181.364 85.0456 181.567L61.5268 189.286C59.5482 189.936 57.5261 188.421 57.5928 186.34L58.3646 162.251C58.3875 161.538 58.1555 160.84 57.7103 160.283L41.7946 140.354C41.2868 139.718 41.0591 138.903 41.1636 138.096L41.2424 137.488C41.3983 136.285 42.2637 135.294 43.435 134.977L67.3692 128.51C67.9792 128.345 68.5217 127.992 68.9191 127.501L83.6278 109.317Z" fill="url(#paint0_linear_673_16584)"/>
<path id="Vector_2" d="M84.3757 106.261C85.1737 105.15 86.8263 105.15 87.6243 106.261L102.651 127.177C102.917 127.547 103.301 127.815 103.741 127.937L129.076 134.965C130.46 135.349 131 137.023 130.101 138.143L114.067 158.134C113.77 158.504 113.614 158.968 113.628 159.443L114.354 184.611C114.394 186.005 113.032 187.011 111.712 186.563L86.6425 178.059C86.2258 177.918 85.7742 177.918 85.3575 178.059L60.2879 186.563C58.9679 187.011 57.6061 186.005 57.6463 184.611L58.3719 159.443C58.3856 158.968 58.23 158.504 57.9329 158.134L41.8989 138.143C41.0002 137.023 41.5404 135.349 42.9244 134.965L68.2593 127.937C68.6986 127.815 69.083 127.547 69.349 127.177L84.3757 106.261Z" fill="#96786F"/>
<path id="Vector_3" d="M84.4766 119.046C85.2668 118.069 86.7521 118.054 87.5617 119.015L98.397 131.881C98.6458 132.176 98.9748 132.393 99.3443 132.506L112.067 136.38L118.807 138.134C120.205 138.499 120.768 140.181 119.869 141.313L107.928 156.356C107.634 156.727 107.48 157.189 107.495 157.662L108.031 175.03C108.073 176.408 106.742 177.414 105.427 176.998L86.6049 171.03C86.2116 170.906 85.7893 170.906 85.396 171.03L66.5736 176.998C65.2593 177.414 63.9276 176.408 63.9701 175.03L64.5055 157.673C64.5203 157.194 64.3623 156.725 64.0603 156.352L52.096 141.588C51.2015 140.485 51.7107 138.826 53.0704 138.415L61.4671 135.874L73.1289 132.508C73.5226 132.394 73.8719 132.163 74.1296 131.844L84.4766 119.046Z" fill="#7A615A"/>
<path id="Vector_4" d="M84.3713 116.411C85.1688 115.292 86.831 115.292 87.6286 116.411L98.4356 131.573C98.6934 131.935 99.0641 132.2 99.4894 132.328L116.606 137.464C118.037 137.893 118.509 139.682 117.477 140.762L106.245 152.507C105.876 152.893 105.676 153.411 105.692 153.946L106.177 170.921C106.216 172.316 104.85 173.322 103.53 172.87L86.6478 167.09C86.2278 166.947 85.772 166.947 85.3521 167.09L68.4703 172.87C67.1495 173.322 65.7835 172.316 65.8233 170.921L66.3082 153.946C66.3235 153.411 66.1241 152.893 65.7545 152.507L54.523 140.762C53.4907 139.682 53.963 137.893 55.3936 137.464L72.5104 132.328C72.9358 132.2 73.3065 131.935 73.5642 131.573L84.3713 116.411Z" fill="#5D4842"/>
<g id="Vector_5" filter="url(#filter0_i_673_16584)">
<path d="M85.2059 120.222C85.6062 119.699 86.3942 119.699 86.7944 120.222L97.7719 134.571C97.9155 134.759 98.1208 134.89 98.3516 134.94L117.122 139.064C117.85 139.224 118.154 140.096 117.682 140.674L105.952 155.034C105.799 155.221 105.719 155.457 105.727 155.699L106.263 172.408C106.285 173.093 105.627 173.597 104.972 173.397L86.2922 167.699C86.1021 167.641 85.8989 167.641 85.7087 167.699L67.0292 173.397C66.3738 173.597 65.716 173.093 65.738 172.408L66.2738 155.699C66.2815 155.457 66.2016 155.221 66.0487 155.034L54.3184 140.674C53.8468 140.096 54.1501 139.224 54.8783 139.064L73.6488 134.94C73.8795 134.89 74.0849 134.759 74.2284 134.571L85.2059 120.222Z" fill="#655550"/>
</g>
</g>
</g>
<g id="Star/Active">
<path id="Stroke_2" fill-rule="evenodd" clip-rule="evenodd" d="M130.836 265.096C130.941 265.903 130.713 266.718 130.205 267.354L114.289 287.283C113.986 287.663 113.782 288.107 113.69 288.577L114.354 311.611C114.356 311.682 114.354 311.752 114.349 311.82L114.408 313.665C114.474 315.76 112.424 317.276 110.44 316.598L86.9505 308.578C86.3336 308.368 85.6649 308.364 85.0456 308.567L61.5267 316.286C59.5482 316.936 57.526 315.421 57.5927 313.34L57.6455 311.693C57.6452 311.666 57.6454 311.639 57.6462 311.611L58.3103 288.579C58.2182 288.108 58.0138 287.663 57.7103 287.282L41.7945 267.354C41.2867 266.718 41.059 265.903 41.1636 265.096L41.2424 264.488C41.2798 264.199 41.3579 263.923 41.4712 263.666C41.5605 262.899 42.0886 262.196 42.9244 261.965L68.2592 254.937C68.4031 254.897 68.5412 254.841 68.671 254.772C68.7588 254.687 68.8417 254.596 68.919 254.501L70.6806 252.323L84.3757 233.261C85.1737 232.15 86.8262 232.15 87.6242 233.261L102.651 254.177C102.917 254.547 103.301 254.815 103.741 254.937L129.076 261.965C129.915 262.198 130.444 262.906 130.53 263.677C130.643 263.935 130.722 264.211 130.759 264.5L130.836 265.096ZM131.502 263.411C131.623 263.715 131.707 264.037 131.751 264.371L131.828 264.968C131.967 266.044 131.664 267.13 130.987 267.978L115.071 287.907C114.89 288.133 114.762 288.395 114.693 288.672L115.353 311.582C115.356 311.667 115.355 311.752 115.35 311.836L115.407 313.633C115.495 316.428 112.763 318.448 110.117 317.545L86.6274 309.525C86.2161 309.384 85.7703 309.382 85.3574 309.517L61.8386 317.236C59.2005 318.102 56.5043 316.083 56.5932 313.308L56.6454 311.68C56.6453 311.648 56.6457 311.615 56.6466 311.582L57.3072 288.673C57.2382 288.395 57.11 288.133 56.9289 287.907L41.0131 267.978C40.3361 267.13 40.0324 266.044 40.1719 264.968L40.2507 264.359C40.294 264.025 40.3786 263.702 40.4997 263.397C40.6825 262.316 41.4571 261.334 42.6571 261.001L67.9919 253.973C68.0218 253.965 68.0512 253.955 68.0799 253.944C68.101 253.921 68.1215 253.897 68.1416 253.872L69.8852 251.716L83.5635 232.677C84.7606 231.011 87.2393 231.011 88.4363 232.677L103.463 253.593C103.596 253.778 103.788 253.912 104.008 253.973L129.343 261.001C130.548 261.335 131.324 262.324 131.502 263.411Z" fill="#725952"/>
<g id="Group_2">
<path id="Vector_6" d="M83.6278 236.317C84.8413 234.817 87.1349 234.836 88.3235 236.356L102.481 254.462C102.884 254.978 103.445 255.347 104.078 255.514L128.551 261.985C129.73 262.296 130.602 263.29 130.759 264.5L130.836 265.096C130.941 265.903 130.713 266.718 130.205 267.354L114.289 287.283C113.844 287.84 113.612 288.537 113.635 289.25L114.408 313.665C114.474 315.761 112.424 317.276 110.44 316.598L86.9506 308.578C86.3337 308.368 85.665 308.364 85.0456 308.567L61.5268 316.286C59.5482 316.936 57.5261 315.421 57.5928 313.34L58.3646 289.251C58.3875 288.538 58.1555 287.84 57.7103 287.283L41.7946 267.354C41.2868 266.718 41.0591 265.903 41.1636 265.096L41.2424 264.488C41.3983 263.285 42.2637 262.294 43.435 261.977L67.3692 255.51C67.9792 255.345 68.5217 254.992 68.9191 254.501L83.6278 236.317Z" fill="url(#paint1_linear_673_16584)"/>
<path id="Vector_7" d="M84.3757 233.261C85.1737 232.15 86.8263 232.15 87.6243 233.261L102.651 254.177C102.917 254.547 103.301 254.815 103.741 254.937L129.076 261.965C130.46 262.349 131 264.023 130.101 265.143L114.067 285.134C113.77 285.504 113.614 285.968 113.628 286.443L114.354 311.611C114.394 313.005 113.032 314.011 111.712 313.563L86.6425 305.059C86.2258 304.918 85.7742 304.918 85.3575 305.059L60.2879 313.563C58.9679 314.011 57.6061 313.005 57.6463 311.611L58.3719 286.443C58.3856 285.968 58.23 285.504 57.9329 285.134L41.8989 265.143C41.0002 264.023 41.5404 262.349 42.9244 261.965L68.2593 254.937C68.6986 254.815 69.083 254.547 69.349 254.177L84.3757 233.261Z" fill="#96786F"/>
<path id="Vector_8" d="M84.4766 246.046C85.2668 245.069 86.7521 245.054 87.5617 246.015L98.397 258.881C98.6458 259.176 98.9748 259.393 99.3443 259.506L112.067 263.38L118.807 265.134C120.205 265.499 120.768 267.181 119.869 268.313L107.928 283.356C107.634 283.727 107.48 284.189 107.495 284.662L108.031 302.03C108.073 303.408 106.742 304.414 105.427 303.998L86.6049 298.03C86.2116 297.906 85.7893 297.906 85.396 298.03L66.5736 303.998C65.2593 304.414 63.9276 303.408 63.9701 302.03L64.5055 284.673C64.5203 284.194 64.3623 283.725 64.0603 283.352L52.096 268.588C51.2015 267.485 51.7107 265.826 53.0704 265.415L61.4671 262.874L73.1289 259.508C73.5226 259.394 73.8719 259.163 74.1296 258.844L84.4766 246.046Z" fill="#7A615A"/>
<path id="Vector_9" d="M84.3713 243.411C85.1688 242.292 86.831 242.292 87.6286 243.411L98.4356 258.573C98.6934 258.935 99.0641 259.2 99.4894 259.328L116.606 264.464C118.037 264.893 118.509 266.682 117.477 267.762L106.245 279.507C105.876 279.893 105.676 280.411 105.692 280.946L106.177 297.921C106.216 299.316 104.85 300.322 103.53 299.87L86.6478 294.09C86.2278 293.947 85.772 293.947 85.3521 294.09L68.4703 299.87C67.1495 300.322 65.7835 299.316 65.8233 297.921L66.3082 280.946C66.3235 280.411 66.1241 279.893 65.7545 279.507L54.523 267.762C53.4907 266.682 53.963 264.893 55.3936 264.464L72.5104 259.328C72.9358 259.2 73.3065 258.935 73.5642 258.573L84.3713 243.411Z" fill="#FFF4D3"/>
<path id="Vector_10" d="M85.2059 247.222C85.6062 246.699 86.3942 246.699 86.7944 247.222L97.7719 261.571C97.9155 261.759 98.1208 261.89 98.3516 261.94L117.122 266.064C117.85 266.224 118.154 267.096 117.682 267.674L105.952 282.034C105.799 282.221 105.719 282.457 105.727 282.699L106.263 299.408C106.285 300.093 105.627 300.597 104.972 300.397L86.2922 294.699C86.1021 294.641 85.8989 294.641 85.7087 294.699L67.0292 300.397C66.3738 300.597 65.716 300.093 65.738 299.408L66.2738 282.699C66.2815 282.457 66.2016 282.221 66.0487 282.034L54.3184 267.674C53.8468 267.096 54.1501 266.224 54.8783 266.064L73.6488 261.94C73.8795 261.89 74.0849 261.759 74.2284 261.571L85.2059 247.222Z" fill="#FDE294"/>
</g>
</g>
<rect x="0.5" y="0.5" width="171" height="357" stroke="#00FF19"/>
</g>
<defs>
<filter id="filter0_i_673_16584" x="54.0923" y="119.83" width="63.8159" height="54.6113" filterUnits="userSpaceOnUse" color-interpolation-filters="sRGB">
<feFlood flood-opacity="0" result="BackgroundImageFix"/>
<feBlend mode="normal" in="SourceGraphic" in2="BackgroundImageFix" result="shape"/>
<feColorMatrix in="SourceAlpha" type="matrix" values="0 0 0 0 0 0 0 0 0 0 0 0 0 0 0 0 0 0 127 0" result="hardAlpha"/>
<feOffset dy="1"/>
<feGaussianBlur stdDeviation="1"/>
<feComposite in2="hardAlpha" operator="arithmetic" k2="-1" k3="1"/>
<feColorMatrix type="matrix" values="0 0 0 0 0 0 0 0 0 0 0 0 0 0 0 0 0 0 0.25 0"/>
<feBlend mode="normal" in2="shape" result="effect1_innerShadow_673_16584"/>
</filter>
<linearGradient id="paint0_linear_673_16584" x1="86" y1="106.385" x2="86" y2="191" gradientUnits="userSpaceOnUse">
<stop offset="0.526042" stop-color="#7B625B"/>
<stop offset="1" stop-color="#5F443C"/>
</linearGradient>
<linearGradient id="paint1_linear_673_16584" x1="86" y1="233.385" x2="86" y2="318" gradientUnits="userSpaceOnUse">
<stop offset="0.526042" stop-color="#7B625B"/>
<stop offset="1" stop-color="#5F443C"/>
</linearGradient>
</defs>
</svg>
